<?xml version="1.0" encoding="UTF-8"?>
<svg version="1.1" xmlns="http://www.w3.org/2000/svg" width="512" height="512">
<path d="M0 0 C0.93029526 -0.00807175 1.86059052 -0.01614349 2.81907654 -0.02445984 C4.77641983 -0.0382258 6.73378637 -0.04898106 8.69116211 -0.05688477 C10.68797871 -0.06845154 12.68476329 -0.0889766 14.68139648 -0.1184082 C17.57947613 -0.16106557 20.47664554 -0.17724526 23.375 -0.1875 C24.70646812 -0.21376213 24.70646812 -0.21376213 26.06483459 -0.24055481 C32.62968907 -0.21763181 36.22441144 1.3588206 40.96899414 6.07519531 C42.56664363 9.07480846 42.52658795 11.45806112 42.5546875 14.84765625 C42.56628906 16.15210693 42.57789063 17.45655762 42.58984375 18.80053711 C42.58195702 20.19646841 42.57149313 21.59238727 42.55859375 22.98828125 C42.5548877 23.69179718 42.55118164 24.39531311 42.54736328 25.12014771 C42.4072108 43.69858064 38.34771556 60.43784341 27.18359375 75.67578125 C23.56114484 78.70680993 21.87682935 78.66836267 17.35546875 78.8125 C13.75969476 79.49770868 12.08830522 81.80014694 9.75390625 84.4765625 C8.12109375 86.23828125 8.12109375 86.23828125 4.80859375 88.23828125 C1.77413862 90.05558894 1.77413862 90.05558894 1.24609375 93.73828125 C0.12109375 97.23828125 0.12109375 97.23828125 -3.06640625 99.42578125 C-18.24790634 105.82961401 -33.33842852 106.40155399 -49.56640625 106.30078125 C-54.28953125 106.28015625 -59.01265625 106.25953125 -63.87890625 106.23828125 C-63.54890625 122.73828125 -63.21890625 139.23828125 -62.87890625 156.23828125 C-59.24890625 154.58828125 -55.61890625 152.93828125 -51.87890625 151.23828125 C-46.19609069 149.81757736 -40.54191637 149.97579055 -34.71704102 149.94311523 C-33.28855479 149.93160172 -31.86011137 149.91115934 -30.43188477 149.8815918 C-15.3895184 149.57056216 -15.3895184 149.57056216 -9.87890625 154.23828125 C-5.69355762 158.7403127 -6.38222158 164.55809735 -6.44140625 170.36328125 C-6.45042969 171.3999292 -6.45945312 172.43657715 -6.46875 173.50463867 C-6.74822767 185.81427126 -9.98111231 194.47484997 -18.87890625 203.23828125 C-29.28165536 211.60776576 -39.97056514 213.75075674 -53.06640625 213.42578125 C-56.63453125 213.36390625 -60.20265625 213.30203125 -63.87890625 213.23828125 C-63.87890625 221.48828125 -63.87890625 229.73828125 -63.87890625 238.23828125 C-62.22890625 238.89828125 -60.57890625 239.55828125 -58.87890625 240.23828125 C-56.86825927 241.27832454 -54.87337285 242.34911402 -52.890625 243.44140625 C-52.0340052 243.91251579 -52.0340052 243.91251579 -51.16007996 244.3931427 C-49.29361763 245.42144812 -47.42986902 246.4545513 -45.56640625 247.48828125 C-44.92197571 247.84453583 -44.27754517 248.20079041 -43.61358643 248.56784058 C-33.94197134 253.91627684 -24.3639356 259.40777142 -14.84057617 265.01660156 C-7.41737146 269.37615378 0.08363805 273.5798144 7.62109375 277.73828125 C20.24069938 284.70235984 32.72052423 291.89151899 45.12109375 299.23828125 C46.46699585 300.00906006 46.46699585 300.00906006 47.84008789 300.79541016 C50.41428511 302.42374212 51.14439785 303.3882506 52.12109375 306.23828125 C52.4921875 308.38671875 52.4921875 308.38671875 52.55859375 310.61328125 C52.59855469 311.34289062 52.63851563 312.0725 52.6796875 312.82421875 C51.54003517 317.74942953 48.49718518 320.31786839 44.44995117 323.02490234 C41.1652655 324.99453063 37.84404888 326.87830618 34.49609375 328.73828125 C33.37074219 329.37636719 32.24539063 330.01445312 31.0859375 330.671875 C28.8508658 331.93540108 26.60969715 333.18820822 24.36230469 334.4296875 C22.23853838 335.61474782 20.13131696 336.83007417 18.04394531 338.078125 C17.09229492 338.63628906 16.14064453 339.19445312 15.16015625 339.76953125 C14.3295166 340.27033203 13.49887695 340.77113281 12.64306641 341.28710938 C9.38767883 342.51489156 7.44739304 342.14067351 4.12109375 341.23828125 C3.13109375 340.57828125 2.14109375 339.91828125 1.12109375 339.23828125 C-1.21405769 340.37120634 -3.51528094 341.53963872 -5.81640625 342.73828125 C-6.47576172 343.0528125 -7.13511719 343.36734375 -7.81445312 343.69140625 C-9.77396171 344.73647749 -11.31667531 345.65436038 -12.87890625 347.23828125 C-13.37105091 349.28950204 -13.44526958 351.20618345 -13.55175781 353.30981445 C-14.02532294 356.10137485 -15.61598915 357.3886456 -17.85791016 358.98583984 C-22.36973663 361.78188596 -26.94215664 364.44483536 -31.56640625 367.05078125 C-33.91490131 368.38918514 -36.26265251 369.72881117 -38.609375 371.0703125 C-39.21075287 371.4134549 -39.81213074 371.75659729 -40.43173218 372.11013794 C-46.79145891 375.74543569 -53.08613707 379.48849929 -59.37890625 383.23828125 C-73.54251218 391.66253353 -87.81773327 399.88655234 -102.10839844 408.09277344 C-114.24477189 415.0650448 -126.34847349 422.0844657 -138.37890625 429.23828125 C-149.42612891 435.80726664 -160.52273969 442.2831673 -171.6796875 448.6640625 C-175.7712196 451.00783007 -179.82613303 453.40111992 -183.859375 455.84375 C-184.80312988 456.40674805 -185.74688477 456.96974609 -186.71923828 457.54980469 C-188.47060066 458.59590993 -190.21333343 459.65667366 -191.94482422 460.73535156 C-197.26681321 463.88369366 -201.6982819 465.73368415 -207.87890625 464.23828125 C-212.12794604 462.38791116 -216.00176695 460.0438705 -219.94140625 457.61328125 C-221.08930746 456.92509895 -222.2384206 456.23893458 -223.38867188 455.5546875 C-225.74800772 454.148158 -228.10112988 452.73203527 -230.44970703 451.30761719 C-235.55376295 448.21786318 -240.71912694 445.23367164 -245.87890625 442.23828125 C-247.86214194 441.07970567 -249.8452137 439.92084943 -251.828125 438.76171875 C-258.10071531 435.10245263 -264.39609866 431.48327205 -270.69140625 427.86328125 C-279.62765088 422.7217338 -288.51796362 417.50848589 -297.37890625 412.23828125 C-310.47628693 404.44980862 -323.66468174 396.82637086 -336.87890625 389.23828125 C-351.23453845 380.99475372 -365.54231394 372.68220853 -379.77099609 364.22119141 C-392.88322029 356.43480355 -406.10863919 348.84693371 -419.33398438 341.25488281 C-426.85939157 336.93392813 -434.37653475 332.59912691 -441.87890625 328.23828125 C-442.64734863 327.79307129 -443.41579102 327.34786133 -444.20751953 326.88916016 C-446.06336687 325.80853459 -447.9105996 324.71511869 -449.75390625 323.61328125 C-451.14222656 322.78957031 -451.14222656 322.78957031 -452.55859375 321.94921875 C-455.8632877 319.51242422 -458.42094024 317.05435336 -459.4453125 312.9921875 C-459.44402344 312.26902344 -459.44273437 311.54585938 -459.44140625 310.80078125 C-459.46332031 310.08019531 -459.48523438 309.35960937 -459.5078125 308.6171875 C-458.18971554 303.63134246 -455.2468251 301.11791906 -451.05004883 298.41918945 C-447.5667364 296.41763617 -444.04940417 294.50133858 -440.50390625 292.61328125 C-439.28452 291.95299657 -438.06576407 291.29154645 -436.84765625 290.62890625 C-434.53262841 289.3702576 -432.21342772 288.12087106 -429.890625 286.87646484 C-427.48616126 285.56858938 -425.13586253 284.21366661 -422.79296875 282.80078125 C-418.66814701 280.58908059 -416.47523308 280.77864857 -411.87890625 281.23828125 C-410.88890625 281.89828125 -409.89890625 282.55828125 -408.87890625 283.23828125 C-406.37781154 282.10661866 -403.9097375 280.93776044 -401.44140625 279.73828125 C-400.73435547 279.42375 -400.02730469 279.10921875 -399.29882812 278.78515625 C-397.22254957 277.75198415 -395.56377728 276.83725249 -393.87890625 275.23828125 C-393.35067237 273.17854148 -393.28197193 271.28520827 -393.18432617 269.16479492 C-392.87890625 267.23828125 -392.87890625 267.23828125 -390.61328125 264.6953125 C-385.41977757 260.99253673 -379.7034594 258.00478643 -374.12890625 254.92578125 C-372.98035156 254.28060547 -371.83179688 253.63542969 -370.6484375 252.97070312 C-362.14510169 248.23828125 -362.14510169 248.23828125 -359.87890625 248.23828125 C-359.87890625 239.32828125 -359.87890625 230.41828125 -359.87890625 221.23828125 C-362.10640625 221.30015625 -364.33390625 221.36203125 -366.62890625 221.42578125 C-380.07256184 221.52679532 -390.97372058 217.78489201 -401.06640625 208.73828125 C-410.52470152 198.79938154 -413.0671736 187.0108528 -413.19140625 173.80078125 C-413.22041016 172.77662109 -413.24941406 171.75246094 -413.27929688 170.69726562 C-413.33120901 164.52770789 -413.01362354 160.92429418 -408.87890625 156.23828125 C-401.74071859 149.96532846 -390.80014755 151.77128486 -381.87890625 152.23828125 C-372.34239574 153.36569952 -363.72077237 157.39641513 -356.87890625 164.23828125 C-356.39421875 163.64660156 -355.90953125 163.05492187 -355.41015625 162.4453125 C-349.30232674 155.24512118 -343.38769959 150.01561553 -333.87890625 148.23828125 C-330.18724821 147.93845658 -326.51872748 147.9133989 -322.81640625 147.92578125 C-321.84896484 147.90966797 -320.88152344 147.89355469 -319.88476562 147.87695312 C-314.47739167 147.87325198 -310.50592599 148.11687905 -305.87890625 151.23828125 C-300.01136961 158.53305653 -300.33923569 166.02764628 -301.1171875 174.98046875 C-302.42831861 184.33055524 -306.5163139 192.13237395 -314.01953125 197.9921875 C-323.97973156 204.66719569 -331.15796942 204.23828125 -343.87890625 204.23828125 C-343.54890625 215.12828125 -343.21890625 226.01828125 -342.87890625 237.23828125 C-328.53265775 229.30205867 -314.22004817 221.32554722 -299.99862671 213.16906738 C-291.67255042 208.39445765 -283.3219864 203.66665964 -274.94140625 198.98828125 C-266.50874401 194.2805732 -258.10329494 189.52934042 -249.72485352 184.72583008 C-241.97864774 180.28677566 -234.20634176 175.89455779 -226.42724609 171.51342773 C-225.51410645 170.99852783 -224.6009668 170.48362793 -223.66015625 169.953125 C-222.85642578 169.5005835 -222.05269531 169.04804199 -221.22460938 168.58178711 C-219.531204 167.61188601 -217.8603494 166.60224123 -216.20507812 165.56860352 C-213.87890625 164.23828125 -213.87890625 164.23828125 -211.87890625 164.23828125 C-211.87890625 154.33828125 -211.87890625 144.43828125 -211.87890625 134.23828125 C-216.49890625 134.23828125 -221.11890625 134.23828125 -225.87890625 134.23828125 C-234.82946784 131.8828703 -239.82538013 128.86013593 -245.19140625 121.41796875 C-248.12884747 116.21624992 -248.28543756 110.88992913 -248.37890625 105.05078125 C-248.40682251 103.89195435 -248.40682251 103.89195435 -248.43530273 102.7097168 C-248.3768445 97.44563751 -247.43989139 94.33934913 -243.87890625 90.23828125 C-238.65659154 85.48351824 -233.77805145 85.62995611 -227.06640625 85.73828125 C-226.11958984 85.7228125 -225.17277344 85.70734375 -224.19726562 85.69140625 C-216.32456869 85.73475214 -210.13370334 87.48978593 -204.06640625 92.61328125 C-201.75229016 95.39022056 -199.79963005 98.17935075 -197.87890625 101.23828125 C-197.15888428 101.0774707 -196.4388623 100.91666016 -195.69702148 100.75097656 C-191.126596 99.91948618 -186.57583145 100.01265692 -181.94140625 99.98828125 C-180.96494141 99.96765625 -179.98847656 99.94703125 -178.98242188 99.92578125 C-173.53692318 99.89624634 -169.53388605 100.07319148 -164.87890625 103.23828125 C-159.38222394 110.22055338 -159.31382764 116.60217422 -159.87890625 125.23828125 C-161.05734602 132.7846203 -164.08372998 138.23965312 -169.87890625 143.23828125 C-178.08402325 148.70307925 -186.30365979 148.34467288 -195.87890625 148.23828125 C-195.87890625 153.18828125 -195.87890625 158.13828125 -195.87890625 163.23828125 C-194.22890625 163.89828125 -192.57890625 164.55828125 -190.87890625 165.23828125 C-189.15956581 166.13203382 -187.45581583 167.05618258 -185.765625 168.00390625 C-184.77731689 168.5570752 -183.78900879 169.11024414 -182.77075195 169.68017578 C-181.71331787 170.27685059 -180.65588379 170.87352539 -179.56640625 171.48828125 C-178.46063232 172.10944824 -177.3548584 172.73061523 -176.21557617 173.37060547 C-167.6555161 178.19555448 -159.17076651 183.14396712 -150.69873047 188.12158203 C-143.19851034 192.51096434 -135.6072367 196.70611127 -127.96289062 200.83813477 C-111.73857094 209.62143401 -95.84360336 218.99556187 -79.87890625 228.23828125 C-79.87890625 199.85828125 -79.87890625 171.47828125 -79.87890625 142.23828125 C-89.44890625 142.23828125 -99.01890625 142.23828125 -108.87890625 142.23828125 C-126.92885005 137.7257953 -140.12356889 130.67926996 -150.41796875 114.8359375 C-157.41719896 102.39078218 -159.2384499 90.59993157 -159.25390625 76.48828125 C-159.27839844 75.29589844 -159.30289062 74.10351562 -159.328125 72.875 C-159.36503937 61.86221368 -159.36503937 61.86221368 -154.87890625 57.23828125 C-150.69466791 54.07571466 -147.0190178 53.79722181 -141.9375 53.83984375 C-141.1739772 53.83697357 -140.41045441 53.83410339 -139.62379456 53.83114624 C-138.00919859 53.8291097 -136.39457772 53.83461091 -134.7800293 53.84716797 C-132.34821008 53.86307324 -129.91809241 53.84738748 -127.48632812 53.828125 C-108.19985416 53.80057307 -94.16319524 59.38393113 -78.87890625 71.23828125 C-78.97171875 69.87703125 -78.97171875 69.87703125 -79.06640625 68.48828125 C-78.91555694 53.37318036 -70.54335695 38.40072181 -60.87890625 27.23828125 C-60.15703125 26.24828125 -59.43515625 25.25828125 -58.69140625 24.23828125 C-44.37818777 7.52413579 -21.22563996 0.17704225 0 0 Z " fill="#010100" transform="translate(459.87890625,38.76171875)"/>
<path d="M0 0 C7.76012934 2.58670978 7.76012934 2.58670978 10.8125 5.9375 C11.99053511 10.42537129 11.811205 14.82989659 11.70703125 19.4453125 C11.71277743 21.45810464 11.71853722 23.47089686 11.72511578 25.48368645 C11.72442938 28.29608072 11.6873323 31.10756002 11.6505127 33.91967773 C11.59182231 38.84910867 11.58204372 43.77873069 11.58512878 48.70846558 C11.5830907 51.33168908 11.56364015 53.95496662 11.52534485 56.57791138 C11.51931747 57.76279144 11.5132901 58.94767151 11.50708008 60.16845703 C11.4940535 61.21260773 11.48102692 62.25675842 11.46760559 63.33255005 C11.60424484 65.95826776 11.60424484 65.95826776 13.147995 67.77072144 C15.78221461 69.61724697 17.69017249 69.38354679 20.8125 68.9375 C23.32312405 66.94498295 24.64024235 65.72719484 25.33148193 62.55828857 C25.3448056 61.2392453 25.3448056 61.2392453 25.35839844 59.89355469 C25.37811707 58.89281921 25.39783569 57.89208374 25.41815186 56.86102295 C25.41938049 55.78797913 25.42060913 54.7149353 25.421875 53.609375 C25.43841125 52.50523254 25.45494751 51.40109009 25.47198486 50.26348877 C25.52055626 46.73810311 25.5418569 43.21314911 25.5625 39.6875 C25.5906519 37.29685318 25.62057822 34.90622654 25.65234375 32.515625 C25.72631769 26.6563286 25.77790665 20.79715406 25.8125 14.9375 C29.53692579 16.39446626 32.97313065 18.04315355 36.46875 19.9921875 C38.1098877 20.90508545 38.1098877 20.90508545 39.78417969 21.83642578 C40.96036967 22.49496858 42.13647444 23.15366361 43.3125 23.8125 C44.5328067 24.4934539 45.75318513 25.17427927 46.97363281 25.85498047 C55.89580478 30.83762411 64.77747319 35.88978048 73.640625 40.9765625 C79.18352439 44.15576571 84.74714548 47.29781845 90.3125 50.4375 C101.16895333 56.56385963 111.99598475 62.74094299 122.8125 68.9375 C119.41204713 71.77192004 115.98528391 74.1234929 112.14453125 76.3203125 C111.08685547 76.93003906 110.02917969 77.53976562 108.93945312 78.16796875 C107.84568359 78.79316406 106.75191406 79.41835938 105.625 80.0625 C103.44237815 81.31225782 101.26130734 82.56472958 99.08203125 83.8203125 C98.11885986 84.37090332 97.15568848 84.92149414 96.16333008 85.48876953 C93.73661372 86.85938583 93.73661372 86.85938583 91.8125 88.9375 C92.1528125 90.731875 92.1528125 90.731875 92.5 92.5625 C92.58984375 94.703125 92.58984375 94.703125 91.8125 96.9375 C86.66302138 101.12740294 80.75684755 104.02418115 74.8125 106.9375 C74.461875 106.4425 74.11125 105.9475 73.75 105.4375 C71.46105947 103.66541701 69.85050479 103.44934089 66.98657227 103.51806641 C62.14495466 104.45213705 57.99552272 107.37930192 53.8125 109.875 C52.79881348 110.46095947 51.78512695 111.04691895 50.74072266 111.65063477 C46.15798402 114.31220151 41.62185413 117.0334826 37.1484375 119.875 C36.46910156 120.30176025 35.78976562 120.72852051 35.08984375 121.16821289 C33.85452754 121.95185868 32.62967774 122.75234583 31.41796875 123.57202148 C29.7734375 124.62109375 29.7734375 124.62109375 26.8125 125.9375 C23.05066421 124.76106707 19.69846145 122.86181263 16.26171875 120.953125 C15.18301514 120.3547583 14.10431152 119.7563916 12.99291992 119.13989258 C11.82849719 118.48930279 10.66419354 117.83849982 9.5 117.1875 C8.90458405 116.85591888 8.30916809 116.52433777 7.69570923 116.18270874 C-1.76617151 110.913038 -11.13401907 105.49463308 -20.46923828 100.00341797 C-27.93940614 95.62486659 -35.50322021 91.44666756 -43.11938477 87.32861328 C-52.90430964 82.03001894 -62.54934108 76.49742182 -72.1875 70.9375 C-73.94163388 69.92673156 -75.69576838 68.91596418 -77.44992065 67.90522766 C-84.36497706 63.92036273 -91.2770984 59.93043209 -98.1875 55.9375 C-95.90041778 53.42999275 -93.56164894 51.86789725 -90.6015625 50.22265625 C-89.68197754 49.70775635 -88.76239258 49.19285645 -87.81494141 48.66235352 C-86.82413574 48.11377686 -85.83333008 47.5652002 -84.8125 47 C-82.70805028 45.82342279 -80.60388938 44.64632887 -78.5 43.46875 C-77.4378125 42.87578125 -76.375625 42.2828125 -75.28125 41.671875 C-70.7740595 39.14511669 -66.29319747 36.57334425 -61.8125 34 C-54.13074173 29.59778972 -46.41690718 25.25544941 -38.6875 20.9375 C-30.54353843 16.38709299 -22.41445534 11.81234262 -14.3125 7.1875 C-13.43271484 6.68605469 -12.55292969 6.18460937 -11.64648438 5.66796875 C-10.4331543 4.97380859 -10.4331543 4.97380859 -9.1953125 4.265625 C-8.49035645 3.8624707 -7.78540039 3.45931641 -7.05908203 3.04394531 C-1.82210544 -0.05206016 -1.82210544 -0.05206016 0 0 Z " fill="#DF9873" transform="translate(370.1875,280.0625)"/>
<path d="M0 0 C2.62161719 1.34901602 5.18596988 2.73626853 7.75 4.1875 C8.53656982 4.62819824 9.32313965 5.06889648 10.13354492 5.52294922 C17.58803407 9.72093138 24.95564637 14.06597812 32.33227539 18.39868164 C40.38119804 23.10456497 48.51450767 27.6398556 56.6875 32.125 C65.52434492 36.97793652 74.35445448 41.84023438 83.125 46.8125 C83.98955811 47.29799316 84.85411621 47.78348633 85.74487305 48.28369141 C86.53289307 48.73276855 87.32091309 49.1818457 88.1328125 49.64453125 C88.81230957 50.02971924 89.49180664 50.41490723 90.19189453 50.81176758 C92.05179397 52.03403743 93.48768483 53.37412915 95 55 C94.30777344 55.3810791 93.61554688 55.7621582 92.90234375 56.15478516 C80.41920402 63.03572532 67.97239696 69.95641971 55.6875 77.1875 C47.23138859 82.16225601 38.6937444 86.94539838 30.0637207 91.61108398 C23.95733296 94.91741081 17.89997846 98.29763402 11.875 101.75 C11.04129883 102.22542236 10.20759766 102.70084473 9.34863281 103.19067383 C4.73543592 105.82906692 0.1444712 108.50106579 -4.42388916 111.21615601 C-6.96197558 112.72120399 -9.5077158 114.21301837 -12.05438232 115.70349121 C-13.30073908 116.4374977 -14.54353972 117.17757934 -15.78253174 117.9239502 C-17.52173627 118.97101931 -19.27434396 119.99572567 -21.02734375 121.01953125 C-22.03531006 121.61870361 -23.04327637 122.21787598 -24.08178711 122.83520508 C-27.6451086 124.25749294 -29.3432725 124.0685145 -33 123 C-35.68701172 121.73168945 -35.68701172 121.73168945 -38.4296875 120.11328125 C-39.97487061 119.21113892 -39.97487061 119.21113892 -41.55126953 118.29077148 C-42.64810059 117.63794189 -43.74493164 116.9851123 -44.875 116.3125 C-46.03577341 115.63070203 -47.19707808 114.9498078 -48.35888672 114.26977539 C-50.74663292 112.87044649 -53.13135994 111.46617723 -55.51367188 110.05761719 C-59.72507053 107.56895778 -63.95344761 105.10971689 -68.18188477 102.65014648 C-71.137516 100.93021674 -74.09061691 99.20602091 -77.04296875 97.48046875 C-82.14535142 94.49853493 -87.25048448 91.52135105 -92.35693359 88.54638672 C-94.38554562 87.36343163 -96.41323985 86.17890101 -98.43994141 84.99267578 C-103.03936726 82.30105775 -107.64584565 79.62627766 -112.28515625 77.00390625 C-113.08703369 76.5459668 -113.88891113 76.08802734 -114.71508789 75.61621094 C-116.197366 74.77046192 -117.68459999 73.93331804 -119.17749023 73.10644531 C-121.125 71.98828125 -121.125 71.98828125 -124 70 C-124 69.01 -124 68.02 -124 67 C-120.49641438 65.02116875 -116.99092421 63.04575975 -113.48364258 61.07348633 C-112.29105795 60.40222183 -111.09899561 59.73002852 -109.9074707 59.05688477 C-108.19360118 58.08885925 -106.47768503 57.12446007 -104.76171875 56.16015625 C-103.73006592 55.57886963 -102.69841309 54.99758301 -101.63549805 54.39868164 C-99 53 -99 53 -96 52 C-96.10183594 51.29875 -96.20367187 50.5975 -96.30859375 49.875 C-96.46351176 46.41985886 -96.30079294 44.23086558 -95 41 C-92.78229413 38.96015712 -90.35078106 37.57545564 -87.6875 36.1875 C-87.01066162 35.83236328 -86.33382324 35.47722656 -85.63647461 35.11132812 C-83.63671875 34.16796875 -83.63671875 34.16796875 -80 33 C-77.95703125 33.73828125 -77.95703125 33.73828125 -76 35 C-72.39476954 36.16814964 -70.03490596 36.43503668 -66.50146484 34.94970703 C-63.66965365 33.40540762 -60.92660413 31.76569725 -58.1875 30.0625 C-56.30796226 28.92511915 -54.42654524 27.79083611 -52.54296875 26.66015625 C-51.71821045 26.15105713 -50.89345215 25.64195801 -50.04370117 25.11743164 C-48 24 -48 24 -46 24 C-45.9845388 24.92961296 -45.9845388 24.92961296 -45.96876526 25.87800598 C-45.86073394 32.31794864 -45.74613309 38.75775043 -45.62768555 45.19750977 C-45.58432591 47.60210223 -45.5426516 50.00672569 -45.50268555 52.41137695 C-45.44500811 55.86419016 -45.38130615 59.31684719 -45.31640625 62.76953125 C-45.29969376 63.84773636 -45.28298126 64.92594147 -45.26576233 66.03681946 C-45.2358445 67.53803596 -45.2358445 67.53803596 -45.20532227 69.06958008 C-45.18200584 70.39195427 -45.18200584 70.39195427 -45.15821838 71.74104309 C-45.0825248 74.1677108 -45.0825248 74.1677108 -44 77 C-41.10538099 79.36139302 -41.10538099 79.36139302 -37.4375 78.8125 C-33.74174248 78.35160238 -33.74174248 78.35160238 -32 75 C-31.73237037 72.31226599 -31.73237037 72.31226599 -31.82397461 69.24682617 C-31.83774391 67.47434761 -31.83774391 67.47434761 -31.85179138 65.6660614 C-31.86847366 64.38794083 -31.88515594 63.10982025 -31.90234375 61.79296875 C-31.90536743 59.78633157 -31.9083372 57.77969262 -31.90814304 55.77305317 C-31.9082866 50.82241138 -31.92336827 45.8727587 -31.99633789 40.92260742 C-32.03619087 38.14581969 -32.05219727 35.3708806 -32.04164124 32.59382629 C-32.03226888 29.97936046 -32.05744205 27.3644922 -32.12083435 24.7507782 C-32.02744158 16.11780458 -32.02744158 16.11780458 -29.09190369 12.92408752 C-26.79100271 11.36779095 -24.52308162 10.15411783 -22 9 C-21.13850342 8.46705322 -20.27700684 7.93410645 -19.3894043 7.38500977 C-17.1625115 6.09794523 -14.92820316 4.82537314 -12.6875 3.5625 C-11.90310547 3.10423828 -11.11871094 2.64597656 -10.31054688 2.17382812 C-9.55193359 1.74650391 -8.79332031 1.31917969 -8.01171875 0.87890625 C-7.33584717 0.4929126 -6.65997559 0.10691895 -5.96362305 -0.29077148 C-3.50844019 -1.17754336 -2.4234431 -0.89875239 0 0 Z " fill="#E09873" transform="translate(146,281)"/>
<path d="M0 0 C4.05676455 1.25114821 7.62482505 2.74524381 11.31640625 4.8359375 C12.31687988 5.39933838 13.31735352 5.96273926 14.34814453 6.54321289 C15.40888184 7.14770264 16.46961914 7.75219238 17.5625 8.375 C18.67222168 9.00204834 19.78194336 9.62909668 20.92529297 10.27514648 C24.28711431 12.17719798 27.64437702 14.08703783 31 16 C31.9398877 16.53544434 32.87977539 17.07088867 33.84814453 17.62255859 C38.14780373 20.07397304 42.44390003 22.53154139 46.73828125 24.9921875 C61.4448148 33.41100418 76.22540594 41.70135283 91 50 C91 50.66 91 51.32 91 52 C90.51982422 52.25990723 90.03964844 52.51981445 89.54492188 52.78759766 C79.30698109 58.34237879 69.1646054 64.0311772 59.125 69.9375 C50.53688502 74.98601648 41.87244125 79.85248954 33.10717773 84.5859375 C24.89483376 89.02898607 16.79110987 93.6506326 8.69921875 98.30859375 C7.91853027 98.75187012 7.1378418 99.19514648 6.33349609 99.65185547 C4.74207983 100.57127382 3.1671569 101.51969817 1.60791016 102.49267578 C-4.11514057 105.96187942 -4.11514057 105.96187942 -7.9921875 106.12890625 C-12.31966093 104.50469869 -16.15995222 102.29880186 -20.125 99.9375 C-22.00755351 98.83939963 -23.8903805 97.74176799 -25.7734375 96.64453125 C-26.77858398 96.05494629 -27.78373047 95.46536133 -28.81933594 94.85791016 C-33.85191797 91.91824564 -38.91271033 89.02804773 -43.97433472 86.13879395 C-45.76019824 85.11917744 -47.54530025 84.09823729 -49.33032227 83.07714844 C-58.23734942 77.98583884 -67.18379768 72.96716276 -76.14331055 67.96875 C-85.48806461 62.74701562 -94.75646092 57.39849124 -104 52 C-101.08567977 48.83123107 -98.21629541 46.80297165 -94.44140625 44.75 C-92.79603882 43.84713257 -92.79603882 43.84713257 -91.11743164 42.92602539 C-90.53833038 42.61230988 -89.95922913 42.29859436 -89.36257935 41.97537231 C-86.90863629 40.64570419 -84.46325029 39.3006461 -82.01731873 37.95631409 C-80.77534185 37.27380571 -79.53295982 36.5920341 -78.29017639 35.91099548 C-73.0146289 33.01806663 -67.77978653 30.05892508 -62.5625 27.0625 C-61.749021 26.59585938 -60.93554199 26.12921875 -60.09741211 25.6484375 C-58.37183425 24.65812606 -56.64650123 23.6673879 -54.92138672 22.67626953 C-49.62046718 19.63464212 -44.31252093 16.60530173 -39.00558472 13.57418823 C-36.02692811 11.87278236 -33.04863556 10.17073969 -30.0703125 8.46875 C-29.00973633 7.86417969 -27.94916016 7.25960937 -26.85644531 6.63671875 C-25.13175988 5.64848874 -23.41106348 4.65318461 -21.69824219 3.64453125 C-17.2002193 1 -17.2002193 1 -15 1 C-14.9845388 1.96386627 -14.9845388 1.96386627 -14.96876526 2.94720459 C-14.86064832 9.63059559 -14.74605435 16.31385319 -14.62768555 22.99707031 C-14.5843534 25.49183361 -14.54267709 27.98662623 -14.50268555 30.48144531 C-14.44494164 34.06584516 -14.38125865 37.6500976 -14.31640625 41.234375 C-14.29969376 42.35116638 -14.28298126 43.46795776 -14.26576233 44.61859131 C-14.2358445 46.17975677 -14.2358445 46.17975677 -14.20532227 47.77246094 C-14.18200584 49.14479889 -14.18200584 49.14479889 -14.15821838 50.54486084 C-14.01124397 52.8255227 -13.63722814 54.81130585 -13 57 C-11.7625 57.2475 -10.525 57.495 -9.25 57.75 C-8.55390625 57.88921875 -7.8578125 58.0284375 -7.140625 58.171875 C-4.83398928 58.18719774 -4.83398928 58.18719774 -2.90032959 56.32745361 C-0.59829637 53.50800821 -0.48772966 52.18707316 -0.45410156 48.58886719 C-0.43438293 47.50804871 -0.41466431 46.42723022 -0.39434814 45.31365967 C-0.39311951 44.15312073 -0.39189087 42.99258179 -0.390625 41.796875 C-0.37408875 40.60394836 -0.35755249 39.41102173 -0.34051514 38.1819458 C-0.2919247 34.3712454 -0.27063862 30.5609444 -0.25 26.75 C-0.22184973 24.16664645 -0.19192365 21.5833116 -0.16015625 19 C-0.08616253 12.66673944 -0.03458473 6.33359172 0 0 Z " fill="#E6AC8B" transform="translate(263,220)"/>
<path d="M0 0 C1.71511824 0.89422671 3.40325543 1.84186536 5.0625 2.8359375 C6.48755859 3.68091797 6.48755859 3.68091797 7.94140625 4.54296875 C9.45541016 5.44982422 9.45541016 5.44982422 11 6.375 C18.92567448 11.06491916 26.88914829 15.63802285 35 20 C43.62681877 24.64955437 52.09545479 29.52844448 60.53808594 34.50341797 C68.53065078 39.19203036 76.62109596 43.67933151 84.75 48.125 C96.34311755 54.46595318 107.74147093 61.07973999 119 68 C114.67253489 72.95214103 109.6127192 75.69648833 103.875 78.8125 C95.09909604 83.67195437 86.42396572 88.6672688 77.8125 93.8125 C64.87438282 101.52799446 51.81368943 109.01539224 38.70947266 116.44458008 C35.9805241 117.95978088 35.9805241 117.95978088 33.45849609 119.7644043 C31 121 31 121 28.51660156 120.86914062 C25.67856227 119.88898736 23.31043759 118.63808038 20.734375 117.09375 C19.76242187 116.51496094 18.79046875 115.93617188 17.7890625 115.33984375 C16.78617187 114.73269531 15.78328125 114.12554687 14.75 113.5 C13.73164063 112.89285156 12.71328125 112.28570312 11.6640625 111.66015625 C4.17924626 107.17924626 4.17924626 107.17924626 3 106 C2.91330568 104.5112814 2.89296506 103.018555 2.90234375 101.52734375 C2.90717773 100.17866211 2.90717773 100.17866211 2.91210938 98.80273438 C2.92467773 97.38444336 2.92467773 97.38444336 2.9375 95.9375 C2.94201172 94.98810547 2.94652344 94.03871094 2.95117188 93.06054688 C2.9629989 90.70696935 2.97947975 88.35351523 3 86 C3.82242188 85.97421875 4.64484375 85.9484375 5.4921875 85.921875 C14.55262801 85.46152929 23.07351282 84.6244511 29.5 77.625 C33.91565501 72.20812089 34.36329028 66.1413135 34.375 59.4375 C34.41173828 58.3247168 34.41173828 58.3247168 34.44921875 57.18945312 C34.46961144 53.37262148 34.26150318 51.42796666 32.2265625 48.09765625 C27.31792467 43.47320271 22.82560717 43.61909933 16.375 43.625 C15.02293457 43.61654053 15.02293457 43.61654053 13.64355469 43.60791016 C8.61963927 43.66882263 4.80806764 44.06024465 0.25 46.375 C-1.97265625 47.5 -1.97265625 47.5 -4 48 C-6.41569995 46.86110647 -8.03158519 45.53056286 -9.91796875 43.6484375 C-15.28255525 39.40105381 -22.10374902 39.66202636 -28.625 39.6875 C-29.87410156 39.66333008 -29.87410156 39.66333008 -31.1484375 39.63867188 C-36.01858441 39.63479437 -38.94027407 40.05242121 -43 43 C-43.66 43 -44.32 43 -45 43 C-45.309375 43.78375 -45.61875 44.5675 -45.9375 45.375 C-47 48 -47 48 -48 50 C-48.65408061 59.47159038 -48.6316262 68.12324482 -42.8125 75.9375 C-42.214375 76.618125 -41.61625 77.29875 -41 78 C-41 78.66 -41 79.32 -41 80 C-44.70603952 78.61049723 -48.04862185 76.92691898 -51.47265625 74.9453125 C-53.05639038 74.03108521 -53.05639038 74.03108521 -54.67211914 73.09838867 C-55.79094482 72.44717041 -56.90977051 71.79595215 -58.0625 71.125 C-59.2218964 70.45218256 -60.38132049 69.77941281 -61.54077148 69.10668945 C-65.03148006 67.07843371 -68.51631086 65.04028991 -72 63 C-73.0415625 62.39043457 -74.083125 61.78086914 -75.15625 61.15283203 C-77.96290772 59.50530549 -80.76405189 57.84892496 -83.5625 56.1875 C-84.82815796 55.44234131 -84.82815796 55.44234131 -86.11938477 54.68212891 C-86.88565186 54.22370605 -87.65191895 53.7652832 -88.44140625 53.29296875 C-89.10857666 52.8961792 -89.77574707 52.49938965 -90.46313477 52.09057617 C-92 51 -92 51 -93 49 C-90.497912 46.19454839 -87.71982473 44.54539546 -84.4609375 42.69921875 C-83.3356665 42.05887695 -82.21039551 41.41853516 -81.05102539 40.75878906 C-79.82575915 40.0682253 -78.60041539 39.37779906 -77.375 38.6875 C-76.1097395 37.97008827 -74.84468677 37.25231 -73.57983398 36.53417969 C-64.40039779 31.32893374 -55.19251861 26.17401372 -45.97973633 21.02807617 C-39.15667708 17.2154639 -32.35051049 13.37468295 -25.5625 9.5 C-24.74080322 9.03174805 -23.91910645 8.56349609 -23.07250977 8.08105469 C-22.28674561 7.63149414 -21.50098145 7.18193359 -20.69140625 6.71875 C-19.9245752 6.28433594 -19.15774414 5.84992188 -18.36767578 5.40234375 C-16.67944347 4.40242558 -15.02409424 3.34610474 -13.39404297 2.25390625 C-12.09877686 1.40119141 -12.09877686 1.40119141 -10.77734375 0.53125 C-10.00511475 0.00080078 -9.23288574 -0.52964844 -8.43725586 -1.07617188 C-4.98193343 -2.38589241 -3.32200226 -1.4700552 0 0 Z " fill="#E6AB8A" transform="translate(261,346)"/>
<path d="M0 0 C1.19882813 -0.01063477 1.19882813 -0.01063477 2.421875 -0.02148438 C9.86254227 0.05677507 16.43924479 1.41111671 22.125 6.375 C23.75837308 7.76494053 23.75837308 7.76494053 25.625 8.4375 C27.6623027 7.81893766 27.6623027 7.81893766 29.70703125 6.59765625 C34.83750542 4.11282758 39.17737075 3.83512066 44.8125 3.9375 C45.67552734 3.92203125 46.53855469 3.9065625 47.42773438 3.890625 C54.03917254 3.93109287 57.5917917 5.60266609 62.4765625 10.16796875 C64.21430479 13.60207852 64.05847238 16.99152512 64 20.75 C64.01160156 21.48412109 64.02320313 22.21824219 64.03515625 22.97460938 C63.99534608 30.45228641 61.56124331 36.31754404 56.46875 41.859375 C49.23451391 48.05139064 40.69528438 47.94930288 31.625 47.4375 C30.4587935 54.23462072 29.55650608 61.03993555 32.625 67.4375 C39.56519661 74.15141531 48.94479202 78.40192393 57.625 82.4375 C55.06496564 85.32124845 52.14770815 87.02500135 48.8203125 88.94140625 C47.67949219 89.59947266 46.53867187 90.25753906 45.36328125 90.93554688 C44.47310303 91.44396118 44.47310303 91.44396118 43.56494141 91.96264648 C41.75977611 92.99441234 39.95971804 94.03466995 38.16015625 95.07617188 C26.91142509 101.53753436 26.91142509 101.53753436 23.625 102.4375 C21.37451172 101.72509766 21.37451172 101.72509766 19.0546875 100.3515625 C17.73174683 99.58622192 17.73174683 99.58622192 16.38208008 98.80541992 C15.43099365 98.23025635 14.47990723 97.65509277 13.5 97.0625 C12.49155029 96.47251221 11.48310059 95.88252441 10.4440918 95.2746582 C7.15990474 93.34717443 3.89203574 91.39389195 0.625 89.4375 C-1.55270315 88.14598432 -3.73108936 86.85561968 -5.91015625 85.56640625 C-9.26608449 83.57941522 -12.62067404 81.59034224 -15.97119141 79.59423828 C-24.05341989 74.78127739 -32.19581659 70.08348808 -40.375 65.4375 C-50.92082386 59.44599771 -61.3817814 53.32496651 -71.80395508 47.12109375 C-81.28233585 41.48045951 -90.81291867 35.93482325 -100.375 30.4375 C-96.8196731 27.44869027 -93.21629655 25.08603237 -89.15625 22.8359375 C-88.57588989 22.51339996 -87.99552979 22.19086243 -87.39758301 21.85855103 C-86.17856857 21.18242954 -84.95829151 20.50857992 -83.73681641 19.83691406 C-81.87725876 18.81374282 -80.0223799 17.7824639 -78.16796875 16.75 C-68.27809976 11.27559545 -68.27809976 11.27559545 -63.375 9.4375 C-62.88 10.9225 -62.88 10.9225 -62.375 12.4375 C-59.96304221 14.1472659 -59.96304221 14.1472659 -56.92578125 15.7734375 C-55.7769043 16.41990234 -54.62802734 17.06636719 -53.44433594 17.73242188 C-52.19206599 18.42579696 -50.93978716 19.11915601 -49.6875 19.8125 C-47.77923065 20.88231159 -45.87293563 21.95557933 -43.96682739 23.02923584 C-42.67414134 23.75729969 -41.38090324 24.48438422 -40.08712769 25.21051025 C-33.88065578 28.6986274 -27.74563132 32.30069972 -21.625 35.9375 C-20.68567627 36.4948584 -19.74635254 37.0522168 -18.77856445 37.62646484 C-16.6429542 38.89499587 -14.50834485 40.16516414 -12.375 41.4375 C-13.11556641 40.33341797 -13.11556641 40.33341797 -13.87109375 39.20703125 C-14.51175781 38.23121094 -15.15242188 37.25539063 -15.8125 36.25 C-16.45058594 35.28707031 -17.08867187 34.32414062 -17.74609375 33.33203125 C-21.57974625 26.51971351 -21.80309867 16.56489039 -19.7265625 9.109375 C-15.59226012 0.98211392 -8.18113835 -0.20256812 0 0 Z " fill="#DF9773" transform="translate(232.375,384.5625)"/>
<path d="M0 0 C6.50206513 4.01886438 11.69659006 9.02744545 15 16 C15.36066071 17.99525311 15.6969724 19.99518445 16 22 C16.82565964 21.98667633 16.82565964 21.98667633 17.66799927 21.9730835 C23.41072172 21.88440709 29.15324883 21.82418197 34.89648438 21.78027344 C37.03816634 21.76019112 39.1797937 21.73291963 41.32128906 21.69824219 C44.40443415 21.64957602 47.48685262 21.6269971 50.5703125 21.609375 C51.52366486 21.58872986 52.47701721 21.56808472 53.45925903 21.54681396 C54.35973969 21.54651184 55.26022034 21.54620972 56.18798828 21.54589844 C56.97408478 21.53701599 57.76018127 21.52813354 58.57009888 21.51898193 C65.3099764 22.85319378 70.1659513 28.88048278 74.80957031 33.55078125 C75.94723343 34.68318741 75.94723343 34.68318741 77.10787964 35.83847046 C79.60300216 38.32482012 82.09077276 40.81837872 84.578125 43.3125 C86.31324517 45.04627253 88.0486621 46.7797481 89.78436279 48.51293945 C93.41549331 52.14112497 97.04299043 55.77289459 100.66796875 59.40722656 C105.31736898 64.06803786 109.97571249 68.71979078 114.63679886 73.36891174 C118.21941672 76.94430877 121.79726501 80.52444799 125.37368011 84.10604858 C127.08984262 85.82354608 128.80749434 87.53955686 130.52664948 89.25405884 C132.92530476 91.64764353 135.31746949 94.0475311 137.70800781 96.44921875 C138.4207486 97.15791107 139.13348938 97.86660339 139.86782837 98.59677124 C140.51821075 99.25279327 141.16859314 99.90881531 141.83868408 100.5847168 C142.40424641 101.15103317 142.96980873 101.71734955 143.55250931 102.30082703 C146.27043434 105.49133097 147.03573114 107.32110843 146.8125 111.5625 C146 115 146 115 144.9375 116.9375 C141.62531448 118.7538598 138.57981823 118.89904414 135 118 C129.34411856 114.09215467 124.68488036 108.69281741 120.10131836 103.61181641 C118.77415034 102.15852806 117.44580272 100.7063163 116.11643982 99.2550354 C115.42200712 98.4964687 114.72757442 97.73790199 114.01209831 96.95634842 C109.46263215 92.02459731 104.82912902 87.17154508 100.20072079 82.31398964 C96.16804988 78.07294524 92.17728044 73.80468493 88.2644043 69.45263672 C68.5529689 46.38492261 68.5529689 46.38492261 41.17768574 36.3307476 C32.71649846 35.97799005 24.35180096 36.67197254 16 38 C15.85900879 38.94166016 15.71801758 39.88332031 15.57275391 40.85351562 C14.33103886 47.67500904 9.32474079 53.47790378 3.9765625 57.71875 C-5.06576303 63.58017841 -14.79407284 65.05170629 -25.23046875 62.84765625 C-34.50770773 60.00821921 -41.3445837 54.03089455 -46.31640625 45.828125 C-50.25891098 37.64090264 -50.28914819 27.79735283 -48.33984375 19.03125 C-45.11813446 9.99372784 -38.60316782 3.14881738 -30 -1 C-20.85944933 -4.64853913 -8.81244924 -4.71675855 0 0 Z " fill="#000000" transform="translate(49,12)"/>
<path d="M0 0 C0.85291122 0.0028299 1.70582245 0.00565979 2.58457947 0.00857544 C5.27398493 0.01965419 7.96304117 0.04473457 10.65234375 0.0703125 C12.49022952 0.08035825 14.32812058 0.08948129 16.16601562 0.09765625 C20.64075688 0.11955299 25.11524138 0.15399577 29.58984375 0.1953125 C29.62376425 3.22535579 29.64847424 6.25501382 29.66796875 9.28515625 C29.67844238 10.13638062 29.68891602 10.98760498 29.69970703 11.86462402 C29.73260588 18.69278091 28.82308957 24.71697441 26.58984375 31.1953125 C26.31140625 32.05253906 26.03296875 32.90976563 25.74609375 33.79296875 C23.68769932 39.53340495 20.78125644 44.01446803 16.98046875 48.7734375 C15.23690201 51.80998632 15.23436871 53.74346273 15.58984375 57.1953125 C16.97869623 60.01311784 16.97869623 60.01311784 18.58984375 62.1953125 C13.94351165 67.16749126 9.69803397 71.14121739 3.58984375 74.1953125 C2.81640625 72.9578125 2.81640625 72.9578125 2.02734375 71.6953125 C-0.20162759 68.87205364 -0.20162759 68.87205364 -3.58032227 68.8840332 C-7.72090297 69.22056921 -11.24265428 70.31669008 -15.125 71.67578125 C-24.78399409 74.77328462 -33.92108467 74.77089067 -43.97265625 74.5078125 C-45.67770082 74.4826404 -47.38278216 74.45984331 -49.08789062 74.43945312 C-53.19625015 74.38529482 -57.30277482 74.29954448 -61.41015625 74.1953125 C-61.96890706 52.72781996 -60.14110985 35.69310396 -44.74023438 19.37866211 C-32.26399399 6.75218206 -17.74107903 -0.22703655 0 0 Z " fill="#BAEA6B" transform="translate(457.41015625,54.8046875)"/>
<path d="M0 0 C0.0154612 0.92961296 0.0154612 0.92961296 0.03123474 1.87800598 C0.13926606 8.31794864 0.25386691 14.75775043 0.37231445 21.19750977 C0.41567409 23.60210223 0.4573484 26.00672569 0.49731445 28.41137695 C0.55499189 31.86419016 0.61869385 35.31684719 0.68359375 38.76953125 C0.70030624 39.84773636 0.71701874 40.92594147 0.73423767 42.03681946 C0.7641555 43.53803596 0.7641555 43.53803596 0.79467773 45.06958008 C0.81799416 46.39195427 0.81799416 46.39195427 0.84178162 47.74104309 C0.9174752 50.1677108 0.9174752 50.1677108 2 53 C4.89730041 55.38312904 4.89730041 55.38312904 8.5625 54.6875 C11.84286044 54.18820203 11.84286044 54.18820203 14 53 C14.27465088 53.51949219 14.54930176 54.03898437 14.83227539 54.57421875 C17.92971281 60.01595172 21.03622622 62.93222283 26.4375 66 C27.13327148 66.41443359 27.82904297 66.82886719 28.54589844 67.25585938 C30.68641403 68.52366589 32.84110437 69.76380639 35 71 C36.34020078 71.78063736 37.68005752 72.56186576 39.01953125 73.34375 C43.62223816 76.01260093 48.23031463 78.63947938 53 81 C52.39639648 81.32685791 51.79279297 81.65371582 51.17089844 81.99047852 C48.36286377 83.51252323 45.55647664 85.03758448 42.75 86.5625 C41.74324219 87.10737061 40.73648438 87.65224121 39.69921875 88.21362305 C33.46541683 91.60249875 27.37753147 95.10371799 21.4375 98.98828125 C18.18846293 100.33683991 16.40578728 99.79470109 13 99 C10.31298828 97.73168945 10.31298828 97.73168945 7.5703125 96.11328125 C6.02512939 95.21113892 6.02512939 95.21113892 4.44873047 94.29077148 C3.35189941 93.63794189 2.25506836 92.9851123 1.125 92.3125 C-0.03577341 91.63070203 -1.19707808 90.9498078 -2.35888672 90.26977539 C-4.74663292 88.87044649 -7.13135994 87.46617723 -9.51367188 86.05761719 C-13.72507053 83.56895778 -17.95344761 81.10971689 -22.18188477 78.65014648 C-25.137516 76.93021674 -28.09061691 75.20602091 -31.04296875 73.48046875 C-36.14535142 70.49853493 -41.25048448 67.52135105 -46.35693359 64.54638672 C-48.38554562 63.36343163 -50.41323985 62.17890101 -52.43994141 60.99267578 C-57.03936726 58.30105775 -61.64584565 55.62627766 -66.28515625 53.00390625 C-67.48797241 52.31699707 -67.48797241 52.31699707 -68.71508789 51.61621094 C-70.197366 50.77046192 -71.68459999 49.93331804 -73.17749023 49.10644531 C-75.125 47.98828125 -75.125 47.98828125 -78 46 C-78 45.01 -78 44.02 -78 43 C-74.49641438 41.02116875 -70.99092421 39.04575975 -67.48364258 37.07348633 C-66.29105795 36.40222183 -65.09899561 35.73002852 -63.9074707 35.05688477 C-62.19360118 34.08885925 -60.47768503 33.12446007 -58.76171875 32.16015625 C-57.73006592 31.57886963 -56.69841309 30.99758301 -55.63549805 30.39868164 C-53 29 -53 29 -50 28 C-50.10183594 27.29875 -50.20367187 26.5975 -50.30859375 25.875 C-50.46351176 22.41985886 -50.30079294 20.23086558 -49 17 C-46.78229413 14.96015712 -44.35078106 13.57545564 -41.6875 12.1875 C-41.01066162 11.83236328 -40.33382324 11.47722656 -39.63647461 11.11132812 C-37.63671875 10.16796875 -37.63671875 10.16796875 -34 9 C-31.95703125 9.73828125 -31.95703125 9.73828125 -30 11 C-26.39476954 12.16814964 -24.03490596 12.43503668 -20.50146484 10.94970703 C-17.66965365 9.40540762 -14.92660413 7.76569725 -12.1875 6.0625 C-10.30796226 4.92511915 -8.42654524 3.79083611 -6.54296875 2.66015625 C-5.71821045 2.15105713 -4.89345215 1.64195801 -4.04370117 1.11743164 C-2 0 -2 0 0 0 Z " fill="#DA8657" transform="translate(100,305)"/>
<path d="M0 0 C1.19882813 -0.01063477 1.19882813 -0.01063477 2.421875 -0.02148438 C9.86254227 0.05677507 16.43924479 1.41111671 22.125 6.375 C23.75837308 7.76494053 23.75837308 7.76494053 25.625 8.4375 C27.6623027 7.81893766 27.6623027 7.81893766 29.70703125 6.59765625 C34.83750542 4.11282758 39.17737075 3.83512066 44.8125 3.9375 C45.67552734 3.92203125 46.53855469 3.9065625 47.42773438 3.890625 C54.03917254 3.93109287 57.5917917 5.60266609 62.4765625 10.16796875 C64.21430479 13.60207852 64.05847238 16.99152512 64 20.75 C64.01160156 21.48412109 64.02320313 22.21824219 64.03515625 22.97460938 C63.99535516 30.45058001 61.56400202 36.32385845 56.46484375 41.859375 C48.9664047 48.29115712 40.01016524 47.92433854 30.625 47.4375 C30.64071045 48.02241211 30.6564209 48.60732422 30.67260742 49.20996094 C30.73510267 51.86904164 30.77403569 54.52796764 30.8125 57.1875 C30.83763672 58.10789062 30.86277344 59.02828125 30.88867188 59.9765625 C30.89833984 60.86601562 30.90800781 61.75546875 30.91796875 62.671875 C30.9336792 63.48881836 30.94938965 64.30576172 30.96557617 65.14746094 C30.53539339 68.04001613 29.67915026 69.37202971 27.625 71.4375 C22.15412621 72.2190534 22.15412621 72.2190534 19.625 71.4375 C17.1059376 69.27453543 15.7889163 67.58083849 15.31079102 64.24584961 C15.23128385 61.69374566 15.27606805 59.17630271 15.375 56.625 C15.39304688 55.74134766 15.41109375 54.85769531 15.4296875 53.94726562 C15.47661487 51.77687457 15.54835269 49.60704481 15.625 47.4375 C14.58601563 47.49550781 13.54703125 47.55351562 12.4765625 47.61328125 C2.5957338 48.00239301 -4.67348322 47.42361734 -12.4296875 40.640625 C-18.84893985 33.98164953 -20.50421187 27.40699985 -20.8125 18.3125 C-20.6594231 12.39352671 -20.22135414 8.9742254 -16.375 4.4375 C-10.80649167 0.52890371 -6.72025844 -0.16639618 0 0 Z " fill="#030201" transform="translate(232.375,384.5625)"/>
<path d="M0 0 C34.81269176 -1.28554992 34.81269176 -1.28554992 47.3046875 9.421875 C47.86414063 9.94265625 48.42359375 10.4634375 49 11 C49.60070312 11.50015625 50.20140625 12.0003125 50.8203125 12.515625 C58.15361596 19.0552809 63.55114087 29.67217971 64.15454102 39.52294922 C64.1961025 42.33071377 64.17489556 45.12991533 64.125 47.9375 C64.11597656 48.90751953 64.10695313 49.87753906 64.09765625 50.87695312 C64.07426107 53.25156407 64.04148176 55.62564776 64 58 C27.14015062 59.02971536 27.14015062 59.02971536 11.78125 44.96875 C4.46122209 37.43021379 -0.15914723 27.37332273 -0.09765625 16.796875 C-0.09443359 15.8171875 -0.09121094 14.8375 -0.08789062 13.828125 C-0.07951172 12.81234375 -0.07113281 11.7965625 -0.0625 10.75 C-0.05798828 9.71875 -0.05347656 8.6875 -0.04882812 7.625 C-0.03706088 5.08327427 -0.02062011 2.54166681 0 0 Z " fill="#BAEB6B" transform="translate(317,108)"/>
<path d="M0 0 C0 11.88 0 23.76 0 36 C-4.475625 38.454375 -8.95125 40.90875 -13.5625 43.4375 C-23.8377821 49.09215791 -34.02117806 54.83198801 -44 61 C-45.93510097 62.19140536 -47.87237347 63.37929607 -49.8125 64.5625 C-50.58207031 65.03816406 -51.35164063 65.51382813 -52.14453125 66.00390625 C-54 67 -54 67 -56 67 C-56.33 67.66 -56.66 68.32 -57 69 C-60.7570517 66.9431222 -64.51055148 64.87994265 -68.26098633 62.81103516 C-69.53543525 62.10912728 -70.8108135 61.40890388 -72.0871582 60.71044922 C-73.92910921 59.70208713 -75.76755422 58.6875716 -77.60546875 57.671875 C-78.71043701 57.0644043 -79.81540527 56.45693359 -80.95385742 55.83105469 C-83.85921372 54.08462748 -86.41133373 52.18214667 -89 50 C-79.84776016 44.14111088 -70.41505995 38.83801286 -60.92016602 33.55810547 C-53.56158767 29.45742021 -46.26347615 25.2666237 -39 21 C-30.41663749 15.96686902 -21.79453834 11.00784343 -13.125 6.125 C-12.0421875 5.51140625 -10.959375 4.8978125 -9.84375 4.265625 C-8.84601563 3.70617187 -7.84828125 3.14671875 -6.8203125 2.5703125 C-5.93617676 2.07289551 -5.05204102 1.57547852 -4.14111328 1.06298828 C-2 0 -2 0 0 0 Z " fill="#DF9873" transform="translate(248,221)"/>
<path d="M0 0 C1.34741738 0.64769938 2.67265457 1.34286919 3.9765625 2.07421875 C5.10022217 2.70070313 5.10022217 2.70070313 6.24658203 3.33984375 C7.03145996 3.78457031 7.81633789 4.22929687 8.625 4.6875 C9.82745361 5.36425781 9.82745361 5.36425781 11.05419922 6.0546875 C13.37289817 7.36384978 15.68690219 8.68097362 18 10 C19.1240625 10.63550781 20.248125 11.27101563 21.40625 11.92578125 C26.44388124 14.84268555 26.44388124 14.84268555 28 16 C28 16.66 28 17.32 28 18 C27.29206299 18.39155273 26.58412598 18.78310547 25.85473633 19.18652344 C17.56154993 23.77621031 9.27673888 28.38072349 1 33 C-0.05960938 33.59119629 -1.11921875 34.18239258 -2.2109375 34.79150391 C-5.04050405 36.37478007 -7.86496111 37.96673655 -10.6875 39.5625 C-11.93019653 40.25714355 -11.93019653 40.25714355 -13.19799805 40.96582031 C-18.72632814 44.10798841 -24.47189317 47.47189317 -29 52 C-29.15686249 53.55948542 -29.25076639 55.12542668 -29.31640625 56.69140625 C-29.37924805 58.10776367 -29.37924805 58.10776367 -29.44335938 59.55273438 C-29.48267578 60.54595703 -29.52199219 61.53917969 -29.5625 62.5625 C-29.60568359 63.55958984 -29.64886719 64.55667969 -29.69335938 65.58398438 C-29.79980298 68.0558415 -29.90181928 70.5278031 -30 73 C-30.33 73 -30.66 73 -31 73 C-31.20896154 65.54193139 -31.36865359 58.08449802 -31.46630955 50.62409019 C-31.51319394 47.15930854 -31.57671652 43.6965355 -31.67895508 40.23291016 C-31.7958773 36.24666817 -31.83919763 32.26122571 -31.87890625 28.2734375 C-31.92535782 27.03572601 -31.97180939 25.79801453 -32.01966858 24.52279663 C-32.02459596 16.10909193 -32.02459596 16.10909193 -29.10087585 12.94425964 C-26.79752781 11.38667181 -24.52181766 10.16387665 -22 9 C-21.13850342 8.46705322 -20.27700684 7.93410645 -19.3894043 7.38500977 C-17.1625115 6.09794523 -14.92820316 4.82537314 -12.6875 3.5625 C-11.5109082 2.87510742 -11.5109082 2.87510742 -10.31054688 2.17382812 C-9.55193359 1.74650391 -8.79332031 1.31917969 -8.01171875 0.87890625 C-7.33584717 0.4929126 -6.65997559 0.10691895 -5.96362305 -0.29077148 C-3.49591073 -1.1820688 -2.43638023 -0.91107461 0 0 Z " fill="#D98557" transform="translate(146,281)"/>
<path d="M0 0 C0.87022797 -0.0065712 1.74045593 -0.0131424 2.63705444 -0.01991272 C5.51861659 -0.03963381 8.4001267 -0.05130443 11.28173828 -0.0612793 C12.75764624 -0.06739259 12.75764624 -0.06739259 14.26337051 -0.07362938 C19.469198 -0.09448301 24.67499916 -0.10878895 29.88085938 -0.11816406 C35.26015966 -0.12923927 40.63904752 -0.16365408 46.01820183 -0.20333576 C50.15317562 -0.22946251 54.28805044 -0.23785229 58.42309952 -0.24144554 C60.40624915 -0.2463201 62.38939412 -0.25795875 64.37246323 -0.27648354 C67.14708073 -0.30079565 69.9206214 -0.29992475 72.6953125 -0.29296875 C73.51418945 -0.30577881 74.33306641 -0.31858887 75.17675781 -0.33178711 C79.10384678 -0.29589797 81.04276351 -0.09141809 84.46340942 2.02278137 C87.05064862 4.79064463 87.47705078 6.40446115 87.47705078 10.17700195 C85.346616 14.74221934 85.346616 14.74221934 82.47705078 16.17700195 C79.56930117 16.29129414 76.68496403 16.34486883 73.77636719 16.35400391 C72.87541824 16.3605751 71.9744693 16.3671463 71.04621887 16.37391663 C68.05701623 16.39366987 65.06786382 16.40531572 62.07861328 16.4152832 C60.54981096 16.42139649 60.54981096 16.42139649 58.99012375 16.42763329 C53.59742179 16.44850104 48.20474534 16.46280064 42.81201172 16.47216797 C37.23417325 16.48324378 31.65673248 16.51765528 26.07903481 16.55733967 C21.79655195 16.58344596 17.51416479 16.59185439 13.23160934 16.59544945 C11.17506596 16.60032963 9.11852724 16.61198408 7.06206131 16.63048744 C4.18655832 16.65475522 1.31209681 16.6539367 -1.56347656 16.64697266 C-2.8416198 16.66618774 -2.8416198 16.66618774 -4.14558411 16.68579102 C-7.94809322 16.65216078 -9.89828522 16.62358677 -13.05557251 14.36637878 C-15.19554703 11.17346275 -14.99251531 8.93353068 -14.52294922 5.17700195 C-11.23865938 -0.7659987 -6.11172187 0.01997001 0 0 Z " fill="#000000" transform="translate(28.52294921875,152.822998046875)"/>
<path d="M0 0 C0.89163345 -0.0071553 1.78326691 -0.01431061 2.70191956 -0.02168274 C5.6428687 -0.03856222 8.58229203 -0.01917314 11.52319336 0.00219727 C13.56912868 0.00136857 15.61506394 -0.00109082 17.66099548 -0.00511169 C21.94575067 -0.00796909 26.22998295 0.00672741 30.51464844 0.03417969 C36.00844225 0.06828366 41.50130235 0.06223641 46.99514103 0.04351711 C51.21849866 0.03295273 55.44163873 0.04187952 59.66497612 0.05690193 C61.69078361 0.06208687 63.71661378 0.06159818 65.74241829 0.05535698 C68.57226627 0.04991078 71.40077352 0.07025996 74.23046875 0.09765625 C75.06850037 0.09113037 75.90653198 0.08460449 76.7699585 0.07788086 C80.42003661 0.1380139 82.58698732 0.2805759 85.54319763 2.51600647 C87.3572065 5.06142166 87.97585097 6.49428577 88.05053711 9.63110352 C85.77342868 15.26965773 85.77342868 15.26965773 83.05053711 16.63110352 C80.17870506 16.7505712 77.330399 16.8094952 74.45751953 16.82397461 C73.12313591 16.83624084 73.12313591 16.83624084 71.76179504 16.84875488 C68.80987221 16.87362288 65.8579975 16.89012802 62.90600586 16.90454102 C61.89908503 16.90986469 60.89216419 16.91518837 59.85473061 16.92067337 C54.52572007 16.94741038 49.19673301 16.96678399 43.86767578 16.98120117 C38.359343 16.99785524 32.85160779 17.042638 27.34350109 17.09357262 C23.11159058 17.12720356 18.87982267 17.13877403 14.64779091 17.14442825 C12.61717471 17.15115164 10.58656825 17.16640181 8.55608177 17.19031906 C5.71413627 17.22188585 2.87381257 17.22202021 0.03173828 17.21459961 C-0.80741119 17.23100494 -1.64656067 17.24741028 -2.51113892 17.26431274 C-6.81163772 17.21833626 -8.46081694 17.01088982 -11.97172546 14.28213501 C-13.94946289 11.63110352 -13.94946289 11.63110352 -14.57446289 8.63110352 C-12.88874947 0.5396791 -7.01979377 -0.09817716 0 0 Z " fill="#000000" transform="translate(27.949462890625,121.368896484375)"/>
<path d="M0 0 C8.58 0 17.16 0 26 0 C26 0.33 26 0.66 26 1 C24.35 1 22.7 1 21 1 C21.11119164 4.33394127 21.24149734 7.66688349 21.375 11 C21.4059375 11.93457031 21.436875 12.86914062 21.46875 13.83203125 C22.03739133 27.38464962 25.95786007 38.7874787 35 49 C35.50402344 49.68707031 36.00804687 50.37414062 36.52734375 51.08203125 C40.58936632 55.77486203 44.4906262 56.40228901 50.44458008 56.83178711 C54.62759275 56.976513 58.81457501 56.97246431 63 57 C63 50.4 63 43.8 63 37 C63.33 37 63.66 37 64 37 C64 43.93 64 50.86 64 58 C27.05676224 58.95337388 27.05676224 58.95337388 11.78125 44.96875 C4.46122209 37.43021379 -0.15914723 27.37332273 -0.09765625 16.796875 C-0.09515869 15.91354492 -0.09266113 15.03021484 -0.09008789 14.12011719 C-0.08098389 13.00797852 -0.07187988 11.89583984 -0.0625 10.75 C-0.041875 7.2025 -0.02125 3.655 0 0 Z " fill="#9CDD2D" transform="translate(317,108)"/>
<path d="M0 0 C1.58458008 0.02707031 1.58458008 0.02707031 3.20117188 0.0546875 C5.7809255 0.10137987 8.35870817 0.16684412 10.9375 0.25 C11.55933448 9.06623102 11.26653226 15.948201 5.9375 23.25 C1.47702385 28.08817776 -3.05773903 31.92182768 -9.83325195 32.47705078 C-10.81253662 32.46657715 -11.79182129 32.45610352 -12.80078125 32.4453125 C-14.40083008 32.43564453 -14.40083008 32.43564453 -16.03320312 32.42578125 C-17.13599609 32.40902344 -18.23878906 32.39226562 -19.375 32.375 C-20.49712891 32.36597656 -21.61925781 32.35695312 -22.77539062 32.34765625 C-25.53797909 32.32414486 -28.30012932 32.29128155 -31.0625 32.25 C-31.46215735 22.53980663 -31.69987614 14.93704476 -24.9375 7.5 C-17.98183753 0.3713111 -9.43986563 -0.30969906 0 0 Z " fill="#B7E86A" transform="translate(427.0625,203.75)"/>
<path d="M0 0 C20.10953128 -1.04980152 20.10953128 -1.04980152 28.79296875 6.57421875 C30.41594223 8.29336843 31.70984423 10.02041724 33 12 C33.4125 12.62261719 33.825 13.24523437 34.25 13.88671875 C38.20655401 21.09918699 37.35183162 29.03492296 37 37 C17.71472172 38.00677207 17.71472172 38.00677207 10 32 C5.3386918 27.67608172 0.47877582 22.40324912 -0.2355957 15.83325195 C-0.29426614 13.42327008 -0.26243448 11.03443171 -0.1875 8.625 C-0.17396484 7.79355469 -0.16042969 6.96210938 -0.14648438 6.10546875 C-0.11139059 4.07002934 -0.05759228 2.03492709 0 0 Z " fill="#B9E96A" transform="translate(63,207)"/>
<path d="M0 0 C4.0794133 2.72908486 5.69482279 5.85790588 7.2421875 10.5 C7.85424432 16.6205682 6.65046128 21.42892957 3.2421875 26.5 C-0.84673351 30.56393778 -5.02421456 32.84812909 -10.8203125 33.1875 C-17.00409533 32.75540337 -21.23047618 30.27330579 -25.36328125 25.73828125 C-28.5113629 21.3909304 -29.60607523 17.38236514 -29.30078125 12.02734375 C-28.13808834 6.61538468 -25.24174083 2.36169174 -20.82421875 -0.94921875 C-13.31656569 -5.12013712 -7.34245942 -3.92788103 0 0 Z " fill="#EE7979" transform="translate(43.7578125,27.5)"/>
<path d="M0 0 C1.57539551 -0.00218285 1.57539551 -0.00218285 3.18261719 -0.00440979 C5.40172095 -0.00275082 7.62083621 0.00881014 9.83984375 0.02954102 C13.23747609 0.05848705 16.6335475 0.05015096 20.03125 0.03710938 C22.18750759 0.04334706 24.34376025 0.05173824 26.5 0.0625 C27.51674805 0.05956436 28.53349609 0.05662872 29.58105469 0.05360413 C30.52883789 0.0662883 31.47662109 0.07897247 32.453125 0.09204102 C33.28489258 0.097444 34.11666016 0.10284698 34.97363281 0.1084137 C37.80067067 0.58987653 39.17356388 1.54285955 41.25 3.49609375 C42.42407634 7.09659453 42.57759676 8.77538088 41 12.24609375 C39.02674709 14.7831332 37.45149605 16.34112988 34.17654419 16.76351929 C33.38110199 16.77114288 32.58565979 16.77876648 31.76611328 16.78662109 C30.86152374 16.7993808 29.9569342 16.8121405 29.02493286 16.82528687 C27.56239578 16.82862534 27.56239578 16.82862534 26.0703125 16.83203125 C24.56294022 16.84201645 24.56294022 16.84201645 23.02511597 16.85220337 C20.89843578 16.86233189 18.77172381 16.86702033 16.64501953 16.86669922 C13.39432234 16.87106778 10.14498774 16.90737326 6.89453125 16.9453125 C4.82812964 16.95118154 2.76172159 16.95515035 0.6953125 16.95703125 C-0.76115189 16.9785878 -0.76115189 16.9785878 -2.24703979 17.00057983 C-6.61166976 16.97109594 -9.07284965 16.91014679 -12.86352539 14.59228516 C-14.89907959 12.33044118 -15.41192295 11.49047916 -15.3125 8.49609375 C-15.31378906 7.83609375 -15.31507812 7.17609375 -15.31640625 6.49609375 C-13.18337579 -1.03571036 -6.44427879 -0.07120239 0 0 Z " fill="#000000" transform="translate(73.75,90.50390625)"/>
<path d="M0 0 C1.175625 0.02707031 1.175625 0.02707031 2.375 0.0546875 C4.29220189 0.10144852 6.20876715 0.17317997 8.125 0.25 C8.59751308 7.39019763 8.70435762 13.43368946 4.125 19.25 C0.62943721 23.02152827 -2.88198788 24.31660454 -7.953125 24.55078125 C-11.93723502 24.61095883 -15.89711564 24.46723883 -19.875 24.25 C-20.39762079 17.28172284 -20.52758721 11.88914957 -16.5546875 5.96875 C-11.30269579 0.59461895 -7.17249901 -0.31607623 0 0 Z " fill="#B7E76A" transform="translate(134.875,202.75)"/>
<path d="M0 0 C1.64548828 -0.00773437 1.64548828 -0.00773437 3.32421875 -0.015625 C4.46503906 -0.00015625 5.60585938 0.0153125 6.78125 0.03125 C8.49248047 0.00804688 8.49248047 0.00804688 10.23828125 -0.015625 C11.33527344 -0.01046875 12.43226562 -0.0053125 13.5625 0 C15.06393555 0.00676758 15.06393555 0.00676758 16.59570312 0.01367188 C19.97119538 0.66422129 21.15806476 1.88445077 23.28125 4.53125 C23.84765625 6.53125 23.84765625 6.53125 23.84375 8.53125 C23.86566406 9.19125 23.88757812 9.85125 23.91015625 10.53125 C22.84964761 13.90379922 21.35103773 14.80045271 18.28125 16.53125 C14.60267607 17.08909885 10.99458476 17.04408598 7.28125 16.96875 C5.80398437 16.97938477 5.80398437 16.97938477 4.296875 16.99023438 C-4.75259356 16.9107458 -4.75259356 16.9107458 -8.71875 13.53125 C-10.26461876 10.43951248 -10.01234521 7.93695448 -9.71875 4.53125 C-6.80613875 0.68769838 -4.74151256 0.02137192 0 0 Z " fill="#000000" transform="translate(23.71875,90.46875)"/>
<path d="M0 0 C4.19277491 1.39759164 7.08669257 2.44832576 10.7421875 4.6015625 C11.58007812 5.09140625 12.41796875 5.58125 13.28125 6.0859375 C14.1371875 6.59382812 14.993125 7.10171875 15.875 7.625 C16.75414062 8.140625 17.63328125 8.65625 18.5390625 9.1875 C20.6957056 10.45335573 22.84917988 11.72428407 25 13 C22.04628411 15.72558336 19.35389576 17.3403221 15.609375 18.6640625 C10.41541461 20.66368971 5.57135975 22.57352595 2 27 C-0.56843378 35.31837648 0.25425147 44.42858808 1 53 C0.67 53 0.34 53 0 53 C0 35.51 0 18.02 0 0 Z " fill="#D5926F" transform="translate(263,220)"/>
<path d="M0 0 C2.22855574 -0.0814222 4.45797655 -0.13938079 6.6875 -0.1875 C8.54955078 -0.23970703 8.54955078 -0.23970703 10.44921875 -0.29296875 C14.2457708 0.02027812 16.01467371 0.69242347 19 3 C21.28062828 6.42094242 21.21925007 7.68187222 21.125 11.6875 C21.10695312 12.68136719 21.08890625 13.67523438 21.0703125 14.69921875 C21.04710937 15.45847656 21.02390625 16.21773438 21 17 C18.77191841 17.10853983 16.54230068 17.18583307 14.3125 17.25 C13.07113281 17.29640625 11.82976562 17.3428125 10.55078125 17.390625 C6.38504731 16.93234844 4.88867646 15.97715845 2 13 C0.01977931 10.03559777 -0.22874316 7.77726757 -0.125 4.25 C-0.10695312 3.45078125 -0.08890625 2.6515625 -0.0703125 1.828125 C-0.04710937 1.22484375 -0.02390625 0.6215625 0 0 Z " fill="#B2E167" transform="translate(227,400)"/>
<path d="M0 0 C1.75570313 0.02707031 1.75570313 0.02707031 3.546875 0.0546875 C4.88492187 0.08949219 4.88492187 0.08949219 6.25 0.125 C6.82236326 11.04229914 6.82236326 11.04229914 3.25 15.125 C-0.38045354 17.57384366 -3.7156802 17.32933926 -8 17.25 C-9.26328125 17.23195312 -10.5265625 17.21390625 -11.828125 17.1953125 C-12.79234375 17.17210937 -13.7565625 17.14890625 -14.75 17.125 C-15.13160272 12.35496598 -15.2109004 9.03034008 -13 4.6875 C-9.00410931 0.13662449 -5.96906673 -0.11938133 0 0 Z " fill="#B4E468" transform="translate(277.75,153.875)"/>
<path d="M0 0 C2.39774745 -0.13572155 4.78775245 -0.23436868 7.1875 -0.3125 C8.19780273 -0.3753418 8.19780273 -0.3753418 9.22851562 -0.43945312 C13.06030188 -0.53291133 14.84282284 -0.11416026 17.96875 2.15625 C20.29867181 5.41814053 20.55011486 6.86809333 20.3125 10.8125 C20.24482422 12.27623047 20.24482422 12.27623047 20.17578125 13.76953125 C20.11777344 14.50558594 20.05976563 15.24164063 20 16 C17.77191841 16.10853983 15.54230068 16.18583307 13.3125 16.25 C12.07113281 16.29640625 10.82976562 16.3428125 9.55078125 16.390625 C5.4303313 15.93733018 3.89212108 14.89748679 1 12 C-0.26237731 9.47524538 -0.09856404 7.68799534 -0.0625 4.875 C-0.05347656 3.96492187 -0.04445312 3.05484375 -0.03515625 2.1171875 C-0.02355469 1.41851562 -0.01195312 0.71984375 0 0 Z " fill="#B9E96A" transform="translate(228,141)"/>
<path d="M0 0 C2.97 0 5.94 0 9 0 C9.03867188 1.77503906 9.03867188 1.77503906 9.078125 3.5859375 C9.46342273 15.72538455 10.63978976 24.71087751 19 34 C19 34.66 19 35.32 19 36 C11.63317274 34.34246387 6.22995749 29.27480426 2 23.1875 C-1.62615448 16.25050882 -0.36805916 7.5820186 0 0 Z " fill="#A0E22E" transform="translate(63,207)"/>
<path d="M0 0 C1.18851562 0.00902344 2.37703125 0.01804687 3.6015625 0.02734375 C4.51679688 0.03894531 5.43203125 0.05054688 6.375 0.0625 C6.50435912 4.74530024 6.31147097 7.28703732 3.375 11.0625 C-0.02043163 13.30039812 -2.87286692 13.27450289 -6.875 13.1875 C-7.95265625 13.16945313 -9.0303125 13.15140625 -10.140625 13.1328125 C-10.96046875 13.10960937 -11.7803125 13.08640625 -12.625 13.0625 C-12.94970459 8.92251651 -13.0554413 6.72250999 -10.75 3.1875 C-7.2040713 -0.3584287 -4.9148671 -0.04818497 0 0 Z " fill="#AEDB64" transform="translate(275.625,403.9375)"/>
<path d="M0 0 C5.61 0 11.22 0 17 0 C17 3.3 17 6.6 17 10 C12.56473186 8.69047721 9.00013681 6.95266332 5.125 4.4375 C4.15820312 3.81746094 3.19140625 3.19742187 2.1953125 2.55859375 C1.47085938 2.04425781 0.74640625 1.52992188 0 1 C0 0.67 0 0.34 0 0 Z " fill="#E7AC8B" transform="translate(231,432)"/>
</svg>
