<?xml version="1.0" encoding="UTF-8"?>
<svg version="1.1" xmlns="http://www.w3.org/2000/svg" width="512" height="512">
<path d="M0 0 C168.96 0 337.92 0 512 0 C512 168.96 512 337.92 512 512 C343.04 512 174.08 512 0 512 C0 343.04 0 174.08 0 0 Z " fill="#FFFEFE" transform="translate(0,0)"/>
<path d="M0 0 C6.41631618 6.11508068 10.57097024 13.51000896 14.9375 21.125 C15.51773926 22.13062988 16.09797852 23.13625977 16.69580078 24.17236328 C20.08066187 30.04611838 23.44283473 35.93231133 26.7890625 41.828125 C30.66255186 48.65289262 34.57389248 55.45535016 38.5 62.25 C39.11447998 63.31395996 39.72895996 64.37791992 40.36206055 65.47412109 C41.6007315 67.61859354 42.83958192 69.76296234 44.07861328 71.90722656 C47.20074605 77.31170645 50.31891204 82.71847412 53.4375 88.125 C54.68748122 90.2916775 55.93748121 92.45834417 57.1875 94.625 C79.6875 133.62499999 79.6875 133.62499999 81.56274414 136.87548828 C82.81185518 139.04057071 84.06104129 141.20560982 85.31030273 143.37060547 C88.44952309 148.81115706 91.58740563 154.25247216 94.72265625 159.6953125 C100.74497329 170.14706199 106.78419337 180.58799548 112.875 191 C118.29671178 200.26999777 123.63954915 209.58331752 128.95672607 218.91345215 C133.59525289 227.050701 138.27137234 235.1646636 143 243.25 C149.78850876 254.85947429 156.54318981 266.4876255 163.23046875 278.15576172 C164.80988742 280.90302858 166.40357557 283.64150169 168 286.37890625 C175.77417269 299.82989304 180.82365806 312.32825013 177.05859375 328.1875 C173.18485711 342.46778601 165.65960835 354.4886176 152.9375 362.4375 C141.81359183 368.70640997 131.84138922 369.2739618 119.30671692 369.27217102 C117.91091949 369.27547386 116.51512301 369.2792003 115.11932772 369.2833125 C111.29317554 369.29329242 107.46703904 369.29704279 103.6408757 369.29970181 C99.51052622 369.30361665 95.38018902 369.31319394 91.24984741 369.32191467 C81.28154616 369.34164284 71.31324394 369.35173934 61.34492806 369.36064246 C56.64692512 369.36503018 51.9489233 369.37039562 47.25092125 369.37563133 C31.62861395 369.39263777 16.00630733 369.40713213 0.3839922 369.41438007 C-3.66661263 369.41628985 -7.71721746 369.4182102 -11.76782227 369.42016602 C-12.77453444 369.42064976 -13.78124661 369.4211335 -14.81846521 369.4216319 C-31.12822803 369.4299331 -47.43791752 369.45527419 -63.74764832 369.48774669 C-80.50375322 369.52083529 -97.25982087 369.53883035 -114.01595861 369.54202431 C-123.41944481 369.54418742 -132.822824 369.55290731 -142.22627831 369.57848549 C-150.23376619 369.60021684 -158.24112104 369.60823082 -166.24863508 369.59851871 C-170.33118658 369.59398145 -174.41346372 369.59582668 -178.4959774 369.61528015 C-182.23988761 369.63296554 -185.98332439 369.63187114 -189.72724 369.61638286 C-191.7093392 369.61290084 -193.69144367 369.62899263 -195.67347306 369.64598733 C-210.38656919 369.54081691 -222.5113562 364.42855802 -233.3125 354.4375 C-243.84609224 343.19159517 -248.44024424 329.18110233 -248.59375 313.96484375 C-247.134784 303.41952329 -243.0189712 294.41716042 -237.6875 285.3125 C-236.76493408 283.70145386 -236.76493408 283.70145386 -235.82373047 282.05786133 C-233.91755173 278.73843089 -231.99269696 275.43051183 -230.0625 272.125 C-228.90619983 270.13544582 -227.74994823 268.14586342 -226.59375 266.15625 C-224.88488185 263.22126282 -223.17316259 260.28804313 -221.45556641 257.3581543 C-216.93437454 249.64579108 -212.48741895 241.89277844 -208.0625 234.125 C-202.52296897 224.40357016 -196.92874813 214.71604696 -191.27905273 205.05810547 C-185.12483258 194.53415375 -179.03880004 183.97119863 -172.95361328 173.40722656 C-169.82569852 167.97840058 -166.69391552 162.55180719 -163.5625 157.125 C-162.31248121 154.95834417 -161.06248122 152.7916775 -159.8125 150.625 C-142.3125 120.29166667 -124.8125 89.95833333 -107.3125 59.625 C-106.69318604 58.5512915 -106.07387207 57.47758301 -105.43579102 56.37133789 C-104.19229621 54.21641147 -102.94799965 52.06194748 -101.70288086 49.90795898 C-98.81072829 44.90249981 -95.92595897 39.8933037 -93.07131958 34.86636353 C-92.07171832 33.10700581 -91.06945802 31.34918931 -90.06640625 29.59179688 C-88.81765312 27.40208187 -87.57375733 25.20958587 -86.3359375 23.01367188 C-77.19341653 7.01939643 -67.61665286 -5.3161275 -49.7890625 -11.6875 C-32.11686911 -16.41760381 -13.8742816 -11.32418 0 0 Z " fill="#FEDF8D" transform="translate(291.0625,77.875)"/>
<path d="M0 0 C6.41631618 6.11508068 10.57097024 13.51000896 14.9375 21.125 C15.51773926 22.13062988 16.09797852 23.13625977 16.69580078 24.17236328 C20.08066187 30.04611838 23.44283473 35.93231133 26.7890625 41.828125 C30.66255186 48.65289262 34.57389248 55.45535016 38.5 62.25 C39.11447998 63.31395996 39.72895996 64.37791992 40.36206055 65.47412109 C41.6007315 67.61859354 42.83958192 69.76296234 44.07861328 71.90722656 C47.20074605 77.31170645 50.31891204 82.71847412 53.4375 88.125 C54.68748122 90.2916775 55.93748121 92.45834417 57.1875 94.625 C79.6875 133.62499999 79.6875 133.62499999 81.56274414 136.87548828 C82.81185518 139.04057071 84.06104129 141.20560982 85.31030273 143.37060547 C88.44952309 148.81115706 91.58740563 154.25247216 94.72265625 159.6953125 C100.74497329 170.14706199 106.78419337 180.58799548 112.875 191 C118.29671178 200.26999777 123.63954915 209.58331752 128.95672607 218.91345215 C133.59525289 227.050701 138.27137234 235.1646636 143 243.25 C149.78850876 254.85947429 156.54318981 266.4876255 163.23046875 278.15576172 C164.80988742 280.90302858 166.40357557 283.64150169 168 286.37890625 C175.77417269 299.82989304 180.82365806 312.32825013 177.05859375 328.1875 C173.18485711 342.46778601 165.65960835 354.4886176 152.9375 362.4375 C141.81359183 368.70640997 131.84138922 369.2739618 119.30671692 369.27217102 C117.91091949 369.27547386 116.51512301 369.2792003 115.11932772 369.2833125 C111.29317554 369.29329242 107.46703904 369.29704279 103.6408757 369.29970181 C99.51052622 369.30361665 95.38018902 369.31319394 91.24984741 369.32191467 C81.28154616 369.34164284 71.31324394 369.35173934 61.34492806 369.36064246 C56.64692512 369.36503018 51.9489233 369.37039562 47.25092125 369.37563133 C31.62861395 369.39263777 16.00630733 369.40713213 0.3839922 369.41438007 C-3.66661263 369.41628985 -7.71721746 369.4182102 -11.76782227 369.42016602 C-12.77453444 369.42064976 -13.78124661 369.4211335 -14.81846521 369.4216319 C-31.12822803 369.4299331 -47.43791752 369.45527419 -63.74764832 369.48774669 C-80.50375322 369.52083529 -97.25982087 369.53883035 -114.01595861 369.54202431 C-123.41944481 369.54418742 -132.822824 369.55290731 -142.22627831 369.57848549 C-150.23376619 369.60021684 -158.24112104 369.60823082 -166.24863508 369.59851871 C-170.33118658 369.59398145 -174.41346372 369.59582668 -178.4959774 369.61528015 C-182.23988761 369.63296554 -185.98332439 369.63187114 -189.72724 369.61638286 C-191.7093392 369.61290084 -193.69144367 369.62899263 -195.67347306 369.64598733 C-210.38656919 369.54081691 -222.5113562 364.42855802 -233.3125 354.4375 C-243.84609224 343.19159517 -248.44024424 329.18110233 -248.59375 313.96484375 C-247.134784 303.41952329 -243.0189712 294.41716042 -237.6875 285.3125 C-236.76493408 283.70145386 -236.76493408 283.70145386 -235.82373047 282.05786133 C-233.91755173 278.73843089 -231.99269696 275.43051183 -230.0625 272.125 C-228.90619983 270.13544582 -227.74994823 268.14586342 -226.59375 266.15625 C-224.88488185 263.22126282 -223.17316259 260.28804313 -221.45556641 257.3581543 C-216.93437454 249.64579108 -212.48741895 241.89277844 -208.0625 234.125 C-202.52296897 224.40357016 -196.92874813 214.71604696 -191.27905273 205.05810547 C-185.12483258 194.53415375 -179.03880004 183.97119863 -172.95361328 173.40722656 C-169.82569852 167.97840058 -166.69391552 162.55180719 -163.5625 157.125 C-162.31248121 154.95834417 -161.06248122 152.7916775 -159.8125 150.625 C-142.3125 120.29166667 -124.8125 89.95833333 -107.3125 59.625 C-106.69318604 58.5512915 -106.07387207 57.47758301 -105.43579102 56.37133789 C-104.19229621 54.21641147 -102.94799965 52.06194748 -101.70288086 49.90795898 C-98.81072829 44.90249981 -95.92595897 39.8933037 -93.07131958 34.86636353 C-92.07171832 33.10700581 -91.06945802 31.34918931 -90.06640625 29.59179688 C-88.81765312 27.40208187 -87.57375733 25.20958587 -86.3359375 23.01367188 C-77.19341653 7.01939643 -67.61665286 -5.3161275 -49.7890625 -11.6875 C-32.11686911 -16.41760381 -13.8742816 -11.32418 0 0 Z M-47.30859375 27.5078125 C-51.133628 32.22855115 -53.95722244 37.60109085 -56.9375 42.875 C-57.93550811 44.62295996 -58.93352496 46.37091501 -59.93208313 48.11856079 C-60.96384717 49.92600261 -61.99311396 51.73484837 -63.02197266 53.54394531 C-66.19932682 59.12623732 -69.41320145 64.68747941 -72.625 70.25 C-73.24624756 71.32749512 -73.86749512 72.40499023 -74.50756836 73.51513672 C-78.64744446 80.69106569 -82.81692367 87.84918856 -87 95 C-92.07525123 103.67762241 -97.08508767 112.39105568 -102.0625 121.125 C-107.6025173 130.84615617 -113.19624809 140.53394658 -118.84594727 150.19189453 C-125.00016742 160.71584625 -131.08619996 171.27880137 -137.17138672 181.84277344 C-140.29930148 187.27159942 -143.43108448 192.69819281 -146.5625 198.125 C-147.81251879 200.29165583 -149.06251878 202.4583225 -150.3125 204.625 C-172.8125 243.625 -172.8125 243.625 -174.68823242 246.8762207 C-175.9358474 249.03878583 -177.18340616 251.20138339 -178.4309082 253.36401367 C-181.59193449 258.84370371 -184.75399309 264.32279358 -187.91796875 269.80078125 C-193.94188214 280.23224983 -199.95784414 290.66808249 -205.9375 301.125 C-206.6967981 302.45204956 -206.6967981 302.45204956 -207.47143555 303.8059082 C-207.93203369 304.6124585 -208.39263184 305.41900879 -208.8671875 306.25 C-209.26921387 306.95382812 -209.67124023 307.65765625 -210.08544922 308.3828125 C-212.91223544 313.42327888 -212.94284569 318.4453504 -212.0625 324.125 C-209.43818364 328.73918261 -205.98182874 332.09641871 -201.0625 334.125 C-198.38453972 334.42497262 -198.38453972 334.42497262 -195.41771889 334.37947559 C-193.68181698 334.38822388 -193.68181698 334.38822388 -191.91084635 334.39714891 C-190.63868655 334.39336958 -189.36652675 334.38959026 -188.05581665 334.38569641 C-186.69132953 334.3887163 -185.32684411 334.39260497 -183.96236169 334.39728898 C-180.20903277 334.4075988 -176.45579904 334.40537959 -172.7024622 334.40110838 C-168.65601628 334.39864654 -164.6095936 334.40764859 -160.56315613 334.41514587 C-152.63410671 334.42791024 -144.70509114 334.42968439 -136.77603318 334.42734561 C-130.33214424 334.42556415 -123.8882656 334.4273084 -117.4443779 334.43157005 C-116.06982249 334.43246284 -116.06982249 334.43246284 -114.66749828 334.43337366 C-112.8060118 334.43458538 -110.94452533 334.43579952 -109.08303885 334.43701603 C-91.61662703 334.44789837 -74.15023451 334.44572586 -56.6838216 334.43963119 C-40.6996183 334.43446199 -24.71547594 334.4457163 -8.73128469 334.46472941 C7.67439672 334.48409452 24.08004929 334.4923661 40.48574221 334.48860615 C49.69902528 334.48669202 58.91225648 334.48920228 68.12553024 334.50332069 C75.96929619 334.51521861 83.81297835 334.51665731 91.65674542 334.50453053 C95.6594977 334.4986305 99.66209661 334.49757328 103.66483879 334.50953293 C107.32892903 334.52035357 110.99273711 334.51733422 114.65681393 334.50327124 C116.61066806 334.49935447 118.56453454 334.51020259 120.51835954 334.52156812 C127.50005621 334.47828673 132.10022604 333.95952953 137.8359375 329.72265625 C140.99331936 326.43998146 142.50508444 323.48815212 143 318.9375 C142.49803808 309.93564951 137.14398105 302.44499926 132.61425781 294.91699219 C130.92118681 292.09783668 129.26459661 289.26011373 127.6171875 286.4140625 C125.29157941 282.39932149 122.95411711 278.39193183 120.60546875 274.390625 C116.87424029 268.02728965 113.18271942 261.64150445 109.5 255.25 C108.87770508 254.17024902 108.25541016 253.09049805 107.61425781 251.97802734 C106.35221274 249.78785466 105.09033148 247.59758757 103.82861328 245.40722656 C100.70069852 239.97840058 97.56891552 234.55180719 94.4375 229.125 C93.18748121 226.95834417 91.93748122 224.7916775 90.6875 222.625 C90.06875 221.5525 89.45 220.48 88.8125 219.375 C38.1875 131.625 38.1875 131.625 36.31225586 128.37451172 C35.06314482 126.20942929 33.81395871 124.04439018 32.56469727 121.87939453 C29.42547691 116.43884294 26.28759437 110.99752784 23.15234375 105.5546875 C16.56859424 94.12857025 9.96103877 82.7175024 3.29467773 71.33935547 C0.06141029 65.80822555 -3.13152942 60.25645989 -6.28515625 54.6796875 C-6.64197983 54.04999054 -6.99880341 53.42029358 -7.36643982 52.77151489 C-9.10372146 49.70567165 -10.83593773 46.63721037 -12.55834961 43.56298828 C-19.38840142 30.36312121 -19.38840142 30.36312121 -31.0625 22.125 C-37.90604873 21.67624271 -42.3712304 22.26991399 -47.30859375 27.5078125 Z " fill="#FF7A88" transform="translate(291.0625,77.875)"/>
<path d="M0 0 C1.00476883 -0.00637985 2.00953766 -0.0127597 3.04475403 -0.01933289 C4.13430893 -0.02044571 5.22386383 -0.02155853 6.34643555 -0.02270508 C7.46374557 -0.02603348 8.5810556 -0.02936188 9.73222351 -0.03279114 C12.10028674 -0.03786167 14.46835713 -0.04019942 16.83642578 -0.04003906 C20.45772121 -0.042221 24.07870987 -0.06036309 27.69995117 -0.0793457 C29.99877825 -0.0822805 32.29760678 -0.08426472 34.59643555 -0.08520508 C35.67991776 -0.09239059 36.76339996 -0.09957611 37.87971497 -0.10697937 C38.89394028 -0.10390274 39.90816559 -0.10082611 40.953125 -0.09765625 C41.84199905 -0.09908127 42.73087311 -0.10050629 43.64668274 -0.10197449 C47.24699002 0.25069721 50.14987544 1.15808047 52.77294922 3.69482422 C53.22774658 4.30108643 53.68254395 4.90734863 54.15112305 5.53198242 C54.6709375 6.21639404 55.19075195 6.90080566 55.72631836 7.60595703 C56.26482422 8.34080322 56.80333008 9.07564941 57.3581543 9.83276367 C57.92115234 10.58501221 58.48415039 11.33726074 59.06420898 12.11230469 C75.82900671 34.72203683 75.82900671 34.72203683 75.6862793 42.23901367 C74.1148487 51.09616794 68.14716365 59.47651099 63.7097168 67.15307617 C63.11570068 68.1854541 62.52168457 69.21783203 61.90966797 70.28149414 C60.71999669 72.33774396 59.51723773 74.38648371 58.30078125 76.42700195 C57.75123779 77.37043457 57.20169434 78.31386719 56.63549805 79.28588867 C56.13655029 80.12667969 55.63760254 80.9674707 55.12353516 81.83374023 C54.00900494 84.055587 54.00900494 84.055587 54.30883789 86.25732422 C55.36355006 88.56783108 56.51571136 89.62426302 58.49487305 91.21166992 C59.18645508 91.77370117 59.87803711 92.33573242 60.59057617 92.91479492 C61.33887695 93.50647461 62.08717773 94.0981543 62.8581543 94.70776367 C63.62836914 95.3290918 64.39858398 95.95041992 65.19213867 96.59057617 C70.37038902 100.75541171 75.59612214 104.86158499 80.83911133 108.94458008 C87.14398503 113.86805903 93.29507375 118.97708868 99.45581055 124.07885742 C100.0988916 124.60688965 100.74197266 125.13492188 101.40454102 125.67895508 C102.93581093 126.95028589 104.43705416 128.25761772 105.93237305 129.57104492 C108.22794929 131.53595003 108.22794929 131.53595003 111.9206543 130.89526367 C112.94545898 130.71157227 112.94545898 130.71157227 113.9909668 130.52416992 C119.32409642 129.59708466 123.64667246 129.38327275 128.5456543 131.83276367 C131.17080375 134.14539534 132.70962571 135.97970174 134.1706543 139.14526367 C134.1706543 140.13526367 134.1706543 141.12526367 134.1706543 142.14526367 C135.1400293 142.08338867 136.1094043 142.02151367 137.1081543 141.95776367 C144.98631408 142.02129722 150.83347617 144.99452846 156.52612305 150.30541992 C158.64309186 152.67381021 159.80900383 155.29228175 161.1706543 158.14526367 C162.83013577 159.15714262 164.49645991 160.15791827 166.1706543 161.14526367 C167.4831543 163.83276367 167.4831543 163.83276367 168.1706543 166.14526367 C169.1194043 166.04213867 170.0681543 165.93901367 171.0456543 165.83276367 C176.36427826 165.83276367 180.80822698 168.27606865 185.1706543 171.14526367 C187.61950965 174.17032029 188.1706543 175.27800691 188.1706543 179.14526367 C142.9606543 179.14526367 97.7506543 179.14526367 51.1706543 179.14526367 C55.26808747 172.31620838 59.5734522 169.14452738 67.1706543 167.14526367 C70.6706543 166.95776367 70.6706543 166.95776367 73.1706543 167.14526367 C73.0675293 166.25838867 72.9644043 165.37151367 72.8581543 164.45776367 C73.1706543 161.14526367 73.1706543 161.14526367 75.2331543 158.27026367 C78.82102941 155.67477955 80.8383614 155.72052907 85.1706543 156.14526367 C85.3562793 155.44401367 85.5419043 154.74276367 85.7331543 154.02026367 C88.24736329 148.99184569 92.15114447 145.87940915 97.4050293 143.96948242 C98.31768555 143.69749023 99.2303418 143.42549805 100.1706543 143.14526367 C91.89268499 136.35803037 83.58809289 129.60400495 75.27758789 122.85668945 C72.46760933 120.57419239 69.65962496 118.28924816 66.8515625 116.00439453 C64.21906997 113.86395084 61.5834231 111.72740729 58.94799805 109.59057617 C57.29896307 108.24960268 55.65582748 106.90178467 54.0144043 105.55151367 C53.1172168 104.81932617 52.2200293 104.08713867 51.2956543 103.33276367 C50.53510742 102.70756836 49.77456055 102.08237305 48.9909668 101.43823242 C47.27102849 99.95223542 47.27102849 99.95223542 45.1706543 100.14526367 C45.91158997 104.38454118 48.09153089 106.61664546 50.89331055 109.75463867 C52.74759241 113.22503776 52.79831567 116.34988054 52.1706543 120.14526367 C51.09718196 123.09794662 49.61050777 125.73926346 48.0456543 128.45776367 C47.12966469 130.11685742 46.21572813 131.77708574 45.3034668 133.43823242 C44.80363281 134.33977051 44.30379883 135.24130859 43.78881836 136.17016602 C42.00743463 139.44535341 40.29841463 142.75191867 38.6003418 146.07104492 C38.29583099 146.66603287 37.99132019 147.26102081 37.67758179 147.8740387 C36.17086685 150.81949704 34.66836684 153.76699198 33.17016602 156.71679688 C23.38841314 175.7403005 23.38841314 175.7403005 17.1706543 179.14526367 C12.78070016 179.99637723 10.0289648 179.69312144 6.2331543 177.27026367 C3.05495738 173.99575776 2.70601694 171.49099408 2.7644043 166.9230957 C3.622443 161.05604982 6.57786145 155.8544913 9.1706543 150.58276367 C9.76812437 149.33406081 10.36406384 148.08462449 10.95849609 146.83447266 C13.50715672 141.49905026 16.12526336 136.20011024 18.81518555 130.93432617 C19.18836914 130.20286377 19.56155273 129.47140137 19.94604492 128.71777344 C20.61405653 127.4231078 21.29295941 126.13397502 21.98510742 124.85205078 C23.75017377 121.48461704 24.84156354 118.94919251 24.1706543 115.14526367 C22.7577797 112.98214817 22.7577797 112.98214817 20.7331543 111.02026367 C17.56337558 107.64887359 14.53260005 104.23298578 11.6081543 100.64526367 C10.5852832 99.39229492 10.5852832 99.39229492 9.54174805 98.11401367 C6.37927384 94.15440841 3.27386423 90.15139586 0.1706543 86.14526367 C0.18225586 87.00240967 0.19385742 87.85955566 0.20581055 88.74267578 C0.37382755 111.35446408 -2.55913286 131.44593335 -8.8293457 153.14526367 C-9.39191073 155.18300614 -9.95441703 157.22076482 -10.5168457 159.25854492 C-11.01151058 160.97233343 -11.51102488 162.68473461 -12.0168457 164.39526367 C-12.33625122 165.50212524 -12.33625122 165.50212524 -12.66210938 166.63134766 C-14.14048844 171.26375066 -16.13383542 174.00967919 -19.8293457 177.14526367 C-23.04628934 178.75373549 -26.35071792 178.75835516 -29.8293457 178.14526367 C-32.52039769 175.96951951 -34.28467498 174.23460511 -35.8293457 171.14526367 C-36.26980708 163.81892278 -34.96795929 157.575325 -33.0793457 150.52026367 C-32.82668945 149.54186523 -32.5740332 148.5634668 -32.3137207 147.55541992 C-32.0559082 146.56155273 -31.7980957 145.56768555 -31.5324707 144.54370117 C-31.2643457 143.49851318 -30.9962207 142.4533252 -30.7199707 141.37646484 C-30.13168014 139.24213764 -29.47594126 137.12514446 -28.7512207 135.03320312 C-24.48593267 121.86698253 -25.2962124 108.27815134 -25.3293457 94.58276367 C-25.34139519 89.53941729 -25.32774982 84.49711202 -25.2980957 79.45385742 C-25.31507507 77.73349525 -25.31507507 77.73349525 -25.33239746 75.9783783 C-25.27890663 67.55313648 -23.8954066 64.35069097 -18.0793457 58.27026367 C-17.3368457 57.56901367 -16.5943457 56.86776367 -15.8293457 56.14526367 C-16.4687207 55.56776367 -17.1080957 54.99026367 -17.7668457 54.39526367 C-19.8293457 52.14526367 -19.8293457 52.14526367 -20.11450195 50.27416992 C-21.49307239 46.1685913 -25.95893516 44.09863825 -29.3605957 41.65698242 C-32.45769998 38.50597284 -32.71201744 36.49661204 -32.8293457 32.14526367 C-31.7668457 30.14526367 -31.7668457 30.14526367 -29.8293457 29.14526367 C-24.24268832 29.14526367 -21.05956882 31.84568964 -16.8293457 35.14526367 C-16.70043945 33.86006836 -16.5715332 32.57487305 -16.4387207 31.25073242 C-15.88079932 26.26748011 -15.05715756 21.3744225 -14.0793457 16.45776367 C-13.8627832 15.23476562 -13.8627832 15.23476562 -13.6418457 13.98706055 C-12.51740076 8.37843801 -10.89272599 5.20225499 -6.8293457 1.14526367 C-4.3713614 -0.08372848 -2.74839927 0.01181782 0 0 Z " fill="#6D6867" transform="translate(212.829345703125,214.854736328125)"/>
<path d="M0 0 C5.18570025 3.01713469 9.51359715 7.22829145 11.4375 13 C12.05430218 19.16802176 10.56417353 23.76180669 7.4375 29 C2.97029941 33.46720059 -1.26876316 35.09515403 -7.5 35.375 C-13.04698399 35.24332085 -16.13740893 33.5239399 -20 29.50390625 C-24.49790576 24.37987157 -24.91324458 20.31117402 -24.84375 13.7265625 C-24.32083098 8.6571531 -21.71423296 6.03655966 -18.0625 2.75 C-12.01711506 -1.48176946 -7.11275465 -1.99656271 0 0 Z " fill="#6E6867" transform="translate(304.5625,208)"/>
<path d="M0 0 C6.27 0 12.54 0 19 0 C19 0.66 19 1.32 19 2 C17.43059199 3.43812673 15.79125965 4.8003005 14.125 6.125 C13.13113281 6.92035156 12.13726562 7.71570313 11.11328125 8.53515625 C10.08589844 9.34855469 9.05851563 10.16195312 8 11 C6.10384427 12.52043135 4.20798421 14.04123156 2.3125 15.5625 C0.87550532 16.70896699 -0.56179506 17.8550516 -2 19 C-3.56438455 14.98025693 -2.46082878 11.29750176 -1.5625 7.25 C-1.046875 4.8575 -0.53125 2.465 0 0 Z " fill="#F4D78A" transform="translate(222,236)"/>
</svg>
