<?xml version="1.0" encoding="UTF-8"?>
<svg version="1.1" xmlns="http://www.w3.org/2000/svg" width="512" height="512">
<path d="M0 0 C1.37191319 -0.00374054 2.74382424 -0.00834367 4.11573195 -0.01373065 C7.87123852 -0.0259262 11.62665576 -0.02570426 15.38217759 -0.02334189 C19.43821465 -0.02293285 23.49422341 -0.03398119 27.55024719 -0.04345703 C35.4914528 -0.06004909 43.43262871 -0.06556577 51.3738502 -0.06668179 C57.83094094 -0.06763311 64.28802191 -0.07174763 70.74510956 -0.07808304 C89.06445833 -0.09569055 107.38378371 -0.10492268 125.703141 -0.10342209 C126.69013462 -0.10334218 127.67712824 -0.10326227 128.69403076 -0.10317993 C129.68223374 -0.10309817 130.67043673 -0.10301641 131.68858525 -0.10293217 C147.7008296 -0.10211941 163.71297985 -0.12125587 179.72519699 -0.14945666 C196.17849546 -0.17820494 212.63174806 -0.19199589 229.08507228 -0.19026911 C238.31751019 -0.18960588 247.54984946 -0.19506877 256.78226471 -0.21662521 C264.6433453 -0.23486259 272.50428251 -0.23916338 280.36537513 -0.22560637 C284.37299508 -0.21908959 288.38034017 -0.21891252 292.38793373 -0.23631287 C296.06335001 -0.25210624 299.73827494 -0.2491169 303.41367969 -0.2317446 C305.35894111 -0.22725087 307.30421816 -0.24228273 309.24941945 -0.25822389 C322.96334745 -0.15123269 333.64949828 3.99042407 343.69940186 13.33383179 C358.14007662 28.42231252 356.77019186 47.94704604 356.70379639 67.40731812 C356.70323147 69.73432917 356.70355041 72.06134059 356.7046814 74.38835144 C356.70525275 80.67253679 356.69353363 86.95664503 356.67953348 93.24081254 C356.66698987 99.82045486 356.66585277 106.40009915 356.66348267 112.97975159 C356.65831544 124.01258676 356.64550916 135.04539507 356.62762451 146.07821655 C356.60923243 157.43596253 356.59509227 168.79370085 356.58660889 180.15145874 C356.58608344 180.85297429 356.58555799 181.55448984 356.58501662 182.27726344 C356.58240632 185.79698596 356.57987896 189.31670854 356.57739282 192.83643115 C356.55670022 221.98011419 356.52135986 251.12376949 356.47674561 280.26742554 C357.59641724 280.25743279 357.59641724 280.25743279 358.7387085 280.24723816 C365.79993566 280.18693369 372.86107245 280.14135339 379.92248535 280.11198902 C383.55217545 280.09638455 387.18165138 280.07524296 390.81121826 280.04110718 C394.31904177 280.00832575 397.82666028 279.99053335 401.33462524 279.98279381 C403.3131385 279.97461636 405.29157019 279.9512273 407.2699585 279.92753601 C421.82906403 279.92483338 421.82906403 279.92483338 427.02288818 284.68424988 C430.95756197 289.16137392 431.60167086 292.57813169 431.62391663 298.36264038 C431.63464958 300.27602959 431.63464958 300.27602959 431.64559937 302.22807312 C431.64843967 303.64483618 431.6511514 305.06159951 431.65374756 306.47836304 C431.66001326 307.96832945 431.66666016 309.4582943 431.67366028 310.94825745 C431.6946998 315.84630242 431.70506623 320.74434767 431.71502686 325.64242554 C431.7190752 327.33081071 431.72319215 329.01919572 431.72737694 330.70758057 C431.7464326 338.64454822 431.76065982 346.58150657 431.76898891 354.5184927 C431.77874695 363.66536408 431.80502729 372.81199253 431.8454898 381.95877838 C431.87571949 389.03666126 431.89046448 396.11447481 431.89376992 403.19242096 C431.89611366 407.41542845 431.90498466 411.63817656 431.93023109 415.8611145 C431.9536355 419.84043533 431.95769588 423.81932832 431.94746971 427.79870033 C431.94697714 429.25184877 431.95321458 430.70501915 431.96702576 432.15810204 C432.09068869 445.95122167 429.30927419 456.1865081 419.62908936 466.17367554 C412.02720362 473.30705539 403.88799862 476.38685094 393.55527592 476.40164661 C392.85556859 476.40399884 392.15586126 476.40635107 391.43495068 476.40877458 C389.07867332 476.41545783 386.7224512 476.41500656 384.36616516 476.41459656 C382.66430974 476.41789562 380.9624551 476.42162127 379.26060146 476.42573804 C374.5744841 476.43576163 369.88837955 476.43947542 365.20225298 476.44212735 C360.15157884 476.44602941 355.10091486 476.45560791 350.05024719 476.46434021 C337.84707423 476.48410881 325.64390043 476.49417196 313.44071546 476.503068 C307.69383862 476.50745081 301.9469627 476.51281769 296.20008659 476.51805687 C277.09508868 476.53507058 257.99009134 476.54956422 238.88508701 476.55680561 C233.92646344 476.55871551 228.96783987 476.56063584 224.00921631 476.56259155 C222.77677383 476.56307529 221.54433136 476.56355903 220.27454215 476.56405743 C200.31491638 476.57235567 180.35535059 476.59768848 160.39575101 476.63017223 C139.90278551 476.66325199 119.40985047 476.68125526 98.91685814 476.68444985 C87.41123006 476.68661424 75.9056894 476.69535244 64.40008736 476.72091103 C54.60000152 476.74263062 44.80002433 476.75066226 34.99991716 476.74094424 C30.00186124 476.73640305 25.00402944 476.73827537 20.00600433 476.75770569 C15.4243257 476.77536311 10.84303424 476.7743187 6.26135134 476.7588084 C4.60983262 476.75643623 2.95828691 476.76073547 1.30680937 476.77263705 C-14.86537595 476.8819009 -27.16826731 473.74829034 -39.32794189 462.61508179 C-46.62137154 454.88706955 -50.64030726 444.96078638 -50.66026878 434.47089481 C-50.66424652 433.44159431 -50.66424652 433.44159431 -50.66830462 432.39149985 C-50.67599312 430.08117149 -50.67655662 427.77089633 -50.67715454 425.46055603 C-50.68116947 423.79169883 -50.68560775 422.12284259 -50.6904341 420.45398754 C-50.70240226 415.85908465 -50.70804863 411.26419226 -50.71261525 406.66927683 C-50.71857051 401.71676165 -50.73018064 396.76425903 -50.74090576 391.81175232 C-50.76543286 379.84588504 -50.78005806 367.88001361 -50.79296583 355.91412893 C-50.79667776 352.53420296 -50.800651 349.1542774 -50.80471849 345.77435184 C-50.82995675 324.78456484 -50.85200946 303.79477719 -50.86444664 282.80497837 C-50.86737633 277.94260722 -50.870338 273.08023609 -50.87335205 268.21786499 C-50.8740981 267.00934743 -50.87484415 265.80082988 -50.87561281 264.55569058 C-50.88826294 244.98404065 -50.9214811 225.41248164 -50.96315388 205.8408742 C-51.00559059 185.74567367 -51.02914375 165.65051965 -51.0343672 145.55527443 C-51.03777951 134.27318753 -51.04951343 122.99124267 -51.08246994 111.70919991 C-51.11049551 102.09940725 -51.12145876 92.48978576 -51.11027448 82.87995542 C-51.10509415 77.97906043 -51.107934 73.07852372 -51.13274002 68.17768097 C-51.1552909 63.68474918 -51.1544475 59.19243185 -51.13553615 54.69948887 C-51.13274429 53.08026767 -51.1382891 51.46100428 -51.15334909 49.84185071 C-51.28663134 34.5695904 -47.66258591 22.70924084 -36.87091064 11.56039429 C-26.23569186 1.67589683 -13.93809223 -0.03414744 0 0 Z " fill="#E4E7EE" transform="translate(65.52325439453125,17.732574462890625)"/>
<path d="M0 0 C18.20812415 15.11538798 30.67890343 35.55678121 34.71704102 58.99511719 C36.72045784 89.57638735 30.47972696 112.78123485 10.89672852 136.40527344 C5.54686592 142.88788535 0.58390832 149.38700511 -3.72045898 156.62011719 C-4.3031958 157.58522217 -4.3031958 157.58522217 -4.89770508 158.56982422 C-8.54168894 164.89686224 -10.57501882 170.95447276 -13.28295898 177.99511719 C-49.91295898 177.99511719 -86.54295898 177.99511719 -124.28295898 177.99511719 C-125.93295898 173.70511719 -127.58295898 169.41511719 -129.28295898 164.99511719 C-134.90273884 153.62486492 -142.1700806 143.53925075 -150.40795898 133.93261719 C-168.8274956 112.07746168 -173.84440307 87.2102993 -172.04467773 59.29980469 C-169.89585799 41.97901527 -161.36041433 26.22048871 -150.28295898 12.99511719 C-149.7015918 12.26808594 -149.12022461 11.54105469 -148.52124023 10.79199219 C-112.20359007 -32.75873295 -42.59183634 -34.45605492 0 0 Z " fill="#FED80D" transform="translate(298.282958984375,199.0048828125)"/>
<path d="M0 0 C7.94559651 -0.06974168 15.89106351 -0.12293312 23.83689117 -0.15543652 C27.52711355 -0.17104246 31.21712535 -0.19218682 34.90722656 -0.22631836 C38.47340442 -0.25909442 42.03938068 -0.27689109 45.60569763 -0.28463173 C47.61744847 -0.29281099 49.62911907 -0.31620093 51.64074707 -0.33988953 C66.35435114 -0.34257676 66.35435114 -0.34257676 71.54528809 4.41682434 C75.48143996 8.8928813 76.12492596 12.31089065 76.14717102 18.09521484 C76.15432632 19.37080765 76.16148163 20.64640045 76.16885376 21.96064758 C76.17169407 23.37741065 76.17440579 24.79417397 76.17700195 26.2109375 C76.18326766 27.70090391 76.18991455 29.19086877 76.19691467 30.68083191 C76.21795419 35.57887688 76.22832063 40.47692214 76.23828125 45.375 C76.2423296 47.06338518 76.24644654 48.75177019 76.25063133 50.44015503 C76.26968699 58.37712268 76.28391421 66.31408103 76.2922433 74.25106716 C76.30200135 83.39793854 76.32828168 92.544567 76.36874419 101.69135284 C76.39897388 108.76923572 76.41371887 115.84704927 76.41702431 122.92499542 C76.41936805 127.14800292 76.42823905 131.37075102 76.45348549 135.59368896 C76.47688989 139.57300979 76.48095027 143.55190279 76.47072411 147.5312748 C76.47023153 148.98442323 76.47646897 150.43759361 76.49028015 151.8906765 C76.61394309 165.68379614 73.83252858 175.91908256 64.15234375 185.90625 C56.08455601 193.47681821 47.28670391 196.40669761 36.359375 196.2734375 C25.11025022 195.35781106 16.71412438 191.00948668 9.03515625 182.93359375 C0.28076669 172.587497 -0.58210474 161.65872841 -0.45410156 148.60473633 C-0.45297115 146.977519 -0.45361072 145.35029964 -0.45587158 143.7230835 C-0.45701212 139.33732901 -0.43361081 134.95201841 -0.40557575 130.56636643 C-0.38045106 125.97132552 -0.37821142 121.37627272 -0.37347412 116.78117371 C-0.36107671 108.09390587 -0.32829919 99.40684108 -0.28807616 90.71966237 C-0.24325739 80.82361463 -0.22134607 70.92755683 -0.20129442 61.03143275 C-0.15956346 40.68750882 -0.08927474 20.34376724 0 0 Z " fill="#CDD4DE" transform="translate(421,298)"/>
<path d="M0 0 C0.92935364 -0.00852997 1.85870728 -0.01705994 2.81622314 -0.02584839 C3.8287767 -0.02494202 4.84133026 -0.02403564 5.88456726 -0.02310181 C6.95655365 -0.02981903 8.02854004 -0.03653625 9.13301086 -0.04345703 C12.68134684 -0.06247455 16.22949402 -0.06636326 19.77787781 -0.06851196 C22.2440397 -0.07493764 24.71020081 -0.08166582 27.17636108 -0.08868408 C32.34880846 -0.10066651 37.52118901 -0.10436394 42.69364929 -0.10317993 C49.31814881 -0.10297678 55.94221917 -0.13027174 62.56661701 -0.16472435 C67.66160038 -0.18697457 72.75648021 -0.19101803 77.85150719 -0.18996048 C80.29351975 -0.19231954 82.73553504 -0.20116012 85.17749977 -0.21662521 C88.59578511 -0.23624478 92.01314161 -0.23046194 95.43144226 -0.21841431 C96.43792313 -0.22965332 97.44440399 -0.24089233 98.48138428 -0.25247192 C104.65051569 -0.19728747 108.30438211 0.6559354 113.35209656 4.26742554 C116.78814831 8.03599843 116.87073582 11.92964536 116.69584656 16.83383179 C116.08243329 21.1765189 114.21541328 23.86429842 110.73881531 26.48226929 C107.05070512 28.78018273 103.65008929 29.84810917 99.35209656 30.26742554 C100.52772156 31.38117554 100.52772156 31.38117554 101.72709656 32.51742554 C105.1020533 36.0530945 106.17835373 37.73269721 106.72709656 42.57992554 C106.2880722 46.89699836 105.33266875 50.06275017 102.35209656 53.26742554 C96.76242122 57.26718046 92.68042524 57.80092521 85.91459656 57.51742554 C84.67419617 57.49035522 84.67419617 57.49035522 83.40873718 57.46273804 C81.38934723 57.41604694 79.37056211 57.34431946 77.35209656 57.26742554 C77.22963562 58.31801147 77.10717468 59.36859741 76.98100281 60.45101929 C75.83530318 67.40349466 73.10859428 73.30907683 67.47709656 77.70492554 C60.30015059 82.42273173 53.94656336 84.6321637 45.35209656 83.26742554 C36.2162866 80.18831922 30.84440689 75.74358723 26.33256531 67.37680054 C24.66028776 63.86425409 24.23451666 61.10183668 24.35209656 57.26742554 C23.1339325 57.31383179 21.91576843 57.36023804 20.66069031 57.40805054 C19.03701708 57.44559211 17.41331711 57.4819897 15.78959656 57.51742554 C14.58980164 57.56769897 14.58980164 57.56769897 13.36576843 57.61898804 C7.48314504 57.71503087 4.15905224 56.70709663 -0.64790344 53.26742554 C-3.54399062 50.15358744 -4.55221039 46.93727691 -5.14790344 42.76742554 C-4.49952231 38.22875763 -3.31404791 36.01443939 -0.64790344 32.26742554 C2.10209656 30.32992554 2.10209656 30.32992554 4.35209656 29.26742554 C3.69983093 29.24164429 3.04756531 29.21586304 2.37553406 29.18930054 C-3.34036405 28.8183573 -7.23854673 28.24660111 -11.64790344 24.26742554 C-14.49445533 20.18736783 -15.29322194 16.41037543 -15.13618469 11.51742554 C-14.26486318 7.50237599 -11.75378419 4.8390378 -8.64790344 2.26742554 C-5.65095813 0.49921233 -3.46541418 0.01441471 0 0 Z " fill="#445F89" transform="translate(178.6479034423828,376.7325744628906)"/>
<path d="M0 0 C1.28648437 -0.02835937 2.57296875 -0.05671875 3.8984375 -0.0859375 C9.64867107 0.62530732 13.30463286 3.56043366 16.9375 7.9375 C17.67419922 8.80568359 17.67419922 8.80568359 18.42578125 9.69140625 C21.1548178 13.52272466 20.74146794 17.5822061 20.6875 22.0625 C20.666875 24.475625 20.64625 26.88875 20.625 29.375 C26.895 29.375 33.165 29.375 39.625 29.375 C39.5425 27.044375 39.46 24.71375 39.375 22.3125 C39.30833207 16.13944608 39.61434875 12.20834895 43.625 7.375 C50.10725324 1.06599184 53.92664493 0.01346193 63.06640625 0.09765625 C69.31391815 0.58456442 73.38398431 2.70148362 77.5 7.375 C81.78878637 13.42975723 82.44314735 17.99122016 81.625 25.375 C79.86437582 31.3171066 76.64434812 34.89218702 71.625 38.375 C66.625 40.375 66.625 40.375 50.625 40.375 C50.625 64.795 50.625 89.215 50.625 114.375 C37.095 114.375 23.565 114.375 9.625 114.375 C9.625 89.955 9.625 65.535 9.625 40.375 C4.015 40.375 -1.595 40.375 -7.375 40.375 C-13.80383282 37.58353312 -16.76025113 34.29004361 -20.375 28.375 C-22.12498045 23.12505866 -22.51216424 17.22498837 -20.43359375 12.015625 C-15.49845516 3.78523713 -9.5317933 0.09512768 0 0 Z " fill="#FFFEFD" transform="translate(199.375,262.625)"/>
<path d="M0 0 C1.15822266 0.00845947 1.15822266 0.00845947 2.33984375 0.01708984 C3.54447266 0.02554932 3.54447266 0.02554932 4.7734375 0.03417969 C33.91820772 0.6082089 60.04087943 11.86892808 81.15234375 31.76708984 C100.90647522 52.76205872 108.01269577 76.56381972 107.67578125 104.91552734 C107.02288087 126.27778021 96.91796804 144.57648137 83.51953125 160.73974609 C72.96298791 173.53147155 64.76676816 186.59150905 59.33984375 202.32958984 C50.42984375 202.32958984 41.51984375 202.32958984 32.33984375 202.32958984 C33.16173108 196.57637855 34.20860837 192.75560362 36.77734375 187.76708984 C37.13151367 187.07236572 37.48568359 186.3776416 37.85058594 185.66186523 C42.78888834 176.25532001 49.11559174 167.99601522 55.86206055 159.82788086 C66.01145384 147.48419807 73.08173696 134.76969977 77.33984375 119.32958984 C77.58476562 118.49556641 77.8296875 117.66154297 78.08203125 116.80224609 C83.58713715 94.7441163 77.63207731 69.14653365 66.50390625 49.79833984 C51.96437931 25.8074613 28.06464885 10.89357706 1.33984375 4.32958984 C-1.65563067 3.60457056 -4.63760798 2.9340995 -7.66015625 2.32958984 C-5.12568788 -0.20487852 -3.46302842 0.04618415 0 0 Z " fill="#FEBE01" transform="translate(225.66015625,174.67041015625)"/>
<path d="M0 0 C0.80049271 -0.00511093 1.60098541 -0.01022186 2.42573547 -0.01548767 C5.06986994 -0.02937844 7.71374355 -0.02842713 10.35791016 -0.02612305 C12.19870093 -0.0300106 14.03949082 -0.0343454 15.88027954 -0.03910828 C19.73873807 -0.04656963 23.5971051 -0.04628007 27.45556641 -0.04101562 C32.39414495 -0.03522478 37.332348 -0.05214308 42.27086449 -0.0753603 C46.07305075 -0.09011117 49.87514691 -0.09096743 53.67735672 -0.08785057 C55.49777596 -0.08836322 57.31820032 -0.09359044 59.13859177 -0.10366249 C61.68769271 -0.1160342 64.23606646 -0.10923076 66.78515625 -0.09765625 C67.90753944 -0.10912186 67.90753944 -0.10912186 69.05259705 -0.12081909 C73.78340154 -0.07347128 77.00541777 0.77453678 81.02197266 3.2746582 C85.3792623 8.10300619 86.35345877 10.75543124 86.02197266 17.2746582 C84.84594337 21.76495184 82.47974609 24.23856445 79.02197266 27.2746582 C70.17385115 30.22403204 60.01972015 29.42225044 50.80712891 29.4074707 C49.46154259 29.40814677 48.11595639 29.40911929 46.77037048 29.41036987 C43.96758853 29.41183315 41.16483872 29.40973717 38.36206055 29.4050293 C34.80434889 29.39933842 31.24671283 29.40261576 27.68900394 29.40860176 C24.91515046 29.41224942 22.14131431 29.41104959 19.36746025 29.40847397 C17.42906011 29.40750055 15.49065924 29.41048997 13.55226135 29.41360474 C-9.62521379 29.3529685 -9.62521379 29.3529685 -14.97802734 24.2746582 C-17.82457924 20.19460049 -18.62334584 16.4176081 -18.46630859 11.5246582 C-17.46823812 6.92554946 -14.19598722 3.75204218 -10.37020874 1.20368958 C-6.94840138 -0.12520898 -3.61807144 -0.01191469 0 0 Z " fill="#5E7599" transform="translate(181.97802734375,376.725341796875)"/>
<path d="M0 0 C3.29269045 1.97561427 4.56426584 3.32968573 5.5390625 7.06640625 C6.42560769 17.0318309 0.44780611 26.4021091 -5.71655273 33.79980469 C-14.05634671 43.17280731 -24.89115749 51.05770595 -37.625 52.375 C-41.63678181 51.92924647 -43.17857191 50.82142809 -46 48 C-47.78683083 44.42633835 -47.57518433 40.84759225 -47 37 C-41.12407454 20.84662559 -28.79011326 8.52185678 -13.4453125 1.296875 C-8.78818095 -0.45614958 -4.86784925 -1.26987372 0 0 Z " fill="#FFE352" transform="translate(197,204)"/>
<path d="M0 0 C6.27 0 12.54 0 19 0 C19 24.42 19 48.84 19 74 C12.73 74 6.46 74 0 74 C0 49.58 0 25.16 0 0 Z " fill="#FFD915" transform="translate(220,303)"/>
<path d="M0 0 C1.15947647 -0.0131424 1.15947647 -0.0131424 2.34237671 -0.02655029 C4.88898408 -0.048497 7.43384478 -0.03400976 9.98046875 -0.01708984 C11.75496757 -0.02045937 13.52946414 -0.02531313 15.30395508 -0.03158569 C19.01959243 -0.03895057 22.73462802 -0.02826427 26.45019531 -0.00488281 C31.20870359 0.02360516 35.96580186 0.00719906 40.72425842 -0.02274513 C44.3875182 -0.04082877 48.05044468 -0.03505528 51.7137146 -0.02210617 C53.46796842 -0.01877508 55.22225268 -0.02284881 56.97647095 -0.03450394 C59.43043954 -0.04723085 61.8821377 -0.02781325 64.3359375 0 C65.05816498 -0.01012115 65.78039246 -0.02024231 66.52450562 -0.03067017 C70.37795893 0.05008479 72.07105948 0.57164143 75.1496582 2.9647522 C77.16796875 5.64697266 77.16796875 5.64697266 77.29296875 9.20947266 C75.93627237 13.35493383 74.83322601 14.35595606 71.16796875 16.64697266 C68.47890095 17.03403545 66.20238512 17.19542791 63.51953125 17.16455078 C62.38931549 17.1750647 62.38931549 17.1750647 61.23626709 17.18579102 C58.75478864 17.20334314 56.27445805 17.19175897 53.79296875 17.17822266 C52.06331158 17.18091839 50.3336559 17.18480149 48.60400391 17.18981934 C44.98260033 17.19571058 41.36159194 17.18716367 37.74023438 17.16845703 C33.10296165 17.14566745 28.46661498 17.15879257 23.82937622 17.18274689 C20.25879972 17.1972151 16.68844205 17.19259424 13.11785889 17.18223572 C11.40826304 17.17957125 9.6986472 17.18282836 7.98907471 17.19215393 C5.59765151 17.20233675 3.2077187 17.18679614 0.81640625 17.16455078 C0.11288025 17.17264771 -0.59064575 17.18074463 -1.31549072 17.18908691 C-4.80480008 17.12908712 -6.75581639 16.69461175 -9.73974609 14.82946777 C-11.83203125 12.64697266 -11.83203125 12.64697266 -12.95703125 9.20947266 C-12.83203125 5.64697266 -12.83203125 5.64697266 -10.8137207 2.9647522 C-7.15452428 0.12032096 -4.45153001 -0.06238287 0 0 Z " fill="#46618A" transform="translate(127.83203125,64.35302734375)"/>
<path d="M0 0 C1.13196808 -0.00503792 1.13196808 -0.00503792 2.2868042 -0.01017761 C4.78903842 -0.0196999 7.2912058 -0.02163143 9.79345703 -0.02270508 C11.52979561 -0.02591702 13.26613392 -0.02928104 15.00247192 -0.03279114 C18.64586006 -0.03878577 22.28922446 -0.04063072 25.93261719 -0.04003906 C30.60232651 -0.03993748 35.27188367 -0.0535845 39.94155693 -0.07081127 C43.52919209 -0.08192809 47.11679045 -0.08395836 50.70444107 -0.08342934 C52.42603199 -0.08461013 54.14762385 -0.08903748 55.86919785 -0.0967617 C58.27749032 -0.10655422 60.68545225 -0.10368643 63.09375 -0.09765625 C64.16150162 -0.10608551 64.16150162 -0.10608551 65.25082397 -0.11468506 C68.87382759 -0.09162183 71.67246085 0.01248344 74.67626953 2.14526367 C77.02176627 5.66350878 77.25618356 7.00302061 76.67626953 11.14526367 C73.97395478 14.6688382 72.48963456 16.00378453 68.06480408 16.77345276 C66.65290741 16.79995146 65.24033024 16.79917593 63.82836914 16.77636719 C63.05377853 16.78352249 62.27918793 16.7906778 61.48112488 16.79804993 C58.92968136 16.81491094 56.38000128 16.79555309 53.82861328 16.77416992 C52.05172073 16.77499878 50.27482826 16.77745882 48.49794006 16.78147888 C44.77809509 16.78433497 41.05885287 16.76965296 37.33911133 16.7421875 C32.57168232 16.70807989 27.80532922 16.71413278 23.03784847 16.73285007 C19.37035659 16.74341864 15.70311504 16.73448404 12.03564644 16.71946526 C10.27778428 16.71428358 8.51989598 16.71476508 6.76203728 16.72101021 C4.30571125 16.72646182 1.85092583 16.706092 -0.60522461 16.67871094 C-1.69395874 16.68849976 -1.69395874 16.68849976 -2.8046875 16.69848633 C-6.19474533 16.63423802 -8.01649799 16.38010838 -10.74363708 14.29551697 C-12.82212138 11.4670337 -13.32373047 9.65775622 -13.32373047 6.14526367 C-9.52240421 0.24665396 -6.60613847 -0.00418198 0 0 Z " fill="#456089" transform="translate(83.32373046875,100.854736328125)"/>
<path d="M0 0 C16.83 0 33.66 0 51 0 C51 7.40627988 50.07617485 11.03342522 46 17 C40.44181344 22.55818656 33.69715691 26.05417685 25.8125 26.5625 C18.28520883 26.3240321 11.34133122 23.31547953 5.98046875 17.99609375 C1.23440489 11.91050821 0 7.89051963 0 0 Z " fill="#34537E" transform="translate(204,434)"/>
<path d="M0 0 C4.37477474 -0.11651725 8.74914827 -0.18736 13.125 -0.25 C14.3625 -0.28351563 15.6 -0.31703125 16.875 -0.3515625 C28.33905394 -0.4748319 28.33905394 -0.4748319 33 4 C35.91803293 8.3770494 36.64048309 11.78463771 36 17 C34.28144873 21.27434548 32.02501617 24.66450214 28 27 C24.97558594 27.34057617 24.97558594 27.34057617 21.484375 27.29296875 C20.23398437 27.28330078 18.98359375 27.27363281 17.6953125 27.26367188 C16.39335937 27.23853516 15.09140625 27.21339844 13.75 27.1875 C12.43257813 27.17396484 11.11515625 27.16042969 9.7578125 27.14648438 C6.50479679 27.11112551 3.252604 27.06177033 0 27 C0.78375 26.236875 1.5675 25.47375 2.375 24.6875 C6.02122208 20.95446311 7.31633601 18.84053305 7.4375 13.6875 C7.38116279 9.81559747 7.14102943 7.43595395 4.625 4.4375 C3.75875 3.633125 2.8925 2.82875 2 2 C1.34 1.34 0.68 0.68 0 0 Z " fill="#34527D" transform="translate(249,406)"/>
<path d="M0 0 C2.4375 1.5625 2.4375 1.5625 4 4 C3.79231621 9.64518547 2.47507879 12.28473477 -1.48046875 16.2421875 C-2.8562207 17.62277344 -2.8562207 17.62277344 -4.25976562 19.03125 C-4.74098877 19.49789062 -5.22221191 19.96453125 -5.71801758 20.4453125 C-7.18570195 21.87325064 -8.62168368 23.32831906 -10.05664062 24.7890625 C-18.18208458 32.81811249 -18.18208458 32.81811249 -24 33 C-26.96537083 30.80820417 -28.74586677 29.36685946 -29.43408203 25.6652832 C-28.80625114 21.81037331 -26.90343802 20.23955261 -24.1796875 17.48046875 C-23.68340851 16.97703445 -23.18712952 16.47360016 -22.67581177 15.95491028 C-21.62442693 14.89575425 -20.56661929 13.84294055 -19.50292969 12.79614258 C-17.88183408 11.19425311 -16.29217987 9.56524614 -14.703125 7.93164062 C-13.6762507 6.90447591 -12.64765857 5.87902508 -11.6171875 4.85546875 C-10.68503418 3.92371826 -9.75288086 2.99196777 -8.79248047 2.03198242 C-5.51486101 -0.35301729 -3.96487144 -0.56774305 0 0 Z " fill="#FED811" transform="translate(286,134)"/>
<path d="M0 0 C2.80834961 2.00024414 2.80834961 2.00024414 5.65234375 4.78515625 C6.40893028 5.52601723 6.40893028 5.52601723 7.18080139 6.28184509 C8.23947479 7.32770752 9.29051099 8.38135062 10.33422852 9.44213867 C11.93328683 11.05824192 13.56611615 12.63348513 15.20507812 14.20898438 C16.23142869 15.23211085 17.25559585 16.25743328 18.27734375 17.28515625 C19.20796631 18.21207275 20.13858887 19.13898926 21.09741211 20.09399414 C23 23 23 23 22.90063477 26.73217773 C22 30 22 30 20.3125 32 C17.10518792 33.38694576 15.35980433 32.88868412 12 32 C8.55912428 29.43870036 5.63405826 26.39482667 2.63012695 23.33691406 C1.19286778 21.88043955 -0.27129108 20.45567986 -1.74023438 19.03125 C-2.65740234 18.11085937 -3.57457031 17.19046875 -4.51953125 16.2421875 C-5.35589111 15.4054248 -6.19225098 14.56866211 -7.05395508 13.70654297 C-9.43214288 10.39897931 -9.85133262 8.04102284 -10 4 C-7.28977496 -0.22795107 -4.820694 -0.59748515 0 0 Z " fill="#FED810" transform="translate(179,134)"/>
<path d="M0 0 C2.15820312 1.04907227 2.15820312 1.04907227 4 3 C4.40642398 5.66840346 4.56144436 7.92100418 4.53125 10.58984375 C4.5350769 11.33077774 4.53890381 12.07171173 4.54284668 12.83509827 C4.54556668 14.40106567 4.5381991 15.96707843 4.52148438 17.53295898 C4.50010273 19.92600294 4.52126352 22.31603476 4.546875 24.70898438 C4.54423114 26.23177745 4.53910495 27.75456864 4.53125 29.27734375 C4.53934692 29.99099594 4.54744385 30.70464813 4.55578613 31.43992615 C4.49136058 34.86706178 4.2322985 36.6966039 2.12304688 39.45141602 C0 41 0 41 -2.5 41.5 C-5.89732834 40.82053433 -6.89849385 39.74791292 -9 37 C-9.38602568 34.28579801 -9.53873288 31.98604682 -9.49609375 29.27734375 C-9.49754898 28.53545303 -9.49900421 27.79356232 -9.50050354 27.02919006 C-9.49884733 25.46497662 -9.48731695 23.90074642 -9.46655273 22.33666992 C-9.43755259 19.94184293 -9.44595644 17.54922458 -9.45898438 15.15429688 C-9.45274788 13.63280174 -9.44435762 12.11131359 -9.43359375 10.58984375 C-9.43652939 9.87416733 -9.43946503 9.15849091 -9.44248962 8.42112732 C-9.38722254 5.51241982 -9.33324789 3.48391494 -7.65649414 1.04907227 C-5.03098532 -0.61368549 -3.02865779 -0.37085606 0 0 Z " fill="#FED80E" transform="translate(232,126)"/>
<path d="M0 0 C0.95003906 -0.01546875 1.90007812 -0.0309375 2.87890625 -0.046875 C9.76407327 -0.00813988 9.76407327 -0.00813988 13.125 2.3125 C15.15811976 5.5470087 15.03365966 7.76438239 14.5 11.5 C12.63291495 13.86497439 11.17938569 15.16030715 8.5 16.5 C5.54622888 16.70411054 2.64399311 16.82382545 -0.3125 16.875 C-1.52389648 16.93107422 -1.52389648 16.93107422 -2.75976562 16.98828125 C-7.13181814 17.05273411 -8.94441949 16.92061301 -12.5390625 14.19921875 C-14.5 11.5 -14.5 11.5 -15.0625 7.9375 C-14.5 4.5 -14.5 4.5 -13.12109375 2.31640625 C-8.99216144 -0.54492538 -4.90109931 -0.0798008 0 0 Z " fill="#47618A" transform="translate(84.5,64.5)"/>
<path d="M0 0 C3.375 2.0625 3.375 2.0625 6 5 C6.77152986 9.32056721 6.52747866 11.19119939 4.125 14.875 C1.47185734 17.52814266 0.72666695 17.97664952 -3.0390625 18.09765625 C-4.22242188 18.08605469 -5.40578125 18.07445312 -6.625 18.0625 C-7.81351563 18.05347656 -9.00203125 18.04445313 -10.2265625 18.03515625 C-11.14179688 18.02355469 -12.05703125 18.01195312 -13 18 C-13.56968796 5.95215453 -13.56968796 5.95215453 -10 2 C-6.78446554 -0.32849047 -3.88978623 -0.54457007 0 0 Z " fill="#FFDA19" transform="translate(263,274)"/>
<path d="M0 0 C3.78561566 1.72073439 5.51315716 3.1422456 7 7 C7.1953125 9.796875 7.1953125 9.796875 7.125 12.75 C7.10695312 13.73484375 7.08890625 14.7196875 7.0703125 15.734375 C7.04710937 16.48203125 7.02390625 17.2296875 7 18 C4.93867858 18.10864945 2.87568679 18.18588321 0.8125 18.25 C-0.91033203 18.31960938 -0.91033203 18.31960938 -2.66796875 18.390625 C-6.63979862 17.9249943 -8.18771485 16.77629613 -11 14 C-12.58939347 10.82121306 -12.41576711 8.5043228 -12 5 C-8.29269799 0.85135251 -5.58146607 -0.95003678 0 0 Z " fill="#FFDA19" transform="translate(202,274)"/>
</svg>
