<?xml version="1.0" encoding="UTF-8"?>
<svg version="1.1" xmlns="http://www.w3.org/2000/svg" width="512" height="512">
<path d="M0 0 C0.55945313 0.79921875 1.11890625 1.5984375 1.6953125 2.421875 C2.27023437 3.21078125 2.84515625 3.9996875 3.4375 4.8125 C4.72982443 7.01748293 5.27079387 8.71039487 5.8203125 11.171875 C-22.69069867 14.30766097 -51.20238321 17.43725892 -79.71487999 20.55950928 C-92.95396228 22.00939575 -106.19281451 23.46129929 -119.43115234 24.91796875 C-130.97084393 26.18772389 -142.51094517 27.45367731 -154.05155241 28.71508408 C-160.16110574 29.38300187 -166.27043832 30.05281016 -172.37928391 30.72717285 C-178.13244827 31.36221065 -183.88614809 31.99215274 -189.64029312 32.61824036 C-191.74875067 32.84855333 -193.85700827 33.08070566 -195.96504211 33.31486511 C-198.85120267 33.63517559 -201.73802097 33.94875624 -204.62509155 34.26074219 C-205.45197176 34.35412495 -206.27885197 34.44750771 -207.13078916 34.54372025 C-212.83008828 35.14971753 -218.45042384 35.2709894 -224.1796875 35.171875 C-223.8496875 35.831875 -223.5196875 36.491875 -223.1796875 37.171875 C-211.17557448 36.55615074 -199.28612889 35.39639737 -187.34619141 34.03881836 C-185.4093818 33.82157371 -183.4725316 33.60469077 -181.53564453 33.38813782 C-177.39846918 32.92489128 -173.2615682 32.45929159 -169.12486649 31.99183464 C-162.57678689 31.25206574 -156.02800189 30.51867822 -149.47909546 29.78627014 C-133.22505175 27.96751898 -116.97185492 26.14124109 -100.71899414 24.31195068 C-88.05925031 22.88711465 -75.3992468 21.46468745 -62.73837221 20.04992968 C-56.23427822 19.32287166 -49.73078451 18.59072029 -43.22770238 17.85466945 C-39.18070807 17.39775793 -35.13320808 16.94545738 -31.08555603 16.49441338 C-29.21573249 16.28511297 -27.34611865 16.0739289 -25.47674179 15.86067581 C-16.67943488 14.85803976 -8.05053734 13.88022176 0.8203125 14.171875 C0.8203125 15.161875 0.8203125 16.151875 0.8203125 17.171875 C-26.05070953 20.41283362 -52.93317392 23.52113271 -79.83638144 26.48256588 C-84.50431017 26.99695049 -89.17196007 27.51385283 -93.83963013 28.03057861 C-107.58746831 29.55209634 -121.33564954 31.07050499 -135.08404541 32.5869751 C-145.89187598 33.7790976 -156.69957744 34.97236047 -167.50685227 36.16951203 C-173.03003754 36.78120023 -178.55349126 37.39038467 -184.07716441 37.99765062 C-187.4852798 38.37290184 -190.89314007 38.75042992 -194.30093193 39.1286068 C-195.87948662 39.30331588 -197.45814646 39.4770779 -199.03691673 39.64982796 C-201.18805721 39.88534013 -203.33879756 40.12422248 -205.48947144 40.36395264 C-206.69224669 40.49664928 -207.89502193 40.62934593 -209.13424492 40.76606369 C-211.57277301 41.09100243 -213.80956263 41.55023968 -216.1796875 42.171875 C-209.76256648 42.27722251 -203.51896183 42.03602737 -197.14553833 41.29870605 C-196.29452101 41.20478435 -195.44350368 41.11086265 -194.56669796 41.01409483 C-191.74584381 40.70144923 -188.92593286 40.38101027 -186.10595703 40.06054688 C-184.07164256 39.83346981 -182.03727311 39.60688476 -180.00285339 39.38075256 C-175.63789906 38.89450863 -171.2733519 38.4048058 -166.90909195 37.91236877 C-160.01038731 37.13397463 -153.11083334 36.36330146 -146.21115112 35.59362793 C-135.30411474 34.37599529 -124.39767138 33.15313876 -113.49146736 31.92807531 C-93.94141467 29.73219602 -74.39048067 27.54419025 -54.83915985 25.35963297 C-47.97740048 24.59271395 -41.11594216 23.82316819 -34.25471807 23.05147552 C-29.99471915 22.57271269 -25.7345254 22.095701 -21.47428322 21.6191082 C-19.49564655 21.39735893 -17.51709579 21.1748416 -15.53863716 20.95150948 C-12.84329072 20.64734216 -10.14765666 20.34586325 -7.45193481 20.04504395 C-6.66498108 19.95555213 -5.87802735 19.86606032 -5.06722653 19.77385664 C-1.73814011 19.40487781 1.46500158 19.171875 4.8203125 19.171875 C5.1503125 20.161875 5.4803125 21.151875 5.8203125 22.171875 C3.77047775 24.22170975 -0.29377487 23.85472004 -3.11808777 24.15856934 C-3.96000414 24.2526399 -4.80192051 24.34671046 -5.66934949 24.44363165 C-8.51243683 24.760218 -11.35617808 25.07049771 -14.19995117 25.38085938 C-16.22978876 25.60560107 -18.25958316 25.83073322 -20.28933716 26.05622864 C-24.67180572 26.54223986 -29.05457041 27.02545693 -33.43758202 27.50654602 C-40.36660764 28.2670996 -47.29495496 29.03370827 -54.22322083 29.80114746 C-65.1839943 31.01451915 -76.14522593 32.22369629 -87.10665256 33.43115187 C-106.72700297 35.59254013 -126.34663567 37.76042607 -145.96600515 39.93069887 C-152.85431421 40.69250079 -159.74284154 41.45228981 -166.63155496 42.21042633 C-170.91922398 42.68257754 -175.20674653 43.1560489 -179.49423599 43.6298275 C-181.48315972 43.84930726 -183.47214724 44.06820985 -185.46120262 44.2864933 C-188.17642846 44.58453467 -190.89142177 44.88461374 -193.60636902 45.18518066 C-194.39363615 45.27107751 -195.18090328 45.35697436 -195.99202698 45.44547415 C-200.08024258 45.90036508 -204.12963664 46.45144296 -208.1796875 47.171875 C-195.97894447 46.58112842 -183.88890368 45.49010243 -171.75170898 44.13061523 C-169.87062213 43.92319169 -167.98949182 43.716162 -166.10832214 43.50949097 C-162.09499981 43.0677889 -158.08198022 42.62346373 -154.06918144 42.17703056 C-147.71901174 41.47068279 -141.36811675 40.77101215 -135.0171051 40.07228088 C-120.40404508 38.46356289 -105.79193351 36.84629813 -91.17983246 35.22889709 C-77.75205454 33.74267309 -64.32408164 32.25827443 -50.89532715 30.78089672 C-44.58563304 30.08647805 -38.27642224 29.38786281 -31.96755302 28.68599117 C-28.04621307 28.25060887 -24.12448279 27.81882638 -20.20263863 27.38801193 C-18.38846254 27.18797651 -16.57445017 26.98644962 -14.76062012 26.7833004 C-12.27963516 26.50563708 -9.79811264 26.23337525 -7.31639099 25.96238708 C-6.60422769 25.88135929 -5.89206438 25.8003315 -5.15832037 25.71684831 C-0.46444595 25.21189454 4.10801514 25.10519207 8.8203125 25.171875 C8.8203125 26.161875 8.8203125 27.151875 8.8203125 28.171875 C-1.81685087 29.94375456 -12.48325844 31.15600102 -23.20117188 32.31079102 C-25.08660601 32.51610372 -26.97201174 32.72167749 -28.85739136 32.92749023 C-32.89107247 33.36727879 -36.92494125 33.80528795 -40.95896912 34.24188423 C-47.33825581 34.93235801 -53.71707019 35.62712849 -60.0958252 36.32249451 C-72.47341548 37.67123145 -84.85146058 39.01576436 -97.22956848 40.35974121 C-113.01453323 42.07376357 -128.79932791 43.78933847 -144.58363199 45.50943512 C-150.92527382 46.20036725 -157.26715738 46.88902408 -163.60923862 47.57591069 C-167.54727283 48.00285823 -171.48510515 48.43164546 -175.42288589 48.86092377 C-177.24935042 49.05964458 -179.07589962 49.25758888 -180.9025383 49.45470238 C-183.39419909 49.72368173 -185.88554425 49.99541936 -188.37683105 50.26783752 C-189.10046136 50.34527036 -189.82409167 50.42270319 -190.56965017 50.50248247 C-194.15089999 50.89709507 -197.6603265 51.39623931 -201.1796875 52.171875 C-181.68594317 50.54788118 -162.25027745 48.38100785 -142.80633736 46.25649643 C-136.70782256 45.59018387 -130.6089398 44.92728207 -124.50999451 44.2649231 C-107.18615041 42.38300224 -89.86280684 40.49649856 -72.53979492 38.60693359 C-62.931714 37.55893052 -53.32334363 36.51362222 -43.71465629 35.47119343 C-37.65482707 34.81360818 -31.59537698 34.15266218 -25.53619015 33.48918509 C-21.77546859 33.07817913 -18.01441202 32.67030725 -14.25325394 32.26331711 C-12.51285718 32.07435473 -10.77259941 31.88410705 -9.0324955 31.69246674 C-6.65427375 31.43073576 -4.27559232 31.17365623 -1.89674377 30.91769409 C-1.21231486 30.84123937 -0.52788595 30.76478464 0.17728323 30.6860131 C4.4092338 30.23686249 8.56623051 30.10616286 12.8203125 30.171875 C13.1503125 31.161875 13.4803125 32.151875 13.8203125 33.171875 C2.7510028 34.85388168 -8.33948047 36.11971004 -19.4699707 37.31079102 C-21.37189048 37.51613883 -23.27378597 37.72171165 -25.17565918 37.92749023 C-29.24101691 38.36694336 -33.30652507 38.80496734 -37.37215614 39.24188423 C-43.79661905 39.93244667 -50.22063293 40.62712457 -56.64457703 41.32249451 C-74.90077961 43.29801848 -93.15761621 45.26764977 -111.41479492 47.23413086 C-121.52075367 48.32268077 -131.62636841 49.41437044 -141.73162335 50.50943512 C-148.12355914 51.2019034 -154.5159093 51.89037242 -160.90859187 52.57591069 C-164.86843364 53.0014701 -168.82787458 53.43066797 -172.78720856 53.86092377 C-174.6297862 54.0604004 -176.47252986 54.25834987 -178.31544304 54.45470238 C-180.81962259 54.72172227 -183.32316434 54.99407538 -185.82661438 55.26783752 C-186.56510488 55.34527036 -187.30359539 55.42270319 -188.06446439 55.50248247 C-191.41213332 55.62336508 -191.41213332 55.62336508 -194.1796875 57.171875 C-182.22818833 56.53218998 -170.35653919 55.45807079 -158.45385742 54.22241211 C-156.52851246 54.0249361 -154.60313718 53.82775542 -152.67773438 53.63084412 C-148.56518441 53.20971253 -144.4528337 52.78670313 -140.34062767 52.36222649 C-133.82996418 51.69036411 -127.31875573 51.02389064 -120.80744934 50.35829163 C-103.47357693 48.58558889 -86.14036195 46.80649657 -68.80759841 45.02298504 C-57.3932952 43.84847933 -45.97867647 42.67714721 -34.56342775 41.51186377 C-28.09813537 40.85162515 -21.63338493 40.18637528 -15.16900003 39.51731288 C-11.14377901 39.10187594 -7.11809184 38.69110406 -3.09226227 38.28161049 C-1.23416433 38.09167274 0.62374148 37.89984387 2.48142815 37.70592499 C5.02921865 37.44024629 7.57763018 37.18153996 10.126297 36.92442322 C10.84985864 36.84728637 11.57342028 36.77014953 12.31890804 36.6906752 C18.23541134 36.10559255 23.78280613 36.171875 29.8203125 36.171875 C29.8203125 143.421875 29.8203125 250.671875 29.8203125 361.171875 C-8.4596875 365.131875 -46.7396875 369.091875 -86.1796875 373.171875 C-103.27265625 374.94304687 -103.27265625 374.94304687 -120.7109375 376.75 C-134.1796875 378.13671875 -134.1796875 378.13671875 -140.4140625 378.77685547 C-144.77766361 379.22531089 -149.14088519 379.67728422 -153.50390625 380.13134766 C-159.10952075 380.714619 -164.71571416 381.29198707 -170.32237244 381.86513519 C-172.36691361 382.07513183 -174.41124819 382.28715282 -176.45533752 382.50150299 C-206.12384074 385.60936861 -206.12384074 385.60936861 -215.8671875 377.921875 C-217.59357852 376.63648841 -219.32014425 375.35133643 -221.046875 374.06640625 C-221.90120117 373.41494629 -222.75552734 372.76348633 -223.63574219 372.09228516 C-227.51678538 369.16250725 -231.5042391 366.39077709 -235.4921875 363.609375 C-236.82246412 362.67177709 -238.15193451 361.73303391 -239.48046875 360.79296875 C-240.02872314 360.4055249 -240.57697754 360.01808105 -241.1418457 359.61889648 C-241.8143335 359.14137939 -242.48682129 358.6638623 -243.1796875 358.171875 C-244.35935624 357.58704 -245.53902498 357.00220499 -246.75444126 356.39964771 C-249.2772239 354.57001057 -250.07139752 353.61105595 -250.82565486 350.5520891 C-251.06671869 347.04464186 -251.07810911 343.59601579 -251.02146912 340.08049011 C-251.02452205 338.71910553 -251.0306519 337.35772496 -251.03959328 335.99636632 C-251.05525251 332.25601842 -251.02724073 328.51707249 -250.99214685 324.77690327 C-250.96193425 320.74355245 -250.97214599 316.7102815 -250.97746277 312.67684937 C-250.98113435 305.68896417 -250.9591611 298.70153627 -250.9197979 291.7137661 C-250.86292272 281.61068935 -250.8446793 271.50783386 -250.83588196 261.40461437 C-250.82055925 245.0131885 -250.77396858 228.62200639 -250.70776367 212.23071289 C-250.6435164 196.30754822 -250.59396459 180.38444975 -250.56420898 164.46118164 C-250.56236992 163.47977371 -250.56053086 162.49836579 -250.55863606 161.48721822 C-250.54950084 156.56381237 -250.54065487 151.64040605 -250.53195274 146.71699941 C-250.45937852 105.86845503 -250.33608026 65.02017896 -250.1796875 24.171875 C-234.68456643 22.18638308 -219.18126688 20.36235079 -203.64624023 18.7199707 C-201.5161349 18.49310906 -199.38604925 18.26606261 -197.25598145 18.03884888 C-191.55692585 17.43154687 -185.85757627 16.8270503 -180.1581409 16.22332406 C-175.38070334 15.71703335 -170.6034066 15.20942042 -165.8261047 14.70185155 C-154.56471153 13.50543585 -143.30306523 12.31142449 -132.04125977 11.11889648 C-120.44005555 9.8903802 -108.83932443 8.65746594 -97.23880619 7.42249042 C-87.24027321 6.35823115 -77.24144248 5.29680223 -67.24237019 4.23762196 C-61.2859842 3.60663805 -55.32971995 2.97455608 -49.37374687 2.33968544 C-43.79001085 1.74460571 -38.20591201 1.15305603 -32.62151337 0.56422806 C-30.57473695 0.34781286 -28.52809232 0.13014708 -26.48159218 -0.08886528 C-23.68745142 -0.3876889 -20.89286865 -0.68197908 -18.09812927 -0.97514343 C-17.29055426 -1.06258888 -16.48297924 -1.15003434 -15.65093225 -1.24012965 C-3.03758286 -2.54765014 -3.03758286 -2.54765014 0 0 Z M-21.33494568 106.65867615 C-22.93535706 106.82058441 -22.93535706 106.82058441 -24.56809998 106.98576355 C-25.73857376 107.10575211 -26.90904755 107.22574066 -28.11499023 107.34936523 C-29.96406479 107.53715042 -29.96406479 107.53715042 -31.85049438 107.72872925 C-35.23283283 108.07263287 -38.61502323 108.41792687 -41.99713778 108.76402164 C-44.82018829 109.05277386 -47.64332432 109.34068512 -50.46645695 109.62863308 C-57.12663258 110.30800507 -63.78663131 110.98909288 -70.4465332 111.67114258 C-77.31778729 112.37479813 -84.18937211 113.07515527 -91.0611214 113.77395672 C-96.96034816 114.37400178 -102.85934213 114.9762991 -108.75815922 115.58035809 C-112.28149705 115.94112384 -115.80492152 116.30098482 -119.32858086 116.65859795 C-123.25772129 117.05746035 -127.18637314 117.46100408 -131.11499023 117.86499023 C-132.28343979 117.98295456 -133.45188934 118.10091888 -134.65574646 118.22245789 C-136.26038757 118.38859589 -136.26038757 118.38859589 -137.89744568 118.55809021 C-138.82640372 118.65303489 -139.75536177 118.74797956 -140.71247005 118.84580135 C-143.45855343 119.16131348 -143.45855343 119.16131348 -147.1796875 120.171875 C-147.1796875 143.601875 -147.1796875 167.031875 -147.1796875 191.171875 C-124.37379041 188.88805874 -124.37379041 188.88805874 -101.56835938 186.59960938 C-92.26959378 185.6654692 -82.97077864 184.73184263 -73.67163086 183.80151367 C-66.89936189 183.12398278 -60.12726884 182.44472395 -53.35538119 181.76339191 C-49.76991673 181.40271266 -46.18437029 181.04289771 -42.59861183 180.68515205 C-38.59517251 180.2857023 -34.59213081 179.88239519 -30.58911133 179.47875977 C-29.40084244 179.36079544 -28.21257355 179.24283112 -26.98829651 179.12129211 C-25.89599731 179.01053345 -24.80369812 178.89977478 -23.67829895 178.78565979 C-22.73161756 178.69071511 -21.78493616 178.59577044 -20.80956745 178.49794865 C-18.2477642 178.1803157 -15.71097757 177.67813301 -13.1796875 177.171875 C-13.1796875 153.741875 -13.1796875 130.311875 -13.1796875 106.171875 C-15.95156211 106.171875 -18.5793313 106.37804153 -21.33494568 106.65867615 Z " fill="#000000" transform="translate(460.1796875,127.828125)"/>
<path d="M0 0 C0.61488281 1.0209375 1.22976563 2.041875 1.86328125 3.09375 C2.82814453 4.62515625 2.82814453 4.62515625 3.8125 6.1875 C4.26238281 6.9815625 4.71226562 7.775625 5.17578125 8.59375 C1.3764183 11.12665863 -2.10635562 11.28450164 -6.53462219 11.73866272 C-7.43541714 11.83767126 -8.3362121 11.9366798 -9.26430386 12.0386886 C-12.29430134 12.36968563 -15.32543287 12.6888121 -18.35668945 13.00805664 C-20.52478654 13.24246385 -22.69280448 13.47760409 -24.86074829 13.71342468 C-30.7587731 14.35292399 -36.65784532 14.98224872 -42.55714059 15.60990453 C-48.72496572 16.26796741 -54.8917495 16.93564287 -61.05863953 17.60240173 C-71.41931709 18.72132942 -81.78057666 19.83472129 -92.14233398 20.94360352 C-110.62685969 22.92179356 -129.11018735 24.91104526 -147.59324169 26.90293789 C-149.47940707 27.10619964 -149.47940707 27.10619964 -151.40367681 27.3135677 C-153.91092537 27.5837612 -156.41817169 27.85397552 -158.92541569 28.12421125 C-166.27362212 28.91592648 -173.62210704 29.70499257 -180.97084582 30.49175084 C-185.54257819 30.98140717 -190.11416828 31.47238303 -194.6857338 31.96359444 C-196.8068868 32.19117453 -198.92810572 32.41814119 -201.04939461 32.64445114 C-203.94405725 32.95332158 -206.83848345 33.26432337 -209.73286438 33.57582092 C-210.57324055 33.6649266 -211.41361671 33.75403228 -212.27945882 33.84583813 C-216.48960752 34.30122013 -220.6533837 34.84530282 -224.82421875 35.59375 C-220.15792851 36.90585211 -215.82229231 36.35938168 -211.08763123 35.8028717 C-210.20821761 35.70572087 -209.32880399 35.60857004 -208.42274147 35.50847524 C-205.47553997 35.18100643 -202.52970501 34.84255117 -199.58374023 34.50415039 C-197.4713679 34.26718025 -195.35891871 34.03089432 -193.24639893 33.79524231 C-187.50822511 33.15324047 -181.77115509 32.50181524 -176.03422046 31.84884572 C-170.03493959 31.16776283 -164.03464553 30.49573169 -158.03443909 29.82286072 C-146.66662505 28.5467437 -135.29966809 27.26315886 -123.93303305 25.97658676 C-103.56952825 23.67196534 -83.20449262 21.38092026 -62.83930641 19.09121126 C-55.68899015 18.28699603 -48.53901578 17.47982078 -41.38931453 16.6701566 C-36.94685037 16.16739301 -32.50419314 15.66635089 -28.06149292 15.16567802 C-25.9973934 14.93264976 -23.93338135 14.69884528 -21.86946297 14.46421814 C-19.05780611 14.14466707 -16.24585789 13.82781307 -13.43382263 13.51161194 C-12.20158475 13.37051462 -12.20158475 13.37051462 -10.94445318 13.22656685 C-7.53848908 12.84604145 -4.25672508 12.59375 -0.82421875 12.59375 C-0.82421875 13.91375 -0.82421875 15.23375 -0.82421875 16.59375 C-1.9313494 16.71651778 -3.03848005 16.83928556 -4.17916012 16.96577358 C-31.07666383 19.94859332 -57.97360671 22.93642896 -84.86996365 25.92957211 C-97.87666904 27.37689619 -110.88355396 28.82256989 -123.89086914 30.2644043 C-135.22362628 31.52062155 -146.55603959 32.77988855 -157.88804489 34.04287058 C-163.89223722 34.7119445 -169.89659435 35.37945502 -175.90136528 36.04331779 C-181.54626832 36.66744373 -187.19070459 37.29562766 -192.83480072 37.92700768 C-194.91279579 38.15872431 -196.99096079 38.38892257 -199.0692997 38.61753464 C-201.89390999 38.92845824 -204.71787345 39.24470216 -207.54173279 39.56236267 C-208.79219435 39.69806755 -208.79219435 39.69806755 -210.06791776 39.83651394 C-213.75561156 39.95308805 -213.75561156 39.95308805 -216.82421875 41.59375 C-205.15314558 40.9442008 -193.57806952 39.76808469 -181.96484375 38.46069336 C-180.01345532 38.24350607 -178.06203321 38.02662126 -176.11058044 37.81001282 C-171.93958863 37.34644302 -167.76882734 36.88086932 -163.59823608 36.41370964 C-157.00055468 35.67480062 -150.4023016 34.94108758 -143.80395508 34.20814514 C-127.42854243 32.38834836 -111.05392823 30.5614027 -94.67938232 28.73382568 C-81.9233601 27.31022063 -69.16714161 25.88842214 -56.41034126 24.47180468 C-49.85288607 23.74340447 -43.29585051 23.01136572 -36.7391119 22.27654445 C-32.66482757 21.8207149 -28.59019447 21.3680661 -24.51545906 20.91628838 C-22.62831838 20.70639656 -20.74132385 20.49518578 -18.85449028 20.28255081 C-16.27666453 19.99222965 -13.69835444 19.70665636 -11.11987305 19.42222595 C-10.37619602 19.33730721 -9.632519 19.25238847 -8.8663063 19.16489643 C-4.48164349 18.68728984 -0.22538808 18.51731539 4.17578125 18.59375 C4.17578125 19.58375 4.17578125 20.57375 4.17578125 21.59375 C-6.29990146 23.53670774 -16.83812351 24.67592626 -27.42236328 25.82446289 C-29.38148736 26.03958205 -31.34057766 26.25500903 -33.29963684 26.47071838 C-37.49483087 26.93203531 -41.69024271 27.3912981 -45.88583755 27.84895515 C-52.5163384 28.57232698 -59.14625538 29.30095402 -65.77609253 30.03038025 C-82.2293437 31.83975578 -98.68340112 33.641762 -115.13751221 35.44329834 C-127.9541745 36.84668889 -140.77063371 38.25188565 -153.58652771 39.66227716 C-160.18226081 40.38792809 -166.77838335 41.10989879 -173.3748219 41.8291074 C-177.46469265 42.27579869 -181.55421086 42.72565292 -185.6436367 43.17639732 C-187.54547575 43.38535644 -189.44746197 43.59298076 -191.34959984 43.79920197 C-193.93668465 44.07986335 -196.52321138 44.36519966 -199.10964966 44.65174866 C-199.86993725 44.73307244 -200.63022484 44.81439622 -201.41355145 44.89818436 C-205.24181602 45.28796763 -205.24181602 45.28796763 -208.82421875 46.59375 C-194.78084034 45.36028763 -180.76116749 43.98798279 -166.74926758 42.43896484 C-164.85930825 42.23159619 -162.96932854 42.02441316 -161.07933044 41.81739807 C-157.0635028 41.37716039 -153.04781448 40.93568098 -149.0322361 40.49317551 C-142.68275676 39.79352001 -136.33294077 39.09695312 -129.983078 38.40078735 C-117.67685371 37.05119021 -105.3709552 35.69863756 -93.06510162 34.34566498 C-77.33228711 32.61600594 -61.59935715 30.887404 -45.86606425 29.16210139 C-39.55106385 28.46949605 -33.2362462 27.77525368 -26.92156565 27.07973838 C-23.01120842 26.64935413 -19.10070669 26.22029429 -15.19016457 25.79159355 C-13.37399088 25.59220848 -11.5578789 25.39226038 -9.74183273 25.19171715 C-7.27005033 24.91883576 -4.7980588 24.64793408 -2.32600403 24.37753296 C-1.24102866 24.25701445 -1.24102866 24.25701445 -0.13413459 24.13406122 C2.65562772 23.83063034 5.36673286 23.59375 8.17578125 23.59375 C8.17578125 24.91375 8.17578125 26.23375 8.17578125 27.59375 C-13.61115728 30.00250156 -35.39815321 32.41073334 -57.18521404 34.81837845 C-67.30571263 35.9367865 -77.42619371 37.05535248 -87.54663086 38.17431641 C-96.38747568 39.15180205 -105.22835612 40.12896477 -114.06927615 41.10576987 C-118.7323782 41.62099178 -123.39546453 42.13635477 -128.05850792 42.65210724 C-152.31001419 45.33429875 -176.56485249 47.98356646 -200.82421875 50.59375 C-188.18636535 50.02110948 -175.66727826 48.94842202 -163.09570312 47.55249023 C-161.19488439 47.34503686 -159.29401927 47.13800821 -157.39311218 46.93136597 C-152.29249982 46.37572973 -147.19253793 45.81432315 -142.09267616 45.25184512 C-136.73824023 44.66237893 -131.38318919 44.07855466 -126.02819824 43.49415588 C-115.91242822 42.38939348 -105.79717406 41.27998305 -95.68211889 40.16869646 C-80.79958639 38.53381949 -65.91634906 36.90538079 -51.03302765 35.27770329 C-49.94191791 35.15837466 -48.85080817 35.03904604 -47.7266345 34.9161014 C-45.55232116 34.67831138 -43.37800636 34.44053469 -41.20369005 34.20277172 C-34.83321925 33.50598731 -28.46292504 32.80761469 -22.09277916 32.10786617 C-18.1474618 31.6746121 -14.20205552 31.24217171 -10.25663185 30.80988693 C-8.42232408 30.60870247 -6.5880579 30.40713839 -4.75383568 30.2051754 C-2.25953917 29.93056607 0.23489632 29.65725556 2.72937012 29.38426208 C3.4622193 29.30323429 4.19506848 29.2222065 4.95012522 29.13872331 C9.94778976 28.59375 9.94778976 28.59375 12.17578125 28.59375 C12.17578125 29.91375 12.17578125 31.23375 12.17578125 32.59375 C1.17621454 33.82680463 -9.82387177 35.05517782 -20.82421875 36.28125 C-21.68458488 36.37716431 -22.54495102 36.47307861 -23.43138885 36.57189941 C-49.1748857 39.44099078 -74.92327121 42.26383423 -100.67578125 45.05078125 C-101.35377872 45.12416458 -102.03177618 45.19754791 -102.73031902 45.27315497 C-116.3683655 46.74922574 -130.00664575 48.2231238 -143.64537871 49.69283861 C-149.45883484 50.31932497 -155.27217749 50.94686013 -161.08549118 51.57466698 C-164.65850944 51.96014378 -168.23167162 52.3442662 -171.80484009 52.72834778 C-173.96967326 52.96205609 -176.13449913 53.19583205 -178.29931641 53.4296875 C-179.75406624 53.58545273 -179.75406624 53.58545273 -181.23820496 53.74436474 C-186.11645365 54.27287674 -190.97181673 54.86432404 -195.82421875 55.59375 C-191.84487961 56.92019638 -188.34543837 56.31380984 -184.25221252 55.87879944 C-183.36634065 55.78981571 -182.48046878 55.70083198 -181.5677523 55.60915178 C-178.58690945 55.30814903 -175.60709984 54.99790737 -172.62719727 54.68774414 C-170.49539794 54.47058572 -168.36354013 54.25400085 -166.23162842 54.03794861 C-160.43154298 53.44856016 -154.6322951 52.85126538 -148.83315015 52.25270391 C-142.77231117 51.628596 -136.7107001 51.01208412 -130.64915466 50.3948822 C-119.16102393 49.22403248 -107.67354178 48.04694596 -96.18630594 46.86735195 C-75.61124402 44.75477467 -55.03506941 42.65307217 -34.458713 40.55314535 C-27.23319611 39.81549791 -20.00795296 39.07523697 -12.78292668 38.33280003 C-8.29236455 37.87165767 -3.801642 37.41209175 0.68911743 36.95287514 C2.77577533 36.73912519 4.86236112 36.52466993 6.94886971 36.30946732 C9.79132577 36.01637074 12.63402252 35.72572885 15.47679138 35.4356842 C16.30742944 35.34940122 17.13806749 35.26311824 17.9938764 35.17422062 C21.41461215 34.82743212 24.73318941 34.59375 28.17578125 34.59375 C28.17578125 40.53375 28.17578125 46.47375 28.17578125 52.59375 C25.15831364 54.1024838 21.93546503 54.11870926 18.61738586 54.43531799 C17.82840682 54.51375991 17.03942777 54.59220183 16.22654027 54.67302078 C13.56846067 54.93629042 10.90985686 55.19383209 8.2512207 55.45141602 C6.35094481 55.63842054 4.45070242 55.82576584 2.55049133 56.01342773 C-2.62288937 56.52326799 -7.79675127 57.02806188 -12.97072959 57.53179669 C-18.38093896 58.05919073 -23.7907588 58.59055264 -29.20063782 59.12132263 C-38.29225687 60.01266067 -47.38419246 60.90071318 -56.47631836 61.78686523 C-66.98534817 62.81115682 -77.493853 63.84070417 -88.00209206 64.87307411 C-98.10597165 65.86558663 -108.21022321 66.85426225 -118.31464577 67.84123039 C-122.61563297 68.26141131 -126.91648361 68.68295269 -131.21722984 69.10559273 C-136.28691199 69.60362866 -141.35691087 70.09830743 -146.42717171 70.59041595 C-148.28685213 70.77145505 -150.14642102 70.95364408 -152.005867 71.13707542 C-154.54725169 71.38758534 -157.08901015 71.63389589 -159.63090515 71.87916565 C-160.36399499 71.95241155 -161.09708483 72.02565745 -161.85238951 72.10112292 C-166.23298091 72.51830961 -170.39177631 72.59375 -174.82421875 72.59375 C-174.82421875 174.23375 -174.82421875 275.87375 -174.82421875 380.59375 C-206.51676463 384.55531823 -206.51676463 384.55531823 -210.47265625 381.64453125 C-211.07634033 381.21503174 -211.68002441 380.78553223 -212.30200195 380.34301758 C-213.24112427 379.63181763 -213.24112427 379.63181763 -214.19921875 378.90625 C-214.87621826 378.41729248 -215.55321777 377.92833496 -216.25073242 377.42456055 C-217.6991938 376.37568612 -219.14168939 375.31853185 -220.57861328 374.25390625 C-222.86335509 372.56481685 -225.16642791 370.90415854 -227.4765625 369.25 C-235.25363845 363.67548867 -235.25363845 363.67548867 -238.37526911 361.32748365 C-240.82751998 359.53179616 -240.82751998 359.53179616 -243.61845809 357.99910402 C-251.20090891 353.37472029 -251.20090891 353.37472029 -252.83443964 348.70726681 C-253.21300997 345.15606325 -253.23832698 341.75005782 -253.14701843 338.17956543 C-253.1518205 336.81970181 -253.16146165 335.45984819 -253.17549926 334.10004854 C-253.20002253 330.37709158 -253.15621918 326.65763527 -253.10094059 322.9351244 C-253.05333451 318.91614527 -253.06951955 314.89735568 -253.0778656 310.87817383 C-253.0836273 303.91952404 -253.04918405 296.96201075 -252.98724937 290.00364685 C-252.89776301 279.94328889 -252.86919486 269.88347918 -252.85538147 259.82276636 C-252.83132004 243.49937142 -252.7581535 227.17658192 -252.65405273 210.85351562 C-252.55304786 194.99937973 -252.47520302 179.14540841 -252.4284668 163.29101562 C-252.42557684 162.31338286 -252.42268688 161.3357501 -252.41970935 160.32849211 C-252.4053537 155.42388284 -252.39145296 150.51927242 -252.37777841 145.61466122 C-252.26378665 104.94060302 -252.07007963 64.26721119 -251.82421875 23.59375 C-248.39727485 21.88027805 -244.47338974 21.91804568 -240.69825745 21.5243988 C-239.74059146 21.42145557 -238.78292548 21.31851234 -237.79623932 21.21244961 C-234.56710196 20.86633345 -231.33739665 20.52583514 -228.10766602 20.18530273 C-225.80009107 19.93917195 -223.49255096 19.69271447 -221.18504333 19.44595337 C-214.89989403 18.77493189 -208.61422135 18.10893833 -202.32841229 17.44412875 C-196.41961287 16.81872702 -190.51112186 16.19042864 -184.60259818 15.56242812 C-172.17578952 14.24182614 -159.74844695 12.92630369 -147.32093804 11.61231012 C-135.96625093 10.41159016 -124.61224651 9.2045478 -113.2585522 7.99447929 C-101.5960425 6.75155542 -89.93308397 5.51292607 -78.26962894 4.27890354 C-71.72359434 3.58620375 -65.17775134 2.89180552 -58.63235664 2.19308281 C-52.46962703 1.53540249 -46.30632935 0.88332661 -40.14255714 0.23549271 C-37.88454489 -0.00276811 -35.62673745 -0.24297967 -33.3691597 -0.48532295 C-30.27765545 -0.81686657 -27.18547604 -1.1412314 -24.09303284 -1.46388245 C-23.20817453 -1.56047403 -22.32331623 -1.65706562 -21.41164404 -1.75658423 C-4.14146122 -3.52854787 -4.14146122 -3.52854787 0 0 Z " fill="#000000" transform="translate(273.82421875,2.40625)"/>
<path d="M0 0 C2.3359375 2.08203125 2.3359375 2.08203125 4.375 4.8125 C5.06335938 5.70582031 5.75171875 6.59914063 6.4609375 7.51953125 C8 10 8 10 8 13 C-17.72352201 15.81702815 -43.44708528 18.63367925 -69.17069626 21.44989491 C-81.1175602 22.75784379 -93.06441117 24.06591097 -105.01123047 25.37426758 C-115.43742627 26.5160927 -125.86364757 27.65768473 -136.28989816 28.7990095 C-141.79834288 29.40200736 -147.30677572 30.00511333 -152.81517792 30.60849953 C-175.54075484 33.09776864 -198.26646299 35.58429471 -221 38 C-221 38.33 -221 38.66 -221 39 C-208.6511953 38.41230439 -196.42499671 37.27353033 -184.14477539 35.86694336 C-182.21767642 35.64964687 -180.29053058 35.43276567 -178.36334229 35.21626282 C-174.25015093 34.7533723 -170.13728142 34.28775333 -166.02464485 33.81995964 C-159.51435758 33.07961626 -153.00327107 32.34647543 -146.49205017 31.61439514 C-130.33307816 29.79646748 -114.17518023 27.96905721 -98.01745605 26.14007568 C-85.42843797 24.71517472 -72.83914084 23.29284008 -60.24898142 21.87805468 C-53.78250359 21.15110915 -47.3166432 20.41895979 -40.85120881 19.68279445 C-36.82825478 19.22587498 -32.80479035 18.77358187 -28.78117371 18.32253838 C-26.92263453 18.11325004 -25.06430759 17.90206658 -23.20622063 17.68880081 C-14.43807889 16.68335327 -5.84237958 15.70979549 3 16 C3 16.99 3 17.98 3 19 C-18.06248798 21.91864673 -39.19806291 24.18417997 -60.33200121 26.51176119 C-65.5521394 27.08728829 -70.77195236 27.66574948 -75.99179077 28.24398804 C-89.2025698 29.70695904 -102.41376416 31.16616088 -115.625 32.625 C-129.95612343 34.20753535 -144.28716935 35.79075658 -158.61774671 37.37823045 C-164.81723578 38.06485154 -171.01695612 38.74933372 -177.21686387 39.43216348 C-181.05984061 39.85584931 -184.90261507 40.28134778 -188.74533653 40.70734215 C-190.52665834 40.90443422 -192.30806439 41.10076667 -194.08955956 41.29628563 C-196.51937775 41.56306142 -198.94888138 41.83254178 -201.37832642 42.10269165 C-202.08346268 42.17944236 -202.78859895 42.25619308 -203.51510298 42.33526957 C-207.05345917 42.73172434 -210.52150363 43.23693749 -214 44 C-207.56944197 44.10645765 -201.31439 43.86084206 -194.92788696 43.12010193 C-193.64523565 42.97816102 -193.64523565 42.97816102 -192.33667219 42.83335263 C-189.50199876 42.51836041 -186.66826902 42.19558256 -183.83447266 41.87280273 C-181.79030776 41.64408937 -179.74608617 41.41588216 -177.70181274 41.18814087 C-173.31559024 40.69850512 -168.92976296 40.20551193 -164.54420853 39.70992851 C-157.61198981 38.92678565 -150.67880957 38.15240396 -143.74545288 37.37940979 C-126.53358127 35.45911006 -109.32297715 33.52753588 -92.1126709 31.59326172 C-78.71854742 30.08800388 -65.32408408 28.58592813 -51.9285053 27.09366947 C-45.03286859 26.32513029 -38.13802807 25.54989011 -31.24370885 24.76962459 C-26.96330026 24.28664417 -22.68225002 23.80955827 -18.40099716 23.33412552 C-16.41249068 23.11207498 -14.42425782 22.88755861 -12.43632507 22.660429 C-9.7283045 22.35136821 -7.01945347 22.05104569 -4.31021118 21.75291443 C-3.5193665 21.66050978 -2.72852182 21.56810512 -1.91371214 21.47290033 C1.67483853 21.08690819 4.54122364 20.99294108 8 22 C8 22.99 8 23.98 8 25 C6.93355444 25.11761405 5.86710888 25.2352281 4.76834679 25.35640621 C-21.1708584 28.2172154 -47.10985189 31.07993777 -73.04862404 33.94467068 C-85.59237509 35.32998418 -98.13619439 36.71467411 -110.68017578 38.09790039 C-121.61245967 39.3034062 -132.54461417 40.51007758 -143.47661436 41.71815354 C-149.26593807 42.3578801 -155.05532525 42.99701959 -160.84486771 43.63476372 C-166.29335588 44.23495781 -171.74166978 44.83670939 -177.18985367 45.43965912 C-179.1900651 45.66074371 -181.19033969 45.8812578 -183.19068146 46.10116005 C-185.92128964 46.40142842 -188.65166339 46.70374681 -191.38198853 47.00657654 C-192.17382872 47.09315551 -192.96566892 47.17973448 -193.78150427 47.26893705 C-197.88057665 47.72592922 -201.93700199 48.27713893 -206 49 C-193.76428123 48.40682032 -181.63735585 47.31364189 -169.46435547 45.95874023 C-167.57179307 45.75132294 -165.67918818 45.54429304 -163.7865448 45.33761597 C-159.74866917 44.8958951 -155.71109176 44.45157348 -151.67373276 44.00515556 C-145.28601326 43.29895395 -138.89759341 42.59923482 -132.50906372 41.90040588 C-120.11459268 40.54375335 -107.72078875 39.18107001 -95.32709503 37.81733704 C-79.51532698 36.07755437 -63.70340725 34.33919207 -47.89058411 32.60902172 C-41.54219372 31.91417501 -35.19422828 31.21559883 -28.84656787 30.51411617 C-24.9033838 30.0790999 -20.95986273 29.6472014 -17.01624489 29.21613693 C-15.19038369 29.01590311 -13.36466467 28.81436785 -11.53910255 28.6114254 C-9.04457476 28.33429333 -6.54957729 28.06184322 -4.05441284 27.79051208 C-3.33544575 27.70948429 -2.61647865 27.6284565 -1.87572467 27.54497331 C2.45145539 27.08049552 6.65683454 26.92839122 11 27 C11 27.99 11 28.98 11 30 C0.36283663 31.77187956 -10.30357094 32.98412602 -21.02148438 34.13891602 C-22.90691851 34.34422872 -24.79232424 34.54980249 -26.67770386 34.75561523 C-30.71138497 35.19540379 -34.74525375 35.63341295 -38.77928162 36.07000923 C-45.15856831 36.76048301 -51.53738269 37.45525349 -57.9161377 38.15061951 C-70.29372798 39.49935645 -82.67177308 40.84388936 -95.04988098 42.18786621 C-110.83484573 43.90188857 -126.61964041 45.61746347 -142.40394449 47.33756012 C-148.74558632 48.02849225 -155.08746988 48.71714908 -161.42955112 49.40403569 C-165.36758533 49.83098323 -169.30541765 50.25977046 -173.24319839 50.68904877 C-175.06966292 50.88776958 -176.89621212 51.08571388 -178.7228508 51.28282738 C-181.21451159 51.55180673 -183.70585675 51.82354436 -186.19714355 52.09596252 C-186.92077386 52.17339536 -187.64440417 52.25082819 -188.38996267 52.33060747 C-191.97121249 52.72522007 -195.480639 53.22436431 -199 54 C-187.89779947 53.31669988 -176.87367173 52.18226306 -165.82080078 50.95874023 C-163.93028834 50.75146074 -162.03974901 50.54442632 -160.14918518 50.33761597 C-156.10645773 49.89492186 -152.06390776 49.45065217 -148.02148819 49.00515556 C-141.62517656 48.3003932 -135.22838646 47.60004282 -128.83151245 46.90040588 C-111.80162715 45.03714332 -94.77235876 43.1682682 -77.74340713 41.29649264 C-66.53151503 40.06413305 -55.31935855 38.83424001 -44.10668361 37.60902172 C-37.75102913 36.91433146 -31.3958233 36.21570816 -25.04092717 35.51411617 C-21.08899314 35.07871908 -17.13667127 34.64692766 -13.18423271 34.21613693 C-11.35554899 34.01608783 -9.52702629 33.81456035 -7.69868279 33.6114254 C-5.1978258 33.33378545 -2.69643873 33.06151181 -0.19485474 32.79051208 C0.52324588 32.70948429 1.24134649 32.6284565 1.98120773 32.54497331 C6.68835631 32.04256568 11.27473029 31.93306383 16 32 C16 32.99 16 33.98 16 35 C5.31732564 36.7834792 -5.39563955 37.98831217 -16.16088867 39.13891602 C-18.0610432 39.34421982 -19.96116856 39.54979383 -21.86126709 39.75561523 C-25.92605991 40.19539583 -29.99103884 40.63339828 -34.05617332 41.07000923 C-40.48087482 41.76016798 -46.9050626 42.45502805 -53.32917786 43.15061951 C-69.26995265 44.87593618 -85.21136706 46.59531629 -101.1529541 48.31311035 C-113.57467866 49.65167553 -125.99621384 50.99194591 -138.41717702 52.33756012 C-144.80803123 53.02970896 -151.19926317 53.71822644 -157.59080064 54.40403569 C-161.55283784 54.82994718 -165.51452502 55.2590453 -169.47612 55.68904877 C-171.31829695 55.88833841 -173.16061945 56.08628767 -175.00309181 56.28282738 C-177.50910724 56.55033251 -180.0145679 56.82253731 -182.51994324 57.09596252 C-183.25620302 57.17339536 -183.9924628 57.25082819 -184.75103348 57.33060747 C-188.49663613 57.71348222 -188.49663613 57.71348222 -192 59 C-179.668912 58.38679928 -167.42346847 57.3267627 -155.14477539 56.05053711 C-153.21766466 55.85301935 -151.2905192 55.65584007 -149.36334229 55.45896912 C-145.2502295 55.03814707 -141.13735162 54.61512296 -137.02464485 54.19035149 C-130.51421534 53.51809957 -124.00318407 52.85180673 -117.49205017 52.18641663 C-101.33327484 50.53421689 -85.17523528 48.87486287 -69.01745605 47.21295166 C-56.42835295 45.91814662 -43.8390305 44.62556744 -31.24898142 43.33998877 C-24.78260623 42.67944985 -18.31673467 42.01423663 -11.85120881 41.34543788 C-7.82818813 40.93034025 -3.80474446 40.5194635 0.21882629 40.10973549 C2.0773271 39.91962194 3.93565245 39.72778367 5.79377937 39.53404999 C14.55670962 38.62125672 23.17577373 37.73692787 32 38 C32 43.94 32 49.88 32 56 C20.7580288 57.13367479 9.51582803 58.26502311 -1.72667694 59.39339256 C-6.96113045 59.91882616 -12.19551871 60.4448816 -17.4296875 60.97314453 C-68.93564176 66.1673456 -120.46966328 71.04515993 -172 76 C-172 177.64 -172 279.28 -172 384 C-203 387 -203 387 -212.6875 381.5625 C-214.75198645 379.72061562 -216.81616474 377.87679123 -218.81640625 375.96533203 C-222.79328267 372.3859654 -227.26647456 369.49772201 -231.6875 366.5 C-233.31819068 365.36714763 -234.94718886 364.23185382 -236.57421875 363.09375 C-237.60421997 362.37735352 -237.60421997 362.37735352 -238.6550293 361.64648438 C-239.81578979 360.83147461 -239.81578979 360.83147461 -241 360 C-241.57111686 359.73788249 -242.14223373 359.47576498 -242.73065716 359.20570451 C-244.96776095 358.01661368 -246.37955531 356.96252296 -248 355 C-249.06957789 350.65543999 -248.9135466 346.36291708 -248.84178162 341.90861511 C-248.84483455 340.54723053 -248.8509644 339.18584996 -248.85990578 337.82449132 C-248.87556501 334.08414342 -248.84755323 330.34519749 -248.81245935 326.60502827 C-248.78224675 322.57167745 -248.79245849 318.5384065 -248.79777527 314.50497437 C-248.80144685 307.51708917 -248.7794736 300.52966127 -248.7401104 293.5418911 C-248.68323522 283.43881435 -248.6649918 273.33595886 -248.65619446 263.23273937 C-248.64087175 246.8413135 -248.59428108 230.45013139 -248.52807617 214.05883789 C-248.4638289 198.13567322 -248.41427709 182.21257475 -248.38452148 166.28930664 C-248.38268242 165.30789871 -248.38084336 164.32649079 -248.37894856 163.31534322 C-248.36981334 158.39193737 -248.36096737 153.46853105 -248.35226524 148.54512441 C-248.27969102 107.69658003 -248.15639276 66.84830396 -248 26 C-218.90467591 22.55269537 -189.79118205 19.32260762 -160.65376067 16.25251937 C-156.32262793 15.79590108 -151.99164582 15.33786222 -147.66065866 14.87986547 C-137.46189614 13.80139472 -127.26289232 12.72522929 -117.0637207 11.65063477 C-106.57605555 10.54560273 -96.08882244 9.43653482 -85.60178107 8.32559985 C-76.5191808 7.36358211 -67.43632742 6.40398126 -58.35326463 5.44634038 C-52.96005009 4.87770338 -47.56693461 4.3081665 -42.17406273 3.73628807 C-37.1383061 3.20238563 -32.10224028 2.67150225 -27.06591797 2.14296341 C-25.22190824 1.94893343 -23.37801041 1.75383654 -21.534235 1.55759239 C-19.01877967 1.2900287 -16.50294807 1.02632845 -13.98698425 0.76359558 C-13.25949374 0.68529627 -12.53200323 0.60699695 -11.78246754 0.52632493 C-7.8408461 0.11935316 -3.9590123 -0.2660248 0 0 Z " fill="#000000" transform="translate(362,61)"/>
</svg>
