<?xml version="1.0" encoding="UTF-8"?>
<svg version="1.1" xmlns="http://www.w3.org/2000/svg" width="512" height="512">
<path d="M0 0 C15.0102532 10.96528237 25.05045418 25.34227149 28.97265625 43.6015625 C29.40625 46.7578125 29.40625 46.7578125 29.30859375 49.8515625 C29.06822508 55.51341208 29.06822508 55.51341208 31.79833984 60.28417969 C34.79490006 62.90921005 37.98349986 65.15650125 41.28125 67.3828125 C44.40625 69.7578125 44.40625 69.7578125 45.1796875 71.80078125 C45.40625 73.7578125 45.40625 73.7578125 44.15625 75.4453125 C38.90799209 79.38150594 30.86163657 78.09074627 24.71875 77.2578125 C23.955625 77.0928125 23.1925 76.9278125 22.40625 76.7578125 C20.09309481 79.59107353 20.09309481 79.59107353 20.53125 82.8828125 C21.26448687 86.13000435 22.10283079 88.37915767 23.53125 91.3203125 C24.84558244 94.18263648 25.41471258 95.86994167 25.65625 99.0703125 C23.75908459 103.14921814 20.46605539 104.1856783 16.40625 105.7578125 C16.6125 106.6034375 16.81875 107.4490625 17.03125 108.3203125 C17.48158066 112.44834351 16.92321263 114.89645308 15.40625 118.7578125 C14.16974581 120.21625334 12.9306735 121.67400637 11.6328125 123.078125 C9.70422895 125.71917891 9.05275097 128.66027753 8.27734375 131.8046875 C7.15288554 134.32589426 5.92664303 134.78882704 3.40625 135.7578125 C3.40625 136.4178125 3.40625 137.0778125 3.40625 137.7578125 C4.47552734 138.07105469 4.47552734 138.07105469 5.56640625 138.390625 C9.17326644 140.12707764 11.34502637 142.6004022 13.84375 145.6328125 C14.32602051 146.21506592 14.80829102 146.79731934 15.30517578 147.3972168 C22.11323392 155.86541314 25.52774919 164.88232584 28.51977539 175.18237305 C29.90087729 179.7148139 31.38751981 182.5939501 34.73828125 185.8671875 C37.08243296 188.52425875 38.70107044 191.54724949 40.40625 194.6328125 C43.16916627 199.6273404 46.07896708 204.42240157 49.375 209.0859375 C50.40625 210.7578125 50.40625 210.7578125 50.40625 212.7578125 C51.39625 212.9640625 52.38625 213.1703125 53.40625 213.3828125 C58.62781847 214.87165076 63.76633265 218.08188388 66.63671875 222.765625 C67.40625 224.7578125 67.40625 224.7578125 67.40625 227.7578125 C68.06625 227.7578125 68.72625 227.7578125 69.40625 227.7578125 C69.6021875 226.84386719 69.798125 225.92992187 70 224.98828125 C82.25376043 169.62969861 82.25376043 169.62969861 93.40625 161.7578125 C97.34886691 160.56997522 101.32214419 160.14510917 105.40625 159.6953125 C113.81322785 158.5773569 121.16443339 157.28569384 128.9453125 153.84375 C131.12115388 152.88361682 133.09629396 152.27438495 135.40625 151.7578125 C139.28983957 150.46328264 140.7404517 148.8787471 143.40625 145.7578125 C144.07140625 145.00886719 144.7365625 144.25992188 145.421875 143.48828125 C151.05361789 136.89428013 153.23739585 132.1774874 153.78125 123.5078125 C153.34541375 119.14944997 152.56875548 118.54825851 149.40625 115.7578125 C146.96602135 110.76115383 147.15066983 106.07377691 148.40625 100.7578125 C149.06625 99.7678125 149.72625 98.7778125 150.40625 97.7578125 C149.91253906 97.26152344 149.41882813 96.76523438 148.91015625 96.25390625 C145.85292446 93.01213331 143.66498673 90.52040496 142.21875 86.2578125 C142.41295393 82.63267239 143.26531763 80.32186598 145.05078125 77.18359375 C146.50472851 74.65410357 146.50472851 74.65410357 147.91796875 71.48828125 C153.37365737 59.75028452 159.78441546 50.44467679 172.40625 45.7578125 C182.60558139 42.41553689 194.55276839 44.52777283 203.9921875 48.9765625 C213.40560363 54.06489554 218.89666646 61.78120418 222.40625 71.7578125 C223.38645221 75.91590075 224.04140205 80.0944928 224.65625 84.3203125 C224.82898438 85.40505859 225.00171875 86.48980469 225.1796875 87.60742188 C226.91904548 98.97536869 226.91904548 98.97536869 226.40625 104.7578125 C223.31736478 106.81706931 222.69689073 106.9968499 219.21875 106.8828125 C217.960625 106.8415625 216.7025 106.8003125 215.40625 106.7578125 C215.25929688 107.65306641 215.25929688 107.65306641 215.109375 108.56640625 C210.85514455 133.24827772 210.85514455 133.24827772 204.67578125 144.33984375 C203.51124699 146.55783362 202.68074411 148.2715293 202.40625 150.7578125 C204.29854266 153.39405684 204.29854266 153.39405684 206.40625 155.7578125 C206.40625 156.4178125 206.40625 157.0778125 206.40625 157.7578125 C207.12296875 158.02464844 207.8396875 158.29148438 208.578125 158.56640625 C215.64817809 161.54481259 221.72573373 165.80454119 226.96875 171.3828125 C231.55427852 176.19761745 236.97238539 179.95940681 243.640625 181.16015625 C246.18782522 181.66289314 247.4257405 182.0369698 249.40625 183.7578125 C260.99166676 209.55121549 255.27756824 241.51304919 252.40625 268.7578125 C252.20558942 270.7433444 252.00616738 272.7290023 251.80859375 274.71484375 C251.72988037 275.50479736 251.65116699 276.29475098 251.57006836 277.10864258 C251.5160083 277.65286865 251.46194824 278.19709473 251.40625 278.7578125 C263.87393 271.83379736 276.29990552 264.86156058 288.59375 257.6328125 C296.60551516 252.93596325 304.65378499 248.3144247 312.78125 243.8203125 C313.72121826 243.29356934 314.66118652 242.76682617 315.62963867 242.22412109 C316.49177979 241.75184082 317.3539209 241.27956055 318.2421875 240.79296875 C319.00063965 240.374104 319.7590918 239.95523926 320.54052734 239.52368164 C321.15621582 239.27094482 321.7719043 239.01820801 322.40625 238.7578125 C323.06625 239.0878125 323.72625 239.4178125 324.40625 239.7578125 C328.62803118 259.87916724 326.81329319 281.12309637 316.25 299.04296875 C307.84187598 311.42357509 297.82678288 320.78002325 284.31640625 327.42578125 C283.6333139 327.76432129 282.95022156 328.10286133 282.24642944 328.45166016 C273.99074421 332.50563812 265.61093092 336.28959269 257.21923828 340.05175781 C254.48358183 341.2792004 251.75148286 342.51433668 249.01953125 343.75 C247.27624641 344.5343094 245.53276447 345.3181809 243.7890625 346.1015625 C242.97462677 346.47019409 242.16019104 346.83882568 241.32107544 347.21862793 C235.63603839 349.7578125 235.63603839 349.7578125 233.40625 349.7578125 C234.16470939 354.2119448 234.92459402 358.66583131 235.68572998 363.11950684 C235.95734662 364.70938854 236.22870968 366.29931358 236.49981689 367.88928223 C237.93293864 376.29034075 239.37875023 384.68796265 240.91796875 393.0703125 C241.14846924 394.33133789 241.37896973 395.59236328 241.61645508 396.89160156 C242.04977887 399.24870475 242.48817275 401.60488323 242.93237305 403.95996094 C243.46985717 406.88781746 243.96244234 409.81443625 244.40625 412.7578125 C244.5187207 413.47388672 244.63119141 414.18996094 244.74707031 414.92773438 C244.9140625 416.7734375 244.9140625 416.7734375 244.40625 419.7578125 C240.48017379 423.2930848 236.26054561 424.64604134 231.21875 426.0078125 C230.00832031 426.34296875 228.79789062 426.678125 227.55078125 427.0234375 C224.40625 427.7578125 224.40625 427.7578125 221.40625 427.7578125 C221.41410522 429.10637329 221.41410522 429.10637329 221.42211914 430.48217773 C221.57487815 460.85028169 221.57487815 460.85028169 221.03125 475.3828125 C221.00039307 476.30763428 220.96953613 477.23245605 220.93774414 478.18530273 C220.58083728 486.50249411 219.44977327 494.40962633 218.40625 502.7578125 C198.93625 502.7578125 179.46625 502.7578125 159.40625 502.7578125 C155.94125 490.8778125 155.94125 490.8778125 152.40625 478.7578125 C150.56900872 472.68760278 148.73056773 466.61942457 146.86108398 460.55932617 C146.07309915 458.00332701 145.28938646 455.44604066 144.50585938 452.88867188 C143.99764491 451.23690251 143.48919123 449.58520672 142.98046875 447.93359375 C142.75026535 447.18161209 142.52006195 446.42963043 142.28288269 445.65486145 C141.13730965 441.95240229 139.91307975 438.32957333 138.40625 434.7578125 C136.3587805 439.07024825 134.36554173 443.4047915 132.40625 447.7578125 C131.98931885 448.68110352 131.98931885 448.68110352 131.56396484 449.62304688 C124.29713692 465.919132 119.12075474 483.13363769 115.02832031 500.48120117 C114.40625 502.7578125 114.40625 502.7578125 113.40625 503.7578125 C111.77950222 503.85121684 110.14870949 503.87526421 108.51928711 503.87133789 C107.47828354 503.87126236 106.43727997 503.87118683 105.36473083 503.87110901 C104.2324556 503.86594772 103.10018036 503.86078644 101.93359375 503.85546875 C100.78081436 503.8540538 99.62803497 503.85263885 98.44032288 503.85118103 C94.74143936 503.84556255 91.04261536 503.83300692 87.34375 503.8203125 C84.84309983 503.81529988 82.34244871 503.81073656 79.84179688 503.80664062 C73.69659412 503.79558712 67.55142631 503.77883102 61.40625 503.7578125 C60.42271136 496.38566785 60.26060241 489.15865294 60.2734375 481.7265625 C60.27248077 480.49546753 60.27152405 479.26437256 60.27053833 477.99597168 C60.26986059 475.40405221 60.27168643 472.81213101 60.27587891 470.22021484 C60.28123284 466.27046874 60.27592003 462.32083635 60.26953125 458.37109375 C60.2701921 455.84374975 60.27147341 453.31640582 60.2734375 450.7890625 C60.27141327 449.61694214 60.26938904 448.44482178 60.26730347 447.23718262 C60.3135141 430.9432843 60.3135141 430.9432843 62.40625 426.7578125 C54.81625 430.0578125 47.22625 433.3578125 39.40625 436.7578125 C39.82777344 438.7584375 40.24929687 440.7590625 40.68359375 442.8203125 C41.09422528 444.78299202 41.50483298 446.7456766 41.91479492 448.70849609 C42.19781775 450.06062678 42.48197331 451.41252093 42.76733398 452.76416016 C45.27131593 464.63066653 46.57000324 475.49012972 46.53125 487.6328125 C46.53511719 488.86773437 46.53898438 490.10265625 46.54296875 491.375 C46.54103516 493.1384375 46.54103516 493.1384375 46.5390625 494.9375 C46.53793457 496.00726074 46.53680664 497.07702148 46.53564453 498.17919922 C46.40625 500.7578125 46.40625 500.7578125 45.40625 502.7578125 C18.01625 502.7578125 -9.37375 502.7578125 -37.59375 502.7578125 C-37.92375 500.7778125 -38.25375 498.7978125 -38.59375 496.7578125 C-40.34002478 499.37722467 -40.98097388 500.79606127 -41.59375 503.7578125 C-52.39833085 503.78093562 -63.20290586 503.79872743 -74.00750637 503.80962467 C-79.0239747 503.81485357 -84.04042615 503.82195133 -89.05688477 503.83325195 C-93.89384694 503.8440806 -98.73079284 503.85008929 -103.56776619 503.85268974 C-105.41743285 503.85454403 -107.26709857 503.85816472 -109.11675835 503.86354256 C-111.69822014 503.8707527 -114.27961382 503.87180345 -116.86108398 503.87133789 C-117.63360001 503.87493317 -118.40611603 503.87852844 -119.20204163 503.88223267 C-124.47969784 503.87186466 -124.47969784 503.87186466 -125.59375 502.7578125 C-125.83053716 500.06545474 -126.01573025 497.39283094 -126.15625 494.6953125 C-126.19943359 493.93669922 -126.24261719 493.17808594 -126.28710938 492.39648438 C-126.39348633 490.51715812 -126.49414934 488.63751006 -126.59375 486.7578125 C-127.27566406 486.51289063 -127.95757812 486.26796875 -128.66015625 486.015625 C-137.25735046 482.32947782 -147.53353274 476.53213969 -151.59375 467.7578125 C-159.05923798 447.6672908 -154.02709385 424.00336223 -147.96875 404.2578125 C-147.63713867 403.16863525 -147.30552734 402.07945801 -146.96386719 400.95727539 C-145.11461775 395.05988992 -143.05176721 389.35146992 -140.6484375 383.65625 C-135.56392625 372.7500598 -135.56392625 372.7500598 -135.29980469 361.18408203 C-137.75676097 356.50841383 -141.24008346 352.93486253 -145.04296875 349.32275391 C-153.2505351 341.04024441 -153.95414741 327.73228213 -154.59375 316.7578125 C-154.57643715 313.89204154 -154.47840657 311.03623008 -154.37573242 308.17236328 C-153.92177475 293.56829863 -156.62880027 280.73713261 -160.59375 266.7578125 C-161.33825409 264.07346947 -162.07665439 261.38778559 -162.80395508 258.69873047 C-163.22869623 257.13921449 -163.6661141 255.58305964 -164.11987305 254.03173828 C-166.29755488 246.22950277 -165.76109492 238.99377819 -164.71875 231.0078125 C-163.8937 224.45382153 -163.2016941 217.89792996 -162.59375 211.3203125 C-162.42475523 209.54294248 -162.25548529 207.7655986 -162.0859375 205.98828125 C-161.84065387 203.40898551 -161.5999949 200.8297689 -161.37597656 198.24853516 C-159.85188116 180.7003676 -156.05316526 168.93341152 -142.43359375 157.0546875 C-137.36552404 152.95561598 -132.03593593 149.33178535 -126.59375 145.7578125 C-125.78421875 145.2009375 -124.9746875 144.6440625 -124.140625 144.0703125 C-119.031197 140.7335432 -113.91153686 138.77050142 -108.15625 136.8828125 C-93.46089274 131.97314714 -84.52342506 122.09894338 -74.8359375 110.453125 C-72.59375 107.7578125 -72.59375 107.7578125 -71.59375 106.7578125 C-71.00457276 95.51812362 -71.40460413 84.63028084 -73.77734375 73.6171875 C-74.59375 69.7578125 -74.59375 69.7578125 -75.00390625 66.2109375 C-75.48084909 62.92444063 -75.89904854 60.61966373 -77.59375 57.7578125 C-80.89764688 55.85089407 -83.9884483 54.74189291 -87.66015625 53.72265625 C-90.59375 52.7578125 -90.59375 52.7578125 -92.59375 49.7578125 C-90.13333535 31.9198063 -81.48518718 12.89811048 -67.02734375 1.78515625 C-47.36525962 -11.38816043 -20.16705852 -13.03001508 0 0 Z M-72.59375 109.7578125 C-71.59375 111.7578125 -71.59375 111.7578125 -71.59375 111.7578125 Z M32.40625 264.7578125 C32.16152066 279.05377082 32.50911442 293.0727266 34.03808594 307.28759766 C34.47378548 311.39438364 34.88179741 315.5035966 35.2890625 319.61328125 C36.28979665 329.66553807 37.33360207 339.71298209 38.40625 349.7578125 C38.49559814 350.59451477 38.58494629 351.43121704 38.67700195 352.29327393 C39.19634993 357.13524382 39.72816435 361.97560332 40.2769165 366.81433105 C40.44564639 368.31099393 40.6114879 369.80798543 40.77435303 371.30529785 C40.99990599 373.36997052 41.23660552 375.43305252 41.4765625 377.49609375 C41.67403076 379.24466675 41.67403076 379.24466675 41.87548828 381.02856445 C42.16856829 383.89287735 42.16856829 383.89287735 44.40625 385.7578125 C47.01118869 383.32113647 49.61506537 380.88332846 52.21875 378.4453125 C52.95673828 377.75501953 53.69472656 377.06472656 54.45507812 376.35351562 C55.16728516 375.68642578 55.87949219 375.01933594 56.61328125 374.33203125 C57.2678833 373.71932373 57.92248535 373.10661621 58.59692383 372.4753418 C59.19400146 371.90855713 59.7910791 371.34177246 60.40625 370.7578125 C60.91969971 370.34499023 61.43314941 369.93216797 61.9621582 369.50683594 C64.22533042 366.76577664 65.16048139 363.51652055 66.3046875 360.19921875 C66.57627686 359.43457306 66.84786621 358.66992737 67.12768555 357.8821106 C68.02012849 355.36423233 68.90067512 352.8423632 69.78125 350.3203125 C70.39705553 348.57561204 71.01376536 346.83123052 71.63134766 345.0871582 C72.58758139 342.38623113 73.54311691 339.68507701 74.49545288 336.98277283 C76.70326399 330.72100627 78.94779037 324.47350078 81.21875 318.234375 C81.52108551 317.40290451 81.82342102 316.57143402 82.13491821 315.71476746 C83.30450797 312.49937851 84.47466997 309.28420853 85.64910889 306.07058716 C86.45383039 303.8670972 87.25465595 301.66222746 88.0546875 299.45703125 C88.29461426 298.80364777 88.53454102 298.15026428 88.78173828 297.4770813 C90.00924913 294.20125731 90.00924913 294.20125731 90.40625 290.7578125 C89.705 290.53867187 89.00375 290.31953125 88.28125 290.09375 C87.3325 289.77664063 86.38375 289.45953125 85.40625 289.1328125 C84.0140625 288.68035156 84.0140625 288.68035156 82.59375 288.21875 C79.84163333 286.95736319 78.22402545 285.87040484 75.9375 283.9921875 C70.25051299 279.56882522 63.54891538 277.24487189 56.90625 274.6328125 C54.35214668 273.61437582 51.80078325 272.58921937 49.25 271.5625 C48.06148437 271.08522461 46.87296875 270.60794922 45.6484375 270.11621094 C42.90791688 268.96799883 40.26693681 267.74616749 37.625 266.390625 C34.7105142 264.60701214 34.7105142 264.60701214 32.40625 264.7578125 Z " fill="#E7E9E8" transform="translate(175.59375,8.2421875)"/>
<path d="M0 0 C0.495 0.99 0.495 0.99 1 2 C0.525625 3.010625 0.05125 4.02125 -0.4375 5.0625 C-2.34725003 9.47654488 -3.0234631 13.2690249 -2 18 C-0.05285559 22.67092762 2.29441815 27.09148137 4.68603516 31.54785156 C20.63690271 61.31569134 30.53023909 92.4761977 39.42407227 124.95922852 C41.24696981 131.542116 43.3156635 137.98873929 45.5625 144.4375 C52.15179091 163.74672998 55.92685578 182.56984998 55.98535156 202.99462891 C55.99955615 205.90893575 56.06725296 208.81734698 56.1484375 211.73046875 C56.57415421 231.29654403 54.03260811 250.6983413 51 270 C44.42228359 269.42944219 40.95590406 267.22451009 35.74609375 263.3984375 C32.27573011 261.63116839 30.68747708 261.89623169 27 263 C18.31985184 267.61132871 13.47506251 274.82200151 10.625 284 C10.06715373 285.99554762 9.51979461 287.99420431 9 290 C9.57621094 290.25910156 10.15242188 290.51820313 10.74609375 290.78515625 C13.17809787 292.09599382 15.00712421 293.59597834 17.0625 295.4375 C17.73410156 296.03433594 18.40570313 296.63117188 19.09765625 297.24609375 C19.72542969 297.82488281 20.35320312 298.40367187 21 299 C21.55558594 299.48082031 22.11117187 299.96164062 22.68359375 300.45703125 C24.32087559 302.37610047 24.58482125 303.77622659 25 306.25 C25.71988442 310.47932096 27.28404155 314.07600678 29 318 C18.73949347 320.57871014 8.47045936 323.11914488 -1.81176758 325.60986328 C-3.9613576 326.1307815 -6.11056806 326.6532465 -8.25976562 327.17578125 C-15.15917018 328.85018337 -22.06101735 330.49590767 -29 332 C-29.22278544 334.16604273 -29.22278544 334.16604273 -27.33984375 335.84765625 C-17.73657491 344.70140167 -6.50679799 351.99296763 6 356 C6.83789062 356.29648437 7.67578125 356.59296875 8.5390625 356.8984375 C15.17602017 358.93626394 21.66803651 359.33773012 28.5625 359.4375 C29.42464111 359.45973633 30.28678223 359.48197266 31.17504883 359.50488281 C44.79023491 359.45848059 57.42297195 351.77298409 69.5625 346.25 C71.28693468 345.46836448 73.01154315 344.68711224 74.73632812 343.90625 C75.58681732 343.52102173 76.43730652 343.13579346 77.31356812 342.7388916 C79.01673291 341.968242 80.72036327 341.19862045 82.42446899 340.43005371 C86.6769549 338.51127846 90.91972626 336.57524355 95.14794922 334.60351562 C96.77436352 333.85535886 98.40082629 333.10730747 100.02734375 332.359375 C100.77343399 332.00514465 101.51952423 331.65091431 102.28822327 331.28594971 C106.00418759 329.59108567 108.10031598 328.71882903 112 330 C112.84070884 333.84017072 113.67669585 337.68133759 114.50854492 341.5234375 C114.92970241 343.46406985 115.35446589 345.40391851 115.77929688 347.34375 C118.16810321 358.39557689 119.16113245 368.55349856 119.125 379.875 C119.12886719 381.10992187 119.13273438 382.34484375 119.13671875 383.6171875 C119.13478516 385.380625 119.13478516 385.380625 119.1328125 387.1796875 C119.13168457 388.24944824 119.13055664 389.31920898 119.12939453 390.42138672 C119 393 119 393 118 395 C90.61 395 63.22 395 35 395 C34.67 393.02 34.34 391.04 34 389 C32.25372522 391.61941217 31.61277612 393.03824877 31 396 C20.19541915 396.02312312 9.39084414 396.04091493 -1.41375637 396.05181217 C-6.4302247 396.05704107 -11.44667615 396.06413883 -16.46313477 396.07543945 C-21.30009694 396.0862681 -26.13704284 396.09227679 -30.97401619 396.09487724 C-32.82368285 396.09673153 -34.67334857 396.10035222 -36.52300835 396.10573006 C-39.10447014 396.1129402 -41.68586382 396.11399095 -44.26733398 396.11352539 C-45.03985001 396.11712067 -45.81236603 396.12071594 -46.60829163 396.12442017 C-51.88594784 396.11405216 -51.88594784 396.11405216 -53 395 C-53.23678716 392.30764224 -53.42198025 389.63501844 -53.5625 386.9375 C-53.60568359 386.17888672 -53.64886719 385.42027344 -53.69335938 384.63867188 C-53.79973633 382.75934562 -53.90039934 380.87969756 -54 379 C-54.68191406 378.75507813 -55.36382812 378.51015625 -56.06640625 378.2578125 C-64.66360046 374.57166532 -74.93978274 368.77432719 -79 360 C-86.46548798 339.9094783 -81.43334385 316.24554973 -75.375 296.5 C-75.04338867 295.41082275 -74.71177734 294.32164551 -74.37011719 293.19946289 C-72.52086775 287.30207742 -70.45801721 281.59365742 -68.0546875 275.8984375 C-62.97017625 264.9922473 -62.97017625 264.9922473 -62.70605469 253.42626953 C-65.16301097 248.75060133 -68.64633346 245.17705003 -72.44921875 241.56494141 C-80.6567851 233.28243191 -81.36039741 219.97446963 -82 209 C-81.98268715 206.13422904 -81.88465657 203.27841758 -81.78198242 200.41455078 C-81.32802475 185.81048613 -84.03505027 172.97932011 -88 159 C-88.74450409 156.31565697 -89.48290439 153.62997309 -90.21020508 150.94091797 C-90.63494623 149.38140199 -91.0723641 147.82524714 -91.52612305 146.27392578 C-93.70380488 138.47169027 -93.16734492 131.23596569 -92.125 123.25 C-91.29995 116.69600903 -90.6079441 110.14011746 -90 103.5625 C-89.83100523 101.78512998 -89.66173529 100.0077861 -89.4921875 98.23046875 C-89.24690387 95.65117301 -89.0062449 93.0719564 -88.78222656 90.49072266 C-87.25813116 72.9425551 -83.45941526 61.17559902 -69.83984375 49.296875 C-64.77177404 45.19780348 -59.44218593 41.57397285 -54 38 C-53.19046875 37.443125 -52.3809375 36.88625 -51.546875 36.3125 C-46.437447 32.9757307 -41.31778686 31.01268892 -35.5625 29.125 C-19.72832836 23.8348609 -10.36485136 12.51955164 0 0 Z " fill="#41596A" transform="translate(103,116)"/>
<path d="M0 0 C10.49708091 8.09774813 13.74837425 19.80652929 15.57421875 32.35546875 C15.74695313 33.44021484 15.9196875 34.52496094 16.09765625 35.64257812 C17.83701423 47.01052494 17.83701423 47.01052494 17.32421875 52.79296875 C14.23533353 54.85222556 13.61485948 55.03200615 10.13671875 54.91796875 C8.87859375 54.87671875 7.62046875 54.83546875 6.32421875 54.79296875 C6.17726563 55.68822266 6.17726563 55.68822266 6.02734375 56.6015625 C1.7731133 81.28343397 1.7731133 81.28343397 -4.40625 92.375 C-5.57078426 94.59298987 -6.40128714 96.30668555 -6.67578125 98.79296875 C-4.78348859 101.42921309 -4.78348859 101.42921309 -2.67578125 103.79296875 C-2.67578125 104.45296875 -2.67578125 105.11296875 -2.67578125 105.79296875 C-1.9590625 106.05980469 -1.24234375 106.32664062 -0.50390625 106.6015625 C6.56614684 109.57996884 12.64370248 113.83969744 17.88671875 119.41796875 C22.47224727 124.2327737 27.89035414 127.99456306 34.55859375 129.1953125 C37.10579397 129.69804939 38.34370925 130.07212605 40.32421875 131.79296875 C49.94385463 153.20981977 47.05932364 178.63310535 44.94921875 201.41796875 C44.88609497 202.10953064 44.82297119 202.80109253 44.75793457 203.51361084 C44.34535278 207.94879896 43.86053243 212.37114222 43.32421875 216.79296875 C43.20143555 217.86901367 43.07865234 218.94505859 42.95214844 220.05371094 C41.95838471 227.0845311 41.95838471 227.0845311 39.15625 230.21484375 C37.75439453 230.99601562 37.75439453 230.99601562 36.32421875 231.79296875 C35.75751465 232.13521484 35.19081055 232.47746094 34.60693359 232.83007812 C32.76178686 233.94060585 30.89373892 234.99632519 29.01171875 236.04296875 C28.36654297 236.40648437 27.72136719 236.77 27.05664062 237.14453125 C25.48140459 238.0313308 23.90312161 238.91271438 22.32421875 239.79296875 C17.99794884 237.44190894 14.67665728 234.52850372 11.13671875 231.16796875 C6.50014122 226.79489683 4.25936298 224.68829174 -2.25 224.6171875 C-25.13275843 224.18874436 -25.13275843 224.18874436 -35.66015625 220.73046875 C-38.98653617 219.696361 -42.22242868 219.20945348 -45.67578125 218.79296875 C-48.21284675 222.20488442 -49.78677198 224.91258063 -50.83203125 229.0390625 C-52.63265444 234.61231189 -56.02143345 237.65423659 -60.36328125 241.41796875 C-61.04583984 242.03414062 -61.72839844 242.6503125 -62.43164062 243.28515625 C-64.49623985 245.14115102 -66.58176437 246.97026724 -68.67578125 248.79296875 C-70.07438297 250.01543714 -71.47282413 251.23808926 -72.87109375 252.4609375 C-73.52779053 253.03457031 -74.1844873 253.60820312 -74.86108398 254.19921875 C-78.03597999 256.98755739 -81.15542562 259.83665176 -84.28125 262.6796875 C-85.46654297 263.72576172 -85.46654297 263.72576172 -86.67578125 264.79296875 C-87.39765625 265.50582031 -88.11953125 266.21867187 -88.86328125 266.953125 C-92.87564717 269.57788104 -96.79259462 269.94769155 -101.48828125 270.54296875 C-102.37193359 270.66800781 -103.25558594 270.79304688 -104.16601562 270.921875 C-106.33438255 271.22661846 -108.5036624 271.51647672 -110.67578125 271.79296875 C-110.58554687 272.72496094 -110.4953125 273.65695312 -110.40234375 274.6171875 C-110.23838981 280.85374315 -110.21644912 285.63925966 -114.578125 290.4375 C-117.55665249 293.30714216 -120.73017768 295.92481786 -123.98730469 298.47119141 C-126.01968508 300.06218439 -127.9427872 301.75684543 -129.86328125 303.48046875 C-130.45496094 303.9909375 -131.04664063 304.50140625 -131.65625 305.02734375 C-136.0597134 308.87718023 -140.35769265 312.8479503 -144.67578125 316.79296875 C-145.33578125 316.46296875 -145.99578125 316.13296875 -146.67578125 315.79296875 C-137.49133111 290.07060195 -128.16393332 264.40487763 -118.67578125 238.79296875 C-119.95453125 238.60734375 -121.23328125 238.42171875 -122.55078125 238.23046875 C-126.52083929 237.3598014 -129.09610092 235.99122329 -132.33203125 233.55078125 C-138.4186552 229.00933193 -145.1632339 226.40935165 -152.17578125 223.66796875 C-160.51478306 220.36101264 -168.73513179 216.99208402 -176.67578125 212.79296875 C-175.95125902 235.11705965 -174.26636171 257.2243004 -171.73828125 279.41796875 C-171.54306381 281.1591246 -171.54306381 281.1591246 -171.34390259 282.93545532 C-169.65724244 298.083562 -169.65724244 298.083562 -167.62086487 313.18737793 C-167.31521021 315.26892447 -167.02744098 317.35209057 -166.74584961 319.43701172 C-166.42209344 321.7769637 -166.05959418 324.11210452 -165.64672852 326.43798828 C-165.04204787 330.96816661 -164.8017312 333.56095115 -167.51123047 337.38012695 C-169.79398159 339.702462 -172.13579067 341.75836983 -174.67578125 343.79296875 C-176.01307287 344.97600938 -177.34716812 346.16268998 -178.67578125 347.35546875 C-179.31515625 347.90460938 -179.95453125 348.45375 -180.61328125 349.01953125 C-182.99098077 351.06399258 -185.33408596 353.14489639 -187.67578125 355.23046875 C-188.82046875 356.24947266 -188.82046875 356.24947266 -189.98828125 357.2890625 C-190.54515625 357.78535156 -191.10203125 358.28164063 -191.67578125 358.79296875 C-193.64972033 357.32353519 -195.61803437 355.8485282 -197.57421875 354.35546875 C-199.74824649 352.69415007 -199.74824649 352.69415007 -202.48828125 351.04296875 C-204.94283512 348.51828477 -205.15252535 347.33124432 -205.92578125 343.98046875 C-207.3268703 338.72444962 -209.56573384 336.34719739 -213.98046875 333.265625 C-218.64176575 330.71880041 -223.5668302 329.18474729 -228.67578125 327.79296875 C-228.67578125 327.46296875 -228.67578125 327.13296875 -228.67578125 326.79296875 C-228.1024707 326.74809326 -227.52916016 326.70321777 -226.93847656 326.65698242 C-212.93700922 325.52950767 -200.27899796 324.3683894 -187.67578125 317.79296875 C-187.17951206 296.00675121 -187.71097609 274.45504847 -189.48828125 252.73046875 C-189.5711438 251.69762756 -189.65400635 250.66478638 -189.73937988 249.60064697 C-190.63109839 238.6488887 -191.72375011 227.73672433 -193.171875 216.84375 C-193.28755325 215.96001205 -193.40323151 215.07627411 -193.52241516 214.16575623 C-194.49756223 207.15451639 -196.13866571 200.43143025 -198.2265625 193.671875 C-199.99310382 187.81167843 -201.54070434 181.89504316 -203.11328125 175.98046875 C-204.29541755 171.58317802 -205.48416054 167.18769809 -206.67578125 162.79296875 C-206.94567871 161.7963623 -207.21557617 160.79975586 -207.49365234 159.77294922 C-211.44940496 145.25707834 -215.9295382 132.11995801 -223.81762695 119.22143555 C-226.74206584 114.2929302 -226.74206584 114.2929302 -226.40673828 111.76367188 C-225.67578125 109.79296875 -225.67578125 109.79296875 -223.67578125 106.79296875 C-223.94903669 101.8323315 -225.80426226 98.31110711 -228.23828125 94.04296875 C-231.67578125 87.98411563 -231.67578125 87.98411563 -231.67578125 85.79296875 C-226.49681771 84.64867869 -221.5241124 84.53526313 -216.23828125 84.48046875 C-214.84512695 84.43696289 -214.84512695 84.43696289 -213.42382812 84.39257812 C-207.61915936 84.33886945 -204.18078267 84.78636547 -199.67578125 88.79296875 C-197.50950015 91.02208154 -195.54001021 93.35487752 -193.61328125 95.79296875 C-193.08669922 96.45796387 -192.56011719 97.12295898 -192.01757812 97.80810547 C-186.13595637 105.47587516 -183.35772794 113.37954606 -180.73828125 122.60546875 C-179.31565141 127.40046813 -177.85469673 130.27719827 -174.37890625 133.796875 C-171.61244562 137.03921762 -169.70993956 140.79881419 -167.65527344 144.51245117 C-165.2241107 148.88913133 -162.59520676 153.03463265 -159.70703125 157.12109375 C-158.67578125 158.79296875 -158.67578125 158.79296875 -158.67578125 160.79296875 C-157.68578125 160.99921875 -156.69578125 161.20546875 -155.67578125 161.41796875 C-150.45421278 162.90680701 -145.3156986 166.11704013 -142.4453125 170.80078125 C-141.67578125 172.79296875 -141.67578125 172.79296875 -141.67578125 175.79296875 C-141.01578125 175.79296875 -140.35578125 175.79296875 -139.67578125 175.79296875 C-139.47984375 174.87902344 -139.28390625 173.96507812 -139.08203125 173.0234375 C-126.82827082 117.66485486 -126.82827082 117.66485486 -115.67578125 109.79296875 C-111.73316434 108.60513147 -107.75988706 108.18026542 -103.67578125 107.73046875 C-95.2688034 106.61251315 -87.91759786 105.32085009 -80.13671875 101.87890625 C-77.96087737 100.91877307 -75.98573729 100.3095412 -73.67578125 99.79296875 C-69.79219168 98.49843889 -68.34157955 96.91390335 -65.67578125 93.79296875 C-65.010625 93.04402344 -64.34546875 92.29507813 -63.66015625 91.5234375 C-58.02841336 84.92943638 -55.8446354 80.21264365 -55.30078125 71.54296875 C-55.7366175 67.18460622 -56.51327577 66.58341476 -59.67578125 63.79296875 C-62.1160099 58.79631008 -61.93136142 54.10893316 -60.67578125 48.79296875 C-60.01578125 47.80296875 -59.35578125 46.81296875 -58.67578125 45.79296875 C-59.16949219 45.29667969 -59.66320312 44.80039063 -60.171875 44.2890625 C-63.22910679 41.04728956 -65.41704452 38.55556121 -66.86328125 34.29296875 C-66.66907732 30.66782864 -65.81671362 28.35702223 -64.03125 25.21875 C-62.57730274 22.68925982 -62.57730274 22.68925982 -61.1640625 19.5234375 C-55.70837388 7.78544077 -49.29761579 -1.52016696 -36.67578125 -6.20703125 C-24.39111702 -10.23266118 -10.54161463 -6.70228246 0 0 Z " fill="#415A6B" transform="translate(384.67578125,60.20703125)"/>
<path d="M0 0 C0.2333606 1.37043457 0.2333606 1.37043457 0.47143555 2.76855469 C1.07329242 6.29974284 1.67604378 9.83077584 2.27947998 13.36169434 C2.55109662 14.95157604 2.82245968 16.54150108 3.09356689 18.13146973 C4.52668864 26.53252825 5.97250023 34.93015015 7.51171875 43.3125 C7.74221924 44.57352539 7.97271973 45.83455078 8.21020508 47.13378906 C8.64352887 49.49089225 9.08192275 51.84707073 9.52612305 54.20214844 C10.06360717 57.13000496 10.55619234 60.05662375 11 63 C11.1124707 63.71607422 11.22494141 64.43214844 11.34082031 65.16992188 C11.5078125 67.015625 11.5078125 67.015625 11 70 C7.07392379 73.5352723 2.85429561 74.88822884 -2.1875 76.25 C-3.39792969 76.58515625 -4.60835937 76.9203125 -5.85546875 77.265625 C-9 78 -9 78 -12 78 C-11.99476318 78.89904053 -11.98952637 79.79808105 -11.98413086 80.72436523 C-11.83137185 111.09246919 -11.83137185 111.09246919 -12.375 125.625 C-12.4212854 127.01223267 -12.4212854 127.01223267 -12.46850586 128.42749023 C-12.82541272 136.74468161 -13.95647673 144.65181383 -15 153 C-34.47 153 -53.94 153 -74 153 C-76.31 145.08 -78.62 137.16 -81 129 C-82.83724128 122.92979028 -84.67568227 116.86161207 -86.54516602 110.80151367 C-87.33315085 108.24551451 -88.11686354 105.68822816 -88.90039062 103.13085938 C-89.40860509 101.47909001 -89.91705877 99.82739422 -90.42578125 98.17578125 C-90.65598465 97.42379959 -90.88618805 96.67181793 -91.12336731 95.89704895 C-92.26894035 92.19458979 -93.49317025 88.57176083 -95 85 C-97.0474695 89.31243575 -99.04070827 93.646979 -101 98 C-101.2779541 98.61552734 -101.5559082 99.23105469 -101.84228516 99.86523438 C-109.10911308 116.1613195 -114.28549526 133.37582519 -118.37792969 150.72338867 C-119 153 -119 153 -120 154 C-121.62674778 154.09340434 -123.25754051 154.11745171 -124.88696289 154.11352539 C-125.92796646 154.11344986 -126.96897003 154.11337433 -128.04151917 154.11329651 C-129.1737944 154.10813522 -130.30606964 154.10297394 -131.47265625 154.09765625 C-133.20182533 154.09553383 -133.20182533 154.09553383 -134.96592712 154.09336853 C-138.66481064 154.08775005 -142.36363464 154.07519442 -146.0625 154.0625 C-148.56315017 154.05748738 -151.06380129 154.05292406 -153.56445312 154.04882812 C-159.70965588 154.03777462 -165.85482369 154.02101852 -172 154 C-172.9723897 146.66561124 -173.16089227 139.46792651 -173.16796875 132.07421875 C-173.17129715 130.8502388 -173.17462555 129.62625885 -173.17805481 128.3651886 C-173.18309775 125.78586195 -173.18546395 123.20652884 -173.18530273 120.62719727 C-173.18748726 116.71033835 -173.2056662 112.79376226 -173.22460938 108.87695312 C-173.22754435 106.35937595 -173.22952845 103.84179746 -173.23046875 101.32421875 C-173.23765427 100.16758224 -173.24483978 99.01094574 -173.25224304 97.81925964 C-173.20947101 82.37071567 -173.20947101 82.37071567 -171 76 C-168.40813959 73.73241529 -167.22275908 72.95227419 -164.16796875 71.828125 C-163.46117477 71.52255676 -162.7543808 71.21698853 -162.02616882 70.90216064 C-160.49575244 70.24354159 -158.95689163 69.6042723 -157.41107178 68.98266602 C-154.97575638 67.99011917 -152.58562538 66.92698907 -150.19384766 65.83398438 C-144.92084178 63.42481039 -139.61805475 61.08642473 -134.3125 58.75 C-132.3344558 57.87540613 -130.3565952 57.0003969 -128.37890625 56.125 C-124.28406931 54.31285673 -120.18846113 52.50247374 -116.09228516 50.69335938 C-107.48040393 46.88820899 -98.87826372 43.06117636 -90.27587891 39.23461914 C-85.63618675 37.1710375 -80.99579152 35.1090381 -76.35546875 33.046875 C-74.48485991 32.21550237 -72.61425447 31.38412211 -70.74365234 30.55273438 C-58.92675781 25.30078125 -47.10986328 20.04882812 -35.29296875 14.796875 C-33.97321548 14.21021057 -33.97321548 14.21021057 -32.62680054 13.61169434 C-30.91023935 12.84892113 -29.19346817 12.08662029 -27.47647095 11.3248291 C-23.23742593 9.44337947 -19.00276625 7.55294139 -14.77490234 5.64648438 C-13.94149826 5.27207214 -13.10809418 4.89765991 -12.24943542 4.51190186 C-10.67019049 3.80210161 -9.09224651 3.08939743 -7.51582336 2.37335205 C-2.22465022 0 -2.22465022 0 0 0 Z " fill="#415A6B" transform="translate(409,358)"/>
<path d="M0 0 C0.495 0.99 0.495 0.99 1 2 C0.525625 3.010625 0.05125 4.02125 -0.4375 5.0625 C-2.34725003 9.47654488 -3.0234631 13.2690249 -2 18 C-0.05285559 22.67092762 2.29441815 27.09148137 4.68603516 31.54785156 C20.63690271 61.31569134 30.53023909 92.4761977 39.42407227 124.95922852 C41.24696981 131.542116 43.3156635 137.98873929 45.5625 144.4375 C52.15179091 163.74672998 55.92685578 182.56984998 55.98535156 202.99462891 C55.99955615 205.90893575 56.06725296 208.81734698 56.1484375 211.73046875 C56.57415421 231.29654403 54.03260811 250.6983413 51 270 C39.97759227 268.87609356 32.77824179 262.05148613 25.05273438 254.69287109 C19.55552677 249.48217873 13.64611758 244.89844803 7.65039062 240.28173828 C3.35791425 236.94808429 -0.82517948 233.4790171 -5 230 C-5.72960937 229.39542969 -6.45921875 228.79085937 -7.2109375 228.16796875 C-16.2682576 220.4813925 -23.99173596 212.60177718 -25.0625 200.359375 C-25.124375 199.45703125 -25.18625 198.5546875 -25.25 197.625 C-25.32734375 196.73039063 -25.4046875 195.83578125 -25.484375 194.9140625 C-26.20865564 186.01575753 -26.17146546 177.73584643 -24.625 168.9375 C-24.34856424 167.26330002 -24.07385098 165.58881479 -23.80078125 163.9140625 C-23.66494629 163.08680664 -23.52911133 162.25955078 -23.38916016 161.40722656 C-17.5965189 125.57570663 -28.33567858 96.55548673 -49.125 66.9765625 C-53.06894678 61.76278437 -56.30391585 57.67588501 -63.08984375 56.69921875 C-70.58117319 56.25101955 -76.32754727 59.27295606 -82 64 C-77.71969179 51.98221157 -64.04155302 44.92628819 -54 38 C-53.07832031 37.35417969 -52.15664063 36.70835937 -51.20703125 36.04296875 C-46.23733796 32.80112063 -41.15533555 30.97229192 -35.5625 29.125 C-19.72833836 23.83084573 -10.36631881 12.52132415 0 0 Z " fill="#344A5E" transform="translate(103,116)"/>
<path d="M0 0 C0.92876953 -0.02900391 1.85753906 -0.05800781 2.81445312 -0.08789062 C8.61912189 -0.1415993 12.05749858 0.30589672 16.5625 4.3125 C18.7287811 6.54161279 20.69827104 8.87440877 22.625 11.3125 C23.15158203 11.97749512 23.67816406 12.64249023 24.22070312 13.32763672 C30.10232488 20.99540641 32.88055331 28.89907731 35.5 38.125 C36.92262984 42.91999938 38.38358452 45.79672952 41.859375 49.31640625 C44.62583563 52.55874887 46.52834169 56.31834544 48.58300781 60.03198242 C51.01417055 64.40866258 53.64307449 68.5541639 56.53125 72.640625 C57.5625 74.3125 57.5625 74.3125 57.5625 76.3125 C59.0475 76.621875 59.0475 76.621875 60.5625 76.9375 C65.78406847 78.42633826 70.92258265 81.63657138 73.79296875 86.3203125 C74.5625 88.3125 74.5625 88.3125 74.5625 91.3125 C75.820625 91.704375 77.07875 92.09625 78.375 92.5 C83.96462552 94.35134094 89.24518207 96.79795526 94.5625 99.3125 C94.5625 99.9725 94.5625 100.6325 94.5625 101.3125 C95.28276367 101.59085693 96.00302734 101.86921387 96.74511719 102.15600586 C99.4503414 103.26646055 102.03056868 104.49942549 104.640625 105.81640625 C118.31429686 112.61570485 132.0261363 118.30679719 146.46972656 123.24365234 C151.71187189 125.05531261 156.91669076 126.96870185 162.125 128.875 C163.9595391 129.54323323 165.79416457 130.21122942 167.62890625 130.87890625 C168.94012683 131.35670866 170.25133435 131.83454688 171.5625 132.3125 C171.23636719 132.78558594 170.91023437 133.25867188 170.57421875 133.74609375 C168.16893965 137.38594089 166.35949077 140.60633817 165.23046875 144.8359375 C163.55635504 150.2976017 160.10242152 153.27295829 155.875 156.9375 C155.19244141 157.55367187 154.50988281 158.16984375 153.80664062 158.8046875 C151.7420414 160.66068227 149.65651688 162.48979849 147.5625 164.3125 C146.16389828 165.53496839 144.76545712 166.75762051 143.3671875 167.98046875 C142.71049072 168.55410156 142.05379395 169.12773437 141.37719727 169.71875 C138.20230126 172.50708864 135.08285563 175.35618301 131.95703125 178.19921875 C130.77173828 179.24529297 130.77173828 179.24529297 129.5625 180.3125 C128.840625 181.02535156 128.11875 181.73820313 127.375 182.47265625 C123.36263408 185.09741229 119.44568663 185.4672228 114.75 186.0625 C113.86634766 186.18753906 112.98269531 186.31257812 112.07226562 186.44140625 C109.9038987 186.74614971 107.73461885 187.03600797 105.5625 187.3125 C105.65273438 188.24449219 105.74296875 189.17648437 105.8359375 190.13671875 C105.99989144 196.3732744 106.02183213 201.15879091 101.66015625 205.95703125 C98.68162876 208.82667341 95.50810357 211.44434911 92.25097656 213.99072266 C90.21859617 215.58171564 88.29549405 217.27637668 86.375 219 C85.78332031 219.51046875 85.19164062 220.0209375 84.58203125 220.546875 C80.17856785 224.39671148 75.8805886 228.36748155 71.5625 232.3125 C70.9025 231.9825 70.2425 231.6525 69.5625 231.3125 C78.74695014 205.5901332 88.07434793 179.92440888 97.5625 154.3125 C96.28375 154.126875 95.005 153.94125 93.6875 153.75 C89.71744196 152.87933265 87.14218033 151.51075454 83.90625 149.0703125 C77.81962605 144.52886318 71.07504735 141.9288829 64.0625 139.1875 C55.72349819 135.88054389 47.50314946 132.51161527 39.5625 128.3125 C40.28702223 150.6365909 41.97191954 172.74383165 44.5 194.9375 C44.63014496 196.09827057 44.76028992 197.25904114 44.89437866 198.45498657 C46.58103881 213.60309325 46.58103881 213.60309325 48.61741638 228.70690918 C48.92307104 230.78845572 49.21084027 232.87162182 49.49243164 234.95654297 C49.81618781 237.29649495 50.17868707 239.63163577 50.59155273 241.95751953 C51.19623338 246.48769786 51.43655005 249.0804824 48.72705078 252.8996582 C46.44429966 255.22199325 44.10249058 257.27790108 41.5625 259.3125 C40.22520838 260.49554063 38.89111313 261.68222123 37.5625 262.875 C36.923125 263.42414063 36.28375 263.97328125 35.625 264.5390625 C33.24730048 266.58352383 30.90419529 268.66442764 28.5625 270.75 C27.4178125 271.76900391 27.4178125 271.76900391 26.25 272.80859375 C25.693125 273.30488281 25.13625 273.80117188 24.5625 274.3125 C22.58856092 272.84306644 20.62024688 271.36805945 18.6640625 269.875 C16.49003476 268.21368132 16.49003476 268.21368132 13.75 266.5625 C11.29544613 264.03781602 11.0857559 262.85077557 10.3125 259.5 C8.91141095 254.24398087 6.67254741 251.86672864 2.2578125 248.78515625 C-2.4034845 246.23833166 -7.32854895 244.70427854 -12.4375 243.3125 C-12.4375 242.9825 -12.4375 242.6525 -12.4375 242.3125 C-11.86418945 242.26762451 -11.29087891 242.22274902 -10.70019531 242.17651367 C3.30127203 241.04903892 15.95928329 239.88792065 28.5625 233.3125 C29.05876919 211.52628246 28.52730516 189.97457972 26.75 168.25 C26.66713745 167.21715881 26.5842749 166.18431763 26.49890137 165.12017822 C25.60718286 154.16841995 24.51453114 143.25625558 23.06640625 132.36328125 C22.950728 131.4795433 22.83504974 130.59580536 22.71586609 129.68528748 C21.74071902 122.67404764 20.09961554 115.9509615 18.01171875 109.19140625 C16.24517743 103.33120968 14.69757691 97.41457441 13.125 91.5 C11.9428637 87.10270927 10.75412071 82.70722934 9.5625 78.3125 C9.29260254 77.31589355 9.02270508 76.31928711 8.74462891 75.29248047 C4.78887629 60.77660959 0.30874305 47.63948926 -7.5793457 34.7409668 C-10.50378459 29.81246145 -10.50378459 29.81246145 -10.16845703 27.28320312 C-9.4375 25.3125 -9.4375 25.3125 -7.4375 22.3125 C-7.71075544 17.35186275 -9.56598101 13.83063836 -12 9.5625 C-15.4375 3.50364688 -15.4375 3.50364688 -15.4375 1.3125 C-10.25853646 0.16820994 -5.28583115 0.05479438 0 0 Z " fill="#344A5E" transform="translate(168.4375,144.6875)"/>
<path d="M0 0 C15.0102532 10.96528237 25.05045418 25.34227149 28.97265625 43.6015625 C29.40625 46.7578125 29.40625 46.7578125 29.30859375 49.8515625 C29.06822508 55.51341208 29.06822508 55.51341208 31.79833984 60.28417969 C34.79490006 62.90921005 37.98349986 65.15650125 41.28125 67.3828125 C44.40625 69.7578125 44.40625 69.7578125 45.1796875 71.80078125 C45.40625 73.7578125 45.40625 73.7578125 44.15625 75.4453125 C38.90799209 79.38150594 30.86163657 78.09074627 24.71875 77.2578125 C23.955625 77.0928125 23.1925 76.9278125 22.40625 76.7578125 C20.09309481 79.59107353 20.09309481 79.59107353 20.53125 82.8828125 C21.26448687 86.13000435 22.10283079 88.37915767 23.53125 91.3203125 C24.84558244 94.18263648 25.41471258 95.86994167 25.65625 99.0703125 C23.75908459 103.14921814 20.46605539 104.1856783 16.40625 105.7578125 C16.715625 107.02625 16.715625 107.02625 17.03125 108.3203125 C17.48158066 112.44834351 16.92321263 114.89645308 15.40625 118.7578125 C14.16911149 120.21700151 12.92944831 121.67544679 11.6328125 123.08203125 C9.71851074 125.69743079 9.05724017 128.59282415 8.27734375 131.70703125 C7.13997643 134.38468973 5.86097001 135.22481789 3.40625 136.7578125 C1.16723633 137.14257812 1.16723633 137.14257812 -1.26171875 137.1640625 C-2.15568359 137.18597656 -3.04964844 137.20789063 -3.97070312 137.23046875 C-4.89818359 137.23949219 -5.82566406 137.24851563 -6.78125 137.2578125 C-13.67330585 137.32629283 -20.3424871 137.51454746 -26.59375 140.7578125 C-29.62331036 145.20747927 -30.64465631 149.77593878 -30.91015625 155.0859375 C-30.97299805 156.28476562 -30.97299805 156.28476562 -31.03710938 157.5078125 C-31.07642578 158.3328125 -31.11574219 159.1578125 -31.15625 160.0078125 C-31.22102539 161.26851563 -31.22102539 161.26851563 -31.28710938 162.5546875 C-31.39283543 164.62221921 -31.49376295 166.68999531 -31.59375 168.7578125 C-38.8403343 164.0300944 -38.8403343 164.0300944 -40.59375 159.7578125 C-42.08724768 158.20206645 -42.08724768 158.20206645 -43.90625 156.7578125 C-44.61265625 156.15453125 -45.3190625 155.55125 -46.046875 154.9296875 C-46.88734375 154.21296875 -47.7278125 153.49625 -48.59375 152.7578125 C-56.69057869 145.81620013 -63.49950721 139.29211937 -68.59375 129.7578125 C-69.33238281 128.38689453 -69.33238281 128.38689453 -70.0859375 126.98828125 C-74.33262461 118.79481431 -74.33262461 118.79481431 -74.59375 115.7578125 C-74.12710938 114.90832031 -73.66046875 114.05882813 -73.1796875 113.18359375 C-70.96352069 108.39645509 -71.14548531 104.15738812 -71.21875 98.9453125 C-71.22672607 97.92719482 -71.23470215 96.90907715 -71.24291992 95.86010742 C-71.38463152 88.24295935 -72.13480624 80.94775192 -73.77734375 73.51171875 C-74.59375 69.7578125 -74.59375 69.7578125 -75.00390625 66.22265625 C-75.47994146 62.93041276 -75.89639379 60.62414682 -77.59375 57.7578125 C-80.89764688 55.85089407 -83.9884483 54.74189291 -87.66015625 53.72265625 C-90.59375 52.7578125 -90.59375 52.7578125 -92.59375 49.7578125 C-90.13333535 31.9198063 -81.48518718 12.89811048 -67.02734375 1.78515625 C-47.36525962 -11.38816043 -20.16705852 -13.03001508 0 0 Z " fill="#F05540" transform="translate(175.59375,8.2421875)"/>
<path d="M0 0 C3.26617446 3.18096991 6.23489314 6.4259921 9.0625 10 C13.20938296 15.14857936 17.61511496 19.9881983 22.18969727 24.75976562 C26 28.78873798 26 28.78873798 26 31 C26.54785156 31.25910156 27.09570312 31.51820313 27.66015625 31.78515625 C30.36225417 33.18808188 32.87133035 34.79828672 35.4375 36.4375 C41.50576482 40.24395703 47.77975358 43.61757158 54.125 46.9375 C55.04982178 47.42210693 55.97464355 47.90671387 56.92749023 48.40600586 C61.84630613 50.97374552 61.84630613 50.97374552 67 53 C66.95875 51.865625 66.9175 50.73125 66.875 49.5625 C66.85816159 44.85616438 67.82378223 40.53683996 69 36 C70.6796875 35.23046875 70.6796875 35.23046875 73 35 C75.5078125 36.80078125 75.5078125 36.80078125 78.125 39.3125 C78.99382812 40.13363281 79.86265625 40.95476562 80.7578125 41.80078125 C84.55522794 45.52542392 85.41190821 47.27378238 86.33984375 52.41796875 C87.19967207 55.78096589 88.61214301 58.82360764 90 62 C79.73949347 64.57871014 69.47045936 67.11914488 59.18823242 69.60986328 C57.0386424 70.1307815 54.88943194 70.6532465 52.74023438 71.17578125 C45.84082982 72.85018337 38.93898265 74.49590767 32 76 C31.77721456 78.16604273 31.77721456 78.16604273 33.66015625 79.84765625 C43.26342509 88.70140167 54.49320201 95.99296763 67 100 C67.83789062 100.29648437 68.67578125 100.59296875 69.5390625 100.8984375 C76.17602017 102.93626394 82.66803651 103.33773012 89.5625 103.4375 C90.42464111 103.45973633 91.28678223 103.48197266 92.17504883 103.50488281 C105.79023491 103.45848059 118.42297195 95.77298409 130.5625 90.25 C132.28693468 89.46836448 134.01154315 88.68711224 135.73632812 87.90625 C136.58681732 87.52102173 137.43730652 87.13579346 138.31356812 86.7388916 C140.01673291 85.968242 141.72036327 85.19862045 143.42446899 84.43005371 C147.6769549 82.51127846 151.91972626 80.57524355 156.14794922 78.60351562 C157.77436352 77.85535886 159.40082629 77.10730747 161.02734375 76.359375 C161.77343399 76.00514465 162.51952423 75.65091431 163.28822327 75.28594971 C167.00418759 73.59108567 169.10031598 72.71882903 173 74 C173.84070884 77.84017072 174.67669585 81.68133759 175.50854492 85.5234375 C175.92970241 87.46406985 176.35446589 89.40391851 176.77929688 91.34375 C179.16810321 102.39557689 180.16113245 112.55349856 180.125 123.875 C180.12886719 125.10992187 180.13273438 126.34484375 180.13671875 127.6171875 C180.13478516 129.380625 180.13478516 129.380625 180.1328125 131.1796875 C180.13168457 132.24944824 180.13055664 133.31920898 180.12939453 134.42138672 C180 137 180 137 179 139 C151.61 139 124.22 139 96 139 C95.67 137.02 95.34 135.04 95 133 C93.25372522 135.61941217 92.61277612 137.03824877 92 140 C81.19541915 140.02312312 70.39084414 140.04091493 59.58624363 140.05181217 C54.5697753 140.05704107 49.55332385 140.06413883 44.53686523 140.07543945 C39.69990306 140.0862681 34.86295716 140.09227679 30.02598381 140.09487724 C28.17631715 140.09673153 26.32665143 140.10035222 24.47699165 140.10573006 C21.89552986 140.1129402 19.31413618 140.11399095 16.73266602 140.11352539 C15.96014999 140.11712067 15.18763397 140.12071594 14.39170837 140.12442017 C9.11405216 140.11405216 9.11405216 140.11405216 8 139 C7.76321284 136.30764224 7.57801975 133.63501844 7.4375 130.9375 C7.39431641 130.17888672 7.35113281 129.42027344 7.30664062 128.63867188 C7.20026367 126.75934562 7.09960066 124.87969756 7 123 C6.31808594 122.75507813 5.63617188 122.51015625 4.93359375 122.2578125 C-3.66360046 118.57166532 -13.93978274 112.77432719 -18 104 C-29.70291127 72.50606504 -13.0517032 35.25662855 -2.78515625 5.87109375 C-2.46426025 4.95255615 -2.14336426 4.03401855 -1.81274414 3.08764648 C-1 1 -1 1 0 0 Z " fill="#344A5E" transform="translate(42,372)"/>
<path d="M0 0 C0.66 0 1.32 0 2 0 C2.27972656 0.65484375 2.55945313 1.3096875 2.84765625 1.984375 C7.71685681 13.06924316 12.84005682 22.91252617 22 31 C22.99193359 31.88945312 22.99193359 31.88945312 24.00390625 32.796875 C26.73169692 35.20971528 29.49613062 37.5755073 32.28125 39.921875 C33.0134375 40.54578125 33.745625 41.1696875 34.5 41.8125 C35.1703125 42.37582031 35.840625 42.93914062 36.53125 43.51953125 C38 45 38 45 38 47 C40.46326712 48.6446674 40.46326712 48.6446674 43 50 C43.03738281 48.9378125 43.07476562 47.875625 43.11328125 46.78125 C43.88293324 28.99093344 43.88293324 28.99093344 50 22 C51.86401367 22.30200195 51.86401367 22.30200195 54 23 C55.64417961 25.39394913 56.98586953 27.62882515 58.3125 30.1875 C58.68439453 30.84814453 59.05628906 31.50878906 59.43945312 32.18945312 C61.22374936 35.55536017 62.02227604 37.48163056 61.85546875 41.36328125 C61 44 61 44 59 46 C59.20569597 49.89451033 60.80339869 52.5035341 62.93188477 55.70117188 C73.00185365 70.88339629 76.65612398 88.9012458 81.01098633 106.35546875 C82.76180087 113.35288609 84.65803097 120.2638097 86.84863281 127.13916016 C91.58144245 142.16057493 93.52020054 157.37513354 95 173 C95.07412109 173.77402161 95.14824219 174.54804321 95.22460938 175.34552002 C97.67867811 201.25678902 98.42281302 226.9829054 98 253 C83.92994072 261.27259222 69.97032532 262.18715225 54 262 C54.39986777 253.76823935 55.14184371 245.63596364 56.14428711 237.45581055 C57.66942035 224.85320634 58.42048151 212.56271286 58.06494141 199.87451172 C57.99857424 196.9368914 58.00165125 194.00467926 58.01171875 191.06640625 C57.87614839 169.12337445 52.47877644 148.29584499 45.26123047 127.67504883 C42.27126559 119.07695228 39.7543424 110.37547904 37.27163696 101.6211853 C28.61263015 71.14119811 17.8058823 43.04445854 2.64453125 15.1328125 C0.61954288 11.27523371 -0.12473081 8.60642619 -0.0625 4.3125 C-0.05347656 3.50425781 -0.04445313 2.69601563 -0.03515625 1.86328125 C-0.02355469 1.24839844 -0.01195313 0.63351563 0 0 Z " fill="#CCD5DF" transform="translate(100,125)"/>
<path d="M0 0 C10.49708091 8.09774813 13.74837425 19.80652929 15.57421875 32.35546875 C15.74695313 33.44021484 15.9196875 34.52496094 16.09765625 35.64257812 C17.83701423 47.01052494 17.83701423 47.01052494 17.32421875 52.79296875 C14.23533353 54.85222556 13.61485948 55.03200615 10.13671875 54.91796875 C8.87859375 54.87671875 7.62046875 54.83546875 6.32421875 54.79296875 C6.22625 55.38980469 6.12828125 55.98664063 6.02734375 56.6015625 C3.43526457 71.64009087 0.31111499 84.55759718 -7.46582031 97.85327148 C-10.0195683 102.32720959 -12.30531132 106.92720399 -14.59765625 111.5390625 C-15.06133606 112.46783707 -15.52501587 113.39661163 -16.00274658 114.35353088 C-17.47898573 117.31156979 -18.95244354 120.2709838 -20.42578125 123.23046875 C-21.88085396 126.14812204 -23.33648243 129.06549755 -24.79219055 131.98283386 C-25.74301725 133.88967006 -26.69288286 135.79698581 -27.64176941 137.70478821 C-29.75487219 141.95235465 -31.87499122 146.19542983 -34.0324707 150.4206543 C-37.58265265 157.38782464 -40.91775695 164.28469219 -43.36328125 171.73046875 C-43.64526367 172.55458252 -43.92724609 173.37869629 -44.21777344 174.2277832 C-45.62353156 178.39359822 -46.92154515 182.57773144 -48.1171875 186.80859375 C-48.33995361 187.5962915 -48.56271973 188.38398926 -48.79223633 189.19555664 C-49.20544679 190.68582125 -49.60567566 192.17976455 -49.9909668 193.67749023 C-50.53515625 195.6796875 -50.53515625 195.6796875 -51.67578125 198.79296875 C-52.66578125 199.12296875 -53.65578125 199.45296875 -54.67578125 199.79296875 C-54.70670364 198.94995964 -54.70670364 198.94995964 -54.73825073 198.08992004 C-55.00206154 190.92816354 -55.27443376 183.76675191 -55.55078125 176.60546875 C-55.5949115 175.45641052 -55.63904175 174.30735229 -55.68450928 173.12347412 C-56.18597366 160.20007871 -56.75632328 147.31008066 -57.80078125 134.41796875 C-58.67263774 123.33044527 -58.89253013 112.28401009 -58.92578125 101.16796875 C-58.93095764 100.36659485 -58.93613403 99.56522095 -58.94146729 98.73956299 C-58.95312025 96.4733257 -58.95005797 94.20764705 -58.94140625 91.94140625 C-58.93802246 89.97953369 -58.93802246 89.97953369 -58.93457031 87.97802734 C-58.67578125 84.79296875 -58.67578125 84.79296875 -56.67578125 81.79296875 C-55.5772443 77.06925988 -55.28737579 72.60919648 -55.67578125 67.79296875 C-57.50911458 65.62630208 -57.50911458 65.62630208 -59.67578125 63.79296875 C-62.1160099 58.79631008 -61.93136142 54.10893316 -60.67578125 48.79296875 C-60.01578125 47.80296875 -59.35578125 46.81296875 -58.67578125 45.79296875 C-59.16949219 45.29667969 -59.66320312 44.80039063 -60.171875 44.2890625 C-63.22910679 41.04728956 -65.41704452 38.55556121 -66.86328125 34.29296875 C-66.66907732 30.66782864 -65.81671362 28.35702223 -64.03125 25.21875 C-62.57730274 22.68925982 -62.57730274 22.68925982 -61.1640625 19.5234375 C-55.70837388 7.78544077 -49.29761579 -1.52016696 -36.67578125 -6.20703125 C-24.39111702 -10.23266118 -10.54161463 -6.70228246 0 0 Z " fill="#FED05B" transform="translate(384.67578125,60.20703125)"/>
<path d="M0 0 C0.99 0.495 0.99 0.495 2 1 C6.22178118 21.12135474 4.40704319 42.36528387 -6.15625 60.28515625 C-12.99046006 70.34824097 -20.75834356 78.30716522 -31 85 C-31.90621094 85.598125 -32.81242187 86.19625 -33.74609375 86.8125 C-51.07454039 97.27495835 -75.63871447 93.87420797 -94.375 89.3125 C-117.66127649 82.7730379 -136.61058402 69.31244677 -155 54 C-151.1395882 54 -149.40770457 55.39129452 -146.0625 57.3125 C-139.32569034 60.93834817 -132.88672217 62.08892426 -125.34960938 63.00048828 C-119.10083972 63.76659799 -113.57589875 65.1161585 -107.62890625 67.23046875 C-104.94660683 68.0156292 -102.77786933 68.14620365 -100 68 C-99.505 66.515 -99.505 66.515 -99 65 C-99.97207035 63.32419948 -99.97207035 63.32419948 -101.4375 61.8125 C-102.7059375 60.4203125 -102.7059375 60.4203125 -104 59 C-101.71654453 57.56226878 -100.41773897 56.96601446 -97.6953125 57.1875 C-93.34292353 58.4995245 -90.30880036 61.4584532 -86.81640625 64.28515625 C-83.57906092 66.25629994 -81.72216607 66.34535561 -78 66 C-77.67 65.34 -77.34 64.68 -77 64 C-78.010625 63.30132812 -79.02125 62.60265625 -80.0625 61.8828125 C-81.37524473 60.96389119 -82.68773151 60.04460128 -84 59.125 C-84.66773438 58.66480469 -85.33546875 58.20460938 -86.0234375 57.73046875 C-87.71859351 56.53694054 -89.3637578 55.27309661 -91 54 C-91 53.34 -91 52.68 -91 52 C-88.54919281 50.40498156 -86.10423458 48.93779045 -83.5625 47.5 C-81.97769178 46.58753966 -80.39306076 45.67477148 -78.80859375 44.76171875 C-77.99890137 44.29813965 -77.18920898 43.83456055 -76.35498047 43.35693359 C-74.23737946 42.13677742 -72.13314956 40.89800913 -70.03515625 39.64453125 C-60.22217153 33.78466807 -50.25458154 28.22195549 -40.25292969 22.69116211 C-32.0918361 18.17484544 -23.97193367 13.59285261 -15.88574219 8.94384766 C-14.34812196 8.05998618 -12.80912665 7.17851117 -11.26855469 6.29980469 C-9.66953872 5.38362292 -8.07699232 4.45610399 -6.48925781 3.52050781 C-5.27641113 2.81812988 -5.27641113 2.81812988 -4.0390625 2.1015625 C-2.94779053 1.46081787 -2.94779053 1.46081787 -1.83447266 0.80712891 C-1.22909668 0.54077637 -0.6237207 0.27442383 0 0 Z " fill="#66C6B8" transform="translate(498,247)"/>
<path d="M0 0 C10.03007519 -0.34586466 10.03007519 -0.34586466 14 2 C15.7654759 5.20380292 16.93883832 8.50632922 18 12 C18.29583984 12.9590625 18.29583984 12.9590625 18.59765625 13.9375 C19.1344438 16.68918763 19.13188342 19.32344638 19.125 22.125 C19.12886719 23.70667969 19.12886719 23.70667969 19.1328125 25.3203125 C19 28 19 28 18 30 C20.97 30 23.94 30 27 30 C26.94779297 29.01773438 26.94779297 29.01773438 26.89453125 28.015625 C26.67687146 20.67738073 27.56617979 13.95536694 30 7 C32 5 32 5 34.50268555 4.92480469 C35.5369165 5.00633789 36.57114746 5.08787109 37.63671875 5.171875 C39.33924805 5.30335937 39.33924805 5.30335937 41.07617188 5.4375 C42.8637793 5.5921875 42.8637793 5.5921875 44.6875 5.75 C45.85990234 5.83765625 47.03230469 5.9253125 48.24023438 6.015625 C54.06939408 6.48959394 59.46256082 7.08662424 65 9 C64.649375 9.515625 64.29875 10.03125 63.9375 10.5625 C62.57563588 14.10334671 63.15306277 16.30977351 64 20 C64.68335846 21.53221779 65.39306487 23.05288379 66.125 24.5625 C67.43933244 27.42482398 68.00846258 29.11212917 68.25 32.3125 C66.35283459 36.39140564 63.05980539 37.4278658 59 39 C59.309375 40.2684375 59.309375 40.2684375 59.625 41.5625 C60.07533066 45.69053101 59.51696263 48.13864058 58 52 C56.76286149 53.45918901 55.52319831 54.91763429 54.2265625 56.32421875 C52.31226074 58.93961829 51.65099017 61.83501165 50.87109375 64.94921875 C49.73372643 67.62687723 48.45472001 68.46700539 46 70 C43.76098633 70.38476562 43.76098633 70.38476562 41.33203125 70.40625 C40.43806641 70.42816406 39.54410156 70.45007813 38.62304688 70.47265625 C37.69556641 70.48167969 36.76808594 70.49070312 35.8125 70.5 C28.92044415 70.56848033 22.2512629 70.75673496 16 74 C12.97043964 78.44966677 11.94909369 83.01812628 11.68359375 88.328125 C11.64169922 89.12734375 11.59980469 89.9265625 11.55664062 90.75 C11.51732422 91.575 11.47800781 92.4 11.4375 93.25 C11.37272461 94.51070312 11.37272461 94.51070312 11.30664062 95.796875 C11.20091457 97.86440671 11.09998705 99.93218281 11 102 C3.7534157 97.2722819 3.7534157 97.2722819 2 93 C0.50650232 91.44425395 0.50650232 91.44425395 -1.3125 90 C-2.01890625 89.39671875 -2.7253125 88.7934375 -3.453125 88.171875 C-4.29359375 87.45515625 -5.1340625 86.7384375 -6 86 C-14.09682869 79.05838763 -20.90575721 72.53430687 -26 63 C-26.49242188 62.08605469 -26.98484375 61.17210937 -27.4921875 60.23046875 C-32.42722725 50.708909 -32.42722725 50.708909 -31.4609375 46.84375 C-28.38803096 40.2115776 -24.21291371 36.18755612 -18.81225586 31.47167969 C-14.00680586 27.20595984 -10.83891292 22.78550874 -8 17 C-7.62617187 16.28972656 -7.25234375 15.57945313 -6.8671875 14.84765625 C-4.69414222 10.6544837 -2.82808654 6.352587 -1 2 C-0.67 1.34 -0.34 0.68 0 0 Z " fill="#FED05C" transform="translate(133,75)"/>
<path d="M0 0 C0.84070884 3.84017072 1.67669585 7.68133759 2.50854492 11.5234375 C2.92970241 13.46406985 3.35446589 15.40391851 3.77929688 17.34375 C6.16810321 28.39557689 7.16113245 38.55349856 7.125 49.875 C7.12886719 51.10992187 7.13273438 52.34484375 7.13671875 53.6171875 C7.13478516 55.380625 7.13478516 55.380625 7.1328125 57.1796875 C7.13168457 58.24944824 7.13055664 59.31920898 7.12939453 60.42138672 C7 63 7 63 6 65 C-21.39 65 -48.78 65 -77 65 C-77.495 62.03 -77.495 62.03 -78 59 C-79.74627478 61.61941217 -80.38722388 63.03824877 -81 66 C-91.80458085 66.02312312 -102.60915586 66.04091493 -113.41375637 66.05181217 C-118.4302247 66.05704107 -123.44667615 66.06413883 -128.46313477 66.07543945 C-133.30009694 66.0862681 -138.13704284 66.09227679 -142.97401619 66.09487724 C-144.82368285 66.09673153 -146.67334857 66.10035222 -148.52300835 66.10573006 C-151.10447014 66.1129402 -153.68586382 66.11399095 -156.26733398 66.11352539 C-157.03985001 66.11712067 -157.81236603 66.12071594 -158.60829163 66.12442017 C-163.88594784 66.11405216 -163.88594784 66.11405216 -165 65 C-165.23678716 62.30764224 -165.42198025 59.63501844 -165.5625 56.9375 C-165.60568359 56.17888672 -165.64886719 55.42027344 -165.69335938 54.63867188 C-165.79973633 52.75934562 -165.90039934 50.87969756 -166 49 C-165.3608667 49.28721924 -164.7217334 49.57443848 -164.06323242 49.87036133 C-161.10826602 51.19264951 -158.14797851 52.50260212 -155.1875 53.8125 C-154.18267578 54.26431641 -153.17785156 54.71613281 -152.14257812 55.18164062 C-142.45330717 59.44990468 -133.23204507 62.5885672 -122.5625 62.5 C-121.33599731 62.49141968 -121.33599731 62.49141968 -120.0847168 62.48266602 C-110.17861252 62.19248819 -101.95560599 58.89980032 -94.7421875 52.015625 C-91.56770548 48.34290589 -89.26187272 44.27687437 -87 40 C-86.57332031 39.22527344 -86.14664063 38.45054687 -85.70703125 37.65234375 C-84.72621035 35.80786486 -83.85160124 33.90758678 -83 32 C-83.33 31.34 -83.66 30.68 -84 30 C-82.67379639 29.91069214 -82.67379639 29.91069214 -81.32080078 29.81958008 C-70.41461654 28.76531087 -61.7258864 25.32289051 -51.875 20.6875 C-50.30890605 19.96998022 -48.74183185 19.25459644 -47.17382812 18.54125977 C-43.20938072 16.73323978 -39.25474694 14.90489439 -35.30310059 13.0690918 C-29.67579012 10.45691259 -24.03798338 7.86818078 -18.38970947 5.30166626 C-16.53324614 4.4527035 -14.68426164 3.58886011 -12.83544922 2.72338867 C-11.72443848 2.21525635 -10.61342773 1.70712402 -9.46875 1.18359375 C-8.50388672 0.73556396 -7.53902344 0.28753418 -6.54492188 -0.17407227 C-3.82540248 -1.05666379 -2.63063506 -1.00972697 0 0 Z " fill="#415A6B" transform="translate(215,446)"/>
<path d="M0 0 C0.15557373 0.91362305 0.31114746 1.82724609 0.47143555 2.76855469 C1.07329242 6.29974284 1.67604378 9.83077584 2.27947998 13.36169434 C2.55109662 14.95157604 2.82245968 16.54150108 3.09356689 18.13146973 C4.52668864 26.53252825 5.97250023 34.93015015 7.51171875 43.3125 C7.74221924 44.57352539 7.97271973 45.83455078 8.21020508 47.13378906 C8.64352887 49.49089225 9.08192275 51.84707073 9.52612305 54.20214844 C10.06360717 57.13000496 10.55619234 60.05662375 11 63 C11.16870605 64.07411133 11.16870605 64.07411133 11.34082031 65.16992188 C11.5078125 67.015625 11.5078125 67.015625 11 70 C1.52170289 77.3976953 -11.19072706 78.62964975 -22.80639648 80.01074219 C-24.83042945 80.25213835 -26.85157482 80.51153456 -28.87304688 80.7734375 C-48.66175555 83.23360257 -48.66175555 83.23360257 -56 79 C-60.25286348 74.6141834 -62.08290882 70.8529462 -63.640625 65.00390625 C-63.85313904 64.25213608 -64.06565308 63.50036591 -64.28460693 62.72581482 C-64.72845147 61.1452875 -65.16505886 59.56271152 -65.59472656 57.97827148 C-66.24827884 55.56884532 -66.92280093 53.16610474 -67.6015625 50.76367188 C-68.03248284 49.21909342 -68.46221054 47.67418163 -68.890625 46.12890625 C-69.08851624 45.4182753 -69.28640747 44.70764435 -69.49029541 43.97547913 C-70.65632752 39.66080929 -71.45402573 35.43694608 -72 31 C-70.90985596 30.52280518 -69.81971191 30.04561035 -68.6965332 29.55395508 C-63.5678295 27.30838291 -58.44010446 25.06058083 -53.3125 22.8125 C-52.38782928 22.40727112 -51.46315857 22.00204224 -50.51046753 21.58453369 C-40.9544261 17.39542204 -31.40203236 13.19984133 -21.890625 8.91015625 C-21.21086105 8.60376724 -20.53109711 8.29737823 -19.83073425 7.98170471 C-16.68762452 6.56367613 -13.54701437 5.14040252 -10.40942383 3.71020508 C-9.31654053 3.21544678 -8.22365723 2.72068848 -7.09765625 2.2109375 C-5.68238647 1.56584229 -5.68238647 1.56584229 -4.23852539 0.90771484 C-2 0 -2 0 0 0 Z " fill="#344A5E" transform="translate(409,358)"/>
<path d="M0 0 C10.49708091 8.09774813 13.74837425 19.80652929 15.57421875 32.35546875 C15.74695313 33.44021484 15.9196875 34.52496094 16.09765625 35.64257812 C17.83701423 47.01052494 17.83701423 47.01052494 17.32421875 52.79296875 C10.64296751 57.24713625 0.78962123 54.21484331 -6.80981445 53.19384766 C-8.84067143 52.92100633 -10.87233738 52.65511712 -12.90429688 52.390625 C-35.22044975 49.46478709 -35.22044975 49.46478709 -44.98828125 47.23046875 C-48.77149312 46.36969357 -52.30386263 45.69784549 -56.17578125 45.54296875 C-60.46050287 44.62481412 -61.97348078 43.20123459 -64.5390625 39.75 C-66.36252453 36.61063753 -66.80317351 34.42364829 -66.67578125 30.79296875 C-65.17578125 27.23046875 -65.17578125 27.23046875 -64.03125 25.21875 C-62.57730274 22.68925982 -62.57730274 22.68925982 -61.1640625 19.5234375 C-55.70837388 7.78544077 -49.29761579 -1.52016696 -36.67578125 -6.20703125 C-24.39111702 -10.23266118 -10.54161463 -6.70228246 0 0 Z " fill="#F05540" transform="translate(384.67578125,60.20703125)"/>
<path d="M0 0 C1.78221403 1.02947767 3.52996644 2.11969223 5.25 3.25 C10.27873161 6.30448883 14.94736866 8.02320286 20.625 9.5 C28.75775667 11.63573889 34.99194127 14.99194127 41 21 C41.36507593 22.53445977 41.69343179 24.07778859 42 25.625 C43.90007364 32.35281175 48.48567423 35.13161693 54 39 C59.23728013 43.04264506 62.1029056 45.73880161 63.5 52.375 C62.84432327 55.81730281 61.84878982 57.82310337 59.49609375 60.4296875 C54.6751949 63.46255344 48.90587356 63.66714187 43.34765625 64.37890625 C40.07545119 64.80119336 37.20369172 65.45715727 34.125 66.6875 C24.00129245 70.3759826 12.78434494 67.59424916 3 64 C-2.19383496 61.22616357 -4.25114618 58.47750476 -6.75 53.1875 C-7.32234375 52.00542969 -7.8946875 50.82335937 -8.484375 49.60546875 C-10 46 -10 46 -11 42.28125 C-12.00237118 38.99221955 -12.77971324 37.61031179 -15.25 35.3125 C-15.86488281 34.74015625 -16.47976562 34.1678125 -17.11328125 33.578125 C-19.62862872 31.47419047 -22.20080576 29.70682575 -25 28 C-24.4760982 18.56976763 -20.81709945 10.88818689 -13.828125 4.4765625 C-9.32932182 0.84291377 -5.90504523 -1.79795407 0 0 Z " fill="#FDCF5C" transform="translate(137,378)"/>
<path d="M0 0 C2.87745492 2.45116531 3.82929004 4.77229651 5.0625 8.3125 C7.30779534 14.40975411 9.93361727 20.24208934 12.6875 26.125 C18.55846006 38.79379738 23.39170722 51.826043 28 65 C28.4125 66.17900879 28.825 67.35801758 29.25 68.57275391 C32.39866639 77.78018104 35.02724574 87.05815115 37.375 96.5 C37.66097549 97.64751236 37.66097549 97.64751236 37.95272827 98.81820679 C45.12364555 127.81433335 49.6308941 156.93726776 52.26800537 186.67079163 C52.8152402 192.59681209 53.59588371 198.46994204 54.4453125 204.359375 C54.79021147 206.88568584 55.1308679 209.41252908 55.46987915 211.93963623 C55.69542657 213.54283704 55.93815001 215.14373022 56.1993103 216.74151611 C58.20323957 229.05443 58.20323957 229.05443 55.20458984 233.90307617 C52.92444854 236.21478866 50.62953716 238.10304361 48 240 C46.65616921 241.17560743 45.32083442 242.36111311 44 243.5625 C43.360625 244.11164063 42.72125 244.66078125 42.0625 245.2265625 C39.68480048 247.27102383 37.34169529 249.35192764 35 251.4375 C34.236875 252.11683594 33.47375 252.79617188 32.6875 253.49609375 C32.130625 253.99238281 31.57375 254.48867188 31 255 C29.02606092 253.53056644 27.05774688 252.05555945 25.1015625 250.5625 C22.92753476 248.90118132 22.92753476 248.90118132 20.1875 247.25 C17.73294613 244.72531602 17.5232559 243.53827557 16.75 240.1875 C15.34891095 234.93148087 13.11004741 232.55422864 8.6953125 229.47265625 C4.0340155 226.92583166 -0.89104895 225.39177854 -6 224 C-6 223.67 -6 223.34 -6 223 C-5.42668945 222.95512451 -4.85337891 222.91024902 -4.26269531 222.86401367 C9.73877203 221.73653892 22.39678329 220.57542065 35 214 C35.49626919 192.21378246 34.96480516 170.66207972 33.1875 148.9375 C33.10463745 147.90465881 33.0217749 146.87181763 32.93640137 145.80767822 C32.04468286 134.85591995 30.95203114 123.94375558 29.50390625 113.05078125 C29.388228 112.1670433 29.27254974 111.28330536 29.15336609 110.37278748 C28.17821902 103.36154764 26.53711554 96.6384615 24.44921875 89.87890625 C22.68267743 84.01870968 21.13507691 78.10207441 19.5625 72.1875 C18.3803637 67.79020927 17.19162071 63.39472934 16 59 C15.73010254 58.00339355 15.46020508 57.00678711 15.18212891 55.97998047 C11.22637629 41.46410959 6.74624305 28.32698926 -1.1418457 15.4284668 C-4.07213638 10.49009954 -4.07213638 10.49009954 -3.70361328 7.98632812 C-2.71441424 5.19378011 -1.3707025 2.62221347 0 0 Z " fill="#344A5E" transform="translate(162,164)"/>
<path d="M0 0 C0.97235596 0.31751221 1.94471191 0.63502441 2.9465332 0.9621582 C6.60419572 2.15574489 10.26299367 3.34581867 13.92211914 4.53491211 C15.49631721 5.04699677 17.07021862 5.55999444 18.64379883 6.07397461 C30.82161891 10.05064272 42.88887946 13.7615966 55.5 16.125 C56.35980469 16.29386719 57.21960938 16.46273437 58.10546875 16.63671875 C69.40558499 18.78188282 80.576286 19.20421539 92.0625 19.25 C94.00866211 19.2809375 94.00866211 19.2809375 95.99414062 19.3125 C103.52269853 19.34302634 109.95659633 18.7432966 117 16 C117.35835938 16.88429688 117.71671875 17.76859375 118.0859375 18.6796875 C120.3858667 22.66936061 122.90282008 24.54873136 126.625 27.125 C132.71898167 31.36714672 132.71898167 31.36714672 133.9765625 34.19921875 C134 36 134 36 132.75 37.6875 C128.19879672 41.10090246 122.39865303 40.39386399 117 40 C115.13576165 39.58452575 113.28138817 39.1230762 111.4375 38.625 C100.57311952 35.82940941 89.15458004 35.6956781 78 35 C75.92008581 40.70427003 74.5189599 46.03041929 73.8125 52.0625 C73.73064453 52.73732422 73.64878906 53.41214844 73.56445312 54.10742188 C73.36794357 55.73729522 73.18270835 57.36852191 73 59 C70.03 59 67.06 59 64 59 C64.04640625 58.12859375 64.0928125 57.2571875 64.140625 56.359375 C64.37427337 48.64897888 63.65092727 42.537825 60.875 35.328125 C60 33 60 33 60 31 C55.38 30.34 50.76 29.68 46 29 C45.38318359 30.96646484 45.38318359 30.96646484 44.75390625 32.97265625 C40.54007786 45.56488568 34.22087226 56.42055921 24 65 C23.11828125 65.74636719 22.2365625 66.49273437 21.328125 67.26171875 C19 69 19 69 17 69 C17.03480469 67.75347656 17.06960937 66.50695312 17.10546875 65.22265625 C17.29888745 55.18472156 16.93293022 45.68987086 14.81640625 35.859375 C14 32 14 32 13.58984375 28.453125 C13.11290091 25.16662813 12.69470146 22.86185123 11 20 C7.69610312 18.09308157 4.6053017 16.98408041 0.93359375 15.96484375 C-2 15 -2 15 -4 12 C-3.828125 9.84375 -3.828125 9.84375 -3.25 7.5 C-3.06953125 6.7265625 -2.8890625 5.953125 -2.703125 5.15625 C-2 3 -2 3 0 0 Z " fill="#F26F59" transform="translate(87,46)"/>
<path d="M0 0 C7.9872631 3.72634125 13.87112723 8.29279674 20.078125 14.4140625 C24.53789484 18.36107805 29.4714406 20.8953898 34.9375 23.25 C35.70964844 23.58515625 36.48179687 23.9203125 37.27734375 24.265625 C37.84582031 24.50796875 38.41429687 24.7503125 39 25 C36.28439947 28.23819032 33.59173368 31.42343898 30.5625 34.375 C13.75616091 51.5912498 2.98382015 79.80177809 -1.61328125 103.109375 C-3.14363182 110.2071973 -3.14363182 110.2071973 -5.89453125 112.75390625 C-7.8893619 114.01550185 -9.83994023 115.05526048 -12 116 C-12.99 116.495 -12.99 116.495 -14 117 C-16.6723621 117.13415472 -19.32250488 117.04318541 -22 117 C-22.06058594 115.89140625 -22.12117188 114.7828125 -22.18359375 113.640625 C-22.26802951 112.1770718 -22.35267599 110.71353075 -22.4375 109.25 C-22.47681641 108.52039063 -22.51613281 107.79078125 -22.55664062 107.0390625 C-22.76391535 103.53133638 -23.1440061 100.42397562 -24 97 C-30.93 96.505 -30.93 96.505 -38 96 C-36.18066676 90.54200028 -34.07573487 86.10297726 -31.3125 81.125 C-30.83337158 80.25931396 -30.35424316 79.39362793 -29.8605957 78.50170898 C-19.53596284 60.08298289 -7.82990249 42.47592963 4 25 C3.195625 24.401875 2.39125 23.80375 1.5625 23.1875 C-1 21 -1 21 -2 18 C0.31 18 2.62 18 5 18 C2.82536528 8.90644792 2.82536528 8.90644792 0 0 Z " fill="#344A5E" transform="translate(383,166)"/>
<path d="M0 0 C-1.65 3.3 -3.3 6.6 -5 10 C-3.68 10.99 -2.36 11.98 -1 13 C-6.625 15 -6.625 15 -10 15 C-9.78702271 15.99336365 -9.57404541 16.98672729 -9.35461426 18.01019287 C-7.34896058 27.3675095 -5.34759213 36.72573368 -3.35042572 46.08486557 C-2.32350302 50.89656028 -1.2950683 55.70792145 -0.26318359 60.51855469 C0.73240741 65.16025776 1.72403375 69.80279155 2.71290588 74.44593048 C3.09105573 76.21806309 3.47063811 77.98989063 3.85166931 79.76140594 C4.38471542 82.24086338 4.91267826 84.72135223 5.43945312 87.20214844 C5.59841568 87.93582642 5.75737823 88.66950439 5.92115784 89.42541504 C6.61732864 92.72827461 7 95.60253336 7 99 C-1.33958163 100.72543068 -8.06634613 98.88589209 -16 96 C-20.94732372 92.70178419 -21.43951809 86.81040739 -22.62158203 81.2265625 C-23.25520302 77.49841836 -23.42309916 73.7743588 -23.5625 70 C-24.31182133 50.31366343 -30.90521882 32.37222977 -38.93359375 14.5546875 C-40 12 -40 12 -40 10 C-40.66 10 -41.32 10 -42 10 C-42 9.34 -42 8.68 -42 8 C-41.31075439 7.90501221 -40.62150879 7.81002441 -39.91137695 7.7121582 C-22.68006387 5.47769274 -22.68006387 5.47769274 -6.35546875 -0.14453125 C-4 -1 -4 -1 0 0 Z " fill="#344A5E" transform="translate(311,162)"/>
<path d="M0 0 C0.33 0.66 0.66 1.32 1 2 C0.525625 3.010625 0.05125 4.02125 -0.4375 5.0625 C-2.34725003 9.47654488 -3.0234631 13.2690249 -2 18 C-0.05285559 22.67092762 2.29441815 27.09148137 4.68603516 31.54785156 C20.63378222 61.30986782 30.5137544 92.45825136 39.41748047 124.93066406 C41.31734618 131.78324562 43.4476317 138.52272 45.75 145.25 C52.75446055 165.77281931 52.75446055 165.77281931 51 172 C50.69408936 171.28271729 50.38817871 170.56543457 50.07299805 169.82641602 C46.39631408 161.21143413 42.70358276 152.60344806 39 144 C38.52530273 142.89624023 38.05060547 141.79248047 37.56152344 140.65527344 C21.82086605 102.75697988 21.82086605 102.75697988 -1.37158203 69.25830078 C-3.69078213 66.6406649 -5.64284465 64.2416625 -7 61 C-6.43410156 60.51789063 -5.86820313 60.03578125 -5.28515625 59.5390625 C-4.55167969 58.90742188 -3.81820312 58.27578125 -3.0625 57.625 C-2.33160156 56.99851563 -1.60070312 56.37203125 -0.84765625 55.7265625 C1.08380906 54.12252286 1.08380906 54.12252286 2 52 C1.278125 51.71898437 0.55625 51.43796875 -0.1875 51.1484375 C-7.49630385 48.16400926 -12.80450813 45.63879874 -16.125 38.125 C-18.36021099 31.68186513 -19.34064427 26.58161307 -16.5625 20.125 C-13.59067946 14.73326845 -9.17927489 10.46185932 -5 6 C-3.29917921 4.02485327 -1.64775248 2.01982562 0 0 Z " fill="#425B6C" transform="translate(103,116)"/>
<path d="M0 0 C2.64121975 2.64121975 3.20697118 5.57726769 4.25 9.0625 C6.60952836 16.54132242 9.87294116 22.37600545 15.015625 28.3359375 C17.21874164 31.29366495 18.40872613 34.04690716 19.6875 37.5 C20.10386719 38.6034375 20.52023437 39.706875 20.94921875 40.84375 C21.85679259 43.5698454 22.51992464 46.1723034 23 49 C23.07476562 48.16597656 23.14953125 47.33195312 23.2265625 46.47265625 C24.0449822 39.46794643 25.24133307 34.53066368 29.5625 28.90234375 C31.07814859 27.06138914 31.07814859 27.06138914 31.8828125 24.87890625 C33.43610387 22.26655258 35.03011119 21.94548233 37.875 21 C41.77225933 19.58076683 44.37235429 18.34427636 47 15 C47.66 15.33 48.32 15.66 49 16 C31 52 31 52 29.99894714 54.0014801 C29.33512202 55.32954609 28.67196038 56.65794393 28.00947571 57.98667908 C26.30473452 61.40368241 24.58744142 64.81345069 22.84838867 68.21313477 C19.22150827 75.32814318 15.81057967 82.3317105 13.3125 89.9375 C13.03051758 90.76161377 12.74853516 91.58572754 12.45800781 92.43481445 C11.05224969 96.60062947 9.7542361 100.78476269 8.55859375 105.015625 C8.33582764 105.80332275 8.11306152 106.59102051 7.88354492 107.40258789 C7.47033446 108.8928525 7.07010559 110.3867958 6.68481445 111.88452148 C6.140625 113.88671875 6.140625 113.88671875 5 117 C3.515 117.495 3.515 117.495 2 118 C1.96907761 117.15699089 1.96907761 117.15699089 1.93753052 116.29695129 C1.67371971 109.13519479 1.40134749 101.97378316 1.125 94.8125 C1.08086975 93.66344177 1.0367395 92.51438354 0.99127197 91.33050537 C0.48980759 78.40710996 -0.08054203 65.51711191 -1.125 52.625 C-1.99685649 41.53747652 -2.21674888 30.49104134 -2.25 19.375 C-2.25517639 18.5736261 -2.26035278 17.7722522 -2.26568604 16.94659424 C-2.277339 14.68035695 -2.27427672 12.4146783 -2.265625 10.1484375 C-2.26336914 8.84052246 -2.26111328 7.53260742 -2.25878906 6.18505859 C-2 3 -2 3 0 0 Z " fill="#CDD4DE" transform="translate(328,142)"/>
<path d="M0 0 C8.90692906 18.63477325 17.3118171 38.47568563 17.0625 59.4375 C17.05798828 60.16904297 17.05347656 60.90058594 17.04882812 61.65429688 C17.03718148 63.43623419 17.01925191 65.21812863 17 67 C15.68 67 14.36 67 13 67 C12.34 65.35 11.68 63.7 11 62 C10.01 62.33 9.02 62.66 8 63 C7.67 63.99 7.34 64.98 7 66 C6.01 66.495 6.01 66.495 5 67 C5.10699219 67.60328125 5.21398437 68.2065625 5.32421875 68.828125 C5.44410156 69.62734375 5.56398438 70.4265625 5.6875 71.25 C5.81511719 72.03890625 5.94273437 72.8278125 6.07421875 73.640625 C5.98023653 76.62827019 4.95457437 77.80926883 3 80 C1.18387512 79.04855402 -0.62781081 78.08863067 -2.4375 77.125 C-3.44683594 76.59132813 -4.45617187 76.05765625 -5.49609375 75.5078125 C-8 74 -8 74 -9 72 C-10.88525515 71.09785336 -12.80949359 70.27620256 -14.75 69.5 C-15.79671875 69.0771875 -16.8434375 68.654375 -17.921875 68.21875 C-18.93765625 67.8165625 -19.9534375 67.414375 -21 67 C-22.66666667 66.33333333 -24.33333333 65.66666667 -26 65 C-24.48514898 56.58044132 -22.29522567 48.39220262 -19.96118164 40.17089844 C-19.32049878 37.90331033 -18.69624275 35.63160753 -18.07226562 33.359375 C-15.94519966 25.75939849 -13.53364146 18.38992216 -10.41796875 11.1328125 C-10.13834793 10.47223846 -9.85872711 9.81166443 -9.57063293 9.131073 C-5.48834743 0 -5.48834743 0 0 0 Z " fill="#415A6A" transform="translate(271,172)"/>
<path d="M0 0 C4.67301621 0.46039569 8.80605207 1.54015237 13.25 3 C20.72689451 5.29095674 27.98379625 5.16648044 35.75 5.1875 C49.96685604 5.36498161 49.96685604 5.36498161 55.5625 10 C57.08999849 11.6224858 58.57186362 13.28940411 60 15 C61.60116499 16.52541656 63.22671326 18.02562698 64.875 19.5 C65.67421875 20.23089844 66.4734375 20.96179688 67.296875 21.71484375 C72.23389362 25.88847943 77.61727165 29.43120048 83 33 C82.34 33.99 81.68 34.98 81 36 C76.95101352 36.70493146 75.26690616 36.16437318 71.74609375 33.99609375 C70.06397688 32.72803642 68.41714631 31.42133607 66.76757812 30.11132812 C63.33714898 27.52040165 63.33714898 27.52040165 59.16015625 27.16015625 C57.05345743 27.81226974 57.05345743 27.81226974 56 29 C57.65 30.65 59.3 32.3 61 34 C60.34 35.32 59.68 36.64 59 38 C54.69195744 37.60110717 50.84707624 37.01742271 46.75 35.625 C42.47013251 34.2380059 38.31338543 33.61492009 33.86865234 33.07397461 C19.63729934 31.31329911 6.17113063 26.70109771 -3 15 C-3.99 14.67 -4.98 14.34 -6 14 C-5.5414571 8.26821381 -4.14522 4.14522 0 0 Z " fill="#FCCF5C" transform="translate(339,278)"/>
<path d="M0 0 C2.87745492 2.45116531 3.82929004 4.77229651 5.0625 8.3125 C7.30779534 14.40975411 9.93361727 20.24208934 12.6875 26.125 C18.55846006 38.79379738 23.39170722 51.826043 28 65 C28.4125 66.17900879 28.825 67.35801758 29.25 68.57275391 C32.39884452 77.78070195 35.0225057 87.05897281 37.375 96.5 C37.56465332 97.25537048 37.75430664 98.01074097 37.94970703 98.78900146 C41.11563261 111.48207903 43.70893033 124.24689954 46 137.125 C46.14765808 137.95265869 46.29531616 138.78031738 46.44744873 139.63305664 C50.19469558 160.81374474 50.19469558 160.81374474 50.0625 171.125 C50.05347656 172.05570313 50.04445312 172.98640625 50.03515625 173.9453125 C50.02355469 174.62335938 50.01195312 175.30140625 50 176 C47.73126407 172.13822661 46.88271096 167.91006197 45.86328125 163.59765625 C45.45008559 161.89403249 45.03649652 160.19050411 44.62255859 158.48706055 C44.40847351 157.59965179 44.19438843 156.71224304 43.97381592 155.79794312 C40.59084222 141.80473374 37.07373101 128.03331923 32.1796875 114.48046875 C31 111 31 111 31 108 C30.34 108 29.68 108 29 108 C28.76925781 107.04222656 28.53851563 106.08445312 28.30078125 105.09765625 C26.5520152 97.92762432 24.69510972 90.81599663 22.5625 83.75 C20.69129438 77.53972517 19.04006698 71.3003289 17.5 65 C13.17469793 47.41483285 8.38183057 30.99772168 -1.14160156 15.42944336 C-4.07203511 10.4894115 -4.07203511 10.4894115 -3.70361328 7.98632812 C-2.71441424 5.19378011 -1.3707025 2.62221347 0 0 Z " fill="#425A6B" transform="translate(162,164)"/>
<path d="M0 0 C0.65226562 0.40992187 1.30453125 0.81984375 1.9765625 1.2421875 C2.85054688 1.78101562 3.72453125 2.31984375 4.625 2.875 C5.48351562 3.40867187 6.34203125 3.94234375 7.2265625 4.4921875 C12.36321395 7.28478956 17.28905503 8.32005695 23.0625 9 C23.74586426 9.08121094 24.42922852 9.16242188 25.13330078 9.24609375 C31.75964779 10.01402342 38.40089187 10.6341886 45.04321289 11.24560547 C51.78285375 11.8685612 58.50725117 12.58937533 65.22802734 13.390625 C68.83939777 13.81021735 72.36344897 14.09943694 76 14 C76.66 12.35 77.32 10.7 78 9 C81.21719814 14.57647678 81.41898632 20.71520524 81 27 C74.31874876 31.4541675 64.46540248 28.42187456 56.8659668 27.40087891 C54.83510982 27.12803758 52.80344387 26.86214837 50.77148438 26.59765625 C28.4553315 23.67181834 28.4553315 23.67181834 18.6875 21.4375 C14.90428813 20.57672482 11.37191862 19.90487674 7.5 19.75 C3.21665594 18.83214056 1.71089582 17.40619443 -0.8671875 13.96875 C-2.62574849 10.91249228 -3.06495004 8.507302 -3 5 C-1.49609375 2.2890625 -1.49609375 2.2890625 0 0 Z " fill="#F37059" transform="translate(321,86)"/>
<path d="M0 0 C11.91957608 1.48674282 23.43015252 4.87372957 35 8 C28.12765052 24.01222544 21.82648431 38.66638972 7 49 C6.34 49 5.68 49 5 49 C5.05220703 47.13021484 5.05220703 47.13021484 5.10546875 45.22265625 C5.35413663 32.24578203 4.1885098 20.33404933 0.8984375 7.765625 C0 4 0 4 0 0 Z " fill="#354A5D" transform="translate(99,66)"/>
<path d="M0 0 C1.82862893 3.27083062 2.68534394 6.43065573 3.5078125 10.078125 C3.90419922 11.81835938 3.90419922 11.81835938 4.30859375 13.59375 C4.57800781 14.8003125 4.84742188 16.006875 5.125 17.25 C5.40214844 18.47203125 5.67929688 19.6940625 5.96484375 20.953125 C6.64783567 23.96771004 7.32452367 26.98372205 8 30 C4.04 33.63 0.08 37.26 -4 41 C-5.97233977 39.52910255 -7.94261177 38.05528571 -9.8984375 36.5625 C-12.07246524 34.90118132 -12.07246524 34.90118132 -14.8125 33.25 C-17.26705387 30.72531602 -17.4767441 29.53827557 -18.25 26.1875 C-19.65108905 20.93148087 -21.88995259 18.55422864 -26.3046875 15.47265625 C-30.9659845 12.92583166 -35.89104895 11.39177854 -41 10 C-41 9.67 -41 9.34 -41 9 C-40.42668945 8.95512451 -39.85337891 8.91024902 -39.26269531 8.86401367 C-18.88644622 7.31353959 -18.88644622 7.31353959 0 0 Z " fill="#445C6C" transform="translate(197,378)"/>
<path d="M0 0 C1.86401367 0.30200195 1.86401367 0.30200195 4 1 C5.64417961 3.39394913 6.98586953 5.62882515 8.3125 8.1875 C8.68439453 8.84814453 9.05628906 9.50878906 9.43945312 10.18945312 C11.15929839 13.43377949 11.99941208 15.51261796 12.00390625 19.23828125 C10.78745444 22.58470705 9.41986125 23.82923398 6.625 26 C2.81644813 28.97736954 0.73527103 31.44283454 -1 36 C-1.35996043 39.65800032 -1.35996043 39.65800032 -1.1875 43.375 C-1.16042969 44.62023437 -1.13335937 45.86546875 -1.10546875 47.1484375 C-1.07066406 48.08945313 -1.03585938 49.03046875 -1 50 C-6.26874062 42.09688907 -6.29767151 30.80669111 -6.375 21.5625 C-6.38869629 20.73500244 -6.40239258 19.90750488 -6.41650391 19.05493164 C-6.36322118 11.89992555 -4.84645002 5.53880003 0 0 Z " fill="#E6E8E6" transform="translate(150,147)"/>
<path d="M0 0 C-2.25000297 8.17106342 -5.54382036 15.70091944 -11.75 21.625 C-19.3816632 24.85378058 -26.15261752 22.9844127 -33.65234375 20.16796875 C-35.94605353 19.02683859 -37.33260964 17.92052553 -39 16 C-34.80687646 14.02414936 -30.60749765 12.06234866 -26.40185547 10.11328125 C-24.73089495 9.33877627 -23.06070343 8.56261092 -21.39111328 7.78515625 C-18.70191546 6.53613111 -16.00782998 5.2982286 -13.3125 4.0625 C-12.45172852 3.6610376 -11.59095703 3.2595752 -10.70410156 2.84594727 C-9.89038086 2.47526123 -9.07666016 2.1045752 -8.23828125 1.72265625 C-7.51680908 1.39015869 -6.79533691 1.05766113 -6.05200195 0.71508789 C-4 0 -4 0 0 0 Z " fill="#364C60" transform="translate(294,410)"/>
<path d="M0 0 C0.66 0 1.32 0 2 0 C2.27972656 0.65484375 2.55945313 1.3096875 2.84765625 1.984375 C7.71685681 13.06924316 12.84005682 22.91252617 22 31 C22.99193359 31.88945312 22.99193359 31.88945312 24.00390625 32.796875 C25.98666439 34.55070412 27.98880804 36.2788838 30 38 C31.50240017 39.28887412 33.00246518 40.58047606 34.5 41.875 C35.1703125 42.44992188 35.840625 43.02484375 36.53125 43.6171875 C37.0159375 44.07351562 37.500625 44.52984375 38 45 C38 45.33 38 45.66 38 46 C36.87851563 45.91298828 36.87851563 45.91298828 35.734375 45.82421875 C32.75261747 45.68761991 29.96474264 45.63635913 27 46 C24.39089037 48.3183856 24.39089037 48.3183856 23 51 C22.34 51 21.68 51 21 51 C17.70898438 44.41796875 14.41796875 37.8359375 11.12695312 31.25390625 C10.77183151 30.54402557 10.4167099 29.8341449 10.05082703 29.10275269 C9.34458596 27.68954032 8.63951044 26.27574485 7.93562317 24.86135864 C6.44167677 21.86224873 4.93470312 18.87576613 3.37573242 15.90966797 C2.92174072 15.04229004 2.46774902 14.17491211 2 13.28125 C1.61457031 12.56259766 1.22914062 11.84394531 0.83203125 11.10351562 C-0.64640264 7.36578487 -0.31950988 3.96192256 0 0 Z " fill="#E4E6E3" transform="translate(100,125)"/>
<path d="M0 0 C1.1298689 2.2279105 2.21493681 4.46580733 3.26171875 6.734375 C7.39161641 15.46939143 12.12143336 23.47367191 21 28 C24.30839707 28.86565578 27.61936698 29.49223694 31 30 C29.78751259 32.52601543 28.4753092 34.83889517 26.984375 37.22265625 C24.7204415 41.15513813 23.94149021 44.99162473 23.25 49.4375 C23.06244141 50.53481445 23.06244141 50.53481445 22.87109375 51.65429688 C22.56862927 53.43418399 22.2825647 55.21684546 22 57 C21.67 57 21.34 57 21 57 C20.92523438 56.27296875 20.85046875 55.5459375 20.7734375 54.796875 C19.5373834 45.34469659 16.63376737 36.58752469 9.9375 29.5625 C5.61148414 24.95262483 3.99205298 18.88233035 2 13 C1.62617188 11.95714844 1.25234375 10.91429687 0.8671875 9.83984375 C-0.16426538 6.46206789 -0.14046038 3.5115095 0 0 Z " fill="#F6B74E" transform="translate(329,137)"/>
<path d="M0 0 C2.64098923 2.64098923 3.20767724 5.57722005 4.25 9.0625 C6.02211991 14.71184842 8.09038871 19.38212949 11.66796875 24.16796875 C13.02528094 26.03477056 14.0235264 27.91284552 15 30 C12 32 12 32 9.8125 31.625 C8.9153125 31.315625 8.9153125 31.315625 8 31 C3.32631272 36.39384664 0.95312517 40.90086082 0 48 C-0.33 48 -0.66 48 -1 48 C-1.73148638 42.08316905 -2.15890484 36.31036342 -2.16796875 30.3515625 C-2.17296135 29.1827504 -2.17296135 29.1827504 -2.17805481 27.99032593 C-2.18307197 26.36188338 -2.18546477 24.73343074 -2.18530273 23.10498047 C-2.18751313 20.6101839 -2.20578776 18.11581377 -2.22460938 15.62109375 C-2.22753964 14.0312515 -2.22952689 12.44140717 -2.23046875 10.8515625 C-2.23765427 10.10782379 -2.24483978 9.36408508 -2.25224304 8.59780884 C-2.23555536 4.84725992 -2.13492385 3.20238577 0 0 Z " fill="#E7E8E6" transform="translate(328,142)"/>
<path d="M0 0 C0.99 0 1.98 0 3 0 C4.02028865 1.31787285 5.01971384 2.65210653 6 4 C6.99 4.33 7.98 4.66 9 5 C11.84030044 11.66980896 13.43448484 18.78968168 14 26 C9.64029169 24.65150163 5.68658562 22.95092154 1.625 20.875 C0.56539063 20.33617187 -0.49421875 19.79734375 -1.5859375 19.2421875 C-2.38257813 18.83226562 -3.17921875 18.42234375 -4 18 C-3.82597656 17.26394531 -3.65195312 16.52789062 -3.47265625 15.76953125 C-3.02616701 13.15332572 -3.04103663 11.28653762 -3.4375 8.6875 C-3.623125 7.470625 -3.80875 6.25375 -4 5 C-3.01 4.67 -2.02 4.34 -1 4 C-0.26676204 1.98491642 -0.26676204 1.98491642 0 0 Z " fill="#F8CB5B" transform="translate(279,234)"/>
<path d="M0 0 C5.7809725 0.63065155 11.3443706 1.65155132 17 3 C16.79503906 3.88300781 16.59007812 4.76601562 16.37890625 5.67578125 C14.7071763 13.12257829 13.45104625 20.37887379 13 28 C10.03 28 7.06 28 4 28 C4.06960937 26.69289063 4.06960937 26.69289063 4.140625 25.359375 C4.37427337 17.64897888 3.65092727 11.537825 0.875 4.328125 C0 2 0 2 0 0 Z " fill="#3B4E5D" transform="translate(147,77)"/>
<path d="M0 0 C9.8621838 2.87084117 19.42032833 6.31078113 29 10 C27.89205078 11.10408203 27.89205078 11.10408203 26.76171875 12.23046875 C25.10775863 13.88910769 23.46169462 15.55576393 21.83203125 17.23828125 C20.83236328 18.26501953 20.83236328 18.26501953 19.8125 19.3125 C19.13832031 20.00988281 18.46414063 20.70726562 17.76953125 21.42578125 C16 23 16 23 14 23 C14.04382813 22.20335937 14.08765625 21.40671875 14.1328125 20.5859375 C14.12445356 17.15041191 13.94703583 14.31039755 13 11 C10.62018104 8.79441779 8.37542716 7.55468239 5.4453125 6.18359375 C3.06405968 5.03100652 1.6447355 4.0531963 0 2 C0 1.34 0 0.68 0 0 Z " fill="#455D6C" transform="translate(281,303)"/>
<path d="M0 0 C0.66 0.33 1.32 0.66 2 1 C-2.82674136 10.76631564 -7.76470752 20.44559123 -13 30 C-13.33 30 -13.66 30 -14 30 C-14 22.74 -14 15.48 -14 8 C-10.7 6.68 -7.4 5.36 -4 4 C-1.44937334 1.96169749 -1.44937334 1.96169749 0 0 Z " fill="#E6E7E5" transform="translate(375,157)"/>
<path d="M0 0 C1.10979907 1.66469861 2.21431203 3.33308738 3.296875 5.015625 C8.45825316 12.95193765 13.5854907 18.98206081 21.2421875 24.6171875 C21.82226562 25.07351562 22.40234375 25.52984375 23 26 C23 26.33 23 26.66 23 27 C22.37351563 27.20496094 21.74703125 27.40992188 21.1015625 27.62109375 C20.28429687 27.89050781 19.46703125 28.15992188 18.625 28.4375 C17.81289062 28.70433594 17.00078125 28.97117188 16.1640625 29.24609375 C13.98968201 29.95179729 13.98968201 29.95179729 12 31 C6.10611933 21.87892242 0 11.14445618 0 0 Z " fill="#F6B74C" transform="translate(135,119)"/>
<path d="M0 0 C2.60630764 0.97445134 5.00177281 2.00103151 7.41015625 3.40234375 C14.87612774 7.72359087 21.73121874 9.06807546 30.23266602 10.06225586 C31.48067993 10.20932983 31.48067993 10.20932983 32.75390625 10.359375 C33.49970947 10.43639648 34.2455127 10.51341797 35.01391602 10.59277344 C37 11 37 11 40 13 C35.99694109 14.4296639 32.22474464 15.50297122 28 16 C26.9790625 16.15082031 26.9790625 16.15082031 25.9375 16.3046875 C21.09739984 16.72483508 18.41897881 15.99796939 14.5625 13 C13.03336752 11.67619273 11.51305922 10.34214888 10 9 C8.15141632 7.53459613 6.29728761 6.07615822 4.4375 4.625 C2.93763439 3.44245756 1.4510159 2.24199691 0 1 C0 0.67 0 0.34 0 0 Z " fill="#4C636E" transform="translate(343,300)"/>
<path d="M0 0 C-5.09792666 7.00964915 -11.91806986 12.13117303 -19 17 C-19.027193 15.41676312 -19.04648306 13.83338938 -19.0625 12.25 C-19.07410156 11.36828125 -19.08570313 10.4865625 -19.09765625 9.578125 C-19.00826198 7.2181162 -18.66912821 5.25501476 -18 3 C-16.12743583 2.49095343 -14.25180659 1.99317545 -12.375 1.5 C-11.33085937 1.2215625 -10.28671875 0.943125 -9.2109375 0.65625 C-6.04312582 0.00881404 -3.22258533 -0.1161292 0 0 Z " fill="#65C0B5" transform="translate(292,329)"/>
<path d="M0 0 C2.70406845 1.41360227 4.65331406 3.00282047 7 5 C4.94766315 7.2477975 3.99332739 8.0022242 1 9 C-2.13671875 8.22265625 -2.13671875 8.22265625 -5.6875 7.0625 C-6.86699219 6.68222656 -8.04648437 6.30195313 -9.26171875 5.91015625 C-10.16535156 5.60980469 -11.06898438 5.30945313 -12 5 C-12 4.01 -12 3.02 -12 2 C-7.9670306 -0.68864626 -4.74058987 -0.80707563 0 0 Z " fill="#E8B04F" transform="translate(392,298)"/>
<path d="M0 0 C4.29 1.32 8.58 2.64 13 4 C13 5.98 13 7.96 13 10 C7.58889909 8.68021929 3.73558494 6.06714573 0 2 C0 1.34 0 0.68 0 0 Z " fill="#ECC45C" transform="translate(281,303)"/>
<path d="M0 0 C2 1 4 2 6 3 C5.88557539 4.60495567 5.75805306 6.20898119 5.625 7.8125 C5.55539062 8.70582031 5.48578125 9.59914062 5.4140625 10.51953125 C5 13 5 13 3 16 C2.86722656 15.18015625 2.73445313 14.3603125 2.59765625 13.515625 C2.42105469 12.43796875 2.24445313 11.3603125 2.0625 10.25 C1.88847656 9.18265625 1.71445312 8.1153125 1.53515625 7.015625 C1.11295829 4.63652407 0.62797116 2.33084789 0 0 Z " fill="#FBD065" transform="translate(347,178)"/>
<path d="M0 0 C4.77609498 1.64178265 8.79382904 4.26546702 13 7 C12.01 7.495 12.01 7.495 11 8 C8.90625 7.109375 8.90625 7.109375 6.5 5.75 C5.7059375 5.31171875 4.911875 4.8734375 4.09375 4.421875 C2 3 2 3 0 0 Z " fill="#F8BA4E" transform="translate(160,414)"/>
<path d="M0 0 C0.66 0 1.32 0 2 0 C2.33 0.99 2.66 1.98 3 3 C3.66 3.33 4.32 3.66 5 4 C4.67 4.99 4.34 5.98 4 7 C2.35 6.01 0.7 5.02 -1 4 C-0.67 2.68 -0.34 1.36 0 0 Z " fill="#E1B95A" transform="translate(276,248)"/>
<path d="M0 0 C0.66 1.32 1.32 2.64 2 4 C2.66 4 3.32 4 4 4 C4.33 6.31 4.66 8.62 5 11 C1.7089159 7.39042389 0.45336079 4.87362847 0 0 Z " fill="#F0BA52" transform="translate(287,245)"/>
<path d="M0 0 C0.66 0.33 1.32 0.66 2 1 C2.4140625 3.06640625 2.4140625 3.06640625 2.625 5.5625 C2.69976562 6.38878906 2.77453125 7.21507812 2.8515625 8.06640625 C2.92503906 9.02353516 2.92503906 9.02353516 3 10 C0.3144406 7.3144406 -0.06049974 4.62378672 -1 1 C-0.67 0.67 -0.34 0.34 0 0 Z " fill="#496071" transform="translate(152,278)"/>
</svg>
