<?xml version="1.0" encoding="UTF-8"?>
<svg version="1.1" xmlns="http://www.w3.org/2000/svg" width="512" height="512">
<path d="M0 0 C1.07621613 -0.00701431 2.15243225 -0.01402863 3.26126099 -0.02125549 C4.43733917 -0.01361176 5.61341736 -0.00596802 6.82513428 0.00190735 C8.06798187 -0.00174332 9.31082947 -0.00539398 10.59133911 -0.00915527 C14.00135812 -0.01587706 17.41083225 -0.0091338 20.82079792 0.00417686 C24.40344073 0.01552047 27.98606997 0.01138083 31.56872559 0.00942993 C37.59792743 0.0085465 43.62701698 0.01962604 49.65618896 0.03804016 C56.58832723 0.05909343 63.52029967 0.06274257 70.45246339 0.0564782 C77.15013165 0.05073912 83.84774253 0.05649058 90.54540253 0.06765175 C93.37909781 0.0722499 96.21275743 0.07319249 99.04645538 0.0710659 C137.23655472 0.05402087 161.69819043 8.06915339 193.69134521 28.3742218 C195.32241685 29.40226204 196.95391436 30.42962696 198.58587646 31.45625305 C203.29321613 34.42022314 207.99262255 37.39661762 212.69134521 40.3742218 C215.75309226 42.31291401 218.81567821 44.25027398 221.87884521 46.1867218 C222.64479004 46.6711676 223.41073486 47.1556134 224.19989014 47.65473938 C229.77456422 51.17597709 235.36726243 54.66760829 240.96453857 58.15278625 C271.68995151 77.29542258 271.68995151 77.29542258 277.69134521 85.3742218 C286.43494929 83.11613278 294.99822334 80.38062835 303.56634521 77.54219055 C305.00215647 77.0688952 306.43805649 76.59586906 307.8740387 76.12309265 C310.90908412 75.1233229 313.94358039 74.12191121 316.97763062 73.11912537 C321.74281535 71.54426055 326.50928461 69.9733112 331.27606201 68.40327454 C332.4631597 68.01226799 332.4631597 68.01226799 333.67423916 67.61336231 C335.26636591 67.08895607 336.85849687 66.56456262 338.4506321 66.04018211 C340.82300197 65.25870177 343.19525839 64.47687789 345.56748962 63.69497681 C357.53799045 59.75001265 369.51649248 55.83020382 381.50384521 51.9367218 C382.72407883 51.54033508 382.72407883 51.54033508 383.96896362 51.13594055 C384.7784848 50.8729718 385.58800598 50.61000305 386.42205811 50.33906555 C388.06130456 49.80652861 389.70054609 49.2739765 391.33978271 48.7414093 C392.14767746 48.47898437 392.9555722 48.21655945 393.78794861 47.94618225 C400.87597186 45.64240327 407.95964957 43.32541684 415.04290771 41.0070343 C417.32570128 40.26020001 419.60849749 39.51337379 421.89129639 38.76655579 C425.23340735 37.67312777 428.57536814 36.57925233 431.9168396 35.48387146 C434.97539406 34.48126555 438.03448823 33.48032245 441.09368896 32.47969055 C442.46534714 32.02923874 442.46534714 32.02923874 443.86471558 31.56968689 C444.70847748 31.29401886 445.55223938 31.01835083 446.42156982 30.73432922 C447.15347031 30.49453842 447.88537079 30.25474762 448.63945007 30.00769043 C456.69197588 27.52168499 466.68304514 26.68616723 474.62884521 29.9367218 C483.02940885 34.42967862 489.84107816 41.43144925 493.50384521 50.2492218 C496.26401906 59.49739048 496.28482735 71.52714983 491.99212646 80.24531555 C484.07805353 93.19777726 469.62435991 98.53685647 456.4743042 104.99067688 C450.56234624 107.89766173 444.72163226 110.92361621 438.89837646 114.00312805 C429.00092735 119.23509631 419.03783361 124.33348698 409.06103516 129.41215515 C403.87903599 132.05025902 398.69925875 134.69271828 393.51947021 137.3351593 C392.49431305 137.85807053 391.46915588 138.38098175 390.41293335 138.91973877 C381.86976087 143.27920128 373.33925805 147.66280771 364.81634521 152.0617218 C350.92775443 159.22900115 337.02035966 166.35913473 323.10638428 173.477005 C314.67408185 177.79161343 306.24666122 182.11519585 297.83197021 186.46406555 C296.25304496 187.27927733 294.6741064 188.09446336 293.09515381 188.90962219 C290.18497835 190.41216557 287.27671672 191.91832303 284.36956787 193.42671204 C258.80074124 206.65538181 237.16146966 213.95291037 208.69134521 205.3742218 C197.89381352 201.92703328 187.40560323 197.69427331 176.94744873 193.34150696 C155.49836533 184.42981471 133.77809213 176.63596718 110.69134521 173.3742218 C108.96687416 173.12114761 108.96687416 173.12114761 107.20756531 172.86296082 C102.15105336 172.23743013 97.12956859 172.22201033 92.04022217 172.21650696 C90.48506897 172.20888588 90.48506897 172.20888588 88.89849854 172.20111084 C86.65979656 172.19045632 84.42108425 172.18181711 82.18236732 172.17499161 C78.63917694 172.16314911 75.09610552 172.14368605 71.55296326 172.12187195 C61.48348934 172.06041032 51.41403127 172.00611469 41.34442139 171.97285461 C35.17539664 171.95193382 29.00659525 171.91666234 22.83769798 171.87209702 C20.48897105 171.85792868 18.14020468 171.84921271 15.79143715 171.84604263 C12.51214725 171.84114471 9.23345374 171.8180185 5.95428467 171.79072571 C4.98430038 171.79373184 4.0143161 171.79673798 3.01493835 171.79983521 C1.67149857 171.78319572 1.67149857 171.78319572 0.30091858 171.76622009 C-0.4731367 171.76290995 -1.24719198 171.7595998 -2.04470348 171.75618935 C-5.14168708 171.23367492 -6.89446773 170.39925538 -9.30865479 168.3742218 C-9.93506718 165.4365921 -9.93506718 165.4365921 -9.93684387 161.76960754 C-9.94393826 161.09537483 -9.95103265 160.42114211 -9.95834202 159.7264781 C-9.97597711 157.46199903 -9.95779195 155.19922411 -9.9397583 152.93476868 C-9.94489509 151.31359066 -9.95217454 149.69241822 -9.96144104 148.07125854 C-9.97999424 143.66414119 -9.96699209 139.25762688 -9.94735074 134.85053444 C-9.93099508 130.24347323 -9.93977282 125.63645115 -9.94487 121.02937317 C-9.94939442 113.29184813 -9.9334996 105.55456455 -9.90557861 97.8170929 C-9.87352508 88.86525637 -9.87354126 79.91385543 -9.89079338 70.96198797 C-9.90664467 62.35862599 -9.89993395 53.75542405 -9.88285637 45.15206909 C-9.87597494 41.48701734 -9.87702947 37.82209346 -9.88440132 34.15704346 C-9.89204974 29.84280264 -9.87998573 25.52905886 -9.85255241 21.21490288 C-9.84565224 19.62941908 -9.84558805 18.043889 -9.85276794 16.45840645 C-9.86142573 14.29799073 -9.84557241 12.13912205 -9.82331848 9.97883606 C-9.82051156 8.76873116 -9.81770464 7.55862625 -9.81481266 6.3118515 C-9.30865479 3.3742218 -9.30865479 3.3742218 -7.60827923 1.48482227 C-4.87527906 0.16492359 -3.0323011 -0.00054447 0 0 Z " fill="#FDC085" transform="translate(13.30865478515625,257.6257781982422)"/>
<path d="M0 0 C3.16932218 -1.48972748 5.97456738 -3.29286917 8.875 -5.25 C27.39607733 -17.04060626 49.28851252 -21.25671534 70.84521484 -16.81787109 C93.10329441 -11.59758731 111.7594452 1.07031619 123.97387695 20.49780273 C131.70397973 33.58433826 135.39822177 47.91545691 135.375 63.0625 C135.37483887 64.05677002 135.37467773 65.05104004 135.37451172 66.07543945 C135.21809331 76.33237067 133.78621 86.79950684 129 96 C130.55895996 95.9685791 130.55895996 95.9685791 132.14941406 95.93652344 C136.01076442 95.86404326 139.87205483 95.81817169 143.73388672 95.78027344 C145.40423702 95.76017607 147.07451713 95.73289317 148.74462891 95.69824219 C151.1476372 95.64963881 153.54971434 95.62701344 155.953125 95.609375 C156.69806213 95.58872986 157.44299927 95.56808472 158.21051025 95.54681396 C161.64180813 95.54533389 163.61201006 95.71403821 166.41015625 97.77636719 C167.92404996 99.89377258 168.78014716 101.4816821 169.484375 103.96875 C169.80341797 105.07283203 169.80341797 105.07283203 170.12890625 106.19921875 C170.33386719 106.95847656 170.53882813 107.71773438 170.75 108.5 C170.97042969 109.25925781 171.19085938 110.01851562 171.41796875 110.80078125 C172.4425124 114.43441123 173 117.16082374 173 121 C173.66 121 174.32 121 175 121 C175.11931885 120.02313232 175.2386377 119.04626465 175.36157227 118.03979492 C175.98154088 113.71857374 177.06820304 109.57063856 178.21484375 105.36328125 C178.4306459 104.56141891 178.64644806 103.75955658 178.86878967 102.93339539 C179.32315935 101.24955843 179.77960813 99.56628125 180.23803711 97.88354492 C180.93780036 95.31139595 181.62848783 92.73692677 182.31835938 90.16210938 C182.76247914 88.52068667 183.20712253 86.87940554 183.65234375 85.23828125 C183.85762192 84.47155594 184.06290009 83.70483063 184.2743988 82.91487122 C186.22143683 75.81365409 186.22143683 75.81365409 188 73 C191.16736204 71.41631898 193.5153015 71.57943294 197 72 C200.7198472 76.63128387 202.91358631 81.94932822 205.25 87.375 C205.79527344 88.62216797 205.79527344 88.62216797 206.3515625 89.89453125 C207.23953058 91.92751079 208.12218322 93.96262176 209 96 C209.90363281 96.03738281 210.80726563 96.07476562 211.73828125 96.11328125 C212.91777344 96.17902344 214.09726562 96.24476563 215.3125 96.3125 C216.48425781 96.37050781 217.65601563 96.42851562 218.86328125 96.48828125 C222 97 222 97 223.89453125 98.32421875 C225.77389885 101.17315409 225.35269688 103.70816248 225 107 C223.42152173 109.15258334 222.52657744 109.89930842 219.88696289 110.40405273 C217.27776285 110.43597843 214.67190287 110.45781382 212.0625 110.4375 C211.15564453 110.45748047 210.24878906 110.47746094 209.31445312 110.49804688 C202.68113913 110.49316585 202.68113913 110.49316585 199.48046875 108.17578125 C197.70085511 105.56035961 196.30815478 102.87794052 195 100 C192.84068905 106.27957982 190.93061006 112.59910367 189.15234375 118.99609375 C188.62461304 120.87181911 188.09661055 122.74746802 187.56835938 124.62304688 C186.74698936 127.54761817 185.92769516 130.47272135 185.11303711 133.39916992 C184.31953993 136.24567234 183.51785331 139.08976255 182.71484375 141.93359375 C182.47209213 142.81373642 182.22934052 143.69387909 181.97923279 144.60069275 C181.7488179 145.41236404 181.51840302 146.22403534 181.28100586 147.06030273 C181.08131699 147.77484116 180.88162811 148.48937958 180.67588806 149.22557068 C180 151 180 151 178 153 C171.75428581 153.5677922 171.75428581 153.5677922 169.38256836 151.7824707 C167.71631621 149.63426181 167.08194809 147.77580208 166.31640625 145.16796875 C166.03031494 144.21059814 165.74422363 143.25322754 165.44946289 142.2668457 C165.15676514 141.25066162 164.86406738 140.23447754 164.5625 139.1875 C164.25755615 138.15391357 163.9526123 137.12032715 163.63842773 136.05541992 C163.03064105 133.98971964 162.42712703 131.92275689 161.828125 129.85449219 C161.11652133 127.40164133 160.39106102 124.95378068 159.65625 122.5078125 C157 113.53348214 157 113.53348214 157 109 C145.12 109 133.24 109 121 109 C120.34 110.65 119.68 112.3 119 114 C117.66237068 115.76622105 117.66237068 115.76622105 116.09817505 117.40516663 C115.49997389 118.03766295 114.90177273 118.67015928 114.28544426 119.32182217 C113.29554339 120.34406682 113.29554339 120.34406682 112.28564453 121.38696289 C111.23029605 122.49162321 111.23029605 122.49162321 110.1536274 123.61859989 C100.37462967 133.80773161 90.39898726 143.80627969 80.4296875 153.80859375 C79.37107838 154.87126604 78.31249637 155.93396534 77.25394058 156.99669075 C72.29516006 161.97435982 67.3340829 166.94972539 62.37006843 171.92217487 C56.67482837 177.62726215 50.98804971 183.34062059 45.30795658 189.06078762 C40.88232648 193.51655539 36.44906816 197.96463995 32.01000226 202.40702206 C29.37149963 205.04786852 26.73636971 207.69188035 24.10934067 210.34414482 C21.194385 213.28667417 18.26380168 216.21314071 15.33154297 219.13842773 C14.47122971 220.01155106 13.61091644 220.88467438 12.72453308 221.78425598 C11.52258553 222.97578781 11.52258553 222.97578781 10.2963562 224.19139099 C9.6073567 224.88277884 8.9183572 225.5741667 8.20847893 226.2865057 C5.48629974 228.39856503 3.39197198 229.35986431 0 230 C-4.0082078 228.30447211 -6.78242296 225.46684827 -9.83303833 222.41419983 C-10.29255162 221.95710095 -10.75206491 221.50000208 -11.22550285 221.02905172 C-12.75553982 219.50462564 -14.27835693 217.97319127 -15.80126953 216.44165039 C-16.90015202 215.34384143 -17.99946747 214.2464657 -19.09918213 213.14949036 C-22.07879205 210.17472037 -25.05212612 207.19374969 -28.02423334 204.2114861 C-31.1372032 201.08972176 -34.25545502 197.97324164 -37.37301636 194.85606384 C-42.60674917 189.62139502 -47.83659764 184.38287087 -53.06396484 179.1418457 C-59.10628248 173.08379915 -65.15381419 167.03099845 -71.20436776 160.98117834 C-77.64841629 154.53780546 -84.08864989 148.09062988 -90.52776861 141.64233088 C-92.3825515 139.78541755 -94.23804332 137.92921512 -96.09369278 136.0731678 C-99.00988692 133.15596849 -101.92351488 130.23622961 -104.83518219 127.31451225 C-105.90379969 126.24297625 -106.97326138 125.17228138 -108.04362869 124.10249329 C-109.50505688 122.64155668 -110.96336943 121.17757872 -112.42092896 119.71278381 C-113.237596 118.89444093 -114.05426304 118.07609804 -114.89567757 117.23295689 C-120 111.81661396 -120 111.81661396 -120 109 C-121.70313354 109.02356567 -121.70313354 109.02356567 -123.44067383 109.04760742 C-127.65056269 109.10188032 -131.86042059 109.13634037 -136.07055664 109.16479492 C-137.89320067 109.1798876 -139.71580836 109.20036395 -141.53833008 109.22631836 C-144.157155 109.26268103 -146.77550007 109.27972124 -149.39453125 109.29296875 C-150.21025101 109.30845261 -151.02597076 109.32393646 -151.8664093 109.33988953 C-157.58200991 109.34159237 -157.58200991 109.34159237 -159.69506836 107.61474609 C-161.35965268 105.55495925 -161.68834961 103.92859003 -162.16796875 101.33203125 C-162.33876953 100.43935547 -162.50957031 99.54667969 -162.68554688 98.62695312 C-162.85119141 97.69818359 -163.01683594 96.76941406 -163.1875 95.8125 C-163.45336914 94.40194336 -163.45336914 94.40194336 -163.72460938 92.96289062 C-164.16020076 90.6436608 -164.58487885 88.32296592 -165 86 C-165.34780518 87.13542236 -165.69561035 88.27084473 -166.05395508 89.44067383 C-167.34719282 93.65360288 -168.6527932 97.86261474 -169.9621582 102.07055664 C-170.5270629 103.89210262 -171.08861218 105.71469272 -171.64672852 107.53833008 C-172.44968258 110.15988588 -173.26464067 112.77744613 -174.08203125 115.39453125 C-174.45253349 116.61811089 -174.45253349 116.61811089 -174.83052063 117.8664093 C-175.07054306 118.62697128 -175.31056549 119.38753326 -175.55786133 120.17114258 C-175.7643782 120.83954666 -175.97089508 121.50795074 -176.18367004 122.1966095 C-177.15476292 124.34189358 -178.16709788 125.5257373 -180 127 C-183.375 127.6875 -183.375 127.6875 -187 127 C-189.2263306 124.63608717 -190.546367 121.88359119 -192 119 C-192.93346826 117.33107189 -193.87087035 115.664337 -194.8125 114 C-195.54383095 112.66785254 -196.27380859 111.33495612 -197 110 C-198.02315801 112.74915405 -199.04388868 115.49916034 -200.0625 118.25 C-200.37541992 119.09377197 -200.68833984 119.93754395 -201.01074219 120.80688477 C-202.69742541 125.3795487 -204.34315275 129.96173604 -205.91796875 134.57421875 C-206.22532959 135.47172852 -206.53269043 136.36923828 -206.84936523 137.29394531 C-207.43975261 139.02685789 -208.02412344 140.76183451 -208.60180664 142.49902344 C-211.29541455 150.39300269 -211.29541455 150.39300269 -214 153 C-220.01608365 153.75201046 -220.01608365 153.75201046 -222.62287903 151.7596283 C-224.25508813 149.67405892 -224.83273843 147.96029723 -225.53393555 145.40844727 C-225.79397873 144.48060928 -226.05402191 143.5527713 -226.32194519 142.59681702 C-226.59082047 141.59678146 -226.85969574 140.59674591 -227.13671875 139.56640625 C-227.56317436 138.02218239 -227.56317436 138.02218239 -227.99824524 136.44676208 C-228.59711713 134.27009845 -229.19108679 132.09208099 -229.78051758 129.9128418 C-230.68385533 126.57596322 -231.60331078 123.24385184 -232.52539062 119.91210938 C-233.10512481 117.7971374 -233.6839321 115.6819111 -234.26171875 113.56640625 C-234.53666672 112.56839493 -234.81161469 111.57038361 -235.09489441 110.54212952 C-235.34548111 109.61113937 -235.59606781 108.68014923 -235.85424805 107.72094727 C-236.07614304 106.90392838 -236.29803802 106.08690948 -236.5266571 105.24513245 C-237 103 -237 103 -237 99 C-237.66 99 -238.32 99 -239 99 C-239.2475 99.886875 -239.495 100.77375 -239.75 101.6875 C-241.14858489 105.39374996 -242.05894497 107.32467582 -245 110 C-248.36844336 110.67605812 -251.64086548 110.56152513 -255.0625 110.4375 C-256.42858398 110.42879883 -256.42858398 110.42879883 -257.82226562 110.41992188 C-264.55620619 110.29586254 -264.55620619 110.29586254 -268 108 C-268.89562115 104.83087902 -269.28915213 102.82297146 -268.1875 99.6875 C-267 98 -267 98 -265 97 C-262.7927077 96.92907158 -260.58332548 96.91584975 -258.375 96.9375 C-257.18648438 96.94652344 -255.99796875 96.95554687 -254.7734375 96.96484375 C-253.85820312 96.97644531 -252.94296875 96.98804688 -252 97 C-251.61134766 95.76830078 -251.61134766 95.76830078 -251.21484375 94.51171875 C-249.83574556 90.52519377 -248.24138667 86.67999901 -246.5625 82.8125 C-246.26279297 82.10158203 -245.96308594 81.39066406 -245.65429688 80.65820312 C-242.92329322 74.36089968 -242.92329322 74.36089968 -240 72 C-233.86545667 71.3427275 -233.86545667 71.3427275 -231.37712097 73.23249817 C-229.73486411 75.34029557 -229.16401232 77.07745946 -228.46606445 79.6550293 C-228.07599968 81.06615242 -228.07599968 81.06615242 -227.67805481 82.50578308 C-227.40917953 83.51836685 -227.14030426 84.53095062 -226.86328125 85.57421875 C-226.43682564 87.13267265 -226.43682564 87.13267265 -226.00175476 88.72261047 C-225.095845 92.04174322 -224.20403044 95.36447927 -223.3125 98.6875 C-222.70079424 100.93840247 -222.08817515 103.18905695 -221.47460938 105.43945312 C-219.9724629 110.95680151 -218.48187138 116.47717368 -217 122 C-214.87017627 116.74806623 -212.75700002 111.5117276 -210.96484375 106.1328125 C-210.63033203 105.14539063 -210.29582031 104.15796875 -209.95117188 103.140625 C-209.26791453 101.10796731 -208.58830229 99.07408118 -207.91210938 97.0390625 C-207.41227539 95.56953125 -207.41227539 95.56953125 -206.90234375 94.0703125 C-206.60835693 93.19133301 -206.31437012 92.31235352 -206.01147461 91.40673828 C-204.9443985 88.86769983 -203.87506874 87.01877525 -202 85 C-198.5625 84.4375 -198.5625 84.4375 -195 85 C-190.71081518 88.78457484 -188.24996171 94.79004767 -186 100 C-186 100.66 -186 101.32 -186 102 C-185.34 102 -184.68 102 -184 102 C-183.88671356 101.45744568 -183.77342712 100.91489136 -183.65670776 100.355896 C-182.45152388 94.74232974 -180.98456251 89.25912592 -179.3203125 83.765625 C-179.06627655 82.92457214 -178.8122406 82.08351929 -178.55050659 81.21697998 C-178.01626676 79.4550917 -177.48003889 77.69380509 -176.94189453 75.93310547 C-176.12385414 73.2462364 -175.32168455 70.55492942 -174.51953125 67.86328125 C-173.99576499 66.14293254 -173.47105789 64.42286992 -172.9453125 62.703125 C-172.7097464 61.90408752 -172.4741803 61.10505005 -172.23147583 60.28179932 C-170.83915325 55.80126501 -169.40412298 52.39001864 -166 49 C-163 48.375 -163 48.375 -160 49 C-155.53561385 53.20658208 -154.95975051 57.66021284 -154.078125 63.45703125 C-153.92841248 64.35999435 -153.77869995 65.26295746 -153.62445068 66.19328308 C-153.15183551 69.06421681 -152.70065891 71.93804648 -152.25 74.8125 C-151.93240031 76.76520393 -151.61340523 78.71768145 -151.29296875 80.66992188 C-150.50981277 85.44392709 -149.75576699 90.22125983 -149 95 C-142.07 95.33 -135.14 95.66 -128 96 C-129.59528405 91.33195855 -129.59528405 91.33195855 -131.20092773 86.66748047 C-136.62895537 70.58621257 -135.40122625 51.91940368 -130 36 C-129.649375 34.948125 -129.29875 33.89625 -128.9375 32.8125 C-121.34999987 12.57916631 -105.58366631 -2.0123339 -86.5 -11.25 C-57.08171202 -24.35196911 -25.45050176 -18.55765753 0 0 Z " fill="#FD4A00" transform="translate(283,63)"/>
<path d="M0 0 C1.07621613 -0.00701431 2.15243225 -0.01402863 3.26126099 -0.02125549 C4.43733917 -0.01361176 5.61341736 -0.00596802 6.82513428 0.00190735 C8.06798187 -0.00174332 9.31082947 -0.00539398 10.59133911 -0.00915527 C14.00135812 -0.01587706 17.41083225 -0.0091338 20.82079792 0.00417686 C24.40344073 0.01552047 27.98606997 0.01138083 31.56872559 0.00942993 C37.59792743 0.0085465 43.62701698 0.01962604 49.65618896 0.03804016 C56.58832723 0.05909343 63.52029967 0.06274257 70.45246339 0.0564782 C77.15013165 0.05073912 83.84774253 0.05649058 90.54540253 0.06765175 C93.37909781 0.0722499 96.21275743 0.07319249 99.04645538 0.0710659 C137.23655472 0.05402087 161.69819043 8.06915339 193.69134521 28.3742218 C195.32241685 29.40226204 196.95391436 30.42962696 198.58587646 31.45625305 C203.29321613 34.42022314 207.99262255 37.39661762 212.69134521 40.3742218 C215.75309226 42.31291401 218.81567821 44.25027398 221.87884521 46.1867218 C222.64479004 46.6711676 223.41073486 47.1556134 224.19989014 47.65473938 C229.77456422 51.17597709 235.36726243 54.66760829 240.96453857 58.15278625 C271.68995151 77.29542258 271.68995151 77.29542258 277.69134521 85.3742218 C286.43494929 83.11613278 294.99822334 80.38062835 303.56634521 77.54219055 C305.00215647 77.0688952 306.43805649 76.59586906 307.8740387 76.12309265 C310.90908412 75.1233229 313.94358039 74.12191121 316.97763062 73.11912537 C321.74281535 71.54426055 326.50928461 69.9733112 331.27606201 68.40327454 C332.4631597 68.01226799 332.4631597 68.01226799 333.67423916 67.61336231 C335.26636591 67.08895607 336.85849687 66.56456262 338.4506321 66.04018211 C340.82300197 65.25870177 343.19525839 64.47687789 345.56748962 63.69497681 C357.53799045 59.75001265 369.51649248 55.83020382 381.50384521 51.9367218 C382.72407883 51.54033508 382.72407883 51.54033508 383.96896362 51.13594055 C384.7784848 50.8729718 385.58800598 50.61000305 386.42205811 50.33906555 C388.06130456 49.80652861 389.70054609 49.2739765 391.33978271 48.7414093 C392.14767746 48.47898437 392.9555722 48.21655945 393.78794861 47.94618225 C400.87597186 45.64240327 407.95964957 43.32541684 415.04290771 41.0070343 C417.32570128 40.26020001 419.60849749 39.51337379 421.89129639 38.76655579 C425.23340735 37.67312777 428.57536814 36.57925233 431.9168396 35.48387146 C434.97539406 34.48126555 438.03448823 33.48032245 441.09368896 32.47969055 C442.46534714 32.02923874 442.46534714 32.02923874 443.86471558 31.56968689 C444.70847748 31.29401886 445.55223938 31.01835083 446.42156982 30.73432922 C447.15347031 30.49453842 447.88537079 30.25474762 448.63945007 30.00769043 C456.69197588 27.52168499 466.68304514 26.68616723 474.62884521 29.9367218 C483.02940885 34.42967862 489.84107816 41.43144925 493.50384521 50.2492218 C496.26401906 59.49739048 496.28482735 71.52714983 491.99212646 80.24531555 C484.07805353 93.19777726 469.62435991 98.53685647 456.4743042 104.99067688 C450.56234624 107.89766173 444.72163226 110.92361621 438.89837646 114.00312805 C429.00092735 119.23509631 419.03783361 124.33348698 409.06103516 129.41215515 C403.87903599 132.05025902 398.69925875 134.69271828 393.51947021 137.3351593 C392.49431305 137.85807053 391.46915588 138.38098175 390.41293335 138.91973877 C381.86976087 143.27920128 373.33925805 147.66280771 364.81634521 152.0617218 C350.92775443 159.22900115 337.02035966 166.35913473 323.10638428 173.477005 C314.67408185 177.79161343 306.24666122 182.11519585 297.83197021 186.46406555 C296.25304496 187.27927733 294.6741064 188.09446336 293.09515381 188.90962219 C290.18497835 190.41216557 287.27671672 191.91832303 284.36956787 193.42671204 C258.80074124 206.65538181 237.16146966 213.95291037 208.69134521 205.3742218 C197.89381352 201.92703328 187.40560323 197.69427331 176.94744873 193.34150696 C155.49836533 184.42981471 133.77809213 176.63596718 110.69134521 173.3742218 C108.96687416 173.12114761 108.96687416 173.12114761 107.20756531 172.86296082 C102.15105336 172.23743013 97.12956859 172.22201033 92.04022217 172.21650696 C90.48506897 172.20888588 90.48506897 172.20888588 88.89849854 172.20111084 C86.65979656 172.19045632 84.42108425 172.18181711 82.18236732 172.17499161 C78.63917694 172.16314911 75.09610552 172.14368605 71.55296326 172.12187195 C61.48348934 172.06041032 51.41403127 172.00611469 41.34442139 171.97285461 C35.17539664 171.95193382 29.00659525 171.91666234 22.83769798 171.87209702 C20.48897105 171.85792868 18.14020468 171.84921271 15.79143715 171.84604263 C12.51214725 171.84114471 9.23345374 171.8180185 5.95428467 171.79072571 C4.98430038 171.79373184 4.0143161 171.79673798 3.01493835 171.79983521 C1.67149857 171.78319572 1.67149857 171.78319572 0.30091858 171.76622009 C-0.4731367 171.76290995 -1.24719198 171.7595998 -2.04470348 171.75618935 C-5.14168708 171.23367492 -6.89446773 170.39925538 -9.30865479 168.3742218 C-9.93506718 165.4365921 -9.93506718 165.4365921 -9.93684387 161.76960754 C-9.94393826 161.09537483 -9.95103265 160.42114211 -9.95834202 159.7264781 C-9.97597711 157.46199903 -9.95779195 155.19922411 -9.9397583 152.93476868 C-9.94489509 151.31359066 -9.95217454 149.69241822 -9.96144104 148.07125854 C-9.97999424 143.66414119 -9.96699209 139.25762688 -9.94735074 134.85053444 C-9.93099508 130.24347323 -9.93977282 125.63645115 -9.94487 121.02937317 C-9.94939442 113.29184813 -9.9334996 105.55456455 -9.90557861 97.8170929 C-9.87352508 88.86525637 -9.87354126 79.91385543 -9.89079338 70.96198797 C-9.90664467 62.35862599 -9.89993395 53.75542405 -9.88285637 45.15206909 C-9.87597494 41.48701734 -9.87702947 37.82209346 -9.88440132 34.15704346 C-9.89204974 29.84280264 -9.87998573 25.52905886 -9.85255241 21.21490288 C-9.84565224 19.62941908 -9.84558805 18.043889 -9.85276794 16.45840645 C-9.86142573 14.29799073 -9.84557241 12.13912205 -9.82331848 9.97883606 C-9.82051156 8.76873116 -9.81770464 7.55862625 -9.81481266 6.3118515 C-9.30865479 3.3742218 -9.30865479 3.3742218 -7.60827923 1.48482227 C-4.87527906 0.16492359 -3.0323011 -0.00054447 0 0 Z M89.69134521 13.3742218 C89.69134521 61.2242218 89.69134521 109.0742218 89.69134521 158.3742218 C102.06634521 159.8592218 102.06634521 159.8592218 114.69134521 161.3742218 C118.98738096 162.05746932 123.19446331 162.74465414 127.44134521 163.6242218 C128.47041992 163.83619202 129.49949463 164.04816223 130.55975342 164.26655579 C149.55598049 168.35694683 167.3404682 175.92265875 185.28573608 183.19361877 C190.96441276 185.49142057 196.66119471 187.73782802 202.37884521 189.9367218 C203.17226318 190.24666077 203.96568115 190.55659973 204.78314209 190.87593079 C221.1260106 197.12273148 240.40395474 200.33084237 257.03118896 193.1789093 C258.25359911 192.58215311 259.47337874 191.97999584 260.69134521 191.3742218 C261.48685791 190.99298157 262.28237061 190.61174133 263.10198975 190.21894836 C271.89502569 185.99945511 280.54212217 181.51227022 289.16603088 176.95935059 C299.51853744 171.49439055 309.92206785 166.13577703 320.35235596 160.82093811 C325.29483925 158.30230541 330.23519577 155.77950669 335.17572021 153.2570343 C336.1627594 152.75318207 337.14979858 152.24932983 338.16674805 151.73020935 C346.93374596 147.25360147 355.68976528 142.75588034 364.44134521 138.2492218 C376.18119846 132.2044354 387.9292264 126.17586481 399.68359375 120.15934753 C416.60986548 111.49530171 433.53596709 102.83103888 450.42118835 94.08718872 C454.18037617 92.14398856 457.95502282 90.23500971 461.74212646 88.34687805 C462.627229 87.89917053 463.51233154 87.45146301 464.42425537 86.9901886 C465.97359818 86.20688747 467.52863226 85.43465374 469.09124756 84.67817688 C474.9754178 81.67344877 479.0005809 77.65283434 482.03900146 71.76094055 C484.11822995 64.15370339 483.07301777 57.4292915 479.25384521 50.60469055 C476.01463103 45.9807123 471.8904388 42.58533057 466.69134521 40.3742218 C460.53772864 39.32627918 455.50208581 40.95121121 449.82415771 43.1945343 C446.44082853 44.46855601 443.04663497 45.45766698 439.56634521 46.4367218 C431.23644119 48.82106832 423.02818063 51.55384896 414.81634521 54.3117218 C402.23014681 58.53456426 389.62835063 62.70472097 377.00384521 66.8117218 C375.71385117 67.23161377 375.71385117 67.23161377 374.39779663 67.6599884 C362.7940771 71.43535616 351.18222298 75.18530645 339.56676674 78.92437553 C337.44500922 79.60741728 335.32331825 80.29066536 333.2016449 80.97396851 C331.78634937 81.42974238 330.3710509 81.88550715 328.95574951 82.34126282 C328.25528598 82.56682641 327.55482244 82.79239 326.83313274 83.02478886 C322.65022902 84.37149382 318.46667917 85.71616907 314.28264046 87.05934334 C312.29051961 87.69915573 310.29867739 88.3398272 308.3069458 88.98085022 C305.85593925 89.76960856 303.40447026 90.55693193 300.95245361 91.34254456 C295.1381851 93.21579052 289.38768542 95.16726504 283.69134521 97.3742218 C283.85634521 98.4879718 284.02134521 99.6017218 284.19134521 100.7492218 C285.67901435 114.80436451 286.2301984 128.78484328 277.81634521 140.8742218 C273.21844816 146.44252929 267.66528855 149.80429079 260.44134521 150.6320343 C249.91535542 151.12544007 241.43709821 145.92931643 232.69134521 140.6242218 C231.74984619 140.06057922 230.80834717 139.49693665 229.83831787 138.91621399 C220.34775691 133.21473114 210.92955233 127.39385532 201.51165771 121.57344055 C195.56082153 117.90067236 189.58523691 114.27025838 183.60125732 110.65180969 C178.95348775 107.84105135 174.3168789 105.01203216 169.67913818 102.18476868 C167.08015186 100.60983139 164.46951052 99.05783342 161.85150146 97.5148468 C160.56848404 96.73957473 159.2858773 95.96362222 158.00384521 95.1867218 C156.96872803 94.57441711 155.93361084 93.96211243 154.86712646 93.33125305 C152.05753956 90.80413808 151.90683658 89.07766637 151.69134521 85.3742218 C151.69134521 84.7142218 151.69134521 84.0542218 151.69134521 83.3742218 C157.27620848 82.13115341 159.8736491 82.44541223 164.69134521 85.50312805 C165.24013336 85.84364197 165.78892151 86.18415588 166.3543396 86.5349884 C168.14496446 87.6514916 169.9175149 88.79376295 171.69134521 89.9367218 C172.94581711 90.72505102 174.2015321 91.51140531 175.45843506 92.29585266 C178.0047669 93.88769205 180.54508753 95.48848513 183.08099365 97.09687805 C188.1152797 100.28294131 193.21656022 103.35702832 198.31634521 106.4367218 C206.62751605 111.48843769 214.91160692 116.58372611 223.19134521 121.6867218 C233.8915591 128.27955372 233.8915591 128.27955372 244.62884521 134.8117218 C245.75161865 135.49105774 246.87439209 136.17039368 248.03118896 136.87031555 C252.41016126 139.345946 255.69847269 139.71272163 260.69134521 139.3742218 C266.82285623 137.08993338 269.40218569 133.76837521 272.44134521 128.1242218 C275.21190422 120.07276304 275.05799247 108.97607478 272.19134521 100.9367218 C267.18800455 91.1165562 260.22327597 84.70127099 250.94134521 78.9992218 C249.93635986 78.36274719 248.93137451 77.72627258 247.89593506 77.07051086 C240.60832361 72.48120779 233.23008376 68.03754545 225.82220459 63.64546204 C219.92471023 60.14514641 214.15218496 56.48900237 208.41351318 52.73530579 C199.14307401 46.68415882 189.72948016 40.86036099 180.3270874 35.01728821 C178.13259945 33.64929044 175.94478394 32.27195003 173.76165771 30.88594055 C145.38169545 13.0183604 126.47512365 13.3742218 89.69134521 13.3742218 Z " fill="#262323" transform="translate(13.30865478515625,257.6257781982422)"/>
<path d="M0 0 C3.16932218 -1.48972748 5.97456738 -3.29286917 8.875 -5.25 C27.39607733 -17.04060626 49.28851252 -21.25671534 70.84521484 -16.81787109 C93.10329441 -11.59758731 111.7594452 1.07031619 123.97387695 20.49780273 C131.70397973 33.58433826 135.39822177 47.91545691 135.375 63.0625 C135.37483887 64.05677002 135.37467773 65.05104004 135.37451172 66.07543945 C135.21809331 76.33237067 133.78621 86.79950684 129 96 C130.55895996 95.9685791 130.55895996 95.9685791 132.14941406 95.93652344 C136.01076442 95.86404326 139.87205483 95.81817169 143.73388672 95.78027344 C145.40423702 95.76017607 147.07451713 95.73289317 148.74462891 95.69824219 C151.1476372 95.64963881 153.54971434 95.62701344 155.953125 95.609375 C156.69806213 95.58872986 157.44299927 95.56808472 158.21051025 95.54681396 C161.64180813 95.54533389 163.61201006 95.71403821 166.41015625 97.77636719 C167.92404996 99.89377258 168.78014716 101.4816821 169.484375 103.96875 C169.80341797 105.07283203 169.80341797 105.07283203 170.12890625 106.19921875 C170.33386719 106.95847656 170.53882813 107.71773438 170.75 108.5 C170.97042969 109.25925781 171.19085938 110.01851562 171.41796875 110.80078125 C172.4425124 114.43441123 173 117.16082374 173 121 C173.66 121 174.32 121 175 121 C175.11931885 120.02313232 175.2386377 119.04626465 175.36157227 118.03979492 C175.98154088 113.71857374 177.06820304 109.57063856 178.21484375 105.36328125 C178.4306459 104.56141891 178.64644806 103.75955658 178.86878967 102.93339539 C179.32315935 101.24955843 179.77960813 99.56628125 180.23803711 97.88354492 C180.93780036 95.31139595 181.62848783 92.73692677 182.31835938 90.16210938 C182.76247914 88.52068667 183.20712253 86.87940554 183.65234375 85.23828125 C183.85762192 84.47155594 184.06290009 83.70483063 184.2743988 82.91487122 C186.22143683 75.81365409 186.22143683 75.81365409 188 73 C191.16736204 71.41631898 193.5153015 71.57943294 197 72 C200.7198472 76.63128387 202.91358631 81.94932822 205.25 87.375 C205.79527344 88.62216797 205.79527344 88.62216797 206.3515625 89.89453125 C207.23953058 91.92751079 208.12218322 93.96262176 209 96 C209.90363281 96.03738281 210.80726563 96.07476562 211.73828125 96.11328125 C212.91777344 96.17902344 214.09726562 96.24476563 215.3125 96.3125 C216.48425781 96.37050781 217.65601563 96.42851562 218.86328125 96.48828125 C222 97 222 97 223.89453125 98.32421875 C225.77389885 101.17315409 225.35269688 103.70816248 225 107 C223.42152173 109.15258334 222.52657744 109.89930842 219.88696289 110.40405273 C217.27776285 110.43597843 214.67190287 110.45781382 212.0625 110.4375 C211.15564453 110.45748047 210.24878906 110.47746094 209.31445312 110.49804688 C202.68113913 110.49316585 202.68113913 110.49316585 199.48046875 108.17578125 C197.70085511 105.56035961 196.30815478 102.87794052 195 100 C192.84068905 106.27957982 190.93061006 112.59910367 189.15234375 118.99609375 C188.62461304 120.87181911 188.09661055 122.74746802 187.56835938 124.62304688 C186.74698936 127.54761817 185.92769516 130.47272135 185.11303711 133.39916992 C184.31953993 136.24567234 183.51785331 139.08976255 182.71484375 141.93359375 C182.47209213 142.81373642 182.22934052 143.69387909 181.97923279 144.60069275 C181.7488179 145.41236404 181.51840302 146.22403534 181.28100586 147.06030273 C181.08131699 147.77484116 180.88162811 148.48937958 180.67588806 149.22557068 C180 151 180 151 178 153 C171.75428581 153.5677922 171.75428581 153.5677922 169.38256836 151.7824707 C167.71631621 149.63426181 167.08194809 147.77580208 166.31640625 145.16796875 C166.03031494 144.21059814 165.74422363 143.25322754 165.44946289 142.2668457 C165.15676514 141.25066162 164.86406738 140.23447754 164.5625 139.1875 C164.25755615 138.15391357 163.9526123 137.12032715 163.63842773 136.05541992 C163.03064105 133.98971964 162.42712703 131.92275689 161.828125 129.85449219 C161.11652133 127.40164133 160.39106102 124.95378068 159.65625 122.5078125 C157 113.53348214 157 113.53348214 157 109 C145.12 109 133.24 109 121 109 C120.34 110.65 119.68 112.3 119 114 C117.66237068 115.76622105 117.66237068 115.76622105 116.09817505 117.40516663 C115.49997389 118.03766295 114.90177273 118.67015928 114.28544426 119.32182217 C113.29554339 120.34406682 113.29554339 120.34406682 112.28564453 121.38696289 C111.23029605 122.49162321 111.23029605 122.49162321 110.1536274 123.61859989 C100.37462967 133.80773161 90.39898726 143.80627969 80.4296875 153.80859375 C79.37107838 154.87126604 78.31249637 155.93396534 77.25394058 156.99669075 C72.29516006 161.97435982 67.3340829 166.94972539 62.37006843 171.92217487 C56.67482837 177.62726215 50.98804971 183.34062059 45.30795658 189.06078762 C40.88232648 193.51655539 36.44906816 197.96463995 32.01000226 202.40702206 C29.37149963 205.04786852 26.73636971 207.69188035 24.10934067 210.34414482 C21.194385 213.28667417 18.26380168 216.21314071 15.33154297 219.13842773 C14.47122971 220.01155106 13.61091644 220.88467438 12.72453308 221.78425598 C11.52258553 222.97578781 11.52258553 222.97578781 10.2963562 224.19139099 C9.6073567 224.88277884 8.9183572 225.5741667 8.20847893 226.2865057 C5.48629974 228.39856503 3.39197198 229.35986431 0 230 C-4.0082078 228.30447211 -6.78242296 225.46684827 -9.83303833 222.41419983 C-10.29255162 221.95710095 -10.75206491 221.50000208 -11.22550285 221.02905172 C-12.75553982 219.50462564 -14.27835693 217.97319127 -15.80126953 216.44165039 C-16.90015202 215.34384143 -17.99946747 214.2464657 -19.09918213 213.14949036 C-22.07879205 210.17472037 -25.05212612 207.19374969 -28.02423334 204.2114861 C-31.1372032 201.08972176 -34.25545502 197.97324164 -37.37301636 194.85606384 C-42.60674917 189.62139502 -47.83659764 184.38287087 -53.06396484 179.1418457 C-59.10628248 173.08379915 -65.15381419 167.03099845 -71.20436776 160.98117834 C-77.64841629 154.53780546 -84.08864989 148.09062988 -90.52776861 141.64233088 C-92.3825515 139.78541755 -94.23804332 137.92921512 -96.09369278 136.0731678 C-99.00988692 133.15596849 -101.92351488 130.23622961 -104.83518219 127.31451225 C-105.90379969 126.24297625 -106.97326138 125.17228138 -108.04362869 124.10249329 C-109.50505688 122.64155668 -110.96336943 121.17757872 -112.42092896 119.71278381 C-113.237596 118.89444093 -114.05426304 118.07609804 -114.89567757 117.23295689 C-120 111.81661396 -120 111.81661396 -120 109 C-121.70313354 109.02356567 -121.70313354 109.02356567 -123.44067383 109.04760742 C-127.65056269 109.10188032 -131.86042059 109.13634037 -136.07055664 109.16479492 C-137.89320067 109.1798876 -139.71580836 109.20036395 -141.53833008 109.22631836 C-144.157155 109.26268103 -146.77550007 109.27972124 -149.39453125 109.29296875 C-150.21025101 109.30845261 -151.02597076 109.32393646 -151.8664093 109.33988953 C-157.58200991 109.34159237 -157.58200991 109.34159237 -159.69506836 107.61474609 C-161.35965268 105.55495925 -161.68834961 103.92859003 -162.16796875 101.33203125 C-162.33876953 100.43935547 -162.50957031 99.54667969 -162.68554688 98.62695312 C-162.85119141 97.69818359 -163.01683594 96.76941406 -163.1875 95.8125 C-163.45336914 94.40194336 -163.45336914 94.40194336 -163.72460938 92.96289062 C-164.16020076 90.6436608 -164.58487885 88.32296592 -165 86 C-165.34780518 87.13542236 -165.69561035 88.27084473 -166.05395508 89.44067383 C-167.34719282 93.65360288 -168.6527932 97.86261474 -169.9621582 102.07055664 C-170.5270629 103.89210262 -171.08861218 105.71469272 -171.64672852 107.53833008 C-172.44968258 110.15988588 -173.26464067 112.77744613 -174.08203125 115.39453125 C-174.45253349 116.61811089 -174.45253349 116.61811089 -174.83052063 117.8664093 C-175.07054306 118.62697128 -175.31056549 119.38753326 -175.55786133 120.17114258 C-175.7643782 120.83954666 -175.97089508 121.50795074 -176.18367004 122.1966095 C-177.15476292 124.34189358 -178.16709788 125.5257373 -180 127 C-183.375 127.6875 -183.375 127.6875 -187 127 C-189.2263306 124.63608717 -190.546367 121.88359119 -192 119 C-192.93346826 117.33107189 -193.87087035 115.664337 -194.8125 114 C-195.54383095 112.66785254 -196.27380859 111.33495612 -197 110 C-198.02315801 112.74915405 -199.04388868 115.49916034 -200.0625 118.25 C-200.37541992 119.09377197 -200.68833984 119.93754395 -201.01074219 120.80688477 C-202.69742541 125.3795487 -204.34315275 129.96173604 -205.91796875 134.57421875 C-206.22532959 135.47172852 -206.53269043 136.36923828 -206.84936523 137.29394531 C-207.43975261 139.02685789 -208.02412344 140.76183451 -208.60180664 142.49902344 C-211.29541455 150.39300269 -211.29541455 150.39300269 -214 153 C-220.01608365 153.75201046 -220.01608365 153.75201046 -222.62287903 151.7596283 C-224.25508813 149.67405892 -224.83273843 147.96029723 -225.53393555 145.40844727 C-225.79397873 144.48060928 -226.05402191 143.5527713 -226.32194519 142.59681702 C-226.59082047 141.59678146 -226.85969574 140.59674591 -227.13671875 139.56640625 C-227.56317436 138.02218239 -227.56317436 138.02218239 -227.99824524 136.44676208 C-228.59711713 134.27009845 -229.19108679 132.09208099 -229.78051758 129.9128418 C-230.68385533 126.57596322 -231.60331078 123.24385184 -232.52539062 119.91210938 C-233.10512481 117.7971374 -233.6839321 115.6819111 -234.26171875 113.56640625 C-234.53666672 112.56839493 -234.81161469 111.57038361 -235.09489441 110.54212952 C-235.34548111 109.61113937 -235.59606781 108.68014923 -235.85424805 107.72094727 C-236.07614304 106.90392838 -236.29803802 106.08690948 -236.5266571 105.24513245 C-237 103 -237 103 -237 99 C-237.66 99 -238.32 99 -239 99 C-239.2475 99.886875 -239.495 100.77375 -239.75 101.6875 C-241.14858489 105.39374996 -242.05894497 107.32467582 -245 110 C-248.36844336 110.67605812 -251.64086548 110.56152513 -255.0625 110.4375 C-256.42858398 110.42879883 -256.42858398 110.42879883 -257.82226562 110.41992188 C-264.55620619 110.29586254 -264.55620619 110.29586254 -268 108 C-268.89562115 104.83087902 -269.28915213 102.82297146 -268.1875 99.6875 C-267 98 -267 98 -265 97 C-262.7927077 96.92907158 -260.58332548 96.91584975 -258.375 96.9375 C-257.18648438 96.94652344 -255.99796875 96.95554687 -254.7734375 96.96484375 C-253.85820312 96.97644531 -252.94296875 96.98804688 -252 97 C-251.61134766 95.76830078 -251.61134766 95.76830078 -251.21484375 94.51171875 C-249.83574556 90.52519377 -248.24138667 86.67999901 -246.5625 82.8125 C-246.26279297 82.10158203 -245.96308594 81.39066406 -245.65429688 80.65820312 C-242.92329322 74.36089968 -242.92329322 74.36089968 -240 72 C-233.86545667 71.3427275 -233.86545667 71.3427275 -231.37712097 73.23249817 C-229.73486411 75.34029557 -229.16401232 77.07745946 -228.46606445 79.6550293 C-228.07599968 81.06615242 -228.07599968 81.06615242 -227.67805481 82.50578308 C-227.40917953 83.51836685 -227.14030426 84.53095062 -226.86328125 85.57421875 C-226.43682564 87.13267265 -226.43682564 87.13267265 -226.00175476 88.72261047 C-225.095845 92.04174322 -224.20403044 95.36447927 -223.3125 98.6875 C-222.70079424 100.93840247 -222.08817515 103.18905695 -221.47460938 105.43945312 C-219.9724629 110.95680151 -218.48187138 116.47717368 -217 122 C-214.87017627 116.74806623 -212.75700002 111.5117276 -210.96484375 106.1328125 C-210.63033203 105.14539063 -210.29582031 104.15796875 -209.95117188 103.140625 C-209.26791453 101.10796731 -208.58830229 99.07408118 -207.91210938 97.0390625 C-207.41227539 95.56953125 -207.41227539 95.56953125 -206.90234375 94.0703125 C-206.60835693 93.19133301 -206.31437012 92.31235352 -206.01147461 91.40673828 C-204.9443985 88.86769983 -203.87506874 87.01877525 -202 85 C-198.5625 84.4375 -198.5625 84.4375 -195 85 C-190.71081518 88.78457484 -188.24996171 94.79004767 -186 100 C-186 100.66 -186 101.32 -186 102 C-185.34 102 -184.68 102 -184 102 C-183.88671356 101.45744568 -183.77342712 100.91489136 -183.65670776 100.355896 C-182.45152388 94.74232974 -180.98456251 89.25912592 -179.3203125 83.765625 C-179.06627655 82.92457214 -178.8122406 82.08351929 -178.55050659 81.21697998 C-178.01626676 79.4550917 -177.48003889 77.69380509 -176.94189453 75.93310547 C-176.12385414 73.2462364 -175.32168455 70.55492942 -174.51953125 67.86328125 C-173.99576499 66.14293254 -173.47105789 64.42286992 -172.9453125 62.703125 C-172.7097464 61.90408752 -172.4741803 61.10505005 -172.23147583 60.28179932 C-170.83915325 55.80126501 -169.40412298 52.39001864 -166 49 C-163 48.375 -163 48.375 -160 49 C-155.53561385 53.20658208 -154.95975051 57.66021284 -154.078125 63.45703125 C-153.92841248 64.35999435 -153.77869995 65.26295746 -153.62445068 66.19328308 C-153.15183551 69.06421681 -152.70065891 71.93804648 -152.25 74.8125 C-151.93240031 76.76520393 -151.61340523 78.71768145 -151.29296875 80.66992188 C-150.50981277 85.44392709 -149.75576699 90.22125983 -149 95 C-142.07 95.33 -135.14 95.66 -128 96 C-129.59528405 91.33195855 -129.59528405 91.33195855 -131.20092773 86.66748047 C-136.62895537 70.58621257 -135.40122625 51.91940368 -130 36 C-129.649375 34.948125 -129.29875 33.89625 -128.9375 32.8125 C-121.34999987 12.57916631 -105.58366631 -2.0123339 -86.5 -11.25 C-57.08171202 -24.35196911 -25.45050176 -18.55765753 0 0 Z M-79 -1 C-80.09183594 -0.50242187 -81.18367188 -0.00484375 -82.30859375 0.5078125 C-99.29068808 8.94977847 -112.74229717 23.70516127 -118.8125 41.6875 C-123.20992959 55.16441204 -124.01947183 70.58797128 -119 84 C-118.63648438 84.98484375 -118.27296875 85.9696875 -117.8984375 86.984375 C-114.03163812 96.81352956 -109.36355056 104.79151459 -102.12548828 112.45898438 C-101.52105959 113.10242043 -100.9166309 113.74585648 -100.29388618 114.40879059 C-91.17727502 124.05329325 -81.79028395 133.43715926 -72.4296875 142.84375 C-71.67732055 143.60009011 -71.67732055 143.60009011 -70.90975428 144.37170982 C-66.16917616 149.13731774 -61.42704722 153.90137547 -56.68032646 158.66086578 C-50.65069275 164.70684855 -44.62984317 170.76130007 -38.62031925 176.82727385 C-34.3646045 181.12158914 -30.09944027 185.40636993 -25.82703412 189.68407869 C-23.2845015 192.23026381 -20.74632431 194.78046247 -18.21822739 197.34098816 C-15.4154703 200.17921193 -12.59331828 202.99763248 -9.76904297 205.81445312 C-8.93580002 206.66410141 -8.10255707 207.51374969 -7.24406433 208.3891449 C-6.47628159 209.14860916 -5.70849884 209.90807343 -4.91744995 210.69055176 C-4.2535066 211.35780525 -3.58956326 212.02505875 -2.90550041 212.71253204 C-1.10977415 214.19459285 -1.10977415 214.19459285 0.97891521 213.94895649 C3.58956595 212.72318211 5.21138657 211.16639577 7.25480652 209.12614441 C8.51828918 207.87535095 8.51828918 207.87535095 9.80729675 206.59928894 C10.72320084 205.67731216 11.63910492 204.75533539 12.58276367 203.80541992 C13.56319161 202.82905777 14.54425646 201.85333483 15.52590942 200.87820435 C18.19234753 198.22545924 20.84918691 195.56328976 23.50402999 192.89894652 C26.29135115 190.1040219 29.08599464 187.31643439 31.87947083 184.52766418 C36.57813864 179.83445916 41.27043822 175.13495657 45.95922852 170.43188477 C51.35670144 165.01816035 56.76479316 159.61522514 62.17867678 154.21791571 C66.83920892 149.57107476 71.49377207 144.91831566 76.14355642 140.26072007 C78.91459529 137.48503655 81.68754289 134.71134127 84.46590233 131.94298363 C87.08702927 129.33063285 89.70050104 126.71084193 92.3086586 124.08554459 C93.7058502 122.68259868 95.11028758 121.28688001 96.51506042 119.89152527 C108.81786798 107.46719422 117.80779528 94.13073584 122 77 C122.27457031 75.88238281 122.27457031 75.88238281 122.5546875 74.7421875 C125.43690348 56.99380491 121.34482548 39.54799311 111.41015625 24.609375 C109.69886574 22.3061793 107.8998679 20.1501499 106 18 C105.28199219 17.17628906 104.56398438 16.35257813 103.82421875 15.50390625 C92.28962421 3.10091343 76.65425665 -4.46868167 59.73046875 -5.4765625 C41.49306144 -6.08906211 24.65165143 -3.39349188 10.50390625 9.2265625 C9.73949219 9.95617187 8.97507812 10.68578125 8.1875 11.4375 C5.4668261 13.92413743 4.1524381 14.95288277 0.5625 16.0625 C-4.16976727 14.65112204 -6.49238974 11.9120242 -10.00390625 8.5234375 C-13.43329309 5.63506214 -16.88285462 3.62511284 -20.875 1.625 C-21.49818115 1.30402344 -22.1213623 0.98304687 -22.76342773 0.65234375 C-32.56462869 -4.08280137 -42.64219596 -5.54364769 -53.4375 -5.4375 C-55.08153809 -5.42505249 -55.08153809 -5.42505249 -56.75878906 -5.41235352 C-64.85548551 -5.24322092 -71.58312999 -4.44828344 -79 -1 Z " fill="#242121" transform="translate(283,63)"/>
<path d="M0 0 C1.51400391 0.66902344 1.51400391 0.66902344 3.05859375 1.3515625 C18.38406782 8.96115989 31.53668412 23.65900139 37.14379883 39.80419922 C44.09266009 60.67361607 41.19059083 78.76677701 31.8359375 98.44921875 C28.96155816 103.78357305 25.25442846 108.08508942 21.12548828 112.45898438 C20.52105959 113.10242043 19.9166309 113.74585648 19.29388618 114.40879059 C10.17727502 124.05329325 0.79028395 133.43715926 -8.5703125 142.84375 C-9.07189046 143.34797674 -9.57346843 143.85220348 -10.09024572 144.37170982 C-14.83082384 149.13731774 -19.57295278 153.90137547 -24.31967354 158.66086578 C-30.34930725 164.70684855 -36.37015683 170.76130007 -42.37968075 176.82727385 C-46.6353955 181.12158914 -50.90055973 185.40636993 -55.17296588 189.68407869 C-57.7154985 192.23026381 -60.25367569 194.78046247 -62.78177261 197.34098816 C-65.5845297 200.17921193 -68.40668172 202.99763248 -71.23095703 205.81445312 C-72.06419998 206.66410141 -72.89744293 207.51374969 -73.75593567 208.3891449 C-74.52371841 209.14860916 -75.29150116 209.90807343 -76.08255005 210.69055176 C-76.7464934 211.35780525 -77.41043674 212.02505875 -78.09449959 212.71253204 C-78.72331472 213.13739647 -79.35212986 213.56226089 -80 214 C-81.32 213.67 -82.64 213.34 -84 213 C-84 194.19 -84 175.38 -84 156 C-89.61 156 -95.22 156 -101 156 C-101 155.67 -101 155.34 -101 155 C-99.79875488 154.98018066 -98.59750977 154.96036133 -97.35986328 154.93994141 C-92.91303146 154.8640038 -88.46653195 154.77526868 -84.02001953 154.68261719 C-82.09365386 154.64427832 -80.1672154 154.60943418 -78.24072266 154.578125 C-75.47532082 154.53258055 -72.71042231 154.47456963 -69.9453125 154.4140625 C-68.6483696 154.39673569 -68.6483696 154.39673569 -67.32522583 154.37905884 C-62.68217152 154.47337842 -62.68217152 154.47337842 -59 152 C-58.75498505 149.56823603 -58.62675079 147.24135116 -58.5859375 144.8046875 C-58.56657135 144.09724396 -58.5472052 143.38980042 -58.5272522 142.66091919 C-58.46742348 140.39906915 -58.42105899 138.1371683 -58.375 135.875 C-58.33682314 134.3424256 -58.29777158 132.80987272 -58.2578125 131.27734375 C-58.16171961 127.51840376 -58.07770151 123.75936332 -58 120 C-57.04109863 119.98018066 -56.08219727 119.96036133 -55.09423828 119.93994141 C-51.54188447 119.86395855 -47.98994424 119.7752307 -44.43798828 119.68261719 C-42.89965979 119.64429699 -41.36124075 119.60944944 -39.82275391 119.578125 C-37.61327724 119.53253941 -35.40442552 119.4745366 -33.1953125 119.4140625 C-32.50567413 119.40251129 -31.81603577 119.39096008 -31.10549927 119.37905884 C-27.1079846 119.35048978 -27.1079846 119.35048978 -24 117 C-23.78759515 113.93834936 -23.69604701 110.96948182 -23.69921875 107.90625 C-23.69279106 106.5525531 -23.69279106 106.5525531 -23.68623352 105.17150879 C-23.68048527 103.26164591 -23.67999359 101.35176114 -23.68432617 99.44189453 C-23.68748741 96.51166667 -23.66402901 93.58244676 -23.63867188 90.65234375 C-23.63639915 88.79948045 -23.63569526 86.94661442 -23.63671875 85.09375 C-23.627509 84.21352173 -23.61829926 83.33329346 -23.60881042 82.4263916 C-23.5942503 79.70570166 -23.5942503 79.70570166 -24 76 C-27.68068393 73.54621071 -29.68053719 73.69353786 -34.07421875 73.5859375 C-34.7580513 73.56657135 -35.44188385 73.5472052 -36.1464386 73.5272522 C-38.32666625 73.46756003 -40.50694702 73.42111369 -42.6875 73.375 C-44.1673405 73.33681057 -45.647159 73.29775826 -47.12695312 73.2578125 C-50.7511005 73.16186798 -54.37541257 73.07779849 -58 73 C-58.01458252 72.04109863 -58.02916504 71.08219727 -58.04418945 70.09423828 C-58.10209507 66.5417726 -58.17932671 62.98994602 -58.26245117 59.43798828 C-58.2957373 57.89968221 -58.32375778 56.36125293 -58.34643555 54.82275391 C-58.37991558 52.61307182 -58.4322231 50.40452265 -58.48828125 48.1953125 C-58.49467117 47.50567413 -58.5010611 46.81603577 -58.50764465 46.10549927 C-58.54025714 43.95314611 -58.54025714 43.95314611 -59 41 C-62.23624676 38.84250216 -63.34394066 38.71639512 -67.10546875 38.5859375 C-67.99129639 38.55032715 -68.87712402 38.5147168 -69.78979492 38.47802734 C-71.47165894 38.42702881 -71.47165894 38.42702881 -73.1875 38.375 C-76.755625 38.25125 -80.32375 38.1275 -84 38 C-84 30.74 -84 23.48 -84 16 C-81.69 15.34 -79.38 14.68 -77 14 C-75.02664801 12.6126129 -75.02664801 12.6126129 -73.4375 10.875 C-53.89327534 -7.19774829 -24.06896115 -10.6410144 0 0 Z " fill="#FD2900" transform="translate(365,63)"/>
<path d="M0 0 C6.6 -0.0825 13.2 -0.165 20 -0.25 C22.04703125 -0.28641602 24.0940625 -0.32283203 26.203125 -0.36035156 C52.28293786 -0.62846266 71.25898992 9.13856828 92.81689453 22.96679688 C97.95577014 26.2492448 103.13596374 29.4649157 108.3125 32.6875 C117.78454928 38.60323158 127.2340168 44.55396633 136.67041016 50.52636719 C139.95323593 52.60299016 143.23832041 54.6760277 146.5234375 56.74902344 C148.92665678 58.26619775 151.32862386 59.78533865 153.73046875 61.3046875 C156.29006162 62.9231126 158.85364858 64.53439922 161.42578125 66.1328125 C172.12356662 72.82073786 180.70514122 80.27556917 184 93 C184.78345536 102.21926543 185.24905611 111.95786817 180 120 C176.54792604 123.86668337 173.11509377 125.74100893 167.9375 126.375 C158.53728539 125.47974147 149.96338446 118.6524546 142.125 113.75 C139.81371904 112.31443818 137.50047769 110.8820447 135.1875 109.44921875 C134.59583038 109.08211288 134.00416077 108.71500702 133.39456177 108.33677673 C126.99684833 104.36998624 120.56293927 100.46354351 114.125 96.5625 C112.97027368 95.86226047 111.81556995 95.16198372 110.66088867 94.46166992 C107.72266168 92.67992133 104.78396039 90.89895647 101.84515381 89.11816406 C96.66699674 85.98019848 91.48971108 82.84079769 86.31317139 79.70016479 C84.47425352 78.58479239 82.63484736 77.47022855 80.79541016 76.35571289 C79.68601074 75.6827417 78.57661133 75.00977051 77.43359375 74.31640625 C76.45447021 73.72287354 75.47534668 73.12934082 74.46655273 72.51782227 C72.6210936 71.38219726 70.80295212 70.20196808 69 69 C65.36060068 69.31730524 65.36060068 69.31730524 62 70 C61.505 71.98 61.505 71.98 61 74 C40.87 74 20.74 74 0 74 C0 49.58 0 25.16 0 0 Z " fill="#FED1A6" transform="translate(103,271)"/>
<path d="M0 0 C24.75 0 49.5 0 75 0 C75 47.85 75 95.7 75 145 C50.25 145 25.5 145 0 145 C0 97.15 0 49.3 0 0 Z " fill="#009DF8" transform="translate(16,271)"/>
<path d="M0 0 C1.31116539 -0.00430527 1.31116539 -0.00430527 2.64881897 -0.00869751 C4.49724983 -0.01073869 6.34570227 -0.00520506 8.1940918 0.00732422 C11.02116348 0.02335814 13.84680135 0.0074876 16.67382812 -0.01171875 C18.47005524 -0.00973595 20.26628146 -0.00589151 22.0625 0 C22.90739487 -0.00607269 23.75228973 -0.01214539 24.62278748 -0.0184021 C27.97717853 0.02170784 30.52673798 0.15816349 33.63793945 1.4675293 C35.83185372 4.36963131 35.59340817 7.20598726 35.48828125 10.69140625 C35.48262146 11.39743484 35.47696167 12.10346344 35.47113037 12.83088684 C35.44876036 15.08326376 35.39856824 17.33404253 35.34765625 19.5859375 C35.32759181 21.11390929 35.30934093 22.64190606 35.29296875 24.16992188 C35.24889427 27.91337506 35.17986699 31.65563545 35.09765625 35.3984375 C36.01579102 35.38272705 36.93392578 35.3670166 37.87988281 35.35083008 C41.29416574 35.2996288 44.70803929 35.26205271 48.12255859 35.23364258 C49.59886116 35.21857827 51.07511913 35.19812268 52.55126953 35.17211914 C54.67621883 35.13563011 56.80057526 35.11868817 58.92578125 35.10546875 C60.84245605 35.08190308 60.84245605 35.08190308 62.79785156 35.05786133 C66.09765625 35.3984375 66.09765625 35.3984375 68.51489258 36.34448242 C71.13529427 39.74498211 70.6474665 43.3854589 70.59375 47.5546875 C70.59520523 48.45336548 70.59666046 49.35204346 70.59815979 50.2779541 C70.59650005 52.17768598 70.58493035 54.07743119 70.56420898 55.97705078 C70.53526379 58.88762429 70.54359608 61.7963759 70.55664062 64.70703125 C70.55040298 66.5520922 70.54201184 68.39714739 70.53125 70.2421875 C70.53418564 71.11411743 70.53712128 71.98604736 70.54014587 72.88439941 C70.5274617 73.69534058 70.51477753 74.50628174 70.50170898 75.34179688 C70.496306 76.05444702 70.49090302 76.76709717 70.4853363 77.50134277 C69.97710333 79.98835773 69.10682291 80.88196167 67.09765625 82.3984375 C64.58037906 82.65997036 62.31661659 82.7482297 59.8046875 82.69140625 C58.74564461 82.68503899 58.74564461 82.68503899 57.66520691 82.67854309 C55.41313322 82.66176784 53.16195883 82.62411993 50.91015625 82.5859375 C49.3821744 82.57088907 47.85417849 82.55720094 46.32617188 82.54492188 C42.58298753 82.51186839 38.84047429 82.46009582 35.09765625 82.3984375 C35.1133667 83.35210205 35.12907715 84.3057666 35.14526367 85.28833008 C35.19957303 88.82730663 35.23400958 92.36624636 35.26245117 95.90551758 C35.27753561 97.43715611 35.29800603 98.96875148 35.32397461 100.50024414 C35.36037472 102.70209404 35.37738538 104.90337283 35.390625 107.10546875 C35.40610886 107.78994583 35.42159271 108.47442291 35.43754578 109.17964172 C35.43923203 113.94561926 35.43923203 113.94561926 33.82991028 116.07905579 C31.72279412 117.6839535 30.66691838 117.77782652 28.04101562 117.78662109 C26.82460388 117.80080582 26.82460388 117.80080582 25.58361816 117.8152771 C24.71168823 117.80920441 23.8397583 117.80313171 22.94140625 117.796875 C21.59338928 117.80118027 21.59338928 117.80118027 20.21813965 117.80557251 C18.31843434 117.80761365 16.41870805 117.80208028 14.51904297 117.78955078 C11.60857215 117.77349771 8.69949004 117.78939763 5.7890625 117.80859375 C3.94400735 117.80661133 2.09895306 117.80276767 0.25390625 117.796875 C-0.61802368 117.80294769 -1.48995361 117.80902039 -2.38830566 117.8152771 C-3.19924683 117.80582062 -4.01018799 117.79636414 -4.84570312 117.78662109 C-5.55835327 117.78423431 -6.27100342 117.78184753 -7.00524902 117.77938843 C-9.49597872 117.27923112 -10.38548528 116.40929783 -11.90234375 114.3984375 C-12.16387661 111.88116031 -12.25213595 109.61739784 -12.1953125 107.10546875 C-12.19106766 106.39944016 -12.18682281 105.69341156 -12.18244934 104.96598816 C-12.16567409 102.71391447 -12.12802618 100.46274008 -12.08984375 98.2109375 C-12.07479532 96.68295565 -12.06110719 95.15495974 -12.04882812 93.62695312 C-12.01577464 89.88376878 -11.96400207 86.14125554 -11.90234375 82.3984375 C-12.8560083 82.41414795 -13.80967285 82.4298584 -14.79223633 82.44604492 C-18.33121288 82.50035428 -21.87015261 82.53479083 -25.40942383 82.56323242 C-26.94106236 82.57831686 -28.47265773 82.59878728 -30.00415039 82.62475586 C-32.20600029 82.66115597 -34.40727908 82.67816663 -36.609375 82.69140625 C-37.29385208 82.70689011 -37.97832916 82.72237396 -38.68354797 82.73832703 C-43.44952551 82.74001328 -43.44952551 82.74001328 -45.58296204 81.13069153 C-47.18785975 79.02357537 -47.28173277 77.96769963 -47.29052734 75.34179688 C-47.29998383 74.53085571 -47.30944031 73.71991455 -47.31918335 72.88439941 C-47.31311066 72.01246948 -47.30703796 71.14053955 -47.30078125 70.2421875 C-47.30365143 69.34350952 -47.30652161 68.44483154 -47.30947876 67.5189209 C-47.3115199 65.61921559 -47.30598653 63.7194893 -47.29345703 61.81982422 C-47.27740396 58.9093534 -47.29330388 56.00027129 -47.3125 53.08984375 C-47.31051758 51.2447886 -47.30667392 49.39973431 -47.30078125 47.5546875 C-47.30685394 46.68275757 -47.31292664 45.81082764 -47.31918335 44.91247559 C-47.30972687 44.10153442 -47.30027039 43.29059326 -47.29052734 42.45507812 C-47.28814056 41.74242798 -47.28575378 41.02977783 -47.28329468 40.29553223 C-46.78313737 37.80480253 -45.91320408 36.91529597 -43.90234375 35.3984375 C-41.38506656 35.13690464 -39.12130409 35.0486453 -36.609375 35.10546875 C-35.55033211 35.11183601 -35.55033211 35.11183601 -34.46989441 35.11833191 C-32.21782072 35.13510716 -29.96664633 35.17275507 -27.71484375 35.2109375 C-26.1868619 35.22598593 -24.65886599 35.23967406 -23.13085938 35.25195312 C-19.38767503 35.28500661 -15.64516179 35.33677918 -11.90234375 35.3984375 C-11.9180542 34.44477295 -11.93376465 33.4911084 -11.94995117 32.50854492 C-12.00426053 28.96956837 -12.03869708 25.43062864 -12.06713867 21.89135742 C-12.08222311 20.35971889 -12.10269353 18.82812352 -12.12866211 17.29663086 C-12.16506222 15.09478096 -12.18207288 12.89350217 -12.1953125 10.69140625 C-12.21079636 10.00692917 -12.22628021 9.32245209 -12.24223328 8.61723328 C-12.24392037 3.84886601 -12.24392037 3.84886601 -10.62786865 1.71781921 C-7.57001354 -0.62029721 -3.70112855 -0.02653833 0 0 Z " fill="#262424" transform="translate(271.90234375,100.6015625)"/>
<path d="M0 0 C7.59 0 15.18 0 23 0 C23.04898438 2.20300781 23.09796875 4.40601562 23.1484375 6.67578125 C23.20245536 8.8105343 23.25975955 10.94517558 23.31738281 13.07983398 C23.35565347 14.56282212 23.39050978 16.04590248 23.421875 17.52905273 C23.467568 19.66163072 23.52555338 21.79357491 23.5859375 23.92578125 C23.6173584 25.20880127 23.6487793 26.49182129 23.68115234 27.8137207 C23.76379228 31.15387459 23.76379228 31.15387459 26 34 C28.47491114 34.33814748 30.71351688 34.48872339 33.1953125 34.51171875 C33.90275604 34.52966995 34.61019958 34.54762115 35.33908081 34.56611633 C37.60099303 34.62034442 39.86269284 34.65415316 42.125 34.6875 C43.65758173 34.72066226 45.19013538 34.7551509 46.72265625 34.79101562 C50.48180344 34.87857973 54.23997232 34.93853393 58 35 C58 42.59 58 50.18 58 58 C54.69548828 58.09087891 54.69548828 58.09087891 51.32421875 58.18359375 C49.18950054 58.24541059 47.05483392 58.30878689 44.92016602 58.37231445 C43.43713985 58.4156133 41.95406546 58.45729199 40.47094727 58.49731445 C38.33855661 58.55513958 36.20640758 58.61879832 34.07421875 58.68359375 C32.79119873 58.72025146 31.50817871 58.75690918 30.1862793 58.79467773 C26.97888449 58.86561234 26.97888449 58.86561234 24 60 C23.67 70.89 23.34 81.78 23 93 C15.41 93 7.82 93 0 93 C-0.03738281 90.79699219 -0.07476562 88.59398437 -0.11328125 86.32421875 C-0.1594998 84.18943379 -0.21073195 82.05482395 -0.26245117 79.92016602 C-0.29569423 78.43720146 -0.32372823 76.95411056 -0.34643555 75.47094727 C-0.37999468 73.33815707 -0.43230638 71.20652388 -0.48828125 69.07421875 C-0.51446533 67.79119873 -0.54064941 66.50817871 -0.56762695 65.1862793 C-0.78370614 62.10227531 -0.78370614 62.10227531 -2.08984375 60.08984375 C-5.04679074 58.4027513 -7.69362521 58.55727295 -11.07421875 58.48828125 C-11.7580513 58.47033005 -12.44188385 58.45237885 -13.1464386 58.43388367 C-15.32673 58.37977925 -17.50680256 58.3458866 -19.6875 58.3125 C-21.16734817 58.2793268 -22.64716745 58.24483713 -24.12695312 58.20898438 C-27.75133351 58.12157644 -31.37471773 58.06151737 -35 58 C-35 50.41 -35 42.82 -35 35 C-32.71320313 34.96261719 -30.42640625 34.92523438 -28.0703125 34.88671875 C-25.85943954 34.840528 -23.64873757 34.78928575 -21.43798828 34.73754883 C-19.89968221 34.7042627 -18.36125293 34.67624222 -16.82275391 34.65356445 C-14.61307182 34.62008442 -12.40452265 34.5677769 -10.1953125 34.51171875 C-9.16085495 34.50213387 -9.16085495 34.50213387 -8.10549927 34.49235535 C-5.95314611 34.45974286 -5.95314611 34.45974286 -3 34 C-0.54621071 30.31931607 -0.69353786 28.31946281 -0.5859375 23.92578125 C-0.56657135 23.2419487 -0.5472052 22.55811615 -0.5272522 21.8535614 C-0.46756003 19.67333375 -0.42111369 17.49305298 -0.375 15.3125 C-0.33681057 13.8326595 -0.29775826 12.352841 -0.2578125 10.87304688 C-0.16024481 7.24881359 -0.08059845 3.62480938 0 0 Z " fill="#EFF4F6" transform="translate(272,113)"/>
<path d="M0 0 C0.33 0 0.66 0 1 0 C1 47.85 1 95.7 1 145 C-23.75 145 -48.5 145 -74 145 C-74 132.79 -74 120.58 -74 108 C-49.58 108 -25.16 108 0 108 C0 72.36 0 36.72 0 0 Z " fill="#006CF0" transform="translate(90,271)"/>
</svg>
