<?xml version="1.0" encoding="UTF-8"?>
<svg version="1.1" xmlns="http://www.w3.org/2000/svg" width="512" height="512">
<path d="M0 0 C0.72407308 -0.00465992 1.44814616 -0.00931984 2.19416085 -0.01412097 C4.62139108 -0.02607561 7.04806203 -0.01667396 9.47529697 -0.00736332 C11.23265488 -0.01153603 12.99001009 -0.01701321 14.74736029 -0.02368313 C19.57741392 -0.0381646 24.4072973 -0.03388458 29.23736036 -0.02651632 C34.4460428 -0.02179365 39.65468794 -0.03428649 44.8633585 -0.04453373 C55.06781241 -0.0617446 65.27220482 -0.06255702 75.47666948 -0.05732083 C83.76928436 -0.05328225 92.06188104 -0.05471896 100.35449505 -0.06006908 C102.12369988 -0.06119172 102.12369988 -0.06119172 103.92864623 -0.06233703 C106.32459891 -0.06386848 108.72055159 -0.06540683 111.11650426 -0.066952 C133.5936758 -0.08068525 156.07081255 -0.07523349 178.5479833 -0.06376678 C199.11939467 -0.0538329 219.69071612 -0.06677632 240.26211362 -0.09070098 C261.37662845 -0.11507259 282.49110136 -0.12470466 303.60562998 -0.11804825 C315.46314138 -0.1145518 327.32058359 -0.11681618 339.17808437 -0.13429928 C349.27181865 -0.148997 359.36543503 -0.1496885 369.45916694 -0.13222837 C374.61040251 -0.12369609 379.76142725 -0.12162313 384.91265202 -0.13687992 C389.62717819 -0.15067062 394.34131179 -0.14603646 399.05581493 -0.12664068 C400.76234255 -0.12286307 402.4689012 -0.1258531 404.17540132 -0.13625234 C406.4943055 -0.1493799 408.81184626 -0.13787827 411.13069153 -0.12025452 C412.41886794 -0.12014718 413.70704434 -0.12003984 415.0342564 -0.11992925 C419.54166 0.50745092 421.87145559 1.83678368 425.62826633 4.38031673 C429.25347292 9.36949495 429.04554021 14.28731198 428.98902988 20.21317196 C428.99159316 21.19835107 428.99415643 22.18353019 428.99679738 23.19856322 C429.00173528 26.49678213 428.98524187 29.7945424 428.96884251 33.09271908 C428.96799624 35.45810593 428.96847137 37.82349357 428.97017002 40.18887997 C428.9710314 46.60987645 428.9533823 53.03070509 428.93244815 59.45166254 C428.91417148 65.48227308 428.91257882 71.5129022 428.90949253 77.54353531 C428.90293075 89.48639385 428.88297701 101.42919083 428.85458469 113.37201595 C428.82703705 124.9716222 428.80580693 136.57121171 428.79306126 148.17084408 C428.79227309 148.88614668 428.79148492 149.60144927 428.79067286 150.33842771 C428.78675768 153.9269809 428.78296657 157.5155342 428.77923715 161.10408759 C428.74814975 190.86287296 428.69509799 220.62158918 428.62826633 250.38031673 C430.02117893 250.36460629 430.02117893 250.36460629 431.44223118 250.34857845 C434.88252323 250.31452469 438.3226366 250.2894318 441.76303196 250.27045345 C443.25296953 250.26038631 444.74288731 250.24673156 446.23275852 250.22943783 C448.37245661 250.20522021 450.51189386 250.1938411 452.65170383 250.18500423 C453.93996067 250.1745306 455.22821751 250.16405697 456.55551243 250.15326595 C459.62826633 250.38031673 459.62826633 250.38031673 461.62826633 252.38031673 C461.90871936 255.34426237 462.04464398 258.16380002 462.06576633 261.13031673 C462.09863743 261.92953548 462.13150852 262.72875423 462.16537571 263.55219173 C462.20289549 267.69983302 461.97865391 270.51780681 459.35092258 273.83344173 C454.52857108 278.3444506 450.91606761 278.67171198 444.43785381 278.63758564 C443.60097941 278.64109171 442.76410502 278.64459779 441.90187079 278.64821011 C439.07900615 278.65756307 436.25634607 278.65259078 433.43347263 278.64774227 C431.39664347 278.65147656 429.35981574 278.6560772 427.3229903 278.66147292 C421.71121758 278.67374556 416.09950429 278.67343745 410.4877212 278.67108417 C404.44125775 278.67067708 398.39481362 278.68170478 392.34835911 278.6911993 C380.49696933 278.70783339 368.64559878 278.7133358 356.79420032 278.71442406 C347.16428973 278.71534255 337.53438561 278.71945614 327.90447712 278.72582531 C325.13420292 278.72762035 322.36392872 278.72939998 319.59365451 278.73117507 C318.56065758 278.73183821 318.56065758 278.73183821 317.50679202 278.73251475 C298.13179805 278.74482585 278.75680633 278.7527156 259.38180828 278.75182819 C258.65109069 278.75179704 257.92037309 278.75176588 257.16751254 278.75173378 C253.46378828 278.75156756 249.76006402 278.75136948 246.05633976 278.75116436 C245.3207441 278.75112447 244.58514845 278.75108458 243.82726202 278.75104348 C242.33970808 278.75096261 240.85215414 278.75087901 239.3646002 278.7507927 C216.21662396 278.74956697 193.06870629 278.7645832 169.9207468 278.79193783 C143.92462341 278.82264543 117.9285385 278.83987114 91.93239582 278.83801138 C89.1614929 278.83786212 86.39059 278.83776471 83.61968708 278.83770275 C82.93740128 278.83767944 82.25511548 278.83765613 81.55215436 278.83763212 C70.56290959 278.83757052 59.57371559 278.85035304 48.58448593 278.86756728 C37.54408903 278.88450424 26.50375168 278.88616904 15.46334495 278.87334864 C9.4798693 278.8667988 3.49657804 278.86677437 -2.4868803 278.88405514 C-7.96069906 278.89970184 -13.43418594 278.89700858 -18.90799619 278.87948687 C-20.89182096 278.87639839 -22.87567 278.8801183 -24.85946618 278.89120702 C-27.54992943 278.90525379 -30.23921653 278.89480069 -32.92963886 278.87809467 C-34.09310063 278.89299921 -34.09310063 278.89299921 -35.28006667 278.90820485 C-41.40367146 278.82745707 -44.79245041 276.71524684 -49.22720242 272.70062923 C-51.05646501 268.9921583 -50.76466161 265.32818764 -50.68423367 261.25531673 C-50.68745632 260.4316058 -50.69067898 259.60789486 -50.69399929 258.75922298 C-50.63898439 252.64756746 -50.63898439 252.64756746 -48.37173367 250.38031673 C-45.29897976 250.15326595 -45.29897976 250.15326595 -41.39517117 250.18500423 C-40.70992367 250.18783413 -40.02467617 250.19066402 -39.3186636 250.19357967 C-37.12784339 250.20478392 -34.93743051 250.22988815 -32.74673367 250.25531673 C-31.26236457 250.26534626 -29.77798906 250.27447215 -28.29360867 250.28266048 C-24.65285106 250.30472379 -21.0123321 250.33925498 -17.37173367 250.38031673 C-17.37542084 249.14987353 -17.37910801 247.91943033 -17.38290691 246.65170097 C-17.46955054 217.43917051 -17.53550183 188.22665682 -17.57599498 159.01402917 C-17.58099777 155.41794446 -17.58617506 151.82186002 -17.59146023 148.22577572 C-17.59303409 147.15190866 -17.59303409 147.15190866 -17.59463975 146.05634732 C-17.61204187 134.46655217 -17.64357848 122.87683643 -17.68034485 111.28708839 C-17.71775967 99.39367902 -17.73997065 87.50031124 -17.74808764 75.60684544 C-17.75308216 68.92697952 -17.76558485 62.24725814 -17.79465389 55.56744862 C-17.82178948 49.28103759 -17.83018226 42.99488097 -17.82416439 36.70841694 C-17.82526544 34.40054855 -17.8332301 32.09267171 -17.84855556 29.78485394 C-17.8684538 26.63406524 -17.86367278 23.48423735 -17.85275173 20.33342648 C-17.8644031 19.41998877 -17.87605446 18.50655107 -17.8880589 17.56543344 C-17.83289129 11.67785242 -16.98752784 8.10708305 -13.37173367 3.38031673 C-8.80593063 0.54508532 -5.33059904 0.00425918 0 0 Z M8.62826633 26.38031673 C8.62826633 95.02031673 8.62826633 163.66031673 8.62826633 234.38031673 C13.90826633 234.38031673 19.18826633 234.38031673 24.62826633 234.38031673 C27.99705751 227.84531203 30.83260849 221.19065386 33.54037571 214.35883236 C36.37938591 207.42089618 39.25753941 201.10808783 46.31576633 197.69281673 C49.1110215 195.9254341 50.39434104 194.93621302 51.68686008 191.86469173 C52.30759854 188.66253752 52.54503873 185.64132572 52.62826633 182.38031673 C52.6708054 180.74449642 52.6708054 180.74449642 52.71420383 179.07562923 C52.51568243 170.97234645 50.90978936 163.29661854 49.00326633 155.44281673 C48.78025852 154.47174984 48.55725071 153.50068295 48.32748508 152.50018978 C46.74530422 146.4252222 44.6349558 142.53333557 40.18124485 138.08319759 C36.62407221 134.18266636 36.14491221 128.73044854 36.32357883 123.61859798 C37.07014357 118.13421858 38.45461011 112.43588701 42.56967258 108.54437923 C43.26963352 108.01586361 43.96959446 107.48734798 44.69076633 106.94281673 C49.27816839 103.41144646 49.77965042 99.94477662 50.87826633 94.43109798 C53.65469222 83.13740727 63.47597373 72.68575522 73.16342258 66.69281673 C87.05207978 59.29727186 102.27401003 56.60010748 117.62826633 61.00531673 C132.03160715 66.16877854 142.14473262 75.10698211 149.62826633 88.38031673 C151.33932854 92.37482493 152.389145 96.4238314 153.44076633 100.63031673 C154.77610216 103.72267338 156.45352695 105.02217075 159.10092258 107.02875423 C163.48312934 110.90661494 165.36419396 116.38893954 165.86654758 122.07953548 C166.03711912 128.94728405 165.52134705 134.56858306 161.62826633 140.38031673 C160.42170383 141.37418392 160.42170383 141.37418392 159.19076633 142.38812923 C155.37371472 146.84523523 154.57188189 151.67111207 153.31576633 157.31781673 C153.05795383 158.44139584 152.80014133 159.56497494 152.53451633 160.72260189 C150.77253462 168.79019409 149.743476 176.12227362 150.62826633 184.38031673 C150.7017429 185.41672298 150.77521946 186.45312923 150.85092258 187.52094173 C151.1736991 190.35543899 151.56013309 192.7358635 152.62826633 195.38031673 C155.55842462 197.56187999 155.55842462 197.56187999 157.77255344 198.46137142 C164.72535623 201.90438546 167.60982184 210.13215886 170.31576633 216.88031673 C170.69281712 217.79168392 171.0698679 218.70305111 171.45834446 219.64203548 C172.16384574 221.34853596 172.86405622 223.05724253 173.55673313 224.76898861 C174.87758657 227.98791056 176.25766987 231.18225831 177.62826633 234.38031673 C251.87826633 234.38031673 326.12826633 234.38031673 402.62826633 234.38031673 C402.62826633 165.74031673 402.62826633 97.10031673 402.62826633 26.38031673 C272.60826633 26.38031673 142.58826633 26.38031673 8.62826633 26.38031673 Z M87.50326633 95.38031673 C85.32589626 98.86410886 85.51546947 99.35254329 86.31576633 103.19281673 C86.53877415 104.15059017 86.76178196 105.10836361 86.99154758 106.09516048 C89.89257704 121.06304866 86.42132033 135.3837502 78.62826633 148.38031673 C77.82389133 149.28781673 77.01951633 150.19531673 76.19076633 151.13031673 C74.30882992 153.31394136 74.30882992 153.31394136 74.94076633 156.19281673 C79.33775908 164.49824748 86.61900931 171.37723106 95.62826633 174.38031673 C104.52119019 175.5853613 111.25875059 173.38544617 118.62826633 168.38031673 C122.63950953 164.86421137 125.90322374 161.62190675 127.56576633 156.48187923 C127.6490258 152.35012824 126.28915887 150.61980011 123.94076633 147.25531673 C116.47646178 136.02560229 112.96174229 123.16072974 115.25326633 109.71234798 C115.41991795 108.72234798 115.41991795 108.72234798 115.58993626 107.71234798 C115.92907306 105.76012835 116.30345409 103.81413257 116.67904758 101.86859798 C116.97602341 98.23976474 116.97602341 98.23976474 114.42123508 95.53656673 C110.28013061 92.33951824 106.28838316 90.77933426 101.12826633 90.00531673 C95.99483265 90.77533179 91.86397023 92.58946624 87.50326633 95.38031673 Z M92.62826633 182.38031673 C92.29826633 188.65031673 91.96826633 194.92031673 91.62826633 201.38031673 C90.30826633 201.71031673 88.98826633 202.04031673 87.62826633 202.38031673 C87.95826633 205.35031673 88.28826633 208.32031673 88.62826633 211.38031673 C95.50688969 214.49516504 102.46200192 215.93555896 109.88607883 213.70062923 C111.99632011 212.83693694 111.99632011 212.83693694 114.62826633 211.38031673 C114.70923437 209.92289211 114.76744408 208.46418867 114.81576633 207.00531673 C114.85057102 206.19320736 114.88537571 205.38109798 114.92123508 204.54437923 C114.8245554 203.83023861 114.72787571 203.11609798 114.62826633 202.38031673 C113.63826633 201.72031673 112.64826633 201.06031673 111.62826633 200.38031673 C111.19589329 198.5009222 111.19589329 198.5009222 111.11654758 196.24750423 C111.08343479 195.52160091 111.050322 194.79569759 111.01620579 194.0477972 C110.99131077 193.12627865 110.96641575 192.20476009 110.94076633 191.25531673 C110.78607883 186.86219173 110.78607883 186.86219173 110.62826633 182.38031673 C104.68826633 182.38031673 98.74826633 182.38031673 92.62826633 182.38031673 Z M92.62826633 222.38031673 C94.79216734 228.91640406 94.79216734 228.91640406 98.62826633 234.38031673 C100.60826633 234.38031673 102.58826633 234.38031673 104.62826633 234.38031673 C106.60826633 230.42031673 108.58826633 226.46031673 110.62826633 222.38031673 C104.68826633 222.38031673 98.74826633 222.38031673 92.62826633 222.38031673 Z M-42.37173367 259.38031673 C-42.26340932 266.89793482 -42.26340932 266.89793482 -39.37173367 269.38031673 C-36.70760909 269.58023414 -34.14708144 269.65344951 -31.48150635 269.64037895 C-30.65279434 269.64418462 -29.82408234 269.64799029 -28.97025785 269.65191129 C-26.16314923 269.66230674 -23.35623985 269.65830637 -20.54911709 269.6544714 C-18.52837485 269.65891949 -16.50763436 269.6642321 -14.48689646 269.67034012 C-8.91042251 269.68458189 -3.33400413 269.68618225 2.2424854 269.68574321 C8.2473472 269.68738598 14.25218573 269.70044223 20.25703526 269.711936 C32.71299821 269.73363426 45.16894869 269.74219649 57.62492649 269.746971 C58.6409577 269.74736276 58.6409577 269.74736276 59.67751479 269.74776244 C60.35618863 269.74802272 61.03486247 269.74828299 61.73410218 269.74855115 C69.24619965 269.75163025 76.75829358 269.75813381 84.2703886 269.76476383 C106.9473548 269.78441405 129.62431716 269.80081739 152.30129242 269.80364037 C153.02698626 269.80373443 153.7526801 269.80382849 154.50036466 269.8039254 C157.44144627 269.80430389 160.38252788 269.80466789 163.32360949 269.80502838 C165.53738508 269.8053001 167.75116067 269.80557678 169.96493626 269.80585384 C171.06220856 269.80598588 171.06220856 269.80598588 172.18164798 269.80612058 C195.17487821 269.8090271 218.16802444 269.83113101 241.16122532 269.86737728 C266.97455584 269.90806783 292.78782912 269.93179866 318.60119349 269.93209988 C321.35157177 269.93219671 324.10195003 269.93236343 326.8523283 269.93257999 C327.52957677 269.93262411 328.20682523 269.93266822 328.90459638 269.93271367 C339.82203158 269.93383538 350.7393829 269.95127092 361.65679105 269.97439931 C372.62121673 269.99719711 383.58554327 270.00107057 394.5499863 269.98685002 C400.49463703 269.97964862 406.43899596 269.98067689 412.38361454 270.00326061 C417.81855882 270.02371117 423.25298439 270.02138166 428.68792219 270.00038577 C430.66098864 269.99686403 432.63409148 270.00191288 434.60711014 270.01609021 C437.27611481 270.03404254 439.94325326 270.02161667 442.61219788 270.0011425 C443.38987441 270.01370587 444.16755094 270.02626925 444.96879342 270.03921333 C447.35808391 270.05629782 447.35808391 270.05629782 450.62826633 269.38031673 C453.7980598 265.85362948 453.62826633 264.27810686 453.62826633 259.38031673 C382.34826633 259.38031673 311.06826633 259.38031673 237.62826633 259.38031673 C237.29826633 260.70031673 236.96826633 262.02031673 236.62826633 263.38031673 C216.16826633 263.38031673 195.70826633 263.38031673 174.62826633 263.38031673 C174.29826633 262.06031673 173.96826633 260.74031673 173.62826633 259.38031673 C102.34826633 259.38031673 31.06826633 259.38031673 -42.37173367 259.38031673 Z " fill="#525250" transform="translate(50.37173366546631,116.61968326568604)"/>
<path d="M0 0 C0.72407308 -0.00465992 1.44814616 -0.00931984 2.19416085 -0.01412097 C4.62139108 -0.02607561 7.04806203 -0.01667396 9.47529697 -0.00736332 C11.23265488 -0.01153603 12.99001009 -0.01701321 14.74736029 -0.02368313 C19.57741392 -0.0381646 24.4072973 -0.03388458 29.23736036 -0.02651632 C34.4460428 -0.02179365 39.65468794 -0.03428649 44.8633585 -0.04453373 C55.06781241 -0.0617446 65.27220482 -0.06255702 75.47666948 -0.05732083 C83.76928436 -0.05328225 92.06188104 -0.05471896 100.35449505 -0.06006908 C102.12369988 -0.06119172 102.12369988 -0.06119172 103.92864623 -0.06233703 C106.32459891 -0.06386848 108.72055159 -0.06540683 111.11650426 -0.066952 C133.5936758 -0.08068525 156.07081255 -0.07523349 178.5479833 -0.06376678 C199.11939467 -0.0538329 219.69071612 -0.06677632 240.26211362 -0.09070098 C261.37662845 -0.11507259 282.49110136 -0.12470466 303.60562998 -0.11804825 C315.46314138 -0.1145518 327.32058359 -0.11681618 339.17808437 -0.13429928 C349.27181865 -0.148997 359.36543503 -0.1496885 369.45916694 -0.13222837 C374.61040251 -0.12369609 379.76142725 -0.12162313 384.91265202 -0.13687992 C389.62717819 -0.15067062 394.34131179 -0.14603646 399.05581493 -0.12664068 C400.76234255 -0.12286307 402.4689012 -0.1258531 404.17540132 -0.13625234 C406.4943055 -0.1493799 408.81184626 -0.13787827 411.13069153 -0.12025452 C412.41886794 -0.12014718 413.70704434 -0.12003984 415.0342564 -0.11992925 C419.54166 0.50745092 421.87145559 1.83678368 425.62826633 4.38031673 C429.25347292 9.36949495 429.04554021 14.28731198 428.98902988 20.21317196 C428.99159316 21.19835107 428.99415643 22.18353019 428.99679738 23.19856322 C429.00173528 26.49678213 428.98524187 29.7945424 428.96884251 33.09271908 C428.96799624 35.45810593 428.96847137 37.82349357 428.97017002 40.18887997 C428.9710314 46.60987645 428.9533823 53.03070509 428.93244815 59.45166254 C428.91417148 65.48227308 428.91257882 71.5129022 428.90949253 77.54353531 C428.90293075 89.48639385 428.88297701 101.42919083 428.85458469 113.37201595 C428.82703705 124.9716222 428.80580693 136.57121171 428.79306126 148.17084408 C428.79227309 148.88614668 428.79148492 149.60144927 428.79067286 150.33842771 C428.78675768 153.9269809 428.78296657 157.5155342 428.77923715 161.10408759 C428.74814975 190.86287296 428.69509799 220.62158918 428.62826633 250.38031673 C430.02117893 250.36460629 430.02117893 250.36460629 431.44223118 250.34857845 C434.88252323 250.31452469 438.3226366 250.2894318 441.76303196 250.27045345 C443.25296953 250.26038631 444.74288731 250.24673156 446.23275852 250.22943783 C448.37245661 250.20522021 450.51189386 250.1938411 452.65170383 250.18500423 C453.93996067 250.1745306 455.22821751 250.16405697 456.55551243 250.15326595 C459.62826633 250.38031673 459.62826633 250.38031673 461.62826633 252.38031673 C461.90871936 255.34426237 462.04464398 258.16380002 462.06576633 261.13031673 C462.09863743 261.92953548 462.13150852 262.72875423 462.16537571 263.55219173 C462.20289549 267.69983302 461.97865391 270.51780681 459.35092258 273.83344173 C454.52857108 278.3444506 450.91606761 278.67171198 444.43785381 278.63758564 C443.60097941 278.64109171 442.76410502 278.64459779 441.90187079 278.64821011 C439.07900615 278.65756307 436.25634607 278.65259078 433.43347263 278.64774227 C431.39664347 278.65147656 429.35981574 278.6560772 427.3229903 278.66147292 C421.71121758 278.67374556 416.09950429 278.67343745 410.4877212 278.67108417 C404.44125775 278.67067708 398.39481362 278.68170478 392.34835911 278.6911993 C380.49696933 278.70783339 368.64559878 278.7133358 356.79420032 278.71442406 C347.16428973 278.71534255 337.53438561 278.71945614 327.90447712 278.72582531 C325.13420292 278.72762035 322.36392872 278.72939998 319.59365451 278.73117507 C318.56065758 278.73183821 318.56065758 278.73183821 317.50679202 278.73251475 C298.13179805 278.74482585 278.75680633 278.7527156 259.38180828 278.75182819 C258.65109069 278.75179704 257.92037309 278.75176588 257.16751254 278.75173378 C253.46378828 278.75156756 249.76006402 278.75136948 246.05633976 278.75116436 C245.3207441 278.75112447 244.58514845 278.75108458 243.82726202 278.75104348 C242.33970808 278.75096261 240.85215414 278.75087901 239.3646002 278.7507927 C216.21662396 278.74956697 193.06870629 278.7645832 169.9207468 278.79193783 C143.92462341 278.82264543 117.9285385 278.83987114 91.93239582 278.83801138 C89.1614929 278.83786212 86.39059 278.83776471 83.61968708 278.83770275 C82.93740128 278.83767944 82.25511548 278.83765613 81.55215436 278.83763212 C70.56290959 278.83757052 59.57371559 278.85035304 48.58448593 278.86756728 C37.54408903 278.88450424 26.50375168 278.88616904 15.46334495 278.87334864 C9.4798693 278.8667988 3.49657804 278.86677437 -2.4868803 278.88405514 C-7.96069906 278.89970184 -13.43418594 278.89700858 -18.90799619 278.87948687 C-20.89182096 278.87639839 -22.87567 278.8801183 -24.85946618 278.89120702 C-27.54992943 278.90525379 -30.23921653 278.89480069 -32.92963886 278.87809467 C-34.09310063 278.89299921 -34.09310063 278.89299921 -35.28006667 278.90820485 C-41.40367146 278.82745707 -44.79245041 276.71524684 -49.22720242 272.70062923 C-51.05646501 268.9921583 -50.76466161 265.32818764 -50.68423367 261.25531673 C-50.68745632 260.4316058 -50.69067898 259.60789486 -50.69399929 258.75922298 C-50.63898439 252.64756746 -50.63898439 252.64756746 -48.37173367 250.38031673 C-45.29897976 250.15326595 -45.29897976 250.15326595 -41.39517117 250.18500423 C-40.70992367 250.18783413 -40.02467617 250.19066402 -39.3186636 250.19357967 C-37.12784339 250.20478392 -34.93743051 250.22988815 -32.74673367 250.25531673 C-31.26236457 250.26534626 -29.77798906 250.27447215 -28.29360867 250.28266048 C-24.65285106 250.30472379 -21.0123321 250.33925498 -17.37173367 250.38031673 C-17.37542084 249.14987353 -17.37910801 247.91943033 -17.38290691 246.65170097 C-17.46955054 217.43917051 -17.53550183 188.22665682 -17.57599498 159.01402917 C-17.58099777 155.41794446 -17.58617506 151.82186002 -17.59146023 148.22577572 C-17.59303409 147.15190866 -17.59303409 147.15190866 -17.59463975 146.05634732 C-17.61204187 134.46655217 -17.64357848 122.87683643 -17.68034485 111.28708839 C-17.71775967 99.39367902 -17.73997065 87.50031124 -17.74808764 75.60684544 C-17.75308216 68.92697952 -17.76558485 62.24725814 -17.79465389 55.56744862 C-17.82178948 49.28103759 -17.83018226 42.99488097 -17.82416439 36.70841694 C-17.82526544 34.40054855 -17.8332301 32.09267171 -17.84855556 29.78485394 C-17.8684538 26.63406524 -17.86367278 23.48423735 -17.85275173 20.33342648 C-17.8644031 19.41998877 -17.87605446 18.50655107 -17.8880589 17.56543344 C-17.83289129 11.67785242 -16.98752784 8.10708305 -13.37173367 3.38031673 C-8.80593063 0.54508532 -5.33059904 0.00425918 0 0 Z M-7.78294349 10.14773059 C-9.52266963 12.59241368 -9.87012146 13.64934063 -9.86392498 16.60505962 C-9.87188917 17.44555536 -9.87985337 18.2860511 -9.8880589 19.1520164 C-9.87640754 20.07030168 -9.86475617 20.98858696 -9.85275173 21.93469906 C-9.85616943 22.91408577 -9.85958713 23.89347249 -9.8631084 24.90253758 C-9.86971135 28.19327737 -9.84767075 31.48320644 -9.82583523 34.77387142 C-9.82470728 37.12911109 -9.82533959 39.48435217 -9.82760525 41.83959103 C-9.82875535 48.24216512 -9.80519775 54.64444094 -9.77730942 61.04694557 C-9.7529689 67.05745428 -9.75081904 73.06799865 -9.74670193 79.07854798 C-9.73794718 90.98371869 -9.71132678 102.88877977 -9.67349148 114.79389095 C-9.63677601 126.35866411 -9.60850786 137.92340734 -9.59146023 149.48822689 C-9.59038824 150.20833812 -9.58931625 150.92844936 -9.58821177 151.67038214 C-9.5789604 157.93430338 -9.5703492 164.19822548 -9.56180096 170.46214771 C-9.52416153 197.4349739 -9.44448022 224.40750951 -9.37173367 251.38031673 C53.32826633 251.38031673 116.02826633 251.38031673 180.62826633 251.38031673 C180.95826633 253.03031673 181.28826633 254.68031673 181.62826633 256.38031673 C197.46826633 256.38031673 213.30826633 256.38031673 229.62826633 256.38031673 C230.28826633 255.06031673 230.94826633 253.74031673 231.62826633 252.38031673 C293.99826633 252.05031673 356.36826633 251.72031673 420.62826633 251.38031673 C420.74474473 208.99947227 420.74474473 208.99947227 420.82357883 166.61859798 C420.83141056 160.90847382 420.83949255 155.1983501 420.8479929 149.48822689 C420.84957539 148.41469119 420.84957539 148.41469119 420.85118985 147.3194679 C420.86859648 135.75874822 420.90013686 124.19810796 420.93687752 112.63743541 C420.97425762 100.77681089 420.99649596 88.91622801 421.00462031 77.055547 C421.0096207 70.39197833 421.02216135 63.72856782 421.05118656 57.06506252 C421.07826664 50.79753848 421.08672626 44.53026944 421.08069706 38.26269245 C421.08180061 35.95840159 421.08979823 33.6541025 421.10508823 31.3498621 C421.12489978 28.21115771 421.1202374 25.07342449 421.1092844 21.93469906 C421.12093577 21.01641378 421.13258713 20.0981285 421.14459157 19.1520164 C421.13662738 18.31152066 421.12866318 17.47102493 421.12045765 16.60505962 C421.12197653 15.88055323 421.12349541 15.15604684 421.12506032 14.40958571 C420.37800892 11.35808291 419.14819805 10.2274236 416.62826633 8.38031673 C413.33193164 7.77920086 413.33193164 7.77920086 409.55671787 7.87695217 C408.84080719 7.87113841 408.1248965 7.86532465 407.38729155 7.85933471 C404.97566035 7.84467522 402.56503749 7.85864683 400.15341282 7.87238216 C398.4121403 7.86777558 396.67087166 7.8614243 394.92961121 7.85347319 C390.13480169 7.83672335 385.34030926 7.84505182 380.54549837 7.85741806 C375.37841418 7.86644317 370.21138571 7.85251147 365.04431248 7.84149837 C354.91810801 7.82368136 344.7920219 7.82756729 334.66581273 7.83914894 C326.43843343 7.84817049 318.21108739 7.84941281 309.98370457 7.84505367 C308.81419897 7.84444074 307.64469338 7.84382781 306.43974823 7.8431963 C304.06416328 7.84191744 301.68857834 7.84062059 299.31299341 7.83930594 C277.01998867 7.82789082 254.72704965 7.84102846 232.43405569 7.8625074 C213.29205392 7.88037921 194.15014916 7.87727537 175.00814915 7.85883236 C152.79669852 7.8374421 130.58530554 7.82898954 108.37384605 7.84128141 C106.00684008 7.84255565 103.6398341 7.84381314 101.2728281 7.84505367 C99.5257605 7.84597933 99.5257605 7.84597933 97.74339861 7.84692368 C89.52278669 7.85038212 81.30221123 7.84453761 73.08160496 7.83513546 C63.06787906 7.82393458 53.05427862 7.82691521 43.04056716 7.84825844 C37.92820086 7.85879462 32.81604399 7.86284707 27.70367908 7.84966183 C23.02808036 7.83778513 18.35288618 7.84422203 13.67732441 7.86557204 C11.98156039 7.87005823 10.28576252 7.86772693 8.59002006 7.85806888 C6.29279238 7.84598384 3.99696798 7.85829746 1.6998148 7.87695217 C-0.2175582 7.87792629 -0.2175582 7.87792629 -2.173666 7.87892008 C-5.42884364 8.13853348 -5.42884364 8.13853348 -7.78294349 10.14773059 Z M-42.37173367 259.38031673 C-42.26340932 266.89793482 -42.26340932 266.89793482 -39.37173367 269.38031673 C-36.70760909 269.58023414 -34.14708144 269.65344951 -31.48150635 269.64037895 C-30.65279434 269.64418462 -29.82408234 269.64799029 -28.97025785 269.65191129 C-26.16314923 269.66230674 -23.35623985 269.65830637 -20.54911709 269.6544714 C-18.52837485 269.65891949 -16.50763436 269.6642321 -14.48689646 269.67034012 C-8.91042251 269.68458189 -3.33400413 269.68618225 2.2424854 269.68574321 C8.2473472 269.68738598 14.25218573 269.70044223 20.25703526 269.711936 C32.71299821 269.73363426 45.16894869 269.74219649 57.62492649 269.746971 C58.6409577 269.74736276 58.6409577 269.74736276 59.67751479 269.74776244 C60.35618863 269.74802272 61.03486247 269.74828299 61.73410218 269.74855115 C69.24619965 269.75163025 76.75829358 269.75813381 84.2703886 269.76476383 C106.9473548 269.78441405 129.62431716 269.80081739 152.30129242 269.80364037 C153.02698626 269.80373443 153.7526801 269.80382849 154.50036466 269.8039254 C157.44144627 269.80430389 160.38252788 269.80466789 163.32360949 269.80502838 C165.53738508 269.8053001 167.75116067 269.80557678 169.96493626 269.80585384 C171.06220856 269.80598588 171.06220856 269.80598588 172.18164798 269.80612058 C195.17487821 269.8090271 218.16802444 269.83113101 241.16122532 269.86737728 C266.97455584 269.90806783 292.78782912 269.93179866 318.60119349 269.93209988 C321.35157177 269.93219671 324.10195003 269.93236343 326.8523283 269.93257999 C327.52957677 269.93262411 328.20682523 269.93266822 328.90459638 269.93271367 C339.82203158 269.93383538 350.7393829 269.95127092 361.65679105 269.97439931 C372.62121673 269.99719711 383.58554327 270.00107057 394.5499863 269.98685002 C400.49463703 269.97964862 406.43899596 269.98067689 412.38361454 270.00326061 C417.81855882 270.02371117 423.25298439 270.02138166 428.68792219 270.00038577 C430.66098864 269.99686403 432.63409148 270.00191288 434.60711014 270.01609021 C437.27611481 270.03404254 439.94325326 270.02161667 442.61219788 270.0011425 C443.38987441 270.01370587 444.16755094 270.02626925 444.96879342 270.03921333 C447.35808391 270.05629782 447.35808391 270.05629782 450.62826633 269.38031673 C453.7980598 265.85362948 453.62826633 264.27810686 453.62826633 259.38031673 C382.34826633 259.38031673 311.06826633 259.38031673 237.62826633 259.38031673 C237.29826633 260.70031673 236.96826633 262.02031673 236.62826633 263.38031673 C216.16826633 263.38031673 195.70826633 263.38031673 174.62826633 263.38031673 C174.29826633 262.06031673 173.96826633 260.74031673 173.62826633 259.38031673 C102.34826633 259.38031673 31.06826633 259.38031673 -42.37173367 259.38031673 Z " fill="#515050" transform="translate(50.37173366546631,116.61968326568604)"/>
<path d="M0 0 C0.71591069 -0.00581376 1.43182137 -0.01162753 2.16942632 -0.01761746 C4.58105752 -0.03227695 6.99168038 -0.01830534 9.40330505 -0.00457001 C11.14457757 -0.00917659 12.88584621 -0.01552787 14.62710667 -0.02347898 C19.42191618 -0.04022882 24.21640861 -0.03190035 29.0112195 -0.01953411 C34.1783037 -0.010509 39.34533216 -0.0244407 44.5124054 -0.0354538 C54.63860987 -0.05327081 64.76469597 -0.04938488 74.89090514 -0.03780323 C83.11828444 -0.02878168 91.34563049 -0.02753936 99.57301331 -0.0318985 C100.7425189 -0.03251143 101.91202449 -0.03312436 103.11696965 -0.03375587 C105.49255459 -0.03503473 107.86813954 -0.03633158 110.24372447 -0.03764623 C132.5367292 -0.04906136 154.82966822 -0.03592371 177.12266219 -0.01444477 C196.26466396 0.00342704 215.40656871 0.0003232 234.54856873 -0.01811981 C256.76001935 -0.03951007 278.97141233 -0.04796263 301.18287182 -0.03567076 C303.54987779 -0.03439652 305.91688378 -0.03313903 308.28388977 -0.0318985 C310.03095737 -0.03097285 310.03095737 -0.03097285 311.81331927 -0.03002849 C320.03393119 -0.02657005 328.25450664 -0.03241456 336.47511292 -0.04181671 C346.48883882 -0.05301759 356.50243925 -0.05003696 366.51615071 -0.02869374 C371.62851702 -0.01815755 376.74067388 -0.01410511 381.85303879 -0.02729034 C386.52863751 -0.03916704 391.20383169 -0.03273014 395.87939346 -0.01138014 C397.57515749 -0.00689395 399.27095535 -0.00922524 400.96669781 -0.01888329 C403.26392549 -0.03096833 405.5597499 -0.01865471 407.85690308 0 C409.77427607 0.00097411 409.77427607 0.00097411 411.73038387 0.00196791 C414.92845154 0.50336456 414.92845154 0.50336456 417.33966136 2.27077842 C419.0793875 4.7154615 419.42683933 5.77238846 419.42064285 8.72810745 C419.42860705 9.56860319 419.43657124 10.40909893 419.44477677 11.27506423 C419.43312541 12.19334951 419.42147404 13.11163478 419.4094696 14.05774689 C419.4128873 15.0371336 419.416305 16.01652031 419.41982627 17.02558541 C419.42642922 20.3163252 419.40438862 23.60625427 419.3825531 26.89691925 C419.38142515 29.25215892 419.38205746 31.6074 419.38432312 33.96263885 C419.38547322 40.36521295 419.36191562 46.76748877 419.33402729 53.1699934 C419.30968678 59.18050211 419.30753691 65.19104647 419.3034198 71.20159581 C419.29466505 83.10676652 419.26804466 95.0118276 419.23020935 106.91693878 C419.19349388 118.48171194 419.16522573 130.04645517 419.1481781 141.61127472 C419.14710611 142.33138595 419.14603412 143.05149719 419.14492965 143.79342997 C419.13567827 150.05735121 419.12706707 156.32127331 419.11851883 162.58519554 C419.08087941 189.55802172 419.0011981 216.53055734 418.92845154 243.50336456 C356.55845154 243.83336456 294.18845154 244.16336456 229.92845154 244.50336456 C229.26845154 245.82336456 228.60845154 247.14336456 227.92845154 248.50336456 C212.08845154 248.50336456 196.24845154 248.50336456 179.92845154 248.50336456 C179.59845154 246.85336456 179.26845154 245.20336456 178.92845154 243.50336456 C116.22845154 243.50336456 53.52845154 243.50336456 -11.07154846 243.50336456 C-11.2327606 183.7294867 -11.2327606 183.7294867 -11.26686096 158.74164581 C-11.27469269 153.03152165 -11.28277468 147.32139793 -11.29127502 141.61127472 C-11.29233002 140.89558425 -11.29338501 140.17989379 -11.29447198 139.44251573 C-11.3118786 127.88179605 -11.34341899 116.32115579 -11.38015965 104.76048324 C-11.41753975 92.89985872 -11.43977809 81.03927583 -11.44790244 69.17859483 C-11.45290283 62.51502616 -11.46544348 55.85161565 -11.49446869 49.18811035 C-11.52154877 42.92058631 -11.53000839 36.65331727 -11.52397919 30.38574028 C-11.52508274 28.08144942 -11.53308036 25.77715033 -11.54837036 23.47290993 C-11.56818191 20.33420553 -11.56351953 17.19647231 -11.55256653 14.05774689 C-11.56421789 13.13946161 -11.57586926 12.22117633 -11.5878737 11.27506423 C-11.5799095 10.43456849 -11.57194531 9.59407276 -11.56373978 8.72810745 C-11.56525866 8.00360106 -11.56677754 7.27909467 -11.56834245 6.53263354 C-10.06601267 0.396023 -5.56365359 0.00282659 0 0 Z M-2.07154846 11.50336456 C-2.26949493 14.40705754 -2.34071457 17.21549918 -2.32551575 20.12042999 C-2.32863573 21.02319278 -2.33175571 21.92595557 -2.33497024 22.85607481 C-2.34298604 25.89937726 -2.33661269 28.94248229 -2.33033752 31.98578644 C-2.3330458 34.16014982 -2.3366058 36.33451228 -2.34095764 38.50887299 C-2.35010339 44.42814429 -2.3465284 50.34734616 -2.34019947 56.26661873 C-2.33515076 62.44901091 -2.33982777 68.63139697 -2.3429718 74.81378937 C-2.34661475 85.19779279 -2.34180374 95.5817678 -2.33229065 105.96576691 C-2.32140548 117.98659925 -2.32493082 130.00735251 -2.33594346 142.02818441 C-2.34500698 152.33221058 -2.3463062 162.63621628 -2.34106612 172.94024515 C-2.33794126 179.10175343 -2.33755117 185.26322977 -2.3441391 191.42473602 C-2.34989836 197.21619545 -2.34594179 203.00756706 -2.33435059 208.79901695 C-2.33169637 210.92997784 -2.33248197 213.06094606 -2.33687592 215.19190407 C-2.34230289 218.090137 -2.33553208 220.98808462 -2.32551575 223.88629913 C-2.32997719 224.73900878 -2.33443863 225.59171844 -2.33903527 226.47026777 C-2.50242895 230.96028688 -2.50242895 230.96028688 -0.07154846 234.50336456 C2.93444309 234.80847456 2.93444309 234.80847456 6.54084778 234.75504684 C7.23141274 234.75795373 7.9219777 234.76086061 8.63346887 234.76385558 C10.97065241 234.77121252 13.30757807 234.76418599 15.64476013 234.75733185 C17.32798078 234.75963404 19.01120043 234.76280892 20.69441795 234.76678634 C25.33790722 234.77517626 29.98131484 234.77099014 34.6248045 234.7648139 C39.62554175 234.76030748 44.62626449 234.76726413 49.6269989 234.77277374 C59.43059516 234.78168882 69.23416087 234.77973635 79.03775835 234.77394846 C87.00203738 234.76944027 94.96630783 234.7688154 102.93058777 234.77099609 C104.06208673 234.77130256 105.19358569 234.77160903 106.3593725 234.77192478 C108.65765397 234.7725642 110.95593544 234.77321262 113.25421691 234.77386996 C134.82893243 234.77957945 156.40363099 234.77300567 177.97834373 234.76226923 C196.50924754 234.75333316 215.0401263 234.75488503 233.57102966 234.76410675 C255.06608048 234.77479847 276.56111641 234.77903007 298.05616951 234.77288222 C300.34621811 234.77224509 302.63626671 234.77161635 304.92631531 234.77099609 C306.61664369 234.77053327 306.61664369 234.77053327 308.34112012 234.77006109 C316.30014551 234.76833085 324.25916149 234.77125632 332.21818542 234.7759552 C341.91138566 234.78155186 351.60455349 234.78007329 361.29775 234.76939371 C366.24778115 234.76412056 371.19775819 234.76210805 376.147789 234.76869202 C380.67275272 234.77461979 385.19761177 234.7714293 389.72256589 234.76073691 C391.36586759 234.75848932 393.009178 234.75966927 394.65247416 234.76448849 C396.8737964 234.77050679 399.0947527 234.76439725 401.3160553 234.75504684 C402.55361887 234.75472214 403.79118244 234.75439744 405.06624794 234.75406289 C408.05945275 234.80083744 408.05945275 234.80083744 409.92845154 232.50336456 C410.12639801 229.59967159 410.19761765 226.79122994 410.18241882 223.88629913 C410.1855388 222.98353634 410.18865879 222.08077355 410.19187331 221.15065432 C410.19988911 218.10735187 410.19351577 215.06424684 410.1872406 212.02094269 C410.18994887 209.84657931 410.19350888 207.67221685 410.19786072 205.49785614 C410.20700647 199.57858484 410.20343148 193.65938297 410.19710255 187.7401104 C410.19205384 181.55771822 410.19673084 175.37533216 410.19987488 169.19293976 C410.20351783 158.80893634 410.19870681 148.42496133 410.18919373 138.04096222 C410.17830856 126.02012988 410.1818339 113.99937661 410.19284654 101.97854471 C410.20191006 91.67451854 410.20320928 81.37051284 410.1979692 71.06648397 C410.19484434 64.9049757 410.19445425 58.74349935 410.20104218 52.5819931 C410.20680143 46.79053368 410.20284487 40.99916207 410.19125366 35.20771217 C410.18859945 33.07675129 410.18938504 30.94578307 410.19377899 28.81482506 C410.19920596 25.91659213 410.19243516 23.01864451 410.18241882 20.12042999 C410.18688027 19.26772034 410.19134171 18.41501069 410.19593835 17.53646135 C410.35933203 13.04644224 410.35933203 13.04644224 407.92845154 9.50336456 C404.92245998 9.19825457 404.92245998 9.19825457 401.3160553 9.25168228 C400.62549034 9.2487754 399.93492538 9.24586852 399.22343421 9.24287355 C396.88625067 9.2355166 394.54932501 9.24254314 392.21214294 9.24939728 C390.52892229 9.24709509 388.84570265 9.2439202 387.16248512 9.23994279 C382.51899586 9.23155287 377.87558824 9.23573899 373.23209858 9.24191523 C368.23136133 9.24642165 363.23063859 9.23946499 358.22990417 9.23395538 C348.42630792 9.2250403 338.6227422 9.22699278 328.81914473 9.23278067 C320.85486569 9.23728886 312.89059525 9.23791372 304.92631531 9.23573303 C303.79481635 9.23542657 302.66331739 9.2351201 301.49753058 9.23480435 C299.19924911 9.23416493 296.90096764 9.2335165 294.60268617 9.23285916 C273.02797064 9.22714968 251.45327209 9.23372345 229.87855935 9.2444599 C211.34765554 9.25339597 192.81677678 9.2518441 174.28587341 9.24262238 C152.7908226 9.23193065 131.29578667 9.22769906 109.80073357 9.2338469 C107.51068497 9.23448403 105.22063637 9.23511277 102.93058777 9.23573303 C101.24025938 9.23619586 101.24025938 9.23619586 99.51578295 9.23666804 C91.55675756 9.23839828 83.59774158 9.23547281 75.63871765 9.23077393 C65.94551741 9.22517727 56.25234958 9.22665584 46.55915308 9.23733541 C41.60912192 9.24260857 36.65914489 9.24462107 31.70911407 9.23803711 C27.18415036 9.23210934 22.65929131 9.23529983 18.13433719 9.24599221 C16.49103549 9.2482398 14.84772508 9.24705985 13.20442891 9.24224064 C10.98310668 9.23622234 8.76215038 9.24233187 6.54084778 9.25168228 C5.30328421 9.25200699 4.06572063 9.25233169 2.79065514 9.25266623 C-0.20254967 9.20589169 -0.20254967 9.20589169 -2.07154846 11.50336456 Z " fill="#F4AC3A" transform="translate(52.07154846191406,124.49663543701172)"/>
<path d="M0 0 C1.12159012 -0.00960754 2.24318024 -0.01921509 3.39875793 -0.02911377 C4.61125717 -0.03336365 5.82375641 -0.03761353 7.07299805 -0.04199219 C8.31969772 -0.04769226 9.5663974 -0.05339233 10.85087585 -0.05926514 C13.49127858 -0.06871885 16.13156756 -0.07561372 18.77197266 -0.07910156 C21.47523461 -0.08349156 24.17817833 -0.09740285 26.88134766 -0.12011719 C30.77866312 -0.15057798 34.6755768 -0.16114975 38.57299805 -0.16699219 C40.38263786 -0.18551239 40.38263786 -0.18551239 42.22883606 -0.20440674 C52.7574146 -0.1764704 52.7574146 -0.1764704 57.5222168 3.16113281 C61.23706381 7.17718363 62.65635534 10.17449004 62.61987305 15.61035156 C62.61503906 16.88168945 62.61503906 16.88168945 62.61010742 18.17871094 C62.59753906 19.50032227 62.59753906 19.50032227 62.5847168 20.84863281 C62.58020508 21.74130859 62.57569336 22.63398438 62.57104492 23.55371094 C62.55926662 25.75625268 62.54281844 27.9586588 62.5222168 30.16113281 C63.39434814 30.14542236 64.26647949 30.12971191 65.16503906 30.11352539 C68.42844697 30.0621246 71.69141911 30.02465188 74.95507812 29.99633789 C76.36237413 29.98133405 77.76962404 29.96092418 79.17675781 29.93481445 C81.20999586 29.89805616 83.24261111 29.88132297 85.27612305 29.86816406 C86.49630127 29.85245361 87.71647949 29.83674316 88.97363281 29.82055664 C94.60550763 30.36107713 98.22337368 31.9882242 102.42041016 35.77832031 C105.13612154 40.14919926 105.23212991 43.24444782 105.15112305 48.28613281 C105.153535 49.15125488 105.15594696 50.01637695 105.15843201 50.90771484 C105.15745609 52.72986452 105.14412352 54.55204478 105.11914062 56.37402344 C105.08481664 59.15304931 105.0984976 61.92889431 105.11791992 64.70800781 C105.11102101 66.48406293 105.10134821 68.26010988 105.08862305 70.03613281 C105.09606285 71.27387451 105.09606285 71.27387451 105.10365295 72.53662109 C104.99574636 77.8583203 104.06200125 80.94785491 100.5222168 85.16113281 C97.0279555 87.46416867 94.77852664 88.14079076 90.5847168 88.47363281 C86.24146973 88.85491023 84.20005469 90.81342761 81.10424805 93.72753906 C77.97391517 96.5641617 75.13559339 97.08446074 71.0222168 97.59863281 C67.5222168 97.16113281 67.5222168 97.16113281 64.5847168 94.91113281 C62.5222168 92.16113281 62.5222168 92.16113281 62.5222168 88.16113281 C61.76602051 88.17684326 61.00982422 88.19255371 60.23071289 88.20874023 C56.78629103 88.27131328 53.34198906 88.31019486 49.8972168 88.34863281 C48.70741211 88.37376953 47.51760742 88.39890625 46.29174805 88.42480469 C35.14698296 88.51819657 35.14698296 88.51819657 30.5222168 85.16113281 C26.63471779 80.11789086 25.43104979 76.23562828 24.9597168 69.97363281 C24.87592773 68.88695312 24.79213867 67.80027344 24.70581055 66.68066406 C24.64522461 65.84921875 24.58463867 65.01777344 24.5222168 64.16113281 C23.94987305 64.65613281 23.3775293 65.15113281 22.7878418 65.66113281 C19.56872918 67.79240737 17.60748156 67.35756019 13.90893555 66.81347656 C9.0529024 65.48621382 5.05285726 62.69177328 1.5222168 59.16113281 C-0.04968679 58.83035454 -1.6365078 58.56803594 -3.2277832 58.34863281 C-8.9135808 57.30514106 -12.23937893 55.3815467 -15.61303711 50.52783203 C-16.91393052 46.9674535 -16.80319524 43.41320198 -16.8137207 39.66894531 C-16.8203775 38.84538544 -16.8270343 38.02182556 -16.83389282 37.17330933 C-16.84400323 35.43343331 -16.84871034 33.69351864 -16.84838867 31.95361328 C-16.85275693 29.30207874 -16.88907785 26.65221624 -16.92700195 24.00097656 C-16.9328716 22.30697181 -16.93684 20.61295919 -16.9387207 18.91894531 C-16.95309174 18.13125763 -16.96746277 17.34356995 -16.98226929 16.53201294 C-16.93902758 11.2795253 -15.90901496 8.35344225 -12.4777832 4.16113281 C-8.50356814 0.66864078 -5.19973382 0.03594085 0 0 Z M-2.4777832 15.16113281 C-2.07249419 17.94350936 -2.07249419 17.94350936 -0.4777832 20.16113281 C0.99026972 20.25936026 2.4629914 20.28911651 3.93432617 20.29052734 C5.34083435 20.29525558 5.34083435 20.29525558 6.77575684 20.30007935 C7.79552612 20.29805511 8.81529541 20.29603088 9.8659668 20.29394531 C10.90539429 20.29490204 11.94482178 20.29585876 13.01574707 20.29684448 C15.21826233 20.29752644 17.42077959 20.29567108 19.62329102 20.29150391 C23.00761399 20.28615589 26.39180424 20.2914484 29.77612305 20.29785156 C31.91023793 20.29719078 34.04435272 20.29590963 36.1784668 20.29394531 C37.19823608 20.29596954 38.21800537 20.29799377 39.26867676 20.30007935 C40.20634888 20.29692719 41.144021 20.29377502 42.11010742 20.29052734 C42.93982056 20.28973175 43.76953369 20.28893616 44.62438965 20.28811646 C46.53323203 20.36955833 46.53323203 20.36955833 47.5222168 19.16113281 C47.68888346 16.66113281 47.68888346 16.66113281 47.5222168 14.16113281 C45.93863075 12.57754677 44.32231319 13.02599618 42.12597656 13.01586914 C41.19153214 13.00948929 40.25708771 13.00310944 39.29432678 12.99653625 C38.27769455 12.99542343 37.26106232 12.99431061 36.21362305 12.99316406 C35.17656723 12.98983566 34.13951141 12.98650726 33.07102966 12.983078 C30.87271571 12.97800422 28.67439402 12.97566982 26.47607422 12.97583008 C23.10265479 12.97364443 19.72956263 12.95549567 16.35620117 12.93652344 C14.22534292 12.93358952 12.09448311 12.93160471 9.96362305 12.93066406 C8.94901505 12.92347855 7.93440704 12.91629303 6.88905334 12.90888977 C5.95145676 12.9119664 5.01386017 12.91504303 4.04785156 12.91821289 C2.80661278 12.91607536 2.80661278 12.91607536 1.54029846 12.91389465 C-0.706078 12.9788453 -0.706078 12.9788453 -2.4777832 15.16113281 Z M-1.4777832 26.16113281 C-2.31111654 28.07779948 -2.31111654 28.07779948 -2.4777832 30.16113281 C-2.1477832 30.82113281 -1.8177832 31.48113281 -1.4777832 32.16113281 C3.69793009 33.88637058 9.24521722 33.3470505 14.66357422 33.34643555 C16.81652825 33.34861441 18.96896327 33.36676011 21.12182617 33.38574219 C22.50138172 33.38867799 23.88093969 33.39066153 25.26049805 33.39160156 C26.50871338 33.39571045 27.75692871 33.39981934 29.04296875 33.40405273 C32.54364026 33.15963703 35.25080641 32.38403755 38.5222168 31.16113281 C40.13941308 30.89901843 41.76564469 30.68445755 43.3972168 30.53613281 C44.17838867 30.46136719 44.95956055 30.38660156 45.7644043 30.30957031 C46.63452148 30.23609375 46.63452148 30.23609375 47.5222168 30.16113281 C47.17434971 28.18576536 47.17434971 28.18576536 46.5222168 26.16113281 C44.22960545 25.01482714 42.94341224 25.03443963 40.39550781 25.03173828 C39.11892052 25.02701004 39.11892052 25.02701004 37.81654358 25.02218628 C36.8957048 25.02421051 35.97486603 25.02623474 35.02612305 25.02832031 C34.08163803 25.02736359 33.13715302 25.02640686 32.16404724 25.02542114 C30.16421441 25.02473988 28.16437938 25.0265904 26.16455078 25.03076172 C23.10077954 25.0361048 20.0371553 25.03081795 16.97338867 25.02441406 C15.03263314 25.02507497 13.0918777 25.02635639 11.15112305 25.02832031 C10.2323085 25.02629608 9.31349396 25.02427185 8.36683655 25.02218628 C7.51262619 25.02533844 6.65841583 25.0284906 5.77832031 25.03173828 C5.02712418 25.03253387 4.27592804 25.03332947 3.50196838 25.03414917 C1.3099208 25.09031238 1.3099208 25.09031238 -1.4777832 26.16113281 Z M-2.4777832 40.16113281 C-2.07249419 42.94350936 -2.07249419 42.94350936 -0.4777832 45.16113281 C1.44889187 45.24861489 3.37873541 45.26810615 5.30737305 45.25878906 C6.47719727 45.25556641 7.64702148 45.25234375 8.85229492 45.24902344 C10.08399414 45.24064453 11.31569336 45.23226562 12.5847168 45.22363281 C13.8202832 45.21912109 15.05584961 45.21460938 16.32885742 45.20996094 C19.39335797 45.19812889 22.45776401 45.18164454 25.5222168 45.16113281 C26.1822168 42.85113281 26.8422168 40.54113281 27.5222168 38.16113281 C23.57124702 38.11173619 19.6203965 38.07541526 15.66918945 38.05126953 C13.6631032 38.03625174 11.65710355 38.01084301 9.65112305 37.98535156 C7.76586914 37.97568359 7.76586914 37.97568359 5.8425293 37.96582031 C4.67995605 37.95534668 3.51738281 37.94487305 2.31958008 37.93408203 C-0.616886 37.86851285 -0.616886 37.86851285 -2.4777832 40.16113281 Z " fill="#535250" transform="translate(220.477783203125,153.8388671875)"/>
<path d="M0 0 C0.77762695 -0.0065712 1.55525391 -0.0131424 2.35644531 -0.01991272 C4.9313975 -0.03963091 7.50629133 -0.05130644 10.08129883 -0.0612793 C11.40265052 -0.06739259 11.40265052 -0.06739259 12.75069618 -0.07362938 C17.41533803 -0.09448613 22.07995052 -0.10878825 26.74462891 -0.11816406 C31.55194545 -0.12921373 36.35879725 -0.16359798 41.16594982 -0.20333576 C44.87127007 -0.22954224 48.57648039 -0.23785958 52.28188515 -0.24144554 C54.05322716 -0.2463029 55.82456455 -0.25789257 57.59581566 -0.27648354 C60.08247522 -0.30095622 62.56794319 -0.2998953 65.0546875 -0.29296875 C65.77862198 -0.30577881 66.50255646 -0.31858887 67.24842834 -0.33178711 C72.66056621 -0.27718025 76.81586334 1.2088544 81.35083008 4.17700195 C86.10747669 9.18598057 85.93749795 14.06857612 85.88208008 20.61450195 C85.88782043 22.11194946 85.88782043 22.11194946 85.89367676 23.63964844 C85.89639118 25.7442323 85.889063 27.84885017 85.87231445 29.95336914 C85.85089872 33.16670256 85.87213273 36.37780021 85.89770508 39.59106445 C85.89506172 41.64054853 85.88993658 43.69003123 85.88208008 45.73950195 C85.890177 46.69590576 85.89827393 47.65230957 85.90661621 48.63769531 C85.82505346 54.46695649 85.16223192 57.70135766 81.35083008 62.17700195 C76.7275175 66.23991301 72.42684106 66.33288472 66.50219727 66.35400391 C65.70345688 66.3605751 64.90471649 66.3671463 64.08177185 66.37391663 C61.43708195 66.39363478 58.79244883 66.40530941 56.14770508 66.4152832 C55.24349068 66.41935873 54.33927628 66.42343426 53.40766144 66.42763329 C48.62097909 66.44848851 43.83432536 66.46279214 39.04760742 66.47216797 C34.11016193 66.48322642 29.17316785 66.51762133 24.23588181 66.55733967 C20.43366676 66.58351931 16.63155902 66.59186104 12.82926178 66.59544945 C11.00964563 66.60031255 9.19003419 66.61191867 7.37050629 66.63048744 C4.81899026 66.65490614 2.26863878 66.65390908 -0.28295898 66.64697266 C-1.02919022 66.65978271 -1.77542145 66.67259277 -2.54426575 66.68579102 C-7.98731873 66.63207834 -11.1615896 65.28552135 -15.64916992 62.17700195 C-19.89180903 56.65429704 -20.23180065 52.12016542 -20.14526367 45.2980957 C-20.1467189 44.36780045 -20.14817413 43.43750519 -20.14967346 42.47901917 C-20.14802068 40.52162529 -20.13652938 38.56421758 -20.11572266 36.60693359 C-20.08672291 33.61996021 -20.09513613 30.63475937 -20.1081543 27.64770508 C-20.1019173 25.73949338 -20.09352666 23.83128724 -20.08276367 21.9230957 C-20.08569931 21.03545029 -20.08863495 20.14780487 -20.09165955 19.23326111 C-20.00390956 13.4369899 -19.21313319 8.98801376 -15.14916992 4.5324707 C-10.00588826 0.52767587 -6.33129998 0.02319205 0 0 Z M26.35083008 23.17700195 C25.66479639 27.03594143 26.3432456 29.58592566 28.10083008 32.98950195 C29.98485805 36.25879116 29.98485805 36.25879116 32.60083008 37.11450195 C33.17833008 37.13512695 33.75583008 37.15575195 34.35083008 37.17700195 C38.4388987 32.16582106 39.92229182 29.80595818 39.35083008 23.17700195 C37.3763099 20.32491726 36.25607383 19.3580507 32.85083008 18.67700195 C29.48069128 19.35102971 28.33406001 20.38578946 26.35083008 23.17700195 Z M15.35083008 44.17700195 C11.60410123 50.29553382 11.60410123 50.29553382 10.35083008 57.17700195 C12.00083008 57.17700195 13.65083008 57.17700195 15.35083008 57.17700195 C16.01083008 54.86700195 16.67083008 52.55700195 17.35083008 50.17700195 C19.66083008 50.17700195 21.97083008 50.17700195 24.35083008 50.17700195 C24.35083008 52.48700195 24.35083008 54.79700195 24.35083008 57.17700195 C29.96083008 57.17700195 35.57083008 57.17700195 41.35083008 57.17700195 C42.01083008 54.86700195 42.67083008 52.55700195 43.35083008 50.17700195 C45.00083008 50.17700195 46.65083008 50.17700195 48.35083008 50.17700195 C49.01083008 52.48700195 49.67083008 54.79700195 50.35083008 57.17700195 C52.00083008 57.17700195 53.65083008 57.17700195 55.35083008 57.17700195 C54.81336857 50.45873313 52.54666514 46.85317594 48.35083008 41.73950195 C46.52757122 39.98461319 46.52757122 39.98461319 44.47583008 40.17700195 C42.14119902 41.17736605 42.14119902 41.17736605 39.66333008 43.30200195 C35.74769387 45.51839981 33.79621863 45.49812891 29.46801758 44.8059082 C26.4981744 43.92372231 24.58430615 42.27511583 22.35083008 40.17700195 C18.97349705 40.17700195 17.73744251 41.84589214 15.35083008 44.17700195 Z " fill="#525150" transform="translate(354.649169921875,181.822998046875)"/>
<path d="M0 0 C1.11125244 -0.00945648 2.22250488 -0.01891296 3.36743164 -0.02865601 C5.16748657 -0.01954697 5.16748657 -0.01954697 7.00390625 -0.01025391 C8.2355249 -0.01312408 9.46714355 -0.01599426 10.73608398 -0.01895142 C14.00988582 -0.02151799 17.28326162 -0.00943251 20.55700684 0.00732422 C22.5645101 0.01317806 24.57161994 0.00734564 26.57910156 -0.00292969 C30.4292232 -0.02142621 34.27876059 -0.01922633 38.12890625 -0.01025391 C39.32894287 -0.0163266 40.52897949 -0.02239929 41.76538086 -0.02865601 C43.43225952 -0.01447128 43.43225952 -0.01447128 45.1328125 0 C46.6014978 0.00358017 46.6014978 0.00358017 48.09985352 0.00723267 C50.56640625 0.38818359 50.56640625 0.38818359 52.38075256 1.70005798 C54.35277246 4.50780643 54.01357487 7.66862286 54 10.97802734 C54.00524185 11.71896133 54.0104837 12.45989532 54.0158844 13.22328186 C54.02230308 14.7892227 54.02096953 16.35521176 54.01245117 17.92114258 C54.00394767 20.31402752 54.03268903 22.70451936 54.06445312 25.09716797 C54.06606547 26.61995371 54.06548696 28.14274368 54.0625 29.66552734 C54.07935097 30.73600563 54.07935097 30.73600563 54.09654236 31.82810974 C54.04863709 35.25324614 53.79852627 37.08255941 51.70141602 39.84375 C49.00759408 41.79241982 47.36209204 41.82115655 44.06640625 41.82568359 C39.58003636 41.93875412 39.58003636 41.93875412 36.25390625 44.82568359 C35.69703125 45.67130859 35.14015625 46.51693359 34.56640625 47.38818359 C31.31640625 48.70068359 31.31640625 48.70068359 28.56640625 49.38818359 C27.90640625 47.07818359 27.24640625 44.76818359 26.56640625 42.38818359 C25.64827148 42.37883789 24.73013672 42.36949219 23.78417969 42.35986328 C20.36935347 42.31578428 16.95577517 42.25414627 13.54150391 42.18066406 C12.06538429 42.15248271 10.58911456 42.13125394 9.11279297 42.1171875 C6.98717568 42.09571662 4.86335746 42.04905317 2.73828125 41.99755859 C1.46049805 41.97661133 0.18271484 41.95566406 -1.13378906 41.93408203 C-4.43359375 41.38818359 -4.43359375 41.38818359 -6.85083008 39.83276367 C-9.01341297 36.49265222 -8.99032961 33.51789133 -8.9296875 29.66552734 C-8.93114273 28.92363663 -8.93259796 28.18174591 -8.93409729 27.41737366 C-8.93244108 25.85316021 -8.9209107 24.28893001 -8.90014648 22.72485352 C-8.87114634 20.33002653 -8.87955019 17.93740818 -8.89257812 15.54248047 C-8.88634163 14.02098534 -8.87795137 12.49949718 -8.8671875 10.97802734 C-8.87012314 10.26235092 -8.87305878 9.5466745 -8.87608337 8.80931091 C-8.7825183 3.88497998 -8.7825183 3.88497998 -7.24794006 1.70005798 C-4.75623018 -0.10158835 -3.06082335 0.00746128 0 0 Z " fill="#F8AF3A" transform="translate(263.43359375,192.61181640625)"/>
<path d="M0 0 C0.78419815 -0.0071553 1.5683963 -0.01431061 2.37635803 -0.02168274 C4.96569269 -0.03857641 7.5532975 -0.01916479 10.14257812 0.00219727 C11.94332014 0.00136862 13.74406209 -0.00109059 15.5447998 -0.00511169 C19.31769596 -0.00797014 23.08999862 0.00673573 26.86279297 0.03417969 C31.69862734 0.0682628 36.53340041 0.06224485 41.36928558 0.04351711 C45.08739057 0.03294779 48.80524866 0.04188427 52.52333069 0.05690193 C54.30631273 0.06208472 56.08932055 0.06160076 57.87229919 0.05535698 C60.36464871 0.04990547 62.85547977 0.07027603 65.34765625 0.09765625 C66.08440079 0.09113037 66.82114532 0.08460449 67.58021545 0.07788086 C70.95355001 0.140887 72.86792189 0.40932468 75.62962341 2.41152954 C77.2758739 4.77777976 77.68165383 5.83956882 77.70727539 8.67773438 C77.72311172 9.46212387 77.73894806 10.24651337 77.75526428 11.05467224 C77.75030441 11.893293 77.74534454 12.73191376 77.74023438 13.59594727 C77.74643295 14.4662709 77.75263153 15.33659454 77.75901794 16.23329163 C77.76611269 18.07153201 77.76294807 19.9098367 77.75024414 21.74804688 C77.73639042 24.5559767 77.77043633 27.36056516 77.80859375 30.16821289 C77.80954511 31.95662516 77.8076852 33.74504159 77.80273438 35.53344727 C77.81599258 36.37004379 77.82925079 37.20664032 77.84291077 38.06858826 C77.77342413 42.43491177 77.57288359 44.12582815 74.77441406 47.66918945 C70.90912399 50.5852119 68.87143415 50.02920572 64.17382812 49.63110352 C63.94695312 48.33172852 63.72007812 47.03235352 63.48632812 45.69360352 C61.37842209 36.43335426 56.75154439 30.25166128 49.17382812 24.63110352 C48.51382813 24.30110352 47.85382813 23.97110352 47.17382812 23.63110352 C47.22023438 22.90665039 47.26664062 22.18219727 47.31445312 21.43579102 C47.54342765 15.30254489 47.54693885 11.35879079 43.17382812 6.63110352 C39.17965199 3.0000343 34.92452168 3.18652562 29.76757812 3.34594727 C26.48952716 3.7063354 24.62602681 4.40879846 22.17382812 6.63110352 C19.43087606 10.44075916 18.94025504 12.86158805 19.04882812 17.50610352 C18.73885053 23.02505252 18.73885053 23.02505252 16.29101562 25.65063477 C14.70124443 26.77082008 13.09247068 27.86447096 11.46679688 28.93188477 C5.68485615 33.2166279 3.71849204 40.05383935 2.53320312 46.88110352 C2.17382812 48.63110352 2.17382812 48.63110352 1.17382812 49.63110352 C-6.0558015 50.22369611 -6.0558015 50.22369611 -9.26367188 47.75610352 C-12.24508542 43.70138109 -12.01969041 40.17832996 -12.06445312 35.29907227 C-12.07252487 34.47031082 -12.08059662 33.64154938 -12.08891296 32.78767395 C-12.10275408 31.03164767 -12.11347612 29.27559448 -12.12133789 27.51953125 C-12.13853839 24.83940342 -12.18242113 22.16051324 -12.2265625 19.48071289 C-12.23669067 17.77434175 -12.24520639 16.06796013 -12.25195312 14.36157227 C-12.26946121 13.56244919 -12.2869693 12.76332611 -12.30500793 11.93998718 C-12.30208237 11.18603165 -12.2991568 10.43207611 -12.29614258 9.65527344 C-12.30200882 8.99734299 -12.30787506 8.33941254 -12.31391907 7.6615448 C-10.67144223 0.82408304 -6.27369518 -0.09956409 0 0 Z " fill="#F6AE3A" transform="translate(354.826171875,190.368896484375)"/>
<path d="M0 0 C0.8863916 0.00281982 1.7727832 0.00563965 2.68603516 0.00854492 C3.68836182 0.01398315 3.68836182 0.01398315 4.7109375 0.01953125 C4.79730469 1.3240625 4.88367188 2.62859375 4.97265625 3.97265625 C5.75923845 14.24541976 6.8528105 22.80154668 11.7109375 32.01953125 C12.3709375 33.33953125 13.0309375 34.65953125 13.7109375 36.01953125 C-4.1090625 36.01953125 -21.9290625 36.01953125 -40.2890625 36.01953125 C-38.08938827 25.02116009 -33.78402468 12.20586451 -24.5078125 5.328125 C-16.68934097 0.71687859 -8.95956626 -0.0371458 0 0 Z " fill="#F8AF3A" transform="translate(125.2890625,314.98046875)"/>
<path d="M0 0 C10.59591083 -0.35319703 22.27554602 0.30448881 31 7 C36.02999022 12.47076256 38.78793956 18.54706081 41.375 25.4375 C41.72949219 26.34693359 42.08398438 27.25636719 42.44921875 28.19335938 C45 34.78698118 45 34.78698118 45 36 C27.18 36 9.36 36 -9 36 C-7.68704189 32.06112567 -6.31223401 28.31610091 -4.74072266 24.4921875 C-1.39671183 16.19822751 -0.02817004 9.01441234 0 0 Z " fill="#F8AF3A" transform="translate(174,315)"/>
<path d="M0 0 C0 4.95 0 9.9 0 15 C-2.2275 15.7734375 -2.2275 15.7734375 -4.5 16.5625 C-14.90636414 20.83365933 -19.7248527 27.58708432 -24.08935547 37.73193359 C-26.2590384 43.13578197 -28.16876094 48.65188881 -29.984375 54.18383789 C-32.02001395 60.15279082 -34.44171476 65.51190972 -39 70 C-42.5625 71.25 -42.5625 71.25 -46 71 C-49.5665278 68.86008332 -51.46267701 66.82290053 -53 63 C-53.57554161 57.98456598 -53.65207939 53.44591518 -51.5625 48.8125 C-51.046875 48.214375 -50.53125 47.61625 -50 47 C-49.67 47 -49.34 47 -49 47 C-48.34 51.95 -47.68 56.9 -47 62 C-45.35 62 -43.7 62 -42 62 C-40.73056876 60.95954496 -40.73056876 60.95954496 -40.93408203 58.65844727 C-40.95841309 57.63807373 -40.98274414 56.6177002 -41.0078125 55.56640625 C-41.02457031 54.44169922 -41.04132813 53.31699219 -41.05859375 52.15820312 C-41.10221847 49.79605259 -41.1540483 47.43403661 -41.21484375 45.07226562 C-41.38904972 31.11203246 -37.5893068 22.23621237 -28.12109375 11.9609375 C-20.33843385 4.5844707 -10.65595542 0 0 0 Z " fill="#F5AD3A" transform="translate(148,184)"/>
<path d="M0 0 C11.7481141 0.75794285 20.52595801 4.72534723 29 13 C31.66723261 16.16701998 33.96672209 19.39371356 36 23 C36.35449219 23.58531494 36.70898438 24.17062988 37.07421875 24.77368164 C40.95616333 32.04289721 40.45040011 39.56256525 40.25 47.5625 C40.22989497 48.96677127 40.2116513 50.37107048 40.1953125 51.77539062 C40.14845439 55.18431781 40.08285505 58.59178957 40 62 C41.65 62 43.3 62 45 62 C46.57077907 56.97350697 47.44854729 52.23880078 48 47 C51.54204372 50.31352477 52.8302407 52.26845509 53.3125 57.1875 C52.93645938 61.7751956 51.60477177 65.2104491 49 69 C46 71 46 71 42.6875 71.0625 C37.71525029 69.62981788 35.5219787 67.34940178 33 63 C31.06898362 58.47192148 29.42631213 53.86511472 27.79296875 49.22314453 C21.95037878 31.23761214 21.95037878 31.23761214 8.875 18.5625 C7.5953003 18.01291942 6.30256941 17.49293313 5 17 C2.525 16.01 2.525 16.01 0 15 C0 10.05 0 5.1 0 0 Z " fill="#F6AD3A" transform="translate(156,184)"/>
<path d="M0 0 C1.4686853 -0.00024925 1.4686853 -0.00024925 2.96704102 -0.00050354 C4.07829346 -0.00988449 5.1895459 -0.01926544 6.33447266 -0.02893066 C8.13452759 -0.0120797 8.13452759 -0.0120797 9.97094727 0.00511169 C11.20256592 0.00365646 12.43418457 0.00220123 13.703125 0.0007019 C16.9770689 0.00278895 20.25024584 0.0238529 23.52404785 0.05168152 C25.53157507 0.06369424 27.53859657 0.06207213 29.54614258 0.05516052 C33.39631251 0.04259222 37.24580204 0.05122522 41.09594727 0.06761169 C42.8960022 0.06320824 42.8960022 0.06320824 44.73242188 0.05871582 C45.84367432 0.07139999 46.95492676 0.08408417 48.09985352 0.09715271 C49.07897705 0.10255569 50.05810059 0.10795868 51.06689453 0.11352539 C53.93014409 0.56355621 54.8339825 1.19288449 56.53344727 3.50120544 C56.87402344 5.58592224 56.87402344 5.58592224 56.82641602 7.95042419 C56.81191406 9.22176208 56.81191406 9.22176208 56.79711914 10.51878357 C56.77198242 11.39985779 56.7468457 12.28093201 56.72094727 13.18870544 C56.70064453 14.52771912 56.70064453 14.52771912 56.67993164 15.89378357 C56.64458805 18.09686711 56.5952522 20.29873127 56.53344727 22.50120544 C54.55344727 22.50120544 52.57344727 22.50120544 50.53344727 22.50120544 C50.34782227 21.54214294 50.34782227 21.54214294 50.15844727 20.56370544 C49.95219727 19.88308044 49.74594727 19.20245544 49.53344727 18.50120544 C47.1595389 17.31425126 45.73099775 17.38044711 43.08374023 17.38768005 C41.70253494 17.38779335 41.70253494 17.38779335 40.29342651 17.38790894 C39.29755524 17.39307022 38.30168396 17.39823151 37.27563477 17.40354919 C35.74835251 17.40567162 35.74835251 17.40567162 34.19021606 17.40783691 C30.92959691 17.41344644 27.66904576 17.42600057 24.40844727 17.43870544 C22.20141701 17.44371922 19.99438567 17.44828234 17.78735352 17.45237732 C12.36936146 17.46341896 6.95140922 17.48016639 1.53344727 17.50120544 C1.53344727 19.48120544 1.53344727 21.46120544 1.53344727 23.50120544 C12.75344727 23.83120544 23.97344727 24.16120544 35.53344727 24.50120544 C31.53344727 29.50120544 31.53344727 29.50120544 28.41723633 30.16062927 C27.22324219 30.17633972 26.02924805 30.19205017 24.79907227 30.20823669 C23.50356445 30.2372406 22.20805664 30.26624451 20.87329102 30.29612732 C19.51001214 30.30251615 18.14673066 30.30836875 16.78344727 30.31370544 C15.40450157 30.33685515 14.02559119 30.36222152 12.64672852 30.38987732 C9.27534537 30.44881758 5.90526288 30.48504962 2.53344727 30.50120544 C1.94274713 32.44723819 1.94274713 32.44723819 1.53344727 34.50120544 C3.33739602 36.3051542 6.10022525 35.73826333 8.53735352 35.81761169 C10.35976562 35.88045349 10.35976562 35.88045349 12.21899414 35.94456482 C14.13808594 36.00353943 14.13808594 36.00353943 16.09594727 36.06370544 C17.37920898 36.10688904 18.6624707 36.15007263 19.98461914 36.19456482 C23.1674458 36.30105344 26.350354 36.40306507 29.53344727 36.50120544 C29.53344727 37.82120544 29.53344727 39.14120544 29.53344727 40.50120544 C27.86282227 40.68683044 27.86282227 40.68683044 26.15844727 40.87620544 C22.5024105 41.14778675 22.5024105 41.14778675 20.53344727 43.50120544 C20.13580464 45.48941858 19.79569378 47.49064884 19.53344727 49.50120544 C15.09056545 48.10487116 12.66819962 45.89718717 9.53344727 42.50120544 C7.45257258 40.42033076 3.01769993 41.18332065 0.19750977 41.07542419 C-2.46655273 40.50120544 -2.46655273 40.50120544 -4.1081543 38.91844177 C-5.97309813 35.59982048 -5.85506716 33.0465469 -5.86499023 29.25120544 C-5.86786041 28.55607849 -5.87073059 27.86095154 -5.87368774 27.14476013 C-5.87572407 25.6789315 -5.87022429 24.21307544 -5.85766602 22.74729919 C-5.84160433 20.50839767 -5.85752731 18.27130107 -5.87670898 16.03245544 C-5.87472647 14.60536814 -5.87088263 13.17828196 -5.86499023 11.75120544 C-5.86160645 10.45698669 -5.85822266 9.16276794 -5.85473633 7.82933044 C-5.35813845 3.57170641 -4.46474029 0.90723872 0 0 Z M0.53344727 6.50120544 C0.93873628 9.28358199 0.93873628 9.28358199 2.53344727 11.50120544 C4.00150019 11.59943289 5.47422187 11.62918915 6.94555664 11.63059998 C8.35206482 11.63532822 8.35206482 11.63532822 9.7869873 11.64015198 C10.80675659 11.63812775 11.82652588 11.63610352 12.87719727 11.63401794 C13.91662476 11.63497467 14.95605225 11.6359314 16.02697754 11.63691711 C18.2294928 11.63759907 20.43201006 11.63574371 22.63452148 11.63157654 C26.01884446 11.62622852 29.4030347 11.63152103 32.78735352 11.63792419 C34.92146839 11.63726342 37.05558319 11.63598226 39.18969727 11.63401794 C40.20946655 11.63604218 41.22923584 11.63806641 42.27990723 11.64015198 C43.21757935 11.63699982 44.15525146 11.63384766 45.12133789 11.63059998 C45.95105103 11.62980438 46.78076416 11.62900879 47.63562012 11.62818909 C49.5444625 11.70963096 49.5444625 11.70963096 50.53344727 10.50120544 C50.70011393 8.00120544 50.70011393 8.00120544 50.53344727 5.50120544 C48.94986122 3.9176194 47.33354366 4.36606881 45.13720703 4.35594177 C44.2027626 4.34956192 43.26831818 4.34318207 42.30555725 4.33660889 C41.28892502 4.33549606 40.27229279 4.33438324 39.22485352 4.33323669 C38.1877977 4.32990829 37.15074188 4.3265799 36.08226013 4.32315063 C33.88394618 4.31807685 31.68562449 4.31574245 29.48730469 4.31590271 C26.11388526 4.31371707 22.74079309 4.2955683 19.36743164 4.27659607 C17.23657339 4.27366215 15.10571358 4.27167734 12.97485352 4.27073669 C11.96024551 4.26355118 10.94563751 4.25636566 9.90028381 4.2489624 C8.96268723 4.25203903 8.02509064 4.25511566 7.05908203 4.25828552 C5.81784325 4.25614799 5.81784325 4.25614799 4.55152893 4.25396729 C2.30515247 4.31891794 2.30515247 4.31891794 0.53344727 6.50120544 Z " fill="#F7AE3A" transform="translate(217.466552734375,162.49879455566406)"/>
<path d="M0 0 C0.66 0 1.32 0 2 0 C2.95996344 3.02031772 3.91767058 6.04134646 4.875 9.0625 C5.14441406 9.91005859 5.41382813 10.75761719 5.69140625 11.63085938 C6.46838504 14.08497531 7.23554912 16.54195695 8 19 C8.39445312 20.25683594 8.78890625 21.51367188 9.1953125 22.80859375 C9.93288925 25.73383745 10.06526047 28.01480885 10 31 C6.2064798 30.75193816 2.41589351 30.47271533 -1.375 30.1875 C-2.45523438 30.11724609 -3.53546875 30.04699219 -4.6484375 29.97460938 C-5.6796875 29.89404297 -6.7109375 29.81347656 -7.7734375 29.73046875 C-8.72653809 29.66239014 -9.67963867 29.59431152 -10.66162109 29.52416992 C-13 29 -13 29 -15 26 C-15.72626493 22.5413121 -15.80019521 19.44949017 -15 16 C-13.22753066 14.04326404 -11.41059189 12.83475284 -9.17578125 11.4375 C-4.92823977 8.63122484 -1.60874662 4.82623986 0 0 Z " fill="#F4AC3A" transform="translate(184,278)"/>
<path d="M0 0 C0.53625 0.680625 1.0725 1.36125 1.625 2.0625 C2.40875 3.031875 3.1925 4.00125 4 5 C4.45890625 5.5775 4.9178125 6.155 5.390625 6.75 C7.96869186 9.89795532 9.69022179 11.83937426 13.375 13.75 C16 16 16 16 16.41015625 18.6171875 C16.47767857 26.04464286 16.47767857 26.04464286 15 29 C12.45238948 29.29106975 9.9937466 29.46701131 7.4375 29.5625 C5.97777379 29.63357584 4.51813505 29.70647305 3.05859375 29.78125 C2.00647705 29.83345703 2.00647705 29.83345703 0.93310547 29.88671875 C-2.40720483 30.08246313 -5.69093779 30.51742843 -9 31 C-7.72852148 23.99886847 -6.01907038 17.23932243 -3.9375 10.4375 C-3.66873047 9.53708984 -3.39996094 8.63667969 -3.12304688 7.70898438 C-1.13282941 1.13282941 -1.13282941 1.13282941 0 0 Z " fill="#F4AC3A" transform="translate(118,278)"/>
<path d="M0 0 C0.66 0 1.32 0 2 0 C2.68457262 11.46025272 0.18377397 21.32104944 -6 31 C-6.33 31 -6.66 31 -7 31 C-8.08156945 20.42465428 -4.9904538 12.53950591 -1 3 C-0.67 2.01 -0.34 1.02 0 0 Z " fill="#E4A33C" transform="translate(129,228)"/>
<path d="M0 0 C2.80071795 2.80071795 3.7557366 6.1523709 5.0625 9.8125 C5.33271973 10.56845459 5.60293945 11.32440918 5.88134766 12.10327148 C8.14048361 18.76218339 8.97546563 24.9463698 9 32 C5.96729422 29.4461425 4.8306867 26.64368206 3.375 23 C2.94960937 21.948125 2.52421875 20.89625 2.0859375 19.8125 C0.29843819 15.18300539 -0.10811742 11.78479931 -0.0625 6.8125 C-0.05347656 5.54019531 -0.04445312 4.26789063 -0.03515625 2.95703125 C-0.02355469 1.98121094 -0.01195312 1.00539062 0 0 Z " fill="#EEA93B" transform="translate(173,228)"/>
<path d="M0 0 C-0.99681713 6.45810245 -2.01636492 12.76571832 -4 19 C-6.784293 16.215707 -6.94910069 13.113137 -7.625 9.375 C-7.7590625 8.66859375 -7.893125 7.9621875 -8.03125 7.234375 C-8.36110025 5.49088082 -8.68146056 3.74559611 -9 2 C-2.25 0 -2.25 0 0 0 Z " fill="#E6A53C" transform="translate(114,260)"/>
<path d="M0 0 C2.64 0.66 5.28 1.32 8 2 C7.35812082 7.13503344 6.31727753 11.9943454 5 17 C4.34 17 3.68 17 3 17 C-0.44419134 5.47835991 -0.44419134 5.47835991 0 0 Z " fill="#EEA93B" transform="translate(190,260)"/>
</svg>
