<?xml version="1.0" encoding="UTF-8"?>
<svg version="1.1" xmlns="http://www.w3.org/2000/svg" width="512" height="512">
<path d="M0 0 C7.91545439 3.62641061 14.2301997 9.26952745 17.46875 17.45703125 C19.73442931 26.57337405 18.72309688 34.11049757 14.12890625 42.11328125 C14.32807681 46.1796801 16.8715305 48.16255518 19.69140625 50.86328125 C20.93083984 52.06210938 20.93083984 52.06210938 22.1953125 53.28515625 C22.83339844 53.8884375 23.47148437 54.49171875 24.12890625 55.11328125 C24.62519531 54.71496094 25.12148438 54.31664062 25.6328125 53.90625 C32.17086456 48.80731376 38.11057102 45.2591296 46.625 45.5078125 C51.43670256 46.33926612 55.82492127 47.87572381 60.37890625 49.61328125 C61.23057373 49.92692627 62.08224121 50.24057129 62.9597168 50.5637207 C70.12897734 53.48707448 74.71300394 57.91171202 78.56640625 64.61328125 C80.6667233 67.97378854 83.4118935 70.44271991 86.2890625 73.1484375 C88.22019336 75.21077045 89.30040138 76.412449 90.12890625 79.11328125 C89.89300781 80.38042969 89.65710938 81.64757812 89.4140625 82.953125 C89.03107595 85.41371369 88.89862736 86.65930287 90.03466797 88.89892578 C91.44254403 90.63812714 92.93323538 92.1469787 94.56640625 93.67578125 C95.07623047 94.22041016 95.58605469 94.76503906 96.11132812 95.32617188 C99.16693865 98.31495278 99.16693865 98.31495278 103.21923828 99.17553711 C105.19957684 98.88553791 107.16576902 98.50306651 109.12890625 98.11328125 C114.01295971 100.45355687 117.32800094 104.3170861 121.04296875 108.16015625 C123.57212034 110.52827572 126.22527004 112.18344287 129.26953125 113.8125 C134.34034011 117.35993561 136.49998495 122.66986483 138.81640625 128.17578125 C139.12384766 128.88283203 139.43128906 129.58988281 139.74804688 130.31835938 C142.99883051 137.89403677 144.51485483 144.64744693 142.00390625 152.73828125 C139.81381791 156.68044026 137.20473602 159.83836865 134.12890625 163.11328125 C135.60612047 166.56529764 137.56684626 168.76290061 140.25390625 171.36328125 C140.97835938 172.0696875 141.7028125 172.77609375 142.44921875 173.50390625 C143.00351562 174.035 143.5578125 174.56609375 144.12890625 175.11328125 C146.57732982 174.14445139 148.99736437 173.17539825 151.37890625 172.05078125 C159.17317287 169.3936449 166.72755339 169.61880172 174.2265625 173.08203125 C181.16816788 177.04102006 187.26816052 183.09532323 189.6875 190.85546875 C191.53634432 200.31238923 190.06348565 206.94788844 185.12890625 215.11328125 C182.52631579 218.35565787 179.63828458 221.23947485 176.66674805 224.14306641 C175.40744225 225.40346741 175.40744225 225.40346741 174.12269592 226.68933105 C171.36953338 229.43903513 168.59914125 232.17064285 165.828125 234.90234375 C163.90464082 236.81369869 161.98493945 238.72883563 160.06513977 240.64389038 C155.54204396 245.15151367 151.0063686 249.6462508 146.46590787 254.13637483 C141.29270084 259.25348195 136.13387015 264.3849809 130.97613275 269.51767278 C120.37618754 280.06550936 109.75853338 290.59535096 99.12890625 301.11328125 C100.28655991 301.11914749 101.44421356 301.12501373 102.63694763 301.13105774 C113.56837492 301.18837147 124.49960494 301.26117835 135.43083096 301.34899616 C141.05014539 301.39364619 146.66938821 301.43291425 152.28881836 301.4597168 C157.71599569 301.48580315 163.14289668 301.52624352 168.56990242 301.57646751 C170.6362062 301.59310015 172.70255774 301.60463679 174.76891899 301.61089516 C177.67232837 301.62057542 180.57503647 301.6486817 183.47827148 301.6809082 C184.32488342 301.67947311 185.17149536 301.67803802 186.04376221 301.67655945 C194.84659331 301.81395625 201.99822884 304.02610758 208.3984375 310.18359375 C214.06814694 316.50602369 214.79178414 322.34401302 214.50390625 330.7734375 C213.62921803 338.56362949 210.06178992 342.67960336 204.2265625 347.66796875 C199.76112523 350.74471324 196.58956533 351.16817605 191.25390625 350.86328125 C188.05771346 350.95239334 188.05771346 350.95239334 185.12890625 352.11328125 C176.30359767 362.76018377 173.86086149 379.05689049 172.98706055 392.47973633 C172.7053 395.8669092 172.32114565 397.85816354 170.25390625 400.6015625 C168.12890625 402.11328125 168.12890625 402.11328125 165.12890625 402.11328125 C167.10890625 411.02328125 167.10890625 411.02328125 169.12890625 420.11328125 C171.43890625 420.77328125 173.74890625 421.43328125 176.12890625 422.11328125 C177.80078125 423.84765625 177.80078125 423.84765625 178.87890625 425.86328125 C179.26949219 426.57226562 179.66007812 427.28125 180.0625 428.01171875 C180.59037109 429.05199219 180.59037109 429.05199219 181.12890625 430.11328125 C181.72703125 431.22703125 182.32515625 432.34078125 182.94140625 433.48828125 C184.12890625 436.11328125 184.12890625 436.11328125 184.12890625 438.11328125 C185.18078125 438.06107422 185.18078125 438.06107422 186.25390625 438.0078125 C194.58800113 437.77001903 201.40362615 438.66199294 207.7421875 444.56640625 C213.82361476 451.35019553 214.88677918 457.53438844 214.54296875 466.58203125 C213.68282919 473.9175611 210.76239764 478.09127521 205.203125 482.7890625 C197.80498576 487.51216834 191.49173468 487.54235567 182.85757446 487.5009613 C181.50088351 487.50513717 180.14419605 487.51061608 178.78751504 487.51728112 C175.06951831 487.53172153 171.35174351 487.52749546 167.6337347 487.5201143 C163.61999372 487.51538141 159.60630066 487.52789358 155.59257507 487.53813171 C147.7331017 487.55532296 139.87370826 487.55615901 132.01422097 487.55091881 C125.62524973 487.54687631 119.23630211 487.54832162 112.847332 487.55366707 C111.93778509 487.55441549 111.02823818 487.55516391 110.09112924 487.55593501 C108.24333855 487.5574665 106.39554787 487.55900485 104.54775719 487.56054998 C87.22143843 487.57427632 69.89516483 487.5688365 52.5688471 487.55736477 C36.72263768 487.54743331 20.87654503 487.56037132 5.03035362 487.58429896 C-11.24549221 487.60868996 -27.52128365 487.61829776 -43.79714739 487.61164623 C-52.93280662 487.60815388 -62.06837605 487.6103871 -71.20402145 487.62789726 C-78.98141133 487.64261929 -86.75864817 487.64325474 -94.53603505 487.62582635 C-98.50276647 487.61731376 -102.46922452 487.61517294 -106.4359417 487.63047791 C-110.07054289 487.64432762 -113.70463658 487.63955872 -117.33920844 487.62023867 C-119.26982735 487.61470446 -121.20047211 487.62874795 -123.13104188 487.64359277 C-131.28090317 487.57461867 -137.68449979 486.42707681 -144.17578125 481.2890625 C-149.74956809 474.67539005 -152.08249436 468.79314175 -151.87109375 460.11328125 C-152.93328125 460.1596875 -153.99546875 460.20609375 -155.08984375 460.25390625 C-170.72922347 460.74581532 -170.72922347 460.74581532 -175.87109375 456.11328125 C-182.65863705 448.76010934 -186.14276505 439.24711994 -189.87109375 430.11328125 C-191.91973537 429.89208665 -191.91973537 429.89208665 -193.20874023 431.29980469 C-193.71477783 431.8518457 -194.22081543 432.40388672 -194.7421875 432.97265625 C-195.59514404 433.89522217 -195.59514404 433.89522217 -196.46533203 434.83642578 C-197.0736084 435.50528809 -197.68188477 436.17415039 -198.30859375 436.86328125 C-198.93749512 437.54632324 -199.56639648 438.22936523 -200.21435547 438.93310547 C-202.10498664 440.98859776 -203.98851374 443.0504164 -205.87109375 445.11328125 C-206.85369801 446.18402402 -207.83672677 447.25437749 -208.8203125 448.32421875 C-210.59864805 450.26091702 -212.3747065 452.19970875 -214.1484375 454.140625 C-216.07124418 456.2434092 -218.00183552 458.33873311 -219.9375 460.4296875 C-220.453125 460.98696533 -220.96875 461.54424316 -221.5 462.1184082 C-222.53118776 463.23149011 -223.56372044 464.3433277 -224.59765625 465.45385742 C-227.49691029 468.57878773 -230.26535978 471.77609826 -232.99609375 475.05078125 C-239.53396264 482.44496145 -247.82267004 486.51660394 -257.6328125 487.484375 C-270.01679984 487.69385538 -279.65173422 485.27306872 -288.89453125 476.43359375 C-297.33009336 466.53097735 -298.59973311 456.66714251 -298.05029297 444.15576172 C-296.9315205 431.40419431 -286.24763512 421.72470983 -277.12890625 413.8515625 C-273.0345932 410.28258421 -269.06750567 406.59428302 -265.12109375 402.86328125 C-259.38295038 397.46091221 -253.61173966 392.10068211 -247.79296875 386.78515625 C-244.6646539 383.9245047 -241.54741655 381.05218375 -238.43359375 378.17578125 C-237.89323486 377.67667236 -237.35287598 377.17756348 -236.79614258 376.66333008 C-235.70144483 375.65207513 -234.60679979 374.64076313 -233.51220703 373.62939453 C-230.79931789 371.12314021 -228.08514516 368.61827679 -225.37109375 366.11328125 C-224.28775418 365.11328801 -223.20442084 364.11328801 -222.12109375 363.11328125 C-215.62109375 357.11328125 -209.12109375 351.11328125 -202.62109375 345.11328125 C-202.08427979 344.61763672 -201.54746582 344.12199219 -200.99438477 343.61132812 C-199.91724763 342.61729692 -198.83961535 341.62380197 -197.76147461 340.63085938 C-194.95391948 338.04384626 -192.15706987 335.4464507 -189.375 332.83203125 C-188.79878906 332.29320312 -188.22257812 331.754375 -187.62890625 331.19921875 C-186.535809 330.17664391 -185.44572443 329.1508344 -184.359375 328.12109375 C-181.07241672 325.05439556 -177.79438754 322.32381377 -173.87109375 320.11328125 C-171.89760163 320.46341695 -169.92414079 320.81484102 -167.95703125 321.19921875 C-163.55476425 321.01785194 -160.76096925 317.10545323 -157.87109375 314.11328125 C-157.04609375 313.47390625 -156.22109375 312.83453125 -155.37109375 312.17578125 C-153.39445762 309.45790657 -153.76001961 307.3204414 -153.8984375 304.05859375 C-153.85455508 300.93667313 -152.84082415 299.51389018 -150.87109375 297.11328125 C-148.29532763 294.66778376 -145.59373921 292.39259329 -142.87109375 290.11328125 C-141.36809425 288.80421717 -139.86796018 287.49185387 -138.37109375 286.17578125 C-137.20442708 285.15494792 -136.03776042 284.13411458 -134.87109375 283.11328125 C-135.02964844 282.36304688 -135.18820313 281.6128125 -135.3515625 280.83984375 C-136.87615537 272.83859698 -135.51456631 266.35698041 -131.87109375 259.11328125 C-127.67828417 253.08542238 -121.9474603 249.81571146 -114.87109375 248.11328125 C-109.67075401 247.63049109 -104.91890621 247.78761335 -99.87109375 249.11328125 C-93.54665043 241.78291971 -87.26526642 234.43164023 -81.16796875 226.91015625 C-79.46749276 224.83950861 -77.75227928 222.79033896 -76.01171875 220.75390625 C-75.52131104 220.17970947 -75.03090332 219.6055127 -74.52563477 219.01391602 C-73.57842536 217.90781377 -72.62857583 216.80396443 -71.67553711 215.70288086 C-68.77631973 212.31609456 -66.27183282 208.85709113 -63.87109375 205.11328125 C-64.42796875 205.03078125 -64.98484375 204.94828125 -65.55859375 204.86328125 C-69.46063315 203.59775496 -71.99440906 201.57974187 -74.1184082 198.02685547 C-84.58981976 176.89806178 -84.58981976 176.89806178 -81.87109375 166.11328125 C-80.22000963 162.47395469 -78.17906141 159.35998187 -75.87109375 156.11328125 C-75.21109375 154.79328125 -74.55109375 153.47328125 -73.87109375 152.11328125 C-77.17109375 148.81328125 -80.47109375 145.51328125 -83.87109375 142.11328125 C-87.55350561 143.58360602 -87.55350561 143.58360602 -91.18359375 145.17578125 C-98.3367319 147.671062 -104.70570192 147.35321886 -111.87109375 145.11328125 C-119.20913851 141.09812469 -126.39923926 134.28941532 -128.87109375 126.11328125 C-130.29157661 119.12924052 -130.16080497 112.4238584 -126.74316788 105.98986435 C-122.65083266 99.81376683 -117.86600731 94.67023528 -112.62792969 89.45019531 C-111.71652725 88.53032333 -110.80512482 87.61045135 -109.86610413 86.66270447 C-107.38745311 84.16201516 -104.89942487 81.67086939 -102.40878201 79.18212986 C-100.32136933 77.09483765 -98.23833136 75.00320501 -96.15513539 72.91170573 C-91.23690097 67.97430273 -86.31061085 63.0450401 -81.37939453 58.12060547 C-76.31052066 53.05837492 -71.25659731 47.98155768 -66.20961356 42.89751077 C-61.8574591 38.51457226 -57.49560279 34.14145216 -53.12608743 29.77582145 C-50.5245299 27.17632157 -47.92680163 24.57327611 -45.33861542 21.96045685 C-42.45037786 19.04563657 -39.54217411 16.15154308 -36.63183594 13.25878906 C-35.78889481 12.40258469 -34.94595367 11.54638031 -34.07746887 10.66423035 C-24.36821102 1.09026139 -13.77127792 -4.25317019 0 0 Z M-23.80859375 257.55078125 C-28.38816804 261.80949846 -33.10670111 265.82210296 -37.97265625 269.75390625 C-41.78976275 272.86109267 -45.56495258 276.01710069 -49.28295898 279.24243164 C-51.5570278 281.20914719 -53.78849384 283.06019072 -56.3203125 284.6875 C-58.62114209 286.05081756 -58.62114209 286.05081756 -60.87109375 289.11328125 C-60.21109375 293.40328125 -59.55109375 297.69328125 -58.87109375 302.11328125 C-24.55109375 302.11328125 9.76890625 302.11328125 45.12890625 302.11328125 C44.13890625 298.15328125 44.13890625 298.15328125 43.12890625 294.11328125 C42.42859921 286.54996525 44.78281593 279.80546189 48.12890625 273.11328125 C44.16890625 269.15328125 40.20890625 265.19328125 36.12890625 261.11328125 C35.11828125 262.04140625 34.10765625 262.96953125 33.06640625 263.92578125 C27.46341188 268.65645315 21.99982064 270.90886081 14.640625 270.734375 C5.06386744 269.04059919 -6.7420616 264.89489468 -13.87109375 258.11328125 C-14.88765456 256.45666364 -15.89174451 254.79216566 -16.87109375 253.11328125 C-20.10613534 253.11328125 -21.50918035 255.38332845 -23.80859375 257.55078125 Z " fill="#010000" transform="translate(297.87109375,12.88671875)"/>
<path d="M0 0 C1.1803352 -0.00512655 2.36067041 -0.0102531 3.57677335 -0.015535 C6.84966143 -0.0237091 10.1211234 -0.00496341 13.39384282 0.02513337 C16.92412128 0.05104643 20.45433336 0.04227579 23.98468018 0.03771973 C30.10001694 0.03457371 36.21496959 0.05339699 42.33020973 0.08714676 C51.17174956 0.1359111 60.01310367 0.15153559 68.85476341 0.15907471 C83.19968288 0.17220622 97.54439762 0.21213504 111.88920593 0.26889038 C125.82376582 0.32396524 139.75827011 0.36643541 153.69291687 0.39193726 C154.55185798 0.3935136 155.41079909 0.39508994 156.29576872 0.39671405 C160.60482771 0.40454428 164.91388711 0.41212652 169.22294676 0.41958547 C204.97048976 0.48178499 240.71778948 0.58790917 276.46513367 0.7215271 C274.15513367 6.9915271 271.84513367 13.2615271 269.46513367 19.7215271 C264.85387512 19.74340088 264.85387512 19.74340088 260.14945984 19.76571655 C250.00724592 19.81599002 239.86518671 19.88257206 229.7231245 19.95724201 C223.57228078 20.00202339 217.42150449 20.04126236 211.27055359 20.06796265 C205.33767313 20.09391811 199.4050511 20.13426534 193.47233009 20.18471336 C191.20568868 20.20143467 188.93900251 20.21291604 186.67230797 20.21914101 C183.50425821 20.22872487 180.33687753 20.25671568 177.16899109 20.28915405 C175.75450684 20.28700142 175.75450684 20.28700142 174.31144714 20.2848053 C173.44907944 20.29734344 172.58671173 20.30988159 171.69821167 20.32279968 C170.94879397 20.32740865 170.19937628 20.33201761 169.42724895 20.33676624 C166.88543158 20.83520374 165.9987131 21.65807187 164.46513367 23.7215271 C163.86628784 28.34940619 163.86628784 28.34940619 165.73112202 32.41535664 C167.85477089 34.01502722 168.94553055 34.10353215 171.58432007 34.12025452 C172.84000793 34.13906174 172.84000793 34.13906174 174.12106323 34.1582489 C175.49346916 34.15609627 175.49346916 34.15609627 176.89360046 34.15390015 C177.85964203 34.1640918 178.82568359 34.17428345 179.82099915 34.18478394 C183.0188418 34.21501403 186.2163854 34.22419526 189.41435242 34.23324585 C191.6296794 34.25008509 193.84499678 34.2682343 196.06030273 34.28764343 C201.89476014 34.3352314 207.72917864 34.36498391 213.56376648 34.39108276 C219.51599311 34.4208439 225.46808555 34.46738946 231.42021179 34.51254272 C243.10178235 34.59867595 254.78338046 34.66597668 266.46513367 34.7215271 C266.50251648 35.62515991 266.53989929 36.52879272 266.57841492 37.45980835 C266.6441571 38.63930054 266.70989929 39.81879272 266.77763367 41.0340271 C266.83564148 42.20578491 266.89364929 43.37754272 266.95341492 44.58480835 C267.22298198 47.65894265 267.22298198 47.65894265 268.75810242 49.57699585 C270.70359034 51.02113693 270.70359034 51.02113693 274.46513367 51.7215271 C276.44513367 61.6215271 276.44513367 61.6215271 278.46513367 71.7215271 C276.48513367 73.2065271 276.48513367 73.2065271 274.46513367 74.7215271 C273.89924737 80.47470441 274.55298716 82.98508759 276.46513367 88.7215271 C177.13513367 88.7215271 77.80513367 88.7215271 -24.53486633 88.7215271 C-28.50528563 80.7806885 -31.30387268 74.13144786 -33.53486633 65.7215271 C-33.7630304 64.87332397 -33.99119446 64.02512085 -34.22627258 63.1512146 C-35.63106547 56.8836771 -35.62613473 50.73767519 -35.58174133 44.35043335 C-35.57835754 43.42331543 -35.57497375 42.49619751 -35.57148743 41.54098511 C-35.56270215 39.26779428 -35.55039973 36.99468016 -35.53486633 34.7215271 C-34.78095486 34.72006054 -34.02704338 34.71859398 -33.2502861 34.71708298 C-14.9143618 34.68004736 3.42137148 34.62107592 21.75714493 34.53762436 C30.62416644 34.49779809 39.49109874 34.46542388 48.35820007 34.45053101 C56.0858806 34.43753303 63.81336512 34.41061603 71.54093528 34.36691403 C75.63348572 34.34425725 79.72579405 34.32861893 83.81841278 34.32964325 C87.66973034 34.33038739 91.52051185 34.31253649 95.37169075 34.28035927 C96.78581104 34.27183333 98.19999128 34.2701286 99.61412621 34.27572441 C101.54391753 34.28234414 103.47374544 34.26211861 105.40342712 34.24050903 C106.4837685 34.23682186 107.56410988 34.23313469 108.67718887 34.22933578 C112.16309737 33.59439688 113.38011693 32.55029582 115.46513367 29.7215271 C115.55429521 26.09502759 115.55429521 26.09502759 114.46513367 22.7215271 C111.05444124 20.44773215 109.83450307 20.46473379 105.82739258 20.4430542 C104.65370117 20.43189072 103.48000977 20.42072723 102.27075195 20.40922546 C100.98178513 20.40706528 99.6928183 20.40490509 98.36479187 20.40267944 C96.99490262 20.39338214 95.62501904 20.38321376 94.25514221 20.37223816 C90.5343762 20.34490169 86.81364812 20.32977801 83.09280801 20.31681013 C79.20500596 20.3011955 75.31728157 20.27439999 71.42953491 20.2487793 C64.06668439 20.20196191 56.7038193 20.16523216 49.34089583 20.13210642 C40.95883383 20.09390592 32.57684977 20.04449036 24.19485343 19.99412227 C6.95166985 19.8907584 -10.2915588 19.80151252 -27.53486633 19.7215271 C-25.51623282 16.25821323 -23.56823432 13.5509375 -20.65986633 10.7840271 C-18.21967157 8.45388033 -16.41342681 6.52531119 -14.6224947 3.63161278 C-10.78358436 -0.94506248 -5.5483343 -0.08767267 0 0 Z " fill="#DED2CD" transform="translate(188.5348663330078,363.2784729003906)"/>
<path d="M0 0 C0.680625 0.845625 1.36125 1.69125 2.0625 2.5625 C3.5165625 3.7690625 3.5165625 3.7690625 5 5 C7.15951878 4.67630472 7.15951878 4.67630472 9.5 4 C12.0859375 3.53515625 12.0859375 3.53515625 15 4 C20.02087464 7.50666513 24.01635796 12.39820661 28 17 C27.67 17.99 27.34 18.98 27 20 C26.46070971 24.59716877 26.46070971 24.59716877 28.1171875 28.7890625 C29.34424695 30.25182828 30.66670268 31.63337025 32 33 C30.45167187 36.68994835 28.21202218 39.03462711 25.39364624 41.84686279 C24.92232887 42.31988901 24.4510115 42.79291523 23.96541178 43.28027558 C22.38709002 44.86188795 20.80173322 46.43625229 19.21630859 48.01074219 C18.08259349 49.14389308 16.94931873 50.27748468 15.81645203 51.41148376 C12.74055258 54.48795736 9.65852279 57.55822274 6.5753665 60.62742138 C3.35401551 63.83627538 0.1383221 67.05078873 -3.07797241 70.26470947 C-9.16899479 76.34951406 -15.26509779 82.42920215 -21.36303651 88.50707459 C-28.30522272 95.42691115 -35.24173518 102.35242317 -42.17777371 109.27842093 C-56.44553902 123.52527744 -70.72042469 137.76498128 -85 152 C-92.42025741 145.70171229 -92.42025741 145.70171229 -95.36499023 142.78027344 C-96.20506874 141.94976471 -96.20506874 141.94976471 -97.06211853 141.10247803 C-97.63845535 140.52725403 -98.21479218 139.95203003 -98.80859375 139.359375 C-99.42017838 138.75111877 -100.031763 138.14286255 -100.66188049 137.51617432 C-101.93954318 136.24353258 -103.21589307 134.96957158 -104.4909668 133.69433594 C-106.45147706 131.73603872 -108.41988471 129.78590915 -110.38867188 127.8359375 C-111.63330024 126.5942387 -112.87745835 125.35206831 -114.12109375 124.109375 C-114.71160019 123.52605408 -115.30210663 122.94273315 -115.9105072 122.34173584 C-120 118.22885614 -120 118.22885614 -120 116 C-118.63202381 114.65314388 -118.63202381 114.65314388 -116.67915344 113.05003357 C-111.20518543 108.38989481 -106.19199386 103.30090527 -101.13354492 98.19946289 C-100.06359682 97.1243112 -98.99339931 96.04940766 -97.92297363 94.97473145 C-95.63379398 92.67567554 -93.34609856 90.37515673 -91.05949974 88.07353401 C-87.4449545 84.43579602 -83.82541921 80.80305076 -80.20491028 77.17124939 C-69.91586534 66.84886915 -59.63115363 56.5221975 -49.35668945 46.18530273 C-43.67049284 40.46463908 -37.97899832 34.7493031 -32.28149492 29.03989977 C-28.6785873 25.42888193 -25.0823578 21.8113813 -21.49083841 18.1890384 C-19.26223825 15.9444816 -17.02741991 13.7061998 -14.79073334 11.46970367 C-13.75246613 10.42900649 -12.71679079 9.38571631 -11.68387032 8.33971214 C-10.27782438 6.91659674 -8.86168283 5.50347664 -7.44499207 4.09095764 C-6.65434451 3.29624589 -5.86369696 2.50153414 -5.04909039 1.68274021 C-3 0 -3 0 0 0 Z " fill="#FAA52E" transform="translate(372,96)"/>
<path d="M0 0 C4.06659758 1.61194569 6.83971676 5.0802505 9.88012695 8.13208008 C10.58588867 8.80948242 11.29165039 9.48688477 12.01879883 10.18481445 C12.68073242 10.84416992 13.34266602 11.50352539 14.0246582 12.18286133 C14.632854 12.78396729 15.2410498 13.38507324 15.86767578 14.00439453 C17.06762695 15.81958008 17.06762695 15.81958008 16.94482422 17.83007812 C15.94068111 20.10749593 14.80357797 21.49827457 13.07543945 23.28833008 C12.45838135 23.93568115 11.84132324 24.58303223 11.20556641 25.25 C10.54129639 25.93296143 9.87702637 26.61592285 9.19262695 27.31958008 C7.81317212 28.76306644 6.43426959 30.20708081 5.0559082 31.65161133 C4.3747998 32.36140137 3.69369141 33.07119141 2.99194336 33.80249023 C0.41551942 36.50312644 -2.10489851 39.24907726 -4.61987305 42.00708008 C-8.35919826 46.10042424 -12.10788931 50.18457955 -15.86987305 54.25708008 C-16.36898193 54.79743896 -16.86809082 55.33779785 -17.38232422 55.89453125 C-18.39357917 56.989229 -19.40489117 58.08387404 -20.41625977 59.1784668 C-22.92251409 61.89135594 -25.4273775 64.60552867 -27.93237305 67.31958008 C-28.93236629 68.40291965 -29.93236629 69.48625298 -30.93237305 70.56958008 C-31.42737305 71.10583008 -31.92237305 71.64208008 -32.43237305 72.19458008 C-96.93237305 142.06958008 -96.93237305 142.06958008 -98.43432617 143.6965332 C-99.42803238 144.77315622 -100.42152419 145.84997716 -101.41479492 146.92700195 C-104.00931053 149.73971599 -106.60815378 152.54825675 -109.21362305 155.35083008 C-110.02186523 156.22191406 -110.02186523 156.22191406 -110.84643555 157.1105957 C-111.87109002 158.21474923 -112.89704219 159.31770054 -113.92456055 160.41918945 C-116.07455171 162.73844788 -118.13313981 165.07407828 -120.0925293 167.55786133 C-123.80783921 172.12508944 -129.06257698 175.2414233 -134.89331055 176.11254883 C-141.49235425 176.54090781 -146.46105288 174.40457867 -151.93237305 170.81958008 C-156.78771042 166.08873853 -159.0723995 160.570106 -159.36987305 153.88208008 C-159.08374181 146.01347102 -155.58074923 140.88201979 -149.93505859 135.63232422 C-148.03809071 133.91527112 -146.11709172 132.23215616 -144.18237305 130.55786133 C-140.09262147 126.98710658 -136.12715084 123.29903691 -132.18237305 119.56958008 C-126.44422968 114.16721103 -120.67301895 108.80698093 -114.85424805 103.49145508 C-111.72593319 100.63080353 -108.60869584 97.75848258 -105.49487305 94.88208008 C-104.95451416 94.38297119 -104.41415527 93.8838623 -103.85742188 93.36962891 C-102.76272413 92.35837395 -101.66807908 91.34706195 -100.57348633 90.33569336 C-97.86059718 87.82943903 -95.14642445 85.32457562 -92.43237305 82.81958008 C-91.34903347 81.81958684 -90.26570014 80.81958684 -89.18237305 79.81958008 C-69.68237305 61.81958008 -69.68237305 61.81958008 -68.05566406 60.31811523 C-66.97787741 59.32316044 -65.90023944 58.32804456 -64.82275391 57.33276367 C-62.03078554 54.75419685 -59.23589358 52.17890773 -56.4362793 49.60864258 C-55.86006836 49.07883789 -55.28385742 48.5490332 -54.69018555 48.00317383 C-53.6013144 47.00211487 -52.51154626 46.00203024 -51.4206543 45.00317383 C-49.91534964 43.61813836 -48.42180802 42.22165745 -46.93237305 40.81958008 C-46.09283081 40.0401001 -46.09283081 40.0401001 -45.23632812 39.24487305 C-41.78540879 36.07682638 -41.78540879 36.07682638 -40.49487305 31.69458008 C-40.85334471 29.33890914 -41.33490606 27.12056864 -41.93237305 24.81958008 C-41.41288086 24.37227539 -40.89338867 23.9249707 -40.3581543 23.46411133 C-36.40557651 20.03756977 -32.57410222 16.57511329 -28.93237305 12.81958008 C-27.94237305 13.14958008 -26.95237305 13.47958008 -25.93237305 13.81958008 C-22.6749516 14.39105752 -21.04811272 14.64448923 -17.93237305 13.81958008 C-14.25612095 11.16293565 -11.1262734 8.02955712 -7.93237305 4.81958008 C-2.62934258 -0.24549389 -2.62934258 -0.24549389 0 0 Z " fill="#6B3227" transform="translate(173.932373046875,309.180419921875)"/>
<path d="M0 0 C1.67860287 -0.00576172 1.67860287 -0.00576172 3.39111692 -0.01163983 C4.63087504 -0.01077335 5.87063316 -0.00990687 7.14795971 -0.00901413 C8.45696104 -0.01198525 9.76596237 -0.01495637 11.1146304 -0.01801753 C14.76036774 -0.02610649 18.4060854 -0.02787815 22.05183065 -0.028615 C25.97899524 -0.03046227 29.90614955 -0.03800795 33.83330822 -0.04475021 C42.42622526 -0.05834757 51.01913764 -0.06436045 59.61206365 -0.06876087 C64.97477044 -0.07152096 70.33747543 -0.07575788 75.70018101 -0.08026505 C90.53995462 -0.0924596 105.37972679 -0.10275851 120.21950531 -0.10614014 C121.16978047 -0.1063597 122.12005563 -0.10657927 123.09912701 -0.10680549 C124.52800422 -0.10713291 124.52800422 -0.10713291 125.98574764 -0.10746694 C127.91613567 -0.10791041 129.8465237 -0.10835697 131.77691174 -0.10880661 C133.21322892 -0.10913875 133.21322892 -0.10913875 134.6785626 -0.10947761 C150.19797607 -0.11342652 165.71734261 -0.13088255 181.23673794 -0.15416613 C197.15983202 -0.17786308 213.08290253 -0.19034123 229.00601453 -0.19150805 C237.95046365 -0.19242576 246.89485163 -0.1982019 255.83928394 -0.21632767 C263.45511759 -0.23170634 271.07087121 -0.23686237 278.68671743 -0.22858956 C282.57389755 -0.22467509 286.46091641 -0.2256513 290.34807682 -0.23964691 C294.55899492 -0.25466982 298.76954753 -0.246543 302.98047924 -0.23606491 C304.2135452 -0.24412132 305.44661115 -0.25217772 306.71704274 -0.26047826 C307.84393457 -0.25388841 308.97082639 -0.24729857 310.13186646 -0.24050903 C311.10400552 -0.24110612 312.07614458 -0.24170321 313.0777424 -0.24231839 C316.29399816 0.20672327 318.14550554 1.22150301 320.75469494 3.13142776 C322.87434174 6.31089797 323.04696275 6.95820249 322.75469494 10.56892776 C322.71344494 11.3307637 322.67219494 12.09259964 322.62969494 12.87752151 C321.59036343 15.55472812 320.26102291 16.76469292 317.849949 18.2863493 C313.12895859 20.19046557 307.85260075 19.67564895 302.84244823 19.63936234 C301.52594565 19.6456023 300.20944307 19.65184226 298.85304648 19.65827131 C295.20480977 19.67496085 291.55699191 19.66672028 287.90875375 19.65432644 C283.97209269 19.64527672 280.03550368 19.65924521 276.09885693 19.67024612 C268.38962071 19.68803631 260.68054024 19.68418931 252.97129791 19.67259556 C246.70669156 19.66356413 240.44212888 19.66233598 234.17751789 19.66669083 C232.84040324 19.66761022 232.84040324 19.66761022 231.47627618 19.6685482 C229.66544003 19.66982709 227.85460388 19.67112394 226.04376776 19.67243856 C209.06235015 19.68384565 192.08101891 19.67072829 175.09961546 19.6492371 C160.52488192 19.63136292 145.9502758 19.6344726 131.37554455 19.65291214 C114.45358401 19.67431128 97.53169915 19.68275024 80.60972697 19.67046309 C78.80583673 19.66918887 77.00194648 19.66793139 75.19805622 19.66669083 C74.3104862 19.66607372 73.42291618 19.66545662 72.5084501 19.66482082 C66.24996188 19.66136528 59.99152161 19.6672006 53.73304081 19.67660904 C46.10811595 19.68781965 38.48335582 19.68480868 30.85844987 19.66348606 C26.96715948 19.65296339 23.0761439 19.64887436 19.18485546 19.66208267 C14.96964968 19.67617427 10.75513965 19.65936517 6.539958 19.63936234 C4.68861536 19.65274667 4.68861536 19.65274667 2.79987186 19.66640139 C-5.46699513 19.58994872 -5.46699513 19.58994872 -9.481884 17.22468185 C-11.78326728 14.49284425 -12.21102372 13.4342463 -12.62030506 9.81892776 C-12.24530506 6.13142776 -12.24530506 6.13142776 -9.87030506 3.25642776 C-6.23532712 0.31382658 -4.59582168 0.00589582 0 0 Z " fill="#FA3981" transform="translate(174.24530506134033,465.8685722351074)"/>
<path d="M0 0 C0.91354824 -0.00445784 1.82709649 -0.00891569 2.76832801 -0.01350862 C3.77852018 -0.01332426 4.78871235 -0.01313989 5.82951641 -0.01294994 C6.89758815 -0.01662663 7.96565989 -0.02030332 9.06609744 -0.02409142 C12.66893844 -0.03516328 16.27175064 -0.03897801 19.87460613 -0.04278088 C22.44803745 -0.04904281 25.02146786 -0.05568937 27.59489727 -0.0626936 C35.33460189 -0.08246719 43.07430783 -0.09252512 50.81403139 -0.10142139 C54.45697762 -0.10580262 58.09992239 -0.11116984 61.74286747 -0.11641026 C73.84957388 -0.13342306 85.95627938 -0.14791802 98.06299591 -0.155159 C101.20560298 -0.15706895 104.34821003 -0.15898928 107.49081707 -0.16094494 C108.27191559 -0.16142868 109.0530141 -0.16191242 109.85778227 -0.16241082 C122.51578131 -0.17071408 135.17368594 -0.19605572 147.83164374 -0.22852562 C160.82122565 -0.26157512 173.81075955 -0.27960582 186.80038375 -0.28280324 C194.09607146 -0.28497025 201.39162147 -0.29374667 208.68726826 -0.31926441 C215.54824843 -0.34320613 222.4089767 -0.34681036 229.26998997 -0.33650303 C231.79155202 -0.33600564 234.31312597 -0.34238537 236.83465099 -0.35605907 C240.27065939 -0.37365289 243.70576456 -0.36673287 247.14177227 -0.35352612 C248.14527228 -0.36449536 249.14877228 -0.37546461 250.18268138 -0.38676625 C254.54493252 -0.34613985 256.99149153 -0.28715873 260.77201653 2.03970528 C263.05210463 4.54780482 263.61351657 5.57079195 263.9886198 8.94672108 C263.60265688 12.88354295 262.44215301 14.36818787 259.6761198 17.13422108 C256.69717183 18.12720373 254.76125336 18.25857435 251.65299988 18.25726891 C250.08696234 18.26025548 250.08696234 18.26025548 248.48928767 18.26330239 C247.33852361 18.26038954 246.18775954 18.2574767 245.00212383 18.25447559 C243.78266195 18.25533002 242.56320008 18.25618444 241.30678481 18.25706476 C237.91587245 18.25843007 234.52501744 18.25529345 231.134112 18.2502867 C227.47973386 18.24597713 223.82535756 18.24742898 220.17097759 18.24818897 C213.83749565 18.24871388 207.50402398 18.24557049 201.17054462 18.23995113 C192.01334325 18.23183173 182.85614685 18.22922046 173.69894227 18.22796314 C158.84278053 18.22577332 143.98662427 18.21911511 129.13046551 18.20966053 C114.69719756 18.20048462 100.2639311 18.19340466 85.83066082 18.18915272 C84.94132431 18.18888999 84.0519878 18.18862727 83.13570169 18.18835659 C78.67426037 18.18705157 74.21281904 18.18578786 69.7513777 18.18454468 C32.72628786 18.17417424 -4.29879574 18.1565578 -41.3238802 18.13422108 C-40.37504689 16.86277549 -39.42533039 15.59198896 -38.47524738 14.32147694 C-37.94646992 13.61373631 -37.41769245 12.90599567 -36.87289143 12.17680836 C-34.83396708 9.48820232 -33.00032671 7.21454996 -30.3238802 5.13422108 C-26.8707552 4.78656483 -26.8707552 4.78656483 -23.0738802 5.07172108 C-16.40750799 5.31934781 -12.02810128 4.52408039 -6.3238802 1.13422108 C-3.98234055 -0.03654875 -2.60950634 0.00588988 0 0 Z " fill="#FA3981" transform="translate(233.32388019561768,330.86577892303467)"/>
<path d="M0 0 C0.680625 0.845625 1.36125 1.69125 2.0625 2.5625 C4.66502294 5.28620763 4.66502294 5.28620763 7.3359375 4.86328125 C8.19445312 4.70214844 9.05296875 4.54101562 9.9375 4.375 C12.55078125 3.93359375 12.55078125 3.93359375 15 4 C17.61785587 5.94661078 19.30305946 8.23384896 21 11 C20.34 11 19.68 11 19 11 C18.76666112 11.55754565 18.53332224 12.1150913 18.29291248 12.68953228 C16.66780762 15.59363629 14.66017082 17.604513 12.31340027 19.96748352 C11.83336007 20.45346596 11.35331987 20.93944841 10.858733 21.44015759 C9.25066076 23.0655585 7.63552736 24.68374977 6.02026367 26.30200195 C4.86514738 27.46637739 3.71042788 28.63114658 2.55607605 29.79627991 C-0.57943236 32.95800346 -3.72156956 36.11305562 -6.86576295 39.26614022 C-8.82892744 41.23516817 -10.79091297 43.20536344 -12.75253868 45.1759243 C-18.887672 51.33839153 -25.02678685 57.49685062 -31.17173845 63.64952785 C-38.27097838 70.75774214 -45.35693215 77.878859 -52.43166906 85.01145965 C-57.89888531 90.52183879 -63.37750863 96.02070259 -68.86500949 101.51088113 C-72.14375828 104.79173001 -75.41742631 108.07729869 -78.67936134 111.37487221 C-81.74509584 114.47344907 -84.82468962 117.55753187 -87.91567802 120.63091087 C-89.04925033 121.7629363 -90.17767976 122.90013793 -91.30059052 124.04273987 C-92.83110326 125.59851123 -94.37883961 127.13477932 -95.93244934 128.66743469 C-96.79541532 129.53333379 -97.65838129 130.39923288 -98.54749775 131.29137135 C-101 133 -101 133 -103.70092297 132.85621929 C-106.27923276 131.8960085 -107.62588518 130.86328228 -109.55078125 128.91015625 C-110.16630859 128.29076172 -110.78183594 127.67136719 -111.41601562 127.03320312 C-112.04185547 126.38287109 -112.66769531 125.73253906 -113.3125 125.0625 C-113.95767578 124.41603516 -114.60285156 123.76957031 -115.26757812 123.10351562 C-120 118.28095238 -120 118.28095238 -120 116 C-118.63202381 114.65314388 -118.63202381 114.65314388 -116.67915344 113.05003357 C-111.20518543 108.38989481 -106.19199386 103.30090527 -101.13354492 98.19946289 C-100.06359682 97.1243112 -98.99339931 96.04940766 -97.92297363 94.97473145 C-95.63379398 92.67567554 -93.34609856 90.37515673 -91.05949974 88.07353401 C-87.4449545 84.43579602 -83.82541921 80.80305076 -80.20491028 77.17124939 C-69.91586534 66.84886915 -59.63115363 56.5221975 -49.35668945 46.18530273 C-43.67049284 40.46463908 -37.97899832 34.7493031 -32.28149492 29.03989977 C-28.6785873 25.42888193 -25.0823578 21.8113813 -21.49083841 18.1890384 C-19.26223825 15.9444816 -17.02741991 13.7061998 -14.79073334 11.46970367 C-13.75246613 10.42900649 -12.71679079 9.38571631 -11.68387032 8.33971214 C-10.27782438 6.91659674 -8.86168283 5.50347664 -7.44499207 4.09095764 C-6.65434451 3.29624589 -5.86369696 2.50153414 -5.04909039 1.68274021 C-3 0 -3 0 0 0 Z " fill="#FBC06C" transform="translate(372,96)"/>
<path d="M0 0 C1.75 0.9375 1.75 0.9375 3.75 2.9375 C3.50520683 6.82155164 1.35462998 8.61517073 -1.375 11.1875 C-4.94697521 14.57407858 -8.1939314 18.1240285 -11.41162109 21.84082031 C-14.35806961 25.20125854 -17.4300048 28.440258 -20.5 31.6875 C-25.90489 37.42832101 -31.26719522 43.20263105 -36.5859375 49.0234375 C-43.78055184 56.89320627 -51.0307787 64.71082786 -58.3125 72.5 C-63.42108466 77.96498136 -68.49500697 83.45949152 -73.54296875 88.98046875 C-77.92208212 93.76887494 -82.33033323 98.53047075 -86.73388672 103.29638672 C-89.24014104 106.00927586 -91.74500446 108.72344859 -94.25 111.4375 C-95.24999324 112.52083957 -96.24999324 113.60417291 -97.25 114.6875 C-97.745 115.22375 -98.24 115.76 -98.75 116.3125 C-104.25 122.27083333 -109.75 128.22916667 -115.25 134.1875 C-115.74556396 134.7244751 -116.24112793 135.2614502 -116.75170898 135.81469727 C-117.74555225 136.89113138 -118.73985115 137.96714501 -119.73461914 139.04272461 C-122.33283175 141.8532276 -124.92125135 144.67196449 -127.49609375 147.50390625 C-128.29756836 148.38175781 -128.29756836 148.38175781 -129.11523438 149.27734375 C-130.13122989 150.39052145 -131.14445325 151.50623849 -132.15429688 152.625 C-136.38834857 157.25360171 -140.37640575 160.87477226 -146.25 163.1875 C-147.075 163.52265625 -147.9 163.8578125 -148.75 164.203125 C-151.37596614 164.97450255 -153.52860501 165.07356975 -156.25 164.9375 C-159.5918487 159.64623955 -160.07969611 155.01879538 -159.25 148.9375 C-156.83622707 140.93469331 -150.60804924 135.96165327 -144.5 130.67578125 C-140.41024842 127.1050265 -136.44477779 123.41695683 -132.5 119.6875 C-126.76185663 114.28513096 -120.99064591 108.92490086 -115.171875 103.609375 C-112.04356015 100.74872345 -108.9263228 97.8764025 -105.8125 95 C-105.27214111 94.50089111 -104.73178223 94.00178223 -104.17504883 93.48754883 C-103.08035108 92.47629388 -101.98570604 91.46498188 -100.89111328 90.45361328 C-98.17822414 87.94735896 -95.46405141 85.44249554 -92.75 82.9375 C-91.66666043 81.93750676 -90.58332709 80.93750676 -89.5 79.9375 C-70 61.9375 -70 61.9375 -68.37329102 60.43603516 C-67.29550437 59.44108036 -66.21786639 58.44596448 -65.14038086 57.45068359 C-62.34841249 54.87211678 -59.55352053 52.29682766 -56.75390625 49.7265625 C-56.17769531 49.19675781 -55.60148437 48.66695313 -55.0078125 48.12109375 C-53.91894136 47.1200348 -52.82917321 46.11995016 -51.73828125 45.12109375 C-50.2329766 43.73605828 -48.73943498 42.33957738 -47.25 40.9375 C-46.41045776 40.15802002 -46.41045776 40.15802002 -45.55395508 39.36279297 C-42.10303575 36.1947463 -42.10303575 36.1947463 -40.8125 31.8125 C-41.17097166 29.45682907 -41.65253301 27.23848856 -42.25 24.9375 C-41.73050781 24.49019531 -41.21101563 24.04289062 -40.67578125 23.58203125 C-36.72320346 20.15548969 -32.89172918 16.69303321 -29.25 12.9375 C-28.26 13.2675 -27.27 13.5975 -26.25 13.9375 C-22.99257856 14.50897745 -21.36573967 14.76240915 -18.25 13.9375 C-14.5737479 11.28085557 -11.44390036 8.14747704 -8.25 4.9375 C-2.99347826 -0.08315217 -2.99347826 -0.08315217 0 0 Z " fill="#853E2F" transform="translate(174.25,309.0625)"/>
<path d="M0 0 C4.75733745 2.47381547 7.52618453 5.24266255 10 10 C10.72381385 14.34288311 9.89619949 16.64168224 7.41935539 20.20508575 C4.29556342 24.1554274 0.64957014 27.63550032 -2.91186523 31.18652344 C-3.81149994 32.09126907 -4.71113464 32.99601471 -5.63803101 33.92817688 C-8.09404519 36.3975241 -10.55636621 38.86048748 -13.02032351 41.32190609 C-15.07987851 43.38038821 -17.13644226 45.4418462 -19.19306713 47.50325513 C-24.04442344 52.36568537 -28.9010626 57.22279409 -33.76098633 62.07666016 C-38.77075276 67.08037813 -43.77125153 72.09322357 -48.76734585 77.11058974 C-53.06354533 81.42440556 -57.36553004 85.73239152 -61.67217404 90.03578019 C-64.24162376 92.6034181 -66.80880463 95.17322467 -69.37038994 97.74871063 C-72.22476337 100.61799479 -75.09110059 103.47502914 -77.95874023 106.33105469 C-78.80409836 107.18405655 -79.64945648 108.03705841 -80.52043152 108.91590881 C-81.69584503 110.08080086 -81.69584503 110.08080086 -82.89500427 111.26922607 C-83.57101401 111.94540356 -84.24702375 112.62158104 -84.94351864 113.31824875 C-87.99072674 115.81019744 -90.98766159 116.79753232 -94.8125 117.5625 C-99.81748715 116.67926697 -102.92014646 113.97541379 -106 110 C-107.1978817 106.89517659 -107.64262542 104.27406572 -107 101 C-103.63559227 95.13052464 -98.94924844 90.6674192 -94.17993164 85.92114258 C-93.29005051 85.02775681 -92.40016937 84.13437103 -91.48332214 83.21391296 C-89.05406837 80.77558046 -86.61857789 78.34356992 -84.18160558 75.91295457 C-81.62648403 73.3629149 -79.07626658 70.80797819 -76.5252533 68.25382996 C-72.24251199 63.96745603 -67.95558451 59.68530282 -63.66625977 55.40551758 C-58.71260357 50.46275152 -53.76620267 45.51281254 -48.82349497 40.55909997 C-44.57227929 36.29879963 -40.31716762 32.04242003 -36.05879301 27.78927535 C-33.51859153 25.25218619 -30.97974711 22.71377866 -28.44441414 20.1718235 C-25.61847223 17.33901568 -22.78440583 14.51447379 -19.94946289 11.69067383 C-18.69545181 10.43059006 -18.69545181 10.43059006 -17.41610718 9.14505005 C-16.2533149 7.99071724 -16.2533149 7.99071724 -15.06703186 6.81306458 C-14.39839646 6.14518323 -13.72976107 5.47730188 -13.04086399 4.78918171 C-8.87032837 1.13296254 -5.62401581 -0.80343083 0 0 Z " fill="#843D2F" transform="translate(291,27)"/>
<path d="M0 0 C3.78171013 2.03630545 7.09528802 4.08475871 9 8 C9.68103564 11.18447222 9.66128556 13.81121385 9 17 C7.72430992 18.88881779 7.72430992 18.88881779 6.02377319 20.7190094 C5.06686144 21.75717647 5.06686144 21.75717647 4.09061813 22.8163166 C3.40071415 23.53693213 2.71081017 24.25754765 2 25 C1.31645069 25.71620955 0.63290138 26.43241909 -0.07136154 27.17033195 C-2.36656584 29.54518678 -4.68287862 31.8976799 -7.00537109 34.24584961 C-8.3165818 35.57655487 -8.3165818 35.57655487 -9.65428162 36.93414307 C-17.65113237 45.04203744 -25.67305341 53.12529832 -33.70339012 61.20001888 C-39.62713956 67.15708295 -45.53726256 73.12701711 -51.43031442 79.11445421 C-55.59152795 83.34003154 -59.7679879 87.550156 -63.95589697 91.74927527 C-66.45071586 94.25163715 -68.93832529 96.76028675 -71.40955734 99.28596306 C-74.16305948 102.0994285 -76.94778085 104.88066702 -79.73583984 107.65991211 C-80.54340225 108.49466568 -81.35096466 109.32941925 -82.18299866 110.18946838 C-86.63516585 114.56950012 -89.75910495 116.91417859 -96.10364723 117.20758915 C-99.02667365 116.88761252 -100.47263888 115.76055983 -102.5 113.6875 C-103.1496875 113.05199219 -103.799375 112.41648437 -104.46875 111.76171875 C-107.06995055 108.76901097 -107.52760761 106.16565374 -107.46634197 102.19191074 C-106.88958388 99.48101974 -105.91174995 98.33337378 -104.03852844 96.3044281 C-103.3994285 95.60893293 -102.76032856 94.91343777 -102.10186195 94.19686699 C-98.40777291 90.33580358 -94.66670304 86.52799912 -90.88354492 82.75415039 C-89.9981604 81.86701355 -89.11277588 80.97987671 -88.20056152 80.06585693 C-85.79576003 77.65743385 -83.38876356 75.25124929 -80.98055816 72.84623265 C-78.45357611 70.32179934 -75.9290539 67.79490793 -73.40412903 65.26841736 C-69.17201149 61.03448743 -64.93780483 56.80265537 -60.70239258 52.57202148 C-55.80447056 47.67956143 -50.91018975 42.78348092 -46.01774329 37.88554579 C-41.80882853 33.67209848 -37.59797515 29.46059604 -33.38548356 25.25072473 C-30.87272901 22.73952945 -28.3606558 20.22766261 -25.85033226 17.71403694 C-23.05956947 14.91985848 -20.26474614 12.12976404 -17.46948242 9.34008789 C-16.63675308 8.50533432 -15.80402374 7.67058075 -14.94606018 6.81053162 C-14.18773895 6.05503021 -13.42941772 5.29952881 -12.64811707 4.52113342 C-11.6579221 3.531504 -11.6579221 3.531504 -10.6477232 2.52188206 C-7.29489398 -0.5748824 -4.45619538 -0.37134962 0 0 Z " fill="#6B3227" transform="translate(463,199)"/>
<path d="M0 0 C3 1 3 1 4.60546875 3.9140625 C5.14430887 5.1460772 5.67121431 6.3833648 6.1875 7.625 C6.46013672 8.22957031 6.73277344 8.83414063 7.01367188 9.45703125 C8.87403945 13.83052694 9.43009718 17.28341847 9 22 C7.35128784 24.53239346 7.35128784 24.53239346 4.99169922 26.90391541 C4.10294601 27.81385254 3.21419281 28.72378967 2.29850769 29.66130066 C1.30092113 30.64687283 0.3029687 31.63207479 -0.6953125 32.61694336 C-1.7379576 33.67071551 -2.77911527 34.72596115 -3.81889343 35.78256226 C-6.64389448 38.64372423 -9.49065603 41.48225721 -12.34296036 44.31617045 C-14.72310483 46.68514059 -17.09212703 49.06507528 -19.46116352 51.44514567 C-25.05047171 57.06031276 -30.6572878 62.65755255 -36.27587891 68.2434082 C-42.06990199 74.00418563 -47.8362291 79.79163256 -53.58917618 85.59340757 C-58.53178105 90.57633434 -63.48979916 95.54353246 -68.46076584 100.49816614 C-71.42854598 103.45634511 -74.39046014 106.41982777 -77.3381958 109.39799309 C-80.11111033 112.19794971 -82.90284728 114.97767011 -85.7101841 117.74309921 C-86.73615096 118.76009957 -87.75538815 119.7839419 -88.76718712 120.81503868 C-97.37269377 129.57081132 -97.37269377 129.57081132 -102.53356934 129.64137268 C-107.66912924 128.69117112 -107.66912924 128.69117112 -109.84375 127.6875 C-110.44960938 127.41679687 -111.05546875 127.14609375 -111.6796875 126.8671875 C-112.28039062 126.58101563 -112.88109375 126.29484375 -113.5 126 C-114.13164062 125.71382813 -114.76328125 125.42765625 -115.4140625 125.1328125 C-116.94883082 124.43519053 -118.47536192 123.71949213 -120 123 C-119.48126047 118.83389541 -117.26661687 116.89669063 -114.36204529 114.00128174 C-113.87524813 113.51192131 -113.38845098 113.02256088 -112.88690239 112.51837134 C-111.25253147 110.8790557 -109.60766262 109.25069831 -107.96264648 107.62207031 C-106.78945584 106.44972579 -105.61692521 105.27672046 -104.44500732 104.10310364 C-101.25970283 100.91693719 -98.06522262 97.74011534 -94.86904407 94.56486225 C-91.53113081 91.24568231 -88.2016917 87.91802449 -84.87135315 84.59124756 C-78.56271038 78.29193508 -72.24645812 72.00030998 -65.92745215 65.71139503 C-58.73423779 58.55169401 -51.54952377 51.38348897 -44.3655194 44.21454859 C-29.58646733 29.46686783 -14.79674615 14.72992633 0 0 Z " fill="#6A3227" transform="translate(416,139)"/>
<path d="M0 0 C2.60322437 0.91207861 4.96130274 1.83658033 7.4375 3 C8.39172852 3.42925781 8.39172852 3.42925781 9.36523438 3.8671875 C10.91544015 4.56652845 12.45851611 5.28163857 14 6 C14 9 14 9 12.13150215 11.24322796 C11.24917852 12.12538384 10.3668549 13.00753973 9.45779419 13.91642761 C8.72487146 14.65531195 8.72487146 14.65531195 7.97714221 15.40912324 C6.33054814 17.06537683 4.67339812 18.71065005 3.01611328 20.35620117 C1.83647612 21.53826507 0.65748519 22.72097417 -0.52090454 23.90428162 C-3.72890349 27.12170878 -6.94627097 30.32961561 -10.16562796 33.5356729 C-13.52738902 36.88614436 -16.88146108 40.24429707 -20.23660278 43.60139465 C-25.87242695 49.23810253 -31.51421176 54.86878972 -37.15966797 60.49584961 C-43.69503835 67.01004611 -50.2215293 73.53303408 -56.74320018 80.06094378 C-63.00690233 86.33033199 -69.27624634 92.59404723 -75.54840469 98.85497475 C-78.2223745 101.52428902 -80.89443715 104.19549147 -83.56502914 106.86818504 C-86.70729278 110.01232634 -89.85447933 113.15145462 -93.00561142 116.28670692 C-94.16432969 117.44116706 -95.32133599 118.59734828 -96.47653961 119.75532532 C-98.0477371 121.32972324 -99.62490146 122.89788142 -101.2038269 124.46452332 C-102.52844342 125.78606053 -102.52844342 125.78606053 -103.87981987 127.13429546 C-106 129 -106 129 -108 129 C-109.17818551 126.44225544 -110.34265655 123.87965758 -111.5 121.3125 C-111.83386719 120.59126953 -112.16773438 119.87003906 -112.51171875 119.12695312 C-112.82753906 118.42119141 -113.14335937 117.71542969 -113.46875 116.98828125 C-113.76201172 116.34415283 -114.05527344 115.70002441 -114.35742188 115.03637695 C-115.16972321 112.46213477 -115.29693834 110.69804668 -115 108 C-113.33287716 105.69808483 -113.33287716 105.69808483 -110.94700623 103.29862976 C-110.04839371 102.3830278 -109.14978119 101.46742584 -108.22393799 100.52407837 C-107.21522373 99.52189611 -106.20624252 98.51998248 -105.19702148 97.51831055 C-104.14332498 96.45456472 -103.09068176 95.38977466 -102.03901672 94.32402039 C-99.1786127 91.43224987 -96.30241326 88.55669271 -93.42217898 85.68468833 C-91.01946206 83.28612781 -88.62434649 80.88004835 -86.22913319 78.47399837 C-80.57818297 72.79789401 -74.91418626 67.13504475 -69.24194336 61.48022461 C-63.38995514 55.64575664 -57.56025891 49.78967904 -51.74113411 43.92244881 C-46.74479301 38.88634396 -41.73500272 33.86390387 -36.71417862 28.85220748 C-33.71536736 25.85858242 -30.72191911 22.86005208 -27.74127007 19.84833336 C-24.93733858 17.01637544 -22.11698321 14.20187446 -19.28310966 11.39988899 C-18.24628725 10.36912354 -17.21538881 9.33235941 -16.19098282 8.28925323 C-14.79086018 6.86549294 -13.36688153 5.46531061 -11.94187927 4.06645203 C-11.15190269 3.27651698 -10.3619261 2.48658194 -9.54801083 1.67270947 C-6.17087722 -0.5442997 -3.96876548 -0.38952842 0 0 Z " fill="#863E2F" transform="translate(346,75)"/>
<path d="M0 0 C0.73578372 -0.00779995 1.47156744 -0.01559991 2.22964764 -0.02363622 C4.69047588 -0.04355007 7.14975652 -0.0277955 9.6105957 -0.01205444 C11.37660626 -0.01883089 13.14260975 -0.02773417 14.90859985 -0.03860474 C19.70205124 -0.06140158 24.49496464 -0.05256017 29.28842545 -0.03670931 C34.30427757 -0.02405232 39.32008357 -0.03578986 44.3359375 -0.04364014 C52.75928011 -0.05273728 61.18240355 -0.04074706 69.60571289 -0.01693726 C79.34489475 0.01027412 89.08355326 0.00146001 98.82272243 -0.02606928 C107.18381194 -0.04875748 115.54474388 -0.05196184 123.90585423 -0.03887594 C128.89991904 -0.03107984 133.89373784 -0.03004422 138.88778687 -0.04655838 C143.58295571 -0.06099965 148.2774497 -0.0509878 152.97254562 -0.0220871 C154.69587457 -0.01547443 156.4192603 -0.01737708 158.14256668 -0.02840042 C160.49506293 -0.04206133 162.84539565 -0.02493706 165.19775391 0 C166.51403275 0.00188513 167.83031158 0.00377026 169.18647766 0.00571251 C173.4755269 0.796562 174.98741313 2.19761538 177.59887695 5.63491821 C177.66277611 9.34106959 177.60563813 11.58133821 174.98752499 14.32120514 C171.67039937 16.14556403 169.09733099 16.01862894 165.31800842 16.02932739 C164.58307913 16.0354185 163.84814983 16.0415096 163.09094995 16.04778528 C160.62737093 16.06443953 158.1643074 16.05963616 155.70068359 16.05484009 C153.93482424 16.062179 152.16896969 16.07076471 150.40312195 16.08050537 C145.60561306 16.10274823 140.80827578 16.10565069 136.0107224 16.10375786 C132.00711361 16.10363829 128.00354136 16.11219676 123.99994272 16.12053537 C114.55576392 16.13977924 105.11167351 16.1426496 95.66748047 16.13589478 C85.920962 16.12925208 76.17482181 16.15212528 66.42838007 16.18920851 C58.06308782 16.21988318 49.6979174 16.23126799 41.33257002 16.22737169 C36.33510827 16.22530197 31.33794086 16.23081782 26.3405323 16.25526428 C21.64131761 16.27749218 16.94271892 16.27568673 12.24350166 16.25533676 C10.51854476 16.25191974 8.7935467 16.25704557 7.06864548 16.27132034 C4.71395165 16.28946301 2.36135877 16.27680387 0.00672913 16.25637817 C-1.31084853 16.25709068 -2.62842619 16.25780319 -3.98593044 16.25853729 C-8.26000647 15.47808486 -9.73607867 13.99487459 -12.40112305 10.63491821 C-13.02612305 8.13491821 -13.02612305 8.13491821 -12.40112305 5.63491821 C-8.56563543 0.80185785 -6.08949076 0.00872115 0 0 Z " fill="#030303" transform="translate(214.401123046875,416.3650817871094)"/>
<path d="M0 0 C31.68 0 63.36 0 96 0 C96.33 4.29 96.66 8.58 97 13 C99.79991832 16.31441407 99.79991832 16.31441407 104 17 C105.98 26.9 105.98 26.9 108 37 C106.68 37.99 105.36 38.98 104 40 C103.43411371 45.75317731 104.0878535 48.26356049 106 54 C7.66 54 -90.68 54 -192 54 C-192 53.67 -192 53.34 -192 53 C-103.56 53 -15.12 53 76 53 C74.35 49.37 72.7 45.74 71 42 C70.19361711 39.70655218 69.43081354 37.39630573 68.75 35.0625 C68.43546875 34.00160156 68.1209375 32.94070313 67.796875 31.84765625 C64.61817654 20.4884838 66 16.77228414 66 1 C44.22 1 22.44 1 0 1 C0 0.67 0 0.34 0 0 Z " fill="#BFB3AF" transform="translate(359,398)"/>
<path d="M0 0 C3.85027991 1.78200687 6.2799142 4.07675405 9.25 7.125 C10.14203125 8.03507813 11.0340625 8.94515625 11.953125 9.8828125 C12.62859375 10.58148438 13.3040625 11.28015625 14 12 C12.69316301 14.88330643 11.30277863 16.94564108 9.0640564 19.17645264 C8.46390213 19.77935623 7.86374786 20.38225983 7.2454071 21.00343323 C6.58869522 21.65295456 5.93198334 22.30247589 5.25537109 22.97167969 C4.56257553 23.6647673 3.86977997 24.35785492 3.1559906 25.07194519 C0.86651526 27.36002799 -1.4299613 29.64094651 -3.7265625 31.921875 C-5.31597709 33.5075592 -6.90495048 35.09368574 -8.49349976 36.68023682 C-12.67467585 40.85377854 -16.86182346 45.02127917 -21.05023193 49.18756104 C-25.32356063 53.44042719 -29.59122973 57.69896419 -33.859375 61.95703125 C-42.23404581 70.31025559 -50.61503443 78.65711048 -59 87 C-62.85027991 85.21799313 -65.2799142 82.92324595 -68.25 79.875 C-69.14203125 78.96492188 -70.0340625 78.05484375 -70.953125 77.1171875 C-71.96632813 76.06917969 -71.96632813 76.06917969 -73 75 C-71.69316301 72.11669357 -70.30277863 70.05435892 -68.0640564 67.82354736 C-67.46390213 67.22064377 -66.86374786 66.61774017 -66.2454071 65.99656677 C-65.58869522 65.34704544 -64.93198334 64.69752411 -64.25537109 64.02832031 C-63.56257553 63.3352327 -62.86977997 62.64214508 -62.1559906 61.92805481 C-59.86651526 59.63997201 -57.5700387 57.35905349 -55.2734375 55.078125 C-53.68402291 53.4924408 -52.09504952 51.90631426 -50.50650024 50.31976318 C-46.32532415 46.14622146 -42.13817654 41.97872083 -37.94976807 37.81243896 C-33.67643937 33.55957281 -29.40877027 29.30103581 -25.140625 25.04296875 C-16.76595419 16.68974441 -8.38496557 8.34288952 0 0 Z " fill="#9F4D3F" transform="translate(418,188)"/>
<path d="M0 0 C3.85027991 1.78200687 6.2799142 4.07675405 9.25 7.125 C10.14203125 8.03507812 11.0340625 8.94515625 11.953125 9.8828125 C12.62859375 10.58148438 13.3040625 11.28015625 14 12 C9.88590566 16.903976 5.61472792 21.52535807 1.07666016 26.03686523 C0.08048172 27.03326271 0.08048172 27.03326271 -0.93582153 28.04978943 C-3.10849559 30.22177269 -5.28467872 32.39020279 -7.4609375 34.55859375 C-8.97715772 36.07294682 -10.49315576 37.58752237 -12.00894165 39.10231018 C-15.98181703 43.07138372 -19.95768731 47.03744381 -23.9342041 51.00286865 C-27.99832554 55.05672562 -32.05958622 59.11344637 -36.12109375 63.16992188 C-44.07794327 71.11607526 -52.03796194 79.05904577 -60 87 C-61.12565907 86.0402279 -62.25060358 85.0796177 -63.37524414 84.11865234 C-64.00177383 83.58380219 -64.62830353 83.04895203 -65.27381897 82.49789429 C-67.99873286 80.13334916 -70.48104048 77.58039756 -73 75 C-71.69316301 72.11669357 -70.30277863 70.05435892 -68.0640564 67.82354736 C-67.46390213 67.22064377 -66.86374786 66.61774017 -66.2454071 65.99656677 C-65.58869522 65.34704544 -64.93198334 64.69752411 -64.25537109 64.02832031 C-63.56257553 63.3352327 -62.86977997 62.64214508 -62.1559906 61.92805481 C-59.86651526 59.63997201 -57.5700387 57.35905349 -55.2734375 55.078125 C-53.68402291 53.4924408 -52.09504952 51.90631426 -50.50650024 50.31976318 C-46.32532415 46.14622146 -42.13817654 41.97872083 -37.94976807 37.81243896 C-33.67643937 33.55957281 -29.40877027 29.30103581 -25.140625 25.04296875 C-16.76595419 16.68974441 -8.38496557 8.34288952 0 0 Z " fill="#B95C4E" transform="translate(298,68)"/>
<path d="M0 0 C5.62303757 4.67466337 10.79741554 9.67765667 15.9375 14.875 C16.71673828 15.65875 17.49597656 16.4425 18.29882812 17.25 C20.20154085 19.16438581 22.10186171 21.08108034 24 23 C22.68904505 25.95311939 21.3658972 27.82764609 18.91015625 29.91796875 C18.29648193 30.44527588 17.68280762 30.97258301 17.05053711 31.51586914 C16.39448486 32.06750732 15.73843262 32.61914551 15.0625 33.1875 C14.38517822 33.76556396 13.70785645 34.34362793 13.01000977 34.93920898 C8.34262671 38.90899571 3.61359175 42.80058886 -1.1484375 46.65625 C-6.84738899 51.34031972 -12.41486337 56.18129088 -18 61 C-22.51572304 57.22369848 -26.81275974 53.32390572 -30.9375 49.125 C-31.43056641 48.62742187 -31.92363281 48.12984375 -32.43164062 47.6171875 C-33.62345992 46.41379715 -34.81208678 45.20724635 -36 44 C-31.97894168 38.45746015 -27.68383178 33.20145367 -23.24316406 27.99365234 C-19.53093403 23.63848713 -15.89438897 19.22693972 -12.28125 14.7890625 C-8.22421194 9.82891665 -4.10986355 4.9163921 0 0 Z " fill="#6A3227" transform="translate(246,229)"/>
<path d="M0 0 C1.84155273 1.19995117 1.84155273 1.19995117 3.62109375 2.85546875 C4.30816406 3.49081543 4.99523437 4.12616211 5.703125 4.78076172 C10.1567609 9.08386018 14.56753678 13.42436646 18.9375 17.8125 C19.90412902 18.77555913 20.8709249 19.73845081 21.83789062 20.70117188 C22.74603516 21.61060547 23.65417969 22.52003906 24.58984375 23.45703125 C25.41347412 24.28178955 26.23710449 25.10654785 27.08569336 25.95629883 C30.32893853 29.41876603 30.38548292 32.14253646 30.36328125 36.73828125 C29.7918883 40.29566317 27.7487971 41.85459738 25 44 C24.67 44.33 24.34 44.66 24 45 C17.3962843 45.92683729 17.3962843 45.92683729 14.21875 43.81762695 C13.6309375 43.27581787 13.043125 42.73400879 12.4375 42.17578125 C11.74648193 41.54043457 11.05546387 40.90508789 10.34350586 40.25048828 C6.20073184 36.27214773 2.10450163 32.25233171 -1.94799805 28.18237305 C-3.45572096 26.66921334 -4.96881759 25.16157115 -6.48242188 23.65429688 C-7.44563392 22.69042526 -8.4085364 21.72624416 -9.37109375 20.76171875 C-10.23661865 19.89506592 -11.10214355 19.02841309 -11.99389648 18.13549805 C-15.07625504 14.85432605 -15.33394571 12.54652761 -15.29296875 8.0390625 C-14.83745033 4.86865433 -13.24684343 3.1807598 -11 1 C-7.40636577 -0.79681711 -3.90715957 -0.67847068 0 0 Z " fill="#B75B4E" transform="translate(193,277)"/>
<path d="M0 0 C40.80838115 -0.06863342 81.6167548 -0.12151216 122.42518212 -0.15319599 C127.24056747 -0.15694821 132.05595271 -0.16083117 136.87133789 -0.16479492 C138.30935158 -0.16597532 138.30935158 -0.16597532 139.77641604 -0.16717956 C155.30888568 -0.18024136 170.84132208 -0.20389947 186.37377199 -0.23145839 C202.30583889 -0.25949105 218.23788836 -0.27617173 234.16997892 -0.28226548 C244.00471162 -0.28638637 253.83935039 -0.2994122 263.67405418 -0.3237494 C270.41371198 -0.33958019 277.15332105 -0.3444064 283.8929961 -0.34050413 C287.78421701 -0.33857843 291.67527353 -0.34157624 295.56646538 -0.35761642 C299.78186057 -0.3748665 303.99690373 -0.36897992 308.21232605 -0.36076355 C310.06397134 -0.37387134 310.06397134 -0.37387134 311.95302361 -0.38724393 C313.08114883 -0.38127078 314.20927406 -0.37529764 315.37158489 -0.36914349 C316.3448081 -0.37028265 317.31803131 -0.37142181 318.32074612 -0.37259549 C321.53908736 0.0749692 323.38958594 1.08868482 326 3 C328.11964681 6.17947021 328.29226781 6.82677473 328 10.4375 C327.95875 11.19933594 327.9175 11.96117187 327.875 12.74609375 C326.83591116 15.42267527 325.50812648 16.63517016 323.09730983 18.15656614 C318.36490448 20.05970455 313.07360213 19.52835785 308.05410767 19.48101807 C306.72074029 19.48276321 305.38737425 19.48626709 304.05401552 19.49137473 C300.39608849 19.50030988 296.73863082 19.48433162 293.08076358 19.46426249 C289.13400221 19.44698062 285.18726708 19.4528347 281.24047852 19.45587158 C274.40443278 19.45796848 267.56853981 19.4454238 260.7325325 19.42292023 C250.84885283 19.39040515 240.965247 19.37999372 231.08151965 19.37496826 C215.04567826 19.36621484 199.00991828 19.33959796 182.97412109 19.30175781 C167.39730232 19.26503896 151.82050566 19.23672658 136.24365234 19.21972656 C135.28341611 19.21867567 134.32317987 19.21762477 133.33384557 19.21654204 C128.51659857 19.21132187 123.69935142 19.20626704 118.88210416 19.20129442 C78.92134577 19.15983091 38.96067826 19.08938117 -1 19 C-1 18.67 -1 18.34 -1 18 C98.66 17.67 198.32 17.34 301 17 C302.30459914 14.39080172 302.1326594 12.41057385 302.125 9.5 C302.12886719 8.03046875 302.12886719 8.03046875 302.1328125 6.53125 C302.16940053 4.00568946 302.16940053 4.00568946 301 2 C152.005 1.505 152.005 1.505 0 1 C0 0.67 0 0.34 0 0 Z " fill="#B71B53" transform="translate(169,466)"/>
<path d="M0 0 C0.33 0 0.66 0 1 0 C1.10957031 0.99257813 1.21914062 1.98515625 1.33203125 3.0078125 C2.95094383 17.13475208 5.84082068 30.23761262 10.79296875 43.578125 C12 47 12 47 12 49 C6.39 49 0.78 49 -5 49 C-17.10330646 25.38863166 -17.10330646 25.38863166 -16 17 C-14.04583723 14.05352378 -11.63940841 11.66008361 -9.125 9.1875 C-8.47402344 8.52041016 -7.82304687 7.85332031 -7.15234375 7.16601562 C-5.45051022 5.42733828 -3.73131451 3.70923284 -2 2 C-1.34 1.34 -0.68 0.68 0 0 Z " fill="#F6387F" transform="translate(137,408)"/>
<path d="M0 0 C1.20446777 0.01047363 2.40893555 0.02094727 3.64990234 0.03173828 C5.60283203 0.04140625 5.60283203 0.04140625 7.59521484 0.05126953 C8.9754258 0.06798149 10.35563413 0.08491139 11.73583984 0.10205078 C13.12385436 0.11208072 14.51187574 0.12120655 15.89990234 0.12939453 C19.30362176 0.15303147 22.70725212 0.18890347 26.11083984 0.22705078 C23.80083984 6.49705078 21.49083984 12.76705078 19.11083984 19.22705078 C9.21083984 19.22705078 -0.68916016 19.22705078 -10.88916016 19.22705078 C-10.0620218 15.091359 -9.06152444 11.8850723 -7.45166016 8.03955078 C-7.01982422 6.99412109 -6.58798828 5.94869141 -6.14306641 4.87158203 C-4.4998474 1.40597683 -3.90898538 0.30719591 0 0 Z " fill="#CCBEBA" transform="translate(438.88916015625,363.77294921875)"/>
<path d="M0 0 C3.39554235 -0.11660824 6.79056679 -0.18738372 10.1875 -0.25 C11.14720703 -0.28351563 12.10691406 -0.31703125 13.09570312 -0.3515625 C20.25784723 -0.45069252 20.25784723 -0.45069252 24.11328125 1.890625 C26.3666611 4.40993167 26.93837956 5.44541603 27.3125 8.8125 C26.92653707 12.74932188 25.76603321 14.23396679 23 17 C20.11734851 17.96088383 18.32337729 18.11670941 15.33203125 18.09765625 C14.43935547 18.09443359 13.54667969 18.09121094 12.62695312 18.08789062 C11.23379883 18.07532227 11.23379883 18.07532227 9.8125 18.0625 C8.87212891 18.05798828 7.93175781 18.05347656 6.96289062 18.04882812 C4.64186288 18.03704626 2.32096356 18.02059558 0 18 C0.495 16.515 0.495 16.515 1 15 C1.09435979 13.00179272 1.12990301 11.00042797 1.125 9 C1.12757813 7.948125 1.13015625 6.89625 1.1328125 5.8125 C1.12353635 2.91873122 1.12353635 2.91873122 0 0 Z " fill="#F91465" transform="translate(470,331)"/>
<path d="M0 0 C3 1 3 1 4.1875 2.6875 C5.25317758 5.72058236 5.38454086 7.79549282 5 11 C2.4551707 15.26872251 -0.45755815 18.69588061 -3.984375 22.1796875 C-4.91894531 23.1078125 -5.85351562 24.0359375 -6.81640625 24.9921875 C-7.79416093 25.95323683 -8.77202688 26.91417296 -9.75 27.875 C-10.74395327 28.8589068 -11.73744722 29.84327783 -12.73046875 30.828125 C-15.14917427 33.22334794 -17.57243438 35.61376276 -20 38 C-23.32635882 36.47427344 -24.95563002 35.06655496 -27 32 C-26.23816406 31.11699219 -25.47632813 30.23398437 -24.69140625 29.32421875 C-19.03604578 22.75572447 -13.44492065 16.15041687 -7.98046875 9.421875 C-5.37337539 6.2337135 -2.69717352 3.1121233 0 0 Z " fill="#843D2F" transform="translate(237,240)"/>
<path d="M0 0 C10.53754439 8.61355454 10.53754439 8.61355454 11.4140625 13.13671875 C11.69538525 17.61567313 11.47141916 19.41979181 8.5625 23 C7.716875 23.66 6.87125 24.32 6 25 C5.67 25.33 5.34 25.66 5 26 C0.88938676 26.57692817 -1.61462026 26.8861438 -5.16796875 24.61328125 C-8.86711476 21.41383226 -12.11793419 17.96284049 -15 14 C-13.453125 13.7215625 -13.453125 13.7215625 -11.875 13.4375 C-7.13535311 12.09155565 -4.67935739 8.98907522 -2 5 C-0.62949404 2.25452126 -0.62949404 2.25452126 0 0 Z " fill="#A04D3F" transform="translate(212,296)"/>
<path d="M0 0 C1.53625634 0.03956025 3.07197727 0.11067569 4.60546875 0.2109375 C5.39373047 0.23800781 6.18199219 0.26507813 6.99414062 0.29296875 C8.92827032 0.36330074 10.86098179 0.47091292 12.79296875 0.5859375 C8.89998187 6.18878529 4.56555585 10.97544337 -0.3515625 15.703125 C-2.27158985 17.4573211 -2.27158985 17.4573211 -3.20703125 19.5859375 C-8.81703125 19.5859375 -14.42703125 19.5859375 -20.20703125 19.5859375 C-17.90340188 15.74655521 -16.42388982 13.58991385 -13.33203125 10.6484375 C-10.861137 8.28897573 -8.9424797 6.19870894 -7 3.35546875 C-4.09087601 0.47075699 -3.78390557 0.18211087 0 0 Z " fill="#CABCB8" transform="translate(181.20703125,363.4140625)"/>
<path d="M0 0 C0.33 0 0.66 0 1 0 C1.66 6.6 2.32 13.2 3 20 C2.34 19.34 1.68 18.68 1 18 C-3.90282356 22.64172645 -8.09489511 27.49280079 -12 33 C-15.40318812 27.89521782 -16.7832213 23.12049547 -16 17 C-14.04827088 14.05199075 -11.63931557 11.65999232 -9.125 9.1875 C-8.47402344 8.52041016 -7.82304687 7.85332031 -7.15234375 7.16601562 C-5.45051022 5.42733828 -3.73131451 3.70923284 -2 2 C-1.34 1.34 -0.68 0.68 0 0 Z " fill="#F61464" transform="translate(137,408)"/>
<path d="M0 0 C0.78826172 0.02255859 1.57652344 0.04511719 2.38867188 0.06835938 C4.32243929 0.12695839 6.25522167 0.21663173 8.1875 0.3125 C7.29709463 1.54560435 6.39984296 2.77376564 5.5 4 C4.75169922 5.02673828 4.75169922 5.02673828 3.98828125 6.07421875 C3.09689453 7.18216797 3.09689453 7.18216797 2.1875 8.3125 C1.4759375 9.22 0.764375 10.1275 0.03125 11.0625 C-3.89744371 14.170917 -6.77606942 13.88919152 -11.625 13.625 C-12.41326172 13.60244141 -13.20152344 13.57988281 -14.01367188 13.55664062 C-15.94743929 13.49804161 -17.88022167 13.40836827 -19.8125 13.3125 C-18.92209463 12.07939565 -18.02484296 10.85123436 -17.125 9.625 C-16.62613281 8.94050781 -16.12726563 8.25601562 -15.61328125 7.55078125 C-14.72189453 6.44283203 -14.72189453 6.44283203 -13.8125 5.3125 C-13.1009375 4.405 -12.389375 3.4975 -11.65625 2.5625 C-7.72755629 -0.545917 -4.84893058 -0.26419152 0 0 Z " fill="#F61464" transform="translate(211.8125,335.6875)"/>
<path d="M0 0 C2.64 0 5.28 0 8 0 C7.04270084 1.12588014 6.08412105 2.2506715 5.125 3.375 C4.59132812 4.00148438 4.05765625 4.62796875 3.5078125 5.2734375 C2.38567993 6.55836651 1.20628025 7.79371975 0 9 C0 6.03 0 3.06 0 0 Z " fill="#CDBFBB" transform="translate(154,399)"/>
</svg>
