<?xml version="1.0" encoding="UTF-8"?>
<svg version="1.1" xmlns="http://www.w3.org/2000/svg" width="512" height="512">
<path d="M0 0 C1.3977919 0.00456207 1.3977919 0.00456207 2.82382202 0.00921631 C17.10566141 0.07820552 30.73733947 0.87341013 44.625 4.4375 C45.49205566 4.64648926 46.35911133 4.85547852 47.25244141 5.07080078 C70.74529502 10.79919523 93.24403301 20.49703114 111.625 36.4375 C112.44355469 37.12328125 113.26210938 37.8090625 114.10546875 38.515625 C133.16497718 54.94521676 148.27123823 79.66236854 150.90234375 105.12109375 C150.9375 107.3125 150.9375 107.3125 150.625 110.4375 C150.295 110.7675 149.965 111.0975 149.625 111.4375 C147.62890625 111.3515625 147.62890625 111.3515625 145.1875 111.0625 C144.38441406 110.97226563 143.58132813 110.88203125 142.75390625 110.7890625 C140.625 110.4375 140.625 110.4375 138.625 109.4375 C138.89054687 110.39785156 139.15609375 111.35820313 139.4296875 112.34765625 C143.25620532 126.88336051 144.92035995 141.63096082 144.4609375 156.6640625 C144.42967773 157.87465332 144.39841797 159.08524414 144.36621094 160.33251953 C144.29032451 162.68659299 144.17797532 165.03985173 144.02441406 167.39013672 C143.72474897 173.43275611 143.72474897 173.43275611 146.3359375 178.66625977 C148.35228109 180.42665098 150.42192002 181.92291604 152.625 183.4375 C160.44158637 191.0713842 163.61454105 200.93493837 164 211.625 C163.80470149 222.14670734 160.94656033 231.73921509 153.625 239.4375 C152.97660156 240.12585938 152.32820313 240.81421875 151.66015625 241.5234375 C145.0662627 247.93847318 135.8921609 253.10596894 126.484375 253.53515625 C125.78828125 253.52355469 125.0921875 253.51195312 124.375 253.5 C122.51875 253.4690625 122.51875 253.4690625 120.625 253.4375 C120.439375 254.5925 120.25375 255.7475 120.0625 256.9375 C115.84305109 275.63200281 104.40657049 292.54368262 91.625 306.4375 C90.82320313 307.32179688 90.02140625 308.20609375 89.1953125 309.1171875 C79.09403917 319.7483637 64.67111189 330.7554627 50.625 335.4375 C50.295 338.7375 49.965 342.0375 49.625 345.4375 C50.33398438 345.67339844 51.04296875 345.90929687 51.7734375 346.15234375 C55.10707428 347.65476362 57.42723804 349.67997269 60.25 352 C67.82810618 357.71538759 75.33374146 357.43655945 84.50146484 357.41162109 C99.57369152 357.59530194 113.35431137 365.04699862 123.78564453 375.57250977 C124.31932648 376.10989273 124.85300842 376.6472757 125.40286255 377.20094299 C125.80616791 377.60900681 126.20947327 378.01707062 126.625 378.4375 C126.62910889 377.34284424 126.63321777 376.24818848 126.63745117 375.12036133 C126.65927052 371.04778355 126.71358831 366.97616809 126.77758789 362.90405273 C126.80074364 361.14373009 126.81515794 359.38326939 126.82055664 357.62280273 C126.82986442 355.08750621 126.87089048 352.55437372 126.91796875 350.01953125 C126.9140361 349.23600784 126.91010345 348.45248444 126.90605164 347.6452179 C127.01310359 343.61020167 127.35333357 341.82319616 129.7421875 338.43164062 C133.28191899 335.98308653 135.18289279 335.85507473 139.45703125 335.94921875 C140.74931641 335.96533203 142.04160156 335.98144531 143.37304688 335.99804688 C144.72788157 336.03981726 146.08269928 336.08214191 147.4375 336.125 C148.81180866 336.15009931 150.18616116 336.17290964 151.56054688 336.19335938 C154.91647976 336.25223539 158.2701809 336.3344358 161.625 336.4375 C161.60397217 335.38925049 161.58294434 334.34100098 161.5612793 333.26098633 C161.30627194 317.87012411 163.95157078 304.23741515 174.6875 292.5 C186.18589354 281.8937232 199.30057182 279.66856396 214.34326172 280.25830078 C225.40907472 281.12736848 235.30246894 288.29951342 242.76953125 296.109375 C252.57969428 308.41854798 252.90314601 321.49677991 252.625 336.4375 C253.9567627 336.4060791 253.9567627 336.4060791 255.31542969 336.37402344 C258.61794455 336.30574323 261.9197067 336.2556513 265.22265625 336.21777344 C266.65051121 336.19769018 268.07828425 336.17041748 269.50585938 336.13574219 C271.56140368 336.08707331 273.61585855 336.06450033 275.671875 336.046875 C276.90776367 336.02592773 278.14365234 336.00498047 279.41699219 335.98339844 C283.30678305 336.5340081 284.21242194 337.41154645 286.625 340.4375 C287.10601807 342.85467529 287.10601807 342.85467529 287.07910156 345.57324219 C287.07864838 347.10437653 287.07864838 347.10437653 287.07818604 348.66644287 C287.05754089 349.76136047 287.03689575 350.85627808 287.015625 351.984375 C287.00996521 353.1107135 287.00430542 354.237052 286.99847412 355.39752197 C286.97608545 358.99461382 286.92588213 362.59070926 286.875 366.1875 C286.85493833 368.6262877 286.83668698 371.06509101 286.8203125 373.50390625 C286.77621244 379.48211074 286.70927463 385.45973419 286.625 391.4375 C287.23601562 391.72238281 287.84703125 392.00726563 288.4765625 392.30078125 C291.45232635 393.87523085 293.32882397 395.9773114 295.625 398.4375 C296.11226563 398.93121094 296.59953125 399.42492187 297.1015625 399.93359375 C306.62687191 410.11834766 309.16354234 423.01448277 308.93359375 436.52734375 C307.7516506 451.50361071 300.93695361 463.71182034 289.625 473.4375 C288.965 473.7675 288.305 474.0975 287.625 474.4375 C287.61098145 475.7692627 287.61098145 475.7692627 287.59667969 477.12792969 C287.55259319 480.43095919 287.49095254 483.73270007 287.41748047 487.03515625 C287.38930389 488.46276937 287.36807273 489.89053753 287.35400391 491.31835938 C287.33252608 493.37450332 287.28586026 495.42879002 287.234375 497.484375 C287.2029541 499.33820801 287.2029541 499.33820801 287.17089844 501.22949219 C286.5087254 505.12079529 285.73913191 506.07258666 282.625 508.4375 C279.41065627 508.93544465 279.41065627 508.93544465 275.51383686 508.93248463 C274.43355753 508.93985709 274.43355753 508.93985709 273.33145437 508.94737849 C270.9052866 508.95901818 268.48015726 508.94200594 266.05403137 508.92524719 C264.30237326 508.92770644 262.55071688 508.93191987 260.79906672 508.93774194 C255.97564163 508.94865511 251.15256051 508.93453121 246.32916892 508.91642153 C241.13148358 508.90123896 235.9338277 508.9090748 230.73612976 508.91410828 C220.55075739 508.92034292 210.36552047 508.90532335 200.18017415 508.88338266 C188.33017796 508.8587341 176.48020683 508.85577966 164.63018879 508.85397889 C143.4953729 508.85009984 122.3606182 508.82761301 101.22583008 508.79418945 C80.694903 508.76174716 60.16400824 508.7405084 39.63305664 508.73266602 C37.7357519 508.73193778 37.7357519 508.73193778 35.80011777 508.73119483 C30.71665809 508.72926633 25.6331984 508.7273542 20.54973869 508.72547873 C1.01376623 508.71795479 -18.52220089 508.7023249 -38.05816683 508.68498212 C-43.96791002 508.67973963 -49.8776531 508.67480683 -55.78739715 508.6706202 C-68.21678881 508.66171278 -80.64616494 508.64997143 -93.07554289 508.62905417 C-98.21784757 508.62043334 -103.36014142 508.61336034 -108.50245285 508.61053848 C-113.20181751 508.607884 -117.90115086 508.60063072 -122.60050301 508.58954801 C-124.30832833 508.58632529 -126.01615783 508.5848109 -127.72398617 508.5850983 C-130.02981449 508.58522231 -132.33554639 508.57929807 -134.64136028 508.57172108 C-135.92682363 508.56993251 -137.21228698 508.56814394 -138.53670377 508.56630117 C-141.375 508.4375 -141.375 508.4375 -142.375 507.4375 C-142.49166205 504.47298964 -142.54303432 501.53148267 -142.55200195 498.56591797 C-142.55857315 497.63401642 -142.56514435 496.70211487 -142.57191467 495.74197388 C-142.5917225 492.63787765 -142.60333466 489.53383028 -142.61328125 486.4296875 C-142.61735678 485.36813572 -142.6214323 484.30658394 -142.62563133 483.21286392 C-142.64653648 477.58055056 -142.66081172 471.94826179 -142.67016602 466.31591797 C-142.68116338 460.52726854 -142.71547252 454.73901069 -142.75533772 448.95049858 C-142.78165287 444.47884469 -142.78987163 440.00728129 -142.79344749 435.53555679 C-142.79828507 433.40437336 -142.80981709 431.27319319 -142.82848549 429.14208603 C-143.00296462 407.88062673 -140.0849634 390.82611013 -124.8125 374.75390625 C-113.80198074 364.29038394 -99.5318236 357.18446103 -84.09375 357.48828125 C-72.30527151 357.58862416 -65.6539397 355.17247814 -56.40234375 347.80859375 C-53.375 345.4375 -53.375 345.4375 -51.375 345.4375 C-50.85617601 341.75384969 -50.94229325 338.89944976 -52.375 335.4375 C-55.5404729 333.23683016 -58.89335659 331.79323485 -62.41015625 330.265625 C-90.002779 318.14619471 -109.92769394 289.61242461 -120.53515625 262.46875 C-121.61934691 259.36241769 -122.375 256.7443282 -122.375 253.4375 C-123.261875 253.52 -124.14875 253.6025 -125.0625 253.6875 C-136.67292708 253.64039888 -146.79842106 247.78148294 -155.125 240.1875 C-163.16072989 231.72294926 -165.89125513 220.65617239 -165.62109375 209.26171875 C-164.5827431 197.34540886 -159.21377262 187.39578166 -150.6015625 179.19921875 C-146.74524379 176.14799114 -141.45309067 172.4375 -136.375 172.4375 C-136.64763672 171.4475 -136.64763672 171.4475 -136.92578125 170.4375 C-145.56196742 136.42421291 -147.58310125 95.6483635 -130.0625 64.0625 C-116.65676353 42.68341701 -97.77746112 31.14570145 -73.65234375 25.25 C-69.81032892 24.41556645 -66.29730634 24.270815 -62.375 24.4375 C-62.14039062 23.86515625 -61.90578125 23.2928125 -61.6640625 22.703125 C-57.52702189 15.43196271 -48.76245874 10.79125331 -41.5 7.0625 C-40.88946777 6.74120117 -40.27893555 6.41990234 -39.64990234 6.08886719 C-27.03031608 -0.07926091 -13.71755026 -0.09440596 0 0 Z M178.75 302.25 C170.39597943 312.39698253 170.625 323.59207153 170.625 336.4375 C194.715 336.4375 218.805 336.4375 243.625 336.4375 C243.625 320.62752071 243.18160649 310.64978515 232.5859375 299.2421875 C226.01028204 292.94535842 218.3546103 288.98177841 209.16796875 288.34765625 C196.52023385 288.79450403 187.39926156 293.21673317 178.75 302.25 Z " fill="#3863CC" transform="translate(189.375,1.5625)"/>
<path d="M0 0 C0.33 0 0.66 0 1 0 C1.08636719 0.71542969 1.17273438 1.43085937 1.26171875 2.16796875 C4.63895008 26.11842579 19.23009108 50.03900923 38.453125 64.6796875 C55.92295334 77.47976058 77.03086985 87.53437296 99 88 C100.24942482 84.42827469 100.04567164 83.10713401 98.53125 79.5546875 C97.86796554 78.32060844 97.19040376 77.09411445 96.5 75.875 C95.22937318 73.60298698 94.09475706 71.37003258 93 69 C93.33 68.01 93.66 67.02 94 66 C94.82177734 66.70962891 94.82177734 66.70962891 95.66015625 67.43359375 C110.43411085 79.75723393 127.88137303 88.7699766 146.25 94.375 C147.02883545 94.61371826 147.8076709 94.85243652 148.61010742 95.09838867 C162.52830102 99.10837151 176.36868138 99.34991949 190.72436523 99.45629883 C204.24400455 99.57531665 216.49954944 100.05581614 226.91015625 109.78515625 C234.23176527 117.60419943 236.69329646 124.86035153 236.60693359 135.54833984 C236.17337348 144.87912877 232.46291129 151.98116159 225.8125 158.5 C218.03712379 164.75664663 209.51318407 166.38964253 199.75 167.1171875 C196.77515652 167.75654283 196.77515652 167.75654283 195.2890625 170.578125 C194.14362583 173.61873869 193.05741322 176.66670708 192.06103516 179.75952148 C187.53712227 193.70959449 180.70915461 205.97371202 171 217 C170.31421875 217.81726563 169.6284375 218.63453125 168.921875 219.4765625 C150.35840974 241.04490522 121.80902417 256.56285964 93.14013672 258.86230469 C57.96416622 261.12550881 27.17282612 251.24083064 0.45483398 228.16210938 C-15.7060565 213.78762787 -25.31370821 196.19481354 -32.31152344 175.96435547 C-33.59648205 171.65751909 -33.59648205 171.65751909 -36 168 C-37.62275181 167.86526968 -39.24866204 167.76812582 -40.875 167.6875 C-52.27219962 166.71186424 -60.82935347 162.28816123 -68.75 154.1875 C-75.1633348 145.10194236 -76.64861217 135.96991224 -75 125 C-72.44240449 116.39103698 -67.4317405 109.9785446 -60 105 C-54.01173086 101.76362153 -47.84434458 100.39880066 -41.15234375 99.39453125 C-39.02604283 99.21538546 -39.02604283 99.21538546 -38 98 C-37.80699117 96.17906933 -37.67579574 94.35152781 -37.5703125 92.5234375 C-37.49901123 91.38487305 -37.42770996 90.24630859 -37.35424805 89.07324219 C-37.27859619 87.85282227 -37.20294434 86.63240234 -37.125 85.375 C-34.82717558 52.09017787 -23.75812819 23.75812819 0 0 Z " fill="#F8CECE" transform="translate(108,80)"/>
<path d="M0 0 C0.72268066 0.13390137 1.44536133 0.26780273 2.18994141 0.40576172 C35.40639773 6.7447801 68.8620213 23.21057657 89 51.1875 C90.02010009 52.77896049 91.02018068 54.38342807 92 56 C92.86818359 57.32644531 92.86818359 57.32644531 93.75390625 58.6796875 C98.81291483 66.7435068 105 78.22421027 105 88 C104.40832031 87.7834375 103.81664062 87.566875 103.20703125 87.34375 C102.41683594 87.0653125 101.62664062 86.786875 100.8125 86.5 C100.03519531 86.2215625 99.25789062 85.943125 98.45703125 85.65625 C95.86777221 84.9646832 93.66742762 84.88629083 91 85 C91.17015625 85.680625 91.3403125 86.36125 91.515625 87.0625 C92.03791406 89.15165623 92.55712102 91.24158404 93.07421875 93.33203125 C93.70071731 95.81423442 94.34984753 98.29081674 95.01953125 100.76171875 C100.23223608 120.13609311 100.26433468 139.07526551 100 159 C93.92092466 159.07526474 87.84213212 159.12911748 81.76269531 159.16479492 C79.70307682 159.17969879 77.643489 159.20002892 75.58398438 159.22631836 C59.32529625 159.42836346 43.35939102 158.83490519 27.875 153.3125 C27.14474609 153.06048828 26.41449219 152.80847656 25.66210938 152.54882812 C17.76558006 149.7213392 10.34730871 146.02146221 3 142 C2.08863281 141.50757813 1.17726563 141.01515625 0.23828125 140.5078125 C-10.84521404 134.18968475 -20.76511734 125.7416753 -30 117 C-31.12728516 115.94425781 -31.12728516 115.94425781 -32.27734375 114.8671875 C-34 113 -34 113 -34 111 C-35.98 111 -37.96 111 -40 111 C-41.36939889 114.04052975 -40.92055291 115.2231118 -39.77734375 118.43359375 C-39.17584396 119.77358016 -38.56182168 121.10799332 -37.9375 122.4375 C-37.61966553 123.13891113 -37.30183105 123.84032227 -36.97436523 124.56298828 C-35.99573918 126.71484661 -35.00078187 128.85836639 -34 131 C-33.69481445 131.65468262 -33.38962891 132.30936523 -33.07519531 132.98388672 C-32.63965332 133.9180542 -32.63965332 133.9180542 -32.1953125 134.87109375 C-31.65648437 136.02738281 -31.11765625 137.18367187 -30.5625 138.375 C-30.06878906 139.41398438 -29.57507813 140.45296875 -29.06640625 141.5234375 C-28 144 -28 144 -28 146 C-33.51197492 145.46894594 -38.38191329 144.44453549 -43.5625 142.4375 C-44.58851318 142.04377197 -44.58851318 142.04377197 -45.63525391 141.64208984 C-57.23454211 137.05297995 -67.57807204 131.24622811 -77 123 C-77.73347656 122.42121094 -78.46695313 121.84242188 -79.22265625 121.24609375 C-92.46227439 110.43490645 -102.73602681 93.49829628 -107 77 C-107.27457031 75.95199219 -107.27457031 75.95199219 -107.5546875 74.8828125 C-110.24504938 57.46625929 -107.75052756 39.87883272 -98 25 C-94.69387521 20.64877801 -90.90723818 16.80824705 -87 13 C-86.39285156 12.38382813 -85.78570312 11.76765625 -85.16015625 11.1328125 C-63.88664523 -8.94438861 -26.19889007 -5.03592972 0 0 Z " fill="#4570C6" transform="translate(225,13)"/>
<path d="M0 0 C8.91 0 17.82 0 27 0 C27.33 4.95 27.66 9.9 28 15 C30.475 15.495 30.475 15.495 33 16 C36.80058475 12.19941525 34.64247106 5.36293408 35 0 C59.09 0 83.18 0 108 0 C108.495 7.425 108.495 7.425 109 15 C110.65 15.33 112.3 15.66 114 16 C115.98216903 14.01783097 115.41050924 10.16679941 115.5625 7.4375 C115.706875 4.983125 115.85125 2.52875 116 0 C124.91 0 133.82 0 143 0 C143 13.86 143 27.72 143 42 C134 40 134 40 131.375 39.39453125 C117.30726595 37.05762148 104.19724644 40.02152311 92.4921875 48.11328125 C82.86778131 55.39946964 75.49521182 65.94247382 73 78 C71.4401356 93.85335606 73.81439024 107.95688369 83.984375 120.70703125 C91.72728397 129.51534049 103.26442798 136.32348971 115 138 C122.37355821 138.41948182 128.94211002 138.19037965 136 136 C139.465 135.01 139.465 135.01 143 134 C143 141.26 143 148.52 143 156 C95.81 156 48.62 156 0 156 C0 104.52 0 53.04 0 0 Z " fill="#E8A87D" transform="translate(325,346)"/>
<path d="M0 0 C5.29265673 3.74692226 8.23398432 9.63759114 11.34716797 15.17919922 C14.39130311 20.37446324 17.95908182 25.21501491 21.4375 30.125 C22.75010923 32.02246197 24.06136699 33.92085975 25.37109375 35.8203125 C26.57898584 37.54809507 27.78853211 39.27472278 29 41 C29.55292725 41.79889648 30.10585449 42.59779297 30.67553711 43.42089844 C31.45102905 44.50806152 31.45102905 44.50806152 32.2421875 45.6171875 C32.68804199 46.24995605 33.13389648 46.88272461 33.59326172 47.53466797 C35.114249 49.37075396 35.114249 49.37075396 38.6875 50 C39.780625 50 40.87375 50 42 50 C42.99 50 43.98 50 45 50 C53.87515672 68.51104115 49.13004715 87.88365188 46.5 107.5 C45.345 116.245 44.19 124.99 43 134 C7.69 134 -27.62 134 -64 134 C-64.0825 119.60375 -64.165 105.2075 -64.25 90.375 C-64.28641602 85.85603027 -64.32283203 81.33706055 -64.36035156 76.68115234 C-64.37841797 71.0949707 -64.37841797 71.0949707 -64.3817749 68.46670532 C-64.38785353 66.65978028 -64.40178706 64.85286983 -64.42230225 63.04605103 C-64.6275784 43.98779192 -61.70196391 28.54323113 -48.25 14.09765625 C-44.2192499 10.33982152 -39.84730186 7.59079927 -35 5 C-34.06929687 4.49082031 -33.13859375 3.98164063 -32.1796875 3.45703125 C-22.67205378 -0.97407219 -10.15306031 -3.38567804 0 0 Z " fill="#A3C8FE" transform="translate(119,368)"/>
<path d="M0 0 C1.64163048 0.02775704 3.28298186 0.0926623 4.921875 0.19140625 C6.13423828 0.21364258 6.13423828 0.21364258 7.37109375 0.23632812 C21.97739685 0.69204478 34.42571762 6.23677085 45.29296875 15.95703125 C46.07800781 16.88 46.86304688 17.80296875 47.671875 18.75390625 C48.53294357 19.66179649 48.53294357 19.66179649 49.41140747 20.58802795 C57.19324639 30.33603483 55.55038696 41.9522139 55.35546875 53.796875 C55.34239647 56.1352642 55.33244001 58.47367271 55.32545471 60.81208801 C55.29885805 66.9363493 55.23020653 73.05942959 55.15252686 79.18322754 C55.06797496 86.54701587 55.03612622 93.91120136 54.9953537 101.27533722 C54.92770719 112.43567903 54.79349923 123.59343481 54.671875 134.75390625 C21.011875 134.75390625 -12.648125 134.75390625 -47.328125 134.75390625 C-48.483125 125.80265625 -49.638125 116.85140625 -50.828125 107.62890625 C-51.19357422 104.83276855 -51.55902344 102.03663086 -51.93554688 99.15576172 C-52.22334993 96.8942939 -52.51050115 94.63274299 -52.796875 92.37109375 C-52.94801758 91.23357666 -53.09916016 90.09605957 -53.25488281 88.92407227 C-55.99001875 67.07554593 -55.99001875 67.07554593 -51.828125 56.87890625 C-51.13203125 55.11933594 -51.13203125 55.11933594 -50.421875 53.32421875 C-50.0609375 52.47601563 -49.7 51.6278125 -49.328125 50.75390625 C-47.40755208 50.91666667 -45.48697917 51.07942708 -43.56640625 51.2421875 C-37.61170764 49.94316948 -33.74353438 42.42191957 -30.390625 37.69140625 C-29.55724609 36.52677856 -29.55724609 36.52677856 -28.70703125 35.33862305 C-23.22456405 27.65720312 -17.81720219 19.92246084 -12.421875 12.1796875 C-11.88916992 11.43211182 -11.35646484 10.68453613 -10.80761719 9.91430664 C-9.31354933 7.8004319 -9.31354933 7.8004319 -8.13769531 5.63842773 C-5.90772758 1.85274647 -4.30169678 0.33675359 0 0 Z " fill="#A3C8FE" transform="translate(262.328125,367.24609375)"/>
<path d="M0 0 C0.9168457 0.00684814 1.83369141 0.01369629 2.77832031 0.02075195 C9.96605368 0.19046586 16.08931372 1.3233172 22.625 4.4375 C23.79675781 4.9634375 23.79675781 4.9634375 24.9921875 5.5 C38.5795324 12.27016493 47.11192256 23.89671921 51.8984375 38.02734375 C56.34231261 52.76858539 53.68134849 67.53452977 47 81.125 C39.85487324 93.39675521 28.23164584 101.75544109 14.7578125 105.9296875 C-0.08411891 109.46348069 -14.06994331 107.32787029 -27.484375 100.234375 C-40.10141481 92.39135025 -48.78272343 80.55841206 -52.6875 66.25 C-55.59418904 50.6824443 -52.65762917 35.87259275 -44.375 22.4375 C-33.7802433 7.84288119 -18.00137065 -0.20827206 0 0 Z " fill="#FBE793" transform="translate(396.375,37.5625)"/>
<path d="M0 0 C11.39076931 -0.47215624 21.55673809 2.83982701 30.328125 10.1875 C37.59218342 17.04361311 44.23363017 26.11253451 44.6015625 36.43359375 C44.98298561 50.15286484 43.28995553 60.39587825 34.19921875 71.2265625 C27.34994569 78.40471506 17.41147971 84.54388161 7.328125 85.1875 C6.60367188 85.23777344 5.87921875 85.28804688 5.1328125 85.33984375 C-7.22874803 85.82423092 -18.82070794 81.34320966 -27.9765625 73.0390625 C-37.62378921 62.50269047 -40.49028728 51.12572689 -40.01953125 37.25 C-39.68222238 31.99813714 -38.27945993 27.75280446 -35.671875 23.1875 C-35.24777344 22.42179687 -34.82367188 21.65609375 -34.38671875 20.8671875 C-28.47610581 11.15336679 -20.35003457 4.94856692 -9.671875 1.1875 C-6.39373831 0.41266769 -3.34548714 0.23477103 0 0 Z " fill="#FBE793" transform="translate(444.671875,391.8125)"/>
<path d="M0 0 C2.29501063 2.05829148 3.86669275 4.49041331 5.53125 7.0703125 C6.25242004 8.14199173 6.25242004 8.14199173 6.98815918 9.23532104 C7.99696879 10.74645726 8.99486598 12.2649283 9.98242188 13.79003906 C11.49432893 16.11627444 13.04827107 18.40969993 14.609375 20.703125 C15.58599493 22.17792844 16.56004234 23.65443929 17.53125 25.1328125 C18.22788757 26.1566655 18.22788757 26.1566655 18.93859863 27.20120239 C21.21216499 30.77486521 22.00422519 32.50795195 21.96679688 36.86669922 C21 40 21 40 18 42 C15.3125 42.125 15.3125 42.125 13 42 C13.01665459 43.26120918 13.01665459 43.26120918 13.03364563 44.54789734 C13.13390105 52.47825194 13.20999184 60.40839321 13.25906086 68.33923626 C13.28513629 72.41645567 13.32049537 76.49315073 13.37719727 80.57006836 C13.43159253 84.50584363 13.461436 88.44111512 13.47438622 92.37723732 C13.48361281 93.8775812 13.5016309 95.37789802 13.52865028 96.87802696 C13.56504452 98.98268196 13.56994161 101.08526565 13.56762695 103.19018555 C13.58428154 104.98555 13.58428154 104.98555 13.60127258 106.81718445 C12.82302423 110.9368151 11.22724284 112.41325984 8 115 C5.21679688 115.64697266 5.21679688 115.64697266 2.21875 115.6640625 C1.12949219 115.67050781 0.04023438 115.67695313 -1.08203125 115.68359375 C-2.20996094 115.66425781 -3.33789062 115.64492188 -4.5 115.625 C-6.19189453 115.65400391 -6.19189453 115.65400391 -7.91796875 115.68359375 C-9.00722656 115.67714844 -10.09648437 115.67070312 -11.21875 115.6640625 C-12.20810547 115.65842285 -13.19746094 115.6527832 -14.21679688 115.64697266 C-18.09419189 114.74564838 -19.49738966 113.05754577 -22 110 C-22.60127258 106.81718445 -22.60127258 106.81718445 -22.56762695 103.19018555 C-22.56872215 102.19422615 -22.56872215 102.19422615 -22.56983948 101.17814636 C-22.56637286 98.99682148 -22.52756313 96.81766759 -22.48828125 94.63671875 C-22.47894965 93.11929999 -22.47183517 91.60186612 -22.46684265 90.08442688 C-22.44779966 86.10067775 -22.39872383 82.11784774 -22.34332275 78.13446045 C-22.29207098 74.06567823 -22.26931606 69.99674672 -22.24414062 65.92773438 C-22.19060098 57.95140227 -22.10532267 49.97581564 -22 42 C-23.11375 41.896875 -24.2275 41.79375 -25.375 41.6875 C-27.169375 41.3471875 -27.169375 41.3471875 -29 41 C-31 38 -31 38 -30.91381836 34.77685547 C-29.82458037 30.27498218 -28.00855721 27.3207571 -25.37890625 23.5703125 C-24.9189476 22.89451141 -24.45898895 22.21871033 -23.98509216 21.52243042 C-23.01681985 20.10490757 -22.04242349 18.69155042 -21.06225586 17.28222656 C-19.55840497 15.11910977 -18.07373064 12.94380051 -16.59179688 10.765625 C-15.6469175 9.38727699 -14.70099046 8.00964646 -13.75390625 6.6328125 C-13.30801651 5.98184601 -12.86212677 5.33087952 -12.40272522 4.66018677 C-8.52664239 -0.89731809 -6.74661316 -1.8212314 0 0 Z " fill="#3764CC" transform="translate(401,158)"/>
<path d="M0 0 C-0.268125 0.66902344 -0.53625 1.33804688 -0.8125 2.02734375 C-1.204375 3.00832031 -1.59625 3.98929688 -2 5 C-2.474375 6.17691406 -2.94875 7.35382812 -3.4375 8.56640625 C-3.96109214 9.89735549 -4.48180849 11.2294388 -5 12.5625 C-5.27634277 13.26850342 -5.55268555 13.97450684 -5.83740234 14.7019043 C-7.44453739 18.97711573 -8.30065646 22.72363958 -8.625 27.3125 C-9.51647085 34.06220789 -13.86152234 37.07013686 -18.7734375 41.17578125 C-42.40789232 61.16932804 -52.72472046 95.99960347 -55.25 125.625 C-55.52060298 129.08210224 -55.7723438 132.53981084 -56 136 C-56.66 136 -57.32 136 -58 136 C-65.18969588 102.87853694 -69.97766113 62.57445633 -51.25390625 32.1640625 C-40.16921778 16.23958047 -20.63303737 0 0 0 Z " fill="#4570C6" transform="translate(119,36)"/>
<path d="M0 0 C0.9168457 0.00684814 1.83369141 0.01369629 2.77832031 0.02075195 C9.96605368 0.19046586 16.08931372 1.3233172 22.625 4.4375 C23.79675781 4.9634375 23.79675781 4.9634375 24.9921875 5.5 C38.5795324 12.27016493 47.11192256 23.89671921 51.8984375 38.02734375 C56.34231261 52.76858539 53.68134849 67.53452977 47 81.125 C39.85487324 93.39675521 28.23164584 101.75544109 14.7578125 105.9296875 C-0.08411891 109.46348069 -14.06994331 107.32787029 -27.484375 100.234375 C-40.10141481 92.39135025 -48.78272343 80.55841206 -52.6875 66.25 C-55.59418904 50.6824443 -52.65762917 35.87259275 -44.375 22.4375 C-33.7802433 7.84288119 -18.00137065 -0.20827206 0 0 Z M-34.21484375 23.37890625 C-44.22996111 35.99336704 -45.68995671 48.81408024 -44.375 64.4375 C-41.91007484 75.20358567 -34.53023493 85.25430029 -25.375 91.4375 C-13.05824916 98.34136297 0.08362987 101.05602719 14.0625 97.375 C26.12500686 92.89819333 36.06760836 84.42864725 41.5625 72.75 C42.27391377 70.98863763 42.96469707 69.21865327 43.625 67.4375 C44.058125 66.344375 44.49125 65.25125 44.9375 64.125 C47.59195297 49.88747954 44.59913991 37.78356527 36.52734375 25.90625 C29.69223547 17.03604788 19.19818202 10.59693554 8.0859375 8.69140625 C-8.43153188 6.9872229 -22.53435682 11.0536366 -34.21484375 23.37890625 Z " fill="#3963CB" transform="translate(396.375,37.5625)"/>
<path d="M0 0 C1.15628906 -0.02126953 1.15628906 -0.02126953 2.3359375 -0.04296875 C5.91609859 0.31749116 7.88428003 1.39784864 10.33984375 4.015625 C11.81511666 6.50879137 12.11861905 8.05368429 12.1875 10.9375 C12.25130859 12.13632812 12.25130859 12.13632812 12.31640625 13.359375 C10.09007191 22.46596292 0.35236657 29.76549151 -6.08862305 36.16186523 C-7.94362213 38.00608656 -9.78761818 39.86083186 -11.63085938 41.71679688 C-12.81706713 42.90168394 -14.00389464 44.08595094 -15.19140625 45.26953125 C-15.73736954 45.819543 -16.28333282 46.36955475 -16.84584045 46.93623352 C-20.91453786 50.95568062 -24.76383523 54.57425388 -30.6875 54.8125 C-36.62448767 54.5581974 -39.47666328 51.35830112 -43.375 47.1875 C-43.82198242 46.72134277 -44.26896484 46.25518555 -44.72949219 45.77490234 C-58.9488233 30.93796392 -58.9488233 30.93796392 -58.9375 24.6875 C-58.72769854 19.7194015 -56.9158838 17.55977028 -53.375 14.1875 C-49.91832649 12.45916324 -46.16141694 12.8378831 -42.375 13.1875 C-37.48388175 15.12119791 -34.57970817 19.16784886 -31.375 23.1875 C-27.21281905 22.67368014 -25.31710065 20.46193122 -22.4609375 17.53125 C-21.53539062 16.59152344 -20.60984375 15.65179688 -19.65625 14.68359375 C-18.68709012 13.68529359 -17.71834468 12.68659092 -16.75 11.6875 C-14.84469792 9.73605093 -12.93453255 7.78954371 -11.0234375 5.84375 C-10.17958496 4.97556641 -9.33573242 4.10738281 -8.46630859 3.21289062 C-5.55306122 0.3914687 -3.95093374 0.03281506 0 0 Z " fill="#3B66CB" transform="translate(470.375,407.8125)"/>
<path d="M0 0 C1.9375 0.1875 1.9375 0.1875 4 1 C4.268125 1.66 4.53625 2.32 4.8125 3 C5.204375 3.66 5.59625 4.32 6 5 C8.32961443 5.35840222 10.66365343 5.68848712 13 6 C18.37574251 8.74057461 20.59318723 11.63095613 23 17 C23.375 20.3125 23.375 20.3125 23 23 C21 25 21 25 18.375 25.125 C17.59125 25.08375 16.8075 25.0425 16 25 C15.78085937 24.38511719 15.56171875 23.77023438 15.3359375 23.13671875 C15.01882813 22.32847656 14.70171875 21.52023438 14.375 20.6875 C14.07335937 19.88699219 13.77171875 19.08648437 13.4609375 18.26171875 C11.79474505 15.26154286 11.79474505 15.26154286 6 13 C6 18.61 6 24.22 6 30 C8.64 30.33 11.28 30.66 14 31 C18.54672396 34.00255356 21.32728731 36.79600497 23 42 C23.84519544 49.19355228 23.96124953 55.45039852 19.48828125 61.41015625 C16.15121589 64.97494785 13.53904826 66.88599642 8.625 67.25 C7.75875 67.1675 6.8925 67.085 6 67 C5.34 68.65 4.68 70.3 4 72 C2.02 71.67 0.04 71.34 -2 71 C-2 69.68 -2 68.36 -2 67 C-2.59167969 66.97421875 -3.18335938 66.9484375 -3.79296875 66.921875 C-9.03166882 66.54585085 -12.33928824 66.07907881 -16 62 C-18.58582788 57.9341259 -20.8727756 53.94572838 -20 49 C-18 47 -18 47 -15.625 46.875 C-12.01044235 48.42409614 -11.39227664 50.57810881 -9.89453125 54.08984375 C-9.04865257 56.17833477 -9.04865257 56.17833477 -7 58 C-5.35 58.33 -3.7 58.66 -2 59 C-2 51.74 -2 44.48 -2 37 C-4.64 37 -7.28 37 -10 37 C-14.18339702 34.97864179 -16.63715987 31.60095397 -19 27.6875 C-20.25145848 23.07274687 -20.55448424 19.56190349 -19 15 C-16.13471113 10.63099556 -12.92796956 6.96142947 -8 5 C-4.75 4.875 -4.75 4.875 -2 5 C-1.855625 4.360625 -1.71125 3.72125 -1.5625 3.0625 C-1 1 -1 1 0 0 Z " fill="#3E67C9" transform="translate(395,55)"/>
<path d="M0 0 C7.59 0 15.18 0 23 0 C25.05426251 14.98464581 27.06322001 29.96882359 28.75 45 C28.87737549 46.11930908 29.00475098 47.23861816 29.13598633 48.3918457 C29.25095459 49.43816162 29.36592285 50.48447754 29.484375 51.5625 C29.58459961 52.47128906 29.68482422 53.38007813 29.78808594 54.31640625 C30.01601551 57.20281388 30 60.10460695 30 63 C17.79 63 5.58 63 -7 63 C-5.87447272 44.99156348 -5.87447272 44.99156348 -5.09765625 38.7109375 C-5.01503036 38.03431061 -4.93240448 37.35768372 -4.84727478 36.66055298 C-4.67553325 35.26106002 -4.50161821 33.86183192 -4.32543945 32.46289062 C-4.06175148 30.36905635 -3.80470231 28.2744897 -3.54882812 26.1796875 C-2.47287345 17.43635793 -1.27058398 8.71745959 0 0 Z " fill="#DEE9FB" transform="translate(177,439)"/>
<path d="M0 0 C1.16015625 0.26554687 2.3203125 0.53109375 3.515625 0.8046875 C7.59390173 1.73190718 11.67813651 2.62928683 15.76611328 3.51269531 C17.53336353 3.89820695 19.29675238 4.30141626 21.05859375 4.7109375 C40.32312432 8.66116814 61.26775363 6.24692964 79.93359375 0.55078125 C82 0 82 0 85 0 C85.48036378 3.36254643 85.77640426 5.91968215 83.72265625 8.77734375 C81.88462093 10.61537907 79.98098783 12.31710367 78 14 C77.37480469 14.55429687 76.74960938 15.10859375 76.10546875 15.6796875 C74.7972864 16.83600346 73.481832 17.98413153 72.16015625 19.125 C67.15431466 23.47003429 62.26464297 27.94912863 57.3515625 32.3984375 C55.65797283 33.92927982 53.96025504 35.45557152 52.2578125 36.9765625 C50.88517379 38.20671276 49.52275559 39.44856878 48.1796875 40.7109375 C46.625 42.125 46.625 42.125 44 44 C40.80550765 43.65166862 39.10797843 42.49674445 36.828125 40.3046875 C36.25030273 39.7571582 35.67248047 39.20962891 35.07714844 38.64550781 C34.17270996 37.76910645 34.17270996 37.76910645 33.25 36.875 C31.99034802 35.67888168 30.72993732 34.48356185 29.46875 33.2890625 C28.86675781 32.71575195 28.26476562 32.14244141 27.64453125 31.55175781 C25.13417301 29.18301717 22.53395467 26.9267472 19.921875 24.671875 C16.72966392 21.89491089 13.60061431 19.04854868 10.4765625 16.1953125 C8.88816921 14.78730456 7.2596741 13.42259372 5.5859375 12.1171875 C4.85632813 11.54226563 4.12671875 10.96734375 3.375 10.375 C2.72273437 9.88773437 2.07046875 9.40046875 1.3984375 8.8984375 C-0.71630489 6.0275861 -0.22143282 3.45271182 0 0 Z " fill="#F5CDCE" transform="translate(146,340)"/>
<path d="M0 0 C4.49687296 4.10226619 7.5864348 8.67405437 10.8125 13.8125 C11.56563477 14.99489258 11.56563477 14.99489258 12.33398438 16.20117188 C13.56177145 18.13055156 14.78355583 20.06345663 16 22 C15.38125 22.28875 14.7625 22.5775 14.125 22.875 C11.86674235 23.93720042 11.86674235 23.93720042 10 26 C9.66688124 29.03576169 9.66688124 29.03576169 9.68115234 32.65283203 C9.67110672 33.33587402 9.6610611 34.01891602 9.65071106 34.72265625 C9.6197763 36.98436629 9.60281577 39.24595744 9.5859375 41.5078125 C9.56723408 43.07438182 9.5476613 44.64094099 9.5272522 46.20748901 C9.47583748 50.33382183 9.43626197 54.46018734 9.39910889 58.58666992 C9.35912759 62.7961441 9.30800854 67.00548118 9.2578125 71.21484375 C9.16094263 79.47647596 9.07760258 87.73816432 9 96 C3.39 96 -2.22 96 -8 96 C-8.01981934 93.88996582 -8.03963867 91.77993164 -8.06005859 89.60595703 C-8.12687877 82.64487068 -8.20451923 75.68393558 -8.28752708 68.72302437 C-8.33753492 64.50141835 -8.38386433 60.27983791 -8.421875 56.05810547 C-8.45867145 51.98610461 -8.50501554 47.91431542 -8.55806351 43.84249496 C-8.57663758 42.28675921 -8.59173435 40.73097803 -8.60334396 39.17517471 C-8.62015532 37.0008386 -8.6491766 34.82699047 -8.68115234 32.65283203 C-8.69447601 31.41373077 -8.70779968 30.17462952 -8.7215271 28.89797974 C-8.70198719 25.87386028 -8.70198719 25.87386028 -11 24 C-12.31747324 23.30251417 -13.64914193 22.63040043 -15 22 C-12.68935951 18.51959499 -10.37617786 15.04088644 -8.0625 11.5625 C-7.0734668 10.07266602 -7.0734668 10.07266602 -6.06445312 8.55273438 C-5.43603516 7.60849609 -4.80761719 6.66425781 -4.16015625 5.69140625 C-3.57886963 4.81685791 -2.99758301 3.94230957 -2.39868164 3.04125977 C-1 1 -1 1 0 0 Z " fill="#6ADCDC" transform="translate(396,168)"/>
<path d="M0 0 C4.14689982 1.66077299 7.06716167 4.65980945 10.25 7.6875 C11.41725351 8.78201327 12.58521929 9.87576745 13.75390625 10.96875 C14.31480957 11.4946875 14.87571289 12.020625 15.45361328 12.5625 C17.92914853 14.8637238 20.47885099 17.07473585 23.03515625 19.28515625 C25.424322 21.37033272 27.77367077 23.49727415 30.125 25.625 C33.6845614 28.83849293 37.28439311 31.96884701 41 35 C39.62803835 38.1623716 38.1434878 39.9936218 35.5 42.1875 C31.30212424 45.71892468 27.29464476 49.42382101 23.296875 53.1796875 C21.08148794 54.93541942 19.75879044 55.60769494 17 56 C10.80217815 47.93299379 4.91393407 39.67347013 -0.8815918 31.31347656 C-3.43599991 27.63423321 -5.98804769 23.96727995 -8.7109375 20.41015625 C-9.44570312 19.44980469 -10.18046875 18.48945313 -10.9375 17.5 C-11.56527344 16.7059375 -12.19304687 15.911875 -12.83984375 15.09375 C-14 13 -14 13 -14.1015625 11.015625 C-12.35282385 7.81580534 -9.42531467 6.18310665 -6.4375 4.25 C-5.82197266 3.83878906 -5.20644531 3.42757813 -4.57226562 3.00390625 C-3.05495359 1.99236489 -1.52833914 0.99480211 0 0 Z " fill="#A2C7FE" transform="translate(141,354)"/>
<path d="M0 0 C4.21654356 1.48635116 7.62478605 3.61249159 11.3125 6.125 C12.91544922 7.21167969 12.91544922 7.21167969 14.55078125 8.3203125 C15.76314453 9.15175781 15.76314453 9.15175781 17 10 C15.61617496 12.92574284 14.02802286 15.52410237 12.1640625 18.16796875 C11.31787354 19.37247681 11.31787354 19.37247681 10.45458984 20.60131836 C9.8508252 21.4547583 9.24706055 22.30819824 8.625 23.1875 C8.00447754 24.06865479 7.38395508 24.94980957 6.74462891 25.85766602 C5.46175046 27.67869971 4.17772383 29.49892504 2.89257812 31.31835938 C1.10608944 33.84967925 -0.67460166 36.38495468 -2.453125 38.921875 C-3.51028517 40.42717569 -4.56757042 41.93238855 -5.625 43.4375 C-6.10888184 44.12803467 -6.59276367 44.81856934 -7.09130859 45.5300293 C-9.61898071 49.11750613 -12.21369309 52.60541482 -15 56 C-19.55975452 54.75643058 -21.93923532 52.24873097 -25.1015625 48.94140625 C-29.38300643 44.56305721 -34.07171419 40.62791771 -39 37 C-37.62803835 33.8376284 -36.1434878 32.0063782 -33.5 29.8125 C-30.28383089 27.09157432 -27.12239599 24.32846673 -24 21.5 C-21.04130249 18.82951656 -18.07073528 16.17701942 -15.0625 13.5625 C-9.96622486 9.12549659 -4.98838733 4.55740534 0 0 Z " fill="#A2C7FE" transform="translate(234,354)"/>
<path d="M0 0 C4.17773851 1.3925795 6.76975218 3.17800434 9.16650391 6.91748047 C11.06738657 11.66690318 10.5669736 16.9658179 10.5 22 C10.51546875 23.16273438 10.5309375 24.32546875 10.546875 25.5234375 C10.51748664 31.94479498 10.40620428 36.16712417 6 41 C1.99713315 44.51767087 -1.59495797 45.3539022 -6.9375 45.28515625 C-11.2295991 44.69174103 -14.04427497 42.08754917 -16.8125 38.9375 C-20.0037059 33.73079563 -19.3787778 27.7220823 -19.5 21.8125 C-19.55414063 20.70068359 -19.60828125 19.58886719 -19.6640625 18.44335938 C-19.76169586 12.55397591 -19.52473742 8.83189941 -15.59375 4.26171875 C-10.73384249 -0.54593846 -6.6505174 -0.55250452 0 0 Z " fill="#3862CC" transform="translate(136,188)"/>
<path d="M0 0 C4.90313588 1.70742348 7.7191011 4.35677134 10 9 C10.38818359 11.76733398 10.38818359 11.76733398 10.3984375 14.74609375 C10.40423828 16.37321289 10.40423828 16.37321289 10.41015625 18.03320312 C10.39855469 19.15662109 10.38695312 20.28003906 10.375 21.4375 C10.38660156 22.55705078 10.39820313 23.67660156 10.41015625 24.83007812 C10.37352531 35.11726599 10.37352531 35.11726599 7 40 C3.30881209 43.50662851 0.38791207 44.2842571 -4.5625 44.4375 C-8.83749968 44.24634148 -11.81923665 44.08437658 -15 41 C-19.09188543 34.37068842 -19.61880299 29.07739371 -19.5 21.375 C-19.51546875 20.364375 -19.5309375 19.35375 -19.546875 18.3125 C-19.50622954 10.5695394 -18.00001211 7.35295471 -12.875 1.625 C-8.59738824 -0.79278056 -4.80080649 -0.74146621 0 0 Z " fill="#3862CC" transform="translate(250,188)"/>
<path d="M0 0 C3.11086907 1.20444003 5.26974093 2.97992674 7.671875 5.2578125 C8.66767578 6.19560547 8.66767578 6.19560547 9.68359375 7.15234375 C10.36550781 7.80332031 11.04742187 8.45429688 11.75 9.125 C12.44738281 9.78371094 13.14476562 10.44242187 13.86328125 11.12109375 C15.57950489 12.74327774 17.29153435 14.36965379 19 16 C17.11242808 22.38179076 15.10674561 28.67976316 13 35 C5.08 35 -2.84 35 -11 35 C-13.69330566 28.69199463 -16.21502268 22.61442531 -18 16 C-15.37854824 13.51705852 -12.75225183 11.03930236 -10.125 8.5625 C-9.37863281 7.85544922 -8.63226563 7.14839844 -7.86328125 6.41992188 C-7.14785156 5.74638672 -6.43242187 5.07285156 -5.6953125 4.37890625 C-5.03547363 3.7557251 -4.37563477 3.13254395 -3.69580078 2.49047852 C-2 1 -2 1 0 0 Z " fill="#DCE8FB" transform="translate(188,396)"/>
<path d="M0 0 C4.52307692 3.04615385 4.52307692 3.04615385 6 6 C6.5 9.25 6.5 9.25 6 13 C2.52763624 17.42575843 -1.61273469 19.58568214 -7 21 C-16.59442541 21.90066246 -26.04661929 22.27030014 -34 16 C-36.51715479 13.19132617 -36.99173559 12.45454257 -37.0625 8.5625 C-35.53325955 3.43504672 -32.69562979 1.49490383 -28.24609375 -0.97265625 C-19.33712 -4.97146493 -8.77802855 -3.81024316 0 0 Z " fill="#F9A7A7" transform="translate(279,248)"/>
<path d="M0 0 C2.98934952 1.73483989 5.0515641 3.37843975 7.06640625 6.19921875 C7.69140625 9.19921875 7.69140625 9.19921875 7.06640625 12.19921875 C3.69772925 16.62060731 -0.56654112 19.73689137 -5.93359375 21.19921875 C-15.74819022 22.24870035 -24.6606734 22.29234473 -32.93359375 16.19921875 C-35.62266315 13.9299362 -35.88910062 13.49954736 -36.43359375 9.82421875 C-35.93359375 6.19921875 -35.93359375 6.19921875 -33.99609375 3.51171875 C-23.85285451 -4.1474619 -11.68271353 -5.48529383 0 0 Z " fill="#F9A7A7" transform="translate(127.93359375,247.80078125)"/>
<path d="M0 0 C2.20117188 0.40209961 2.20117188 0.40209961 3.20117188 1.40209961 C3.48891803 4.19851592 3.57499982 5.82733147 2.01997375 8.21821594 C1.18988045 9.0542762 1.18988045 9.0542762 0.34301758 9.90722656 C-0.28150803 10.54751297 -0.90603363 11.18779938 -1.54948425 11.8474884 C-2.23375992 12.52164291 -2.91803558 13.19579742 -3.62304688 13.89038086 C-4.32146194 14.59357956 -5.01987701 15.29677826 -5.73945618 16.02128601 C-7.21884042 17.50407139 -8.70455245 18.98056641 -10.19604492 20.45117188 C-12.477915 22.70628514 -14.73191768 24.98679128 -16.984375 27.27124023 C-18.42483184 28.70839303 -19.86683895 30.14399401 -21.31054688 31.57788086 C-21.98470139 32.26215652 -22.6588559 32.94643219 -23.35343933 33.65144348 C-23.99372574 34.27596909 -24.63401215 34.90049469 -25.29370117 35.54394531 C-25.85107468 36.09734085 -26.40844818 36.65073639 -26.98271179 37.22090149 C-29.42760706 38.81105606 -30.93588792 38.80076468 -33.79882812 38.40209961 C-36.02184303 36.40966338 -37.87357378 34.52485849 -39.79882812 32.27709961 C-40.30671875 31.70733398 -40.81460937 31.13756836 -41.33789062 30.55053711 C-42.84467888 28.85057087 -44.32286567 27.128842 -45.79882812 25.40209961 C-46.28561035 24.85110596 -46.77239258 24.3001123 -47.27392578 23.73242188 C-50.7557712 19.72502653 -50.7557712 19.72502653 -51.17382812 16.58959961 C-50.79882812 14.40209961 -50.79882812 14.40209961 -49.79882812 13.40209961 C-47.67382812 12.90209961 -47.67382812 12.90209961 -44.79882812 13.40209961 C-40.18012734 17.05066233 -36.47401699 21.83595587 -32.79882812 26.40209961 C-27.73692151 26.04210328 -25.30832332 23.36301415 -22.01757812 19.83569336 C-20.91739507 18.69955073 -19.81713224 17.56348535 -18.71679688 16.42749023 C-17.00158692 14.63131843 -15.29077798 12.83110401 -13.58251953 11.02832031 C-11.92556355 9.28697131 -10.25368841 7.56101826 -8.58007812 5.83569336 C-8.07472534 5.29198593 -7.56937256 4.7482785 -7.04870605 4.18809509 C-4.72949433 1.80520879 -3.34734931 0.48090407 0 0 Z " fill="#6ADBDC" transform="translate(470.798828125,415.597900390625)"/>
<path d="M0 0 C4.01407287 0.44756213 6.74548028 1.85033608 10.125 4 C17.28463483 8.52645606 24.67356867 9.22375172 33 8 C38.17960049 6.16626344 43.08303178 3.91696822 47 0 C49.625 0.375 49.625 0.375 52 1 C52.495 3.475 52.495 3.475 53 6 C45.1136672 13.70709797 36.53228922 17.46816604 25.5 17.625 C14.46771078 17.46816604 5.8863328 13.70709797 -2 6 C-1.125 1.125 -1.125 1.125 0 0 Z " fill="#3F66CC" transform="translate(163,264)"/>
<path d="M0 0 C6 1 6 1 7.85546875 2.75 C9.18953807 5.37260727 9.37057022 7.06968726 9.3125 10 C9.30863281 10.845625 9.30476563 11.69125 9.30078125 12.5625 C8.97756111 15.18184242 8.42583984 16.78732546 7 19 C4 21 4 21 0 21 C0 14.07 0 7.14 0 0 Z " fill="#F7E594" transform="translate(401,93)"/>
<path d="M0 0 C0 5.61 0 11.22 0 17 C-6 16 -6 16 -7.84375 14.71484375 C-9.72944773 11.91815016 -9.52888458 9.44925646 -9.421875 6.1640625 C-9 4 -9 4 -6.75 1.4375 C-4 0 -4 0 0 0 Z " fill="#ECDD97" transform="translate(393,68)"/>
</svg>
