<?xml version="1.0" encoding="UTF-8"?>
<svg version="1.1" xmlns="http://www.w3.org/2000/svg" width="512" height="512">
<path d="M0 0 C5.76948126 1.23525801 10.86145756 4.19962801 16.03417969 6.94433594 C17.29257155 7.59506321 18.55177819 8.24421711 19.81176758 8.8918457 C23.43917171 10.76269535 27.04972251 12.66409809 30.65917969 14.56933594 C32.33719419 15.44634807 34.01552724 16.3227513 35.69433594 17.19824219 C38.66595419 18.75319646 41.63091973 20.32008964 44.59277344 21.89355469 C50.30455484 24.92099655 56.04764799 27.88774946 61.7911377 30.85443115 C63.65852323 31.81899686 65.52558563 32.7841855 67.39257812 33.74951172 C72.96215936 36.62871354 78.53316515 39.50509969 84.10775757 42.37458801 C91.30524251 46.08020369 98.48904915 49.81107072 105.65917969 53.56933594 C106.60615723 54.06369141 107.55313477 54.55804688 108.52880859 55.06738281 C111.08075942 56.40698472 113.62168582 57.76509158 116.15917969 59.13183594 C116.88903076 59.51315674 117.61888184 59.89447754 118.37084961 60.28735352 C122.37131576 62.47663672 124.94550363 64.27196366 126.65917969 68.56933594 C126.76855469 71.17480469 126.76855469 71.17480469 126.40917969 73.75683594 C126.24675781 75.04654297 126.24675781 75.04654297 126.08105469 76.36230469 C125.65917969 78.56933594 125.65917969 78.56933594 124.65917969 80.56933594 C125.34298706 80.39616348 126.02679443 80.22299103 126.73132324 80.04457092 C133.20273628 78.40660947 139.67529867 76.77327863 146.14916229 75.14502811 C149.4767109 74.30794137 152.80380252 73.46912444 156.12988281 72.6262207 C159.96123893 71.65535209 163.7945263 70.6922469 167.62792969 69.72949219 C168.81157104 69.42842056 169.9952124 69.12734894 171.21472168 68.81715393 C191.35804533 63.77996526 210.57348883 64.37387261 229.79199219 72.38574219 C230.73816406 72.77632813 231.68433594 73.16691406 232.65917969 73.56933594 C233.66207031 74.0140625 234.66496094 74.45878906 235.69824219 74.91699219 C238.67060293 75.88166305 238.67060293 75.88166305 241.29980469 74.37402344 C242.16089844 73.73722656 243.02199219 73.10042969 243.90917969 72.44433594 C257.27675716 63.19266106 272.4854992 61.47102567 288.34521484 64.30392456 C293.09238534 65.28055772 297.7801789 66.47844185 302.47167969 67.69042969 C304.18564685 68.11591525 305.90009564 68.53946482 307.61499023 68.9611969 C312.06399128 70.06084199 316.50590327 71.18677359 320.94677734 72.31872559 C325.49252932 73.47193908 330.04495314 74.59818734 334.59667969 75.72753906 C341.22115643 77.37559747 347.84335712 79.03225849 354.45996094 80.71166992 C355.14868286 80.88573868 355.83740479 81.05980743 356.54699707 81.239151 C359.28785025 81.9373595 361.97455618 82.67446143 364.65917969 83.56933594 C364.51480469 82.98925781 364.37042969 82.40917969 364.22167969 81.81152344 C361.5751594 70.67408389 361.5751594 70.67408389 364.1394043 65.6953125 C366.98295879 61.61475891 370.97255624 59.86976591 375.35058594 57.74121094 C376.20990219 57.30730042 377.06921844 56.87338989 377.95457458 56.42633057 C380.70306249 55.04234934 383.46174643 53.68032606 386.22167969 52.31933594 C388.0186524 51.4210927 389.81488394 50.52136512 391.61035156 49.62011719 C394.29751679 48.27150563 396.98514205 46.92394503 399.6756897 45.58209229 C408.03195381 41.40921967 416.28973891 37.05948068 424.54269409 32.68688965 C429.89546529 29.86050173 435.27960552 27.09425146 440.65917969 24.31933594 C443.13721021 23.03970922 445.61498293 21.7595836 448.09277344 20.47949219 C448.71333115 20.15898392 449.33388885 19.83847565 449.97325134 19.508255 C454.44498437 17.19822346 458.91414058 14.88325981 463.38183594 12.56542969 C464.00335541 12.24299286 464.62487488 11.92055603 465.26522827 11.58834839 C468.23726387 10.04630847 471.20905183 8.5037932 474.18066406 6.9609375 C475.23705078 6.41276367 476.2934375 5.86458984 477.38183594 5.29980469 C478.30746338 4.81922607 479.23309082 4.33864746 480.18676758 3.84350586 C481.00266357 3.42302979 481.81855957 3.00255371 482.65917969 2.56933594 C483.38298828 2.19067383 484.10679687 1.81201172 484.85253906 1.421875 C487.02150905 0.39835565 488.7044152 0.2023186 491.09667969 0.13183594 C491.83789062 0.091875 492.57910156 0.05191406 493.34277344 0.01074219 C496.93791703 0.87769924 498.35428834 2.72938077 500.65917969 5.56933594 C501.15467925 8.3671668 501.34135742 10.55825127 501.30082703 13.35009766 C501.30933255 14.1267169 501.31783806 14.90333614 501.32660133 15.7034893 C501.34886392 18.30246411 501.33543726 20.9000061 501.32202148 23.49902344 C501.3304348 25.36355617 501.34095997 27.22808039 501.35343933 29.09259033 C501.38051463 34.15460261 501.37577968 39.21612259 501.36373878 44.27817535 C501.35661272 48.50304581 501.36510306 52.72782492 501.37364417 56.95268822 C501.39360403 66.91808659 501.38801794 76.88324509 501.3659668 86.84863281 C501.34359627 97.13318064 501.36120845 107.41710102 501.39901608 117.70158958 C501.43023161 126.52976965 501.43817169 135.35775528 501.42706233 144.18598366 C501.42056921 149.45955266 501.42260662 154.73275942 501.44638634 160.00628662 C501.46760413 164.96416888 501.45970537 169.92116409 501.42929268 174.87899017 C501.4229536 176.69907763 501.42685422 178.51923363 501.4417038 180.33927155 C501.4603299 182.82339432 501.44203299 185.30459811 501.41435242 187.78857422 C501.42841887 188.50987959 501.44248532 189.23118496 501.45697802 189.97434807 C501.39435111 192.76079338 501.1892645 194.93448779 499.36697924 197.11692047 C496.22173903 199.81575583 493.1240695 201.43552655 489.19042969 202.64746094 C488.08763672 202.99574951 486.98484375 203.34403809 485.84863281 203.70288086 C484.63111328 204.07131104 483.41359375 204.43974121 482.15917969 204.81933594 C480.85085142 205.22475069 479.54292315 205.63145801 478.23535156 206.03930664 C476.02185103 206.72903241 473.80786985 207.4169535 471.59216309 208.0995636 C465.53875658 209.96780763 459.50827632 211.90205051 453.48205566 213.85610962 C448.60259355 215.43733486 443.71911869 217.00594992 438.83520508 218.57336426 C436.38892433 219.36092791 433.94408651 220.15298794 431.50073242 220.94958496 C428.02660684 222.08028668 424.54692188 223.19202691 421.06542969 224.29980469 C420.01863037 224.64510727 418.97183105 224.99040985 417.89331055 225.34617615 C412.36237111 227.08452572 408.30817252 228.16334486 402.65917969 226.56933594 C398.96629615 223.83981332 397.81067637 222.45026111 397.02636719 217.88964844 C396.90519531 216.79394531 396.78402344 215.69824219 396.65917969 214.56933594 C395.52738281 215.14683594 394.39558594 215.72433594 393.22949219 216.31933594 C391.74782762 217.06954585 390.26605096 217.81953441 388.78417969 218.56933594 C388.0378125 218.95089844 387.29144531 219.33246094 386.52246094 219.72558594 C385.80703125 220.08652344 385.09160156 220.44746094 384.35449219 220.81933594 C383.69465332 221.15449219 383.03481445 221.48964844 382.35498047 221.83496094 C380.65917969 222.56933594 380.65917969 222.56933594 378.65917969 222.56933594 C378.74167969 223.68308594 378.82417969 224.79683594 378.90917969 225.94433594 C378.84782129 234.64188947 374.73111068 241.41159573 368.88183594 247.58886719 C362.08251541 253.64731272 355.63428464 255.74193411 346.65917969 255.56933594 C346.74167969 256.51808594 346.82417969 257.46683594 346.90917969 258.44433594 C346.84176049 266.80431653 342.55109982 273.69526845 336.92871094 279.58886719 C330.55517418 285.15062818 323.98337964 287.16655207 315.65917969 287.56933594 C315.58441406 288.24738281 315.50964844 288.92542969 315.43261719 289.62402344 C313.97188865 299.96369018 309.81934814 307.5612079 301.67480469 314.16699219 C295.67822964 318.33902793 289.32872023 319.71445288 282.09667969 319.69433594 C281.16726563 319.69691406 280.23785156 319.69949219 279.28027344 319.70214844 C276.91770493 319.58243558 274.91887206 319.23926826 272.65917969 318.56933594 C272.41167969 319.43558594 272.16417969 320.30183594 271.90917969 321.19433594 C268.87868698 329.37666624 262.60919864 335.051808 256.59667969 341.13183594 C255.70529297 342.06447266 254.81390625 342.99710937 253.89550781 343.95800781 C246.64123069 351.29596801 238.94252626 357.06992478 228.25634766 357.31518555 C227.58490723 357.29593018 226.9134668 357.2766748 226.22167969 357.25683594 C225.49867676 357.24467041 224.77567383 357.23250488 224.03076172 357.2199707 C215.27874254 356.80787142 208.23265434 353.15387771 201.72167969 347.38183594 C197.10738962 342.28123589 193.37505582 335.37655361 193.34667969 328.38183594 C193.50136719 326.98964844 193.50136719 326.98964844 193.65917969 325.56933594 C192.95792969 325.47136719 192.25667969 325.37339844 191.53417969 325.27246094 C180.67490828 323.56094533 173.74440427 320.1470136 166.65917969 311.56933594 C162.72831772 305.92792597 161.9368053 300.34340084 161.65917969 293.56933594 C160.38042969 293.50746094 159.10167969 293.44558594 157.78417969 293.38183594 C149.0859499 292.37136654 142.24600266 288.08529885 136.35058594 281.73730469 C131.51502598 275.53930059 130.14913568 269.28614276 129.65917969 261.56933594 C128.38042969 261.50746094 127.10167969 261.44558594 125.78417969 261.38183594 C117.65674963 260.44897054 110.72756983 256.57466524 105.19433594 250.59667969 C98.08633851 241.20978232 96.58021586 231.3918237 98.15917969 219.94433594 C98.32417969 219.16058594 98.48917969 218.37683594 98.65917969 217.56933594 C96.67917969 216.57933594 94.69917969 215.58933594 92.65917969 214.56933594 C92.59730469 215.43558594 92.53542969 216.30183594 92.47167969 217.19433594 C91.43047034 221.51935938 89.90070425 223.53921515 86.65917969 226.56933594 C79.8098439 228.65329375 74.08730601 226.22330879 67.49121094 224.04589844 C66.30234787 223.66629974 65.1134848 223.28670105 63.88859558 222.89559937 C60.71800855 221.88031698 57.55202648 220.85260209 54.38757324 219.81848145 C51.2750519 218.80450747 48.15731135 217.80687214 45.04003906 216.80761719 C40.08155538 215.21647628 35.12814603 213.61066312 30.17724609 211.99609375 C25.70609044 210.54250546 21.22824287 209.11831771 16.73356724 207.73970222 C14.78806996 207.14270199 12.84436476 206.54017897 10.90104675 205.93612671 C8.47952353 205.18577436 6.05462084 204.44621131 3.62593079 203.71939087 C2.53564072 203.37902802 1.44535065 203.03866516 0.32202148 202.68798828 C-0.6298555 202.39838226 -1.58173248 202.10877625 -2.56245422 201.81039429 C-6.02673605 200.2629467 -8.90872795 198.48903926 -11.34082031 195.56933594 C-11.94647507 192.69620458 -12.15190175 190.65548441 -12.09599304 187.78857422 C-12.10464742 187.01195498 -12.1133018 186.23533573 -12.12221843 185.43518257 C-12.14378939 182.83594862 -12.12252516 180.23885917 -12.10131836 177.63964844 C-12.10781224 175.77511574 -12.11687374 173.91059047 -12.12831116 172.04608154 C-12.15140081 166.98396065 -12.13666809 161.92259328 -12.11384177 156.86049652 C-12.09493543 151.56437599 -12.10608258 146.26830636 -12.11274719 140.97216797 C-12.11908899 132.07800316 -12.10081155 123.18414049 -12.06811523 114.29003906 C-12.03062033 104.00553942 -12.03239908 93.72161219 -12.05515641 83.43708229 C-12.07610084 73.54585309 -12.06883406 63.65483555 -12.04883766 53.76361084 C-12.04084855 49.55314087 -12.0428469 45.34284979 -12.05286217 41.13238525 C-12.06340803 36.17455963 -12.04930154 31.21740152 -12.016119 26.2596817 C-12.00790629 24.43960637 -12.00820225 22.61946994 -12.0175972 20.79940033 C-12.02901089 18.31555064 -12.00966891 15.8337814 -11.98246765 13.35009766 C-11.99293914 12.62879229 -12.00341063 11.90748692 -12.01419944 11.16432381 C-11.93455895 7.26426939 -11.43540904 5.68451265 -8.92489338 2.62756348 C-5.60164291 -0.01942268 -4.11036461 -0.24618045 0 0 Z " fill="#010101" transform="translate(11.3408203125,155.4306640625)"/>
<path d="M0 0 C9.42862431 6.79113643 15.6690447 15.78172208 18.16796875 27.16015625 C20.08609661 42.59565684 19.2530839 57.73719654 11.58203125 71.4921875 C12.45601563 71.59789063 13.33 71.70359375 14.23046875 71.8125 C17.71836235 72.51983507 20.12235087 73.62065016 23.20703125 75.3671875 C24.12742188 75.88023438 25.0478125 76.39328125 25.99609375 76.921875 C28.58203125 78.4921875 28.58203125 78.4921875 30.77734375 80.1953125 C32.51720689 81.73190682 32.51720689 81.73190682 34.83203125 81.3671875 C38.47441511 80.20824718 42.0202766 78.88066813 45.58203125 77.4921875 C45.08832031 76.55117187 44.59460938 75.61015625 44.0859375 74.640625 C43.43837193 73.3830339 42.79126054 72.12520886 42.14453125 70.8671875 C41.81904297 70.24972656 41.49355469 69.63226563 41.15820312 68.99609375 C34.89712222 56.73212084 35.45316451 37.01370436 39.20703125 23.9296875 C43.64559832 12.42056095 51.63275552 3.18751315 62.58203125 -2.5078125 C68.83830105 -5.15773957 74.62995493 -6.05895994 81.39453125 -6.0078125 C82.26819336 -6.00281738 83.14185547 -5.99782227 84.04199219 -5.99267578 C97.16390496 -5.64045857 106.82770562 0.39228732 115.76953125 9.6171875 C124.53314921 19.79540521 125.77429017 31.25536213 125.83203125 44.1171875 C125.86296875 45.80521484 125.86296875 45.80521484 125.89453125 47.52734375 C125.93746916 56.81266578 124.79423282 65.60180112 119.89453125 73.6796875 C119.45753906 74.41574219 119.02054688 75.15179688 118.5703125 75.91015625 C118.24417969 76.43222656 117.91804687 76.95429687 117.58203125 77.4921875 C119.15928472 78.19352349 120.74414458 78.8777705 122.33203125 79.5546875 C123.21375 79.93753906 124.09546875 80.32039063 125.00390625 80.71484375 C127.92477246 81.59552917 128.79737051 81.63911641 131.58203125 80.4921875 C133.92984265 79.21894055 136.22682004 77.91968416 138.51953125 76.5546875 C142.44178557 74.22961839 146.27938387 72.05159101 150.58203125 70.4921875 C150.23269531 69.62335938 149.88335937 68.75453125 149.5234375 67.859375 C149.06839844 66.70695312 148.61335937 65.55453125 148.14453125 64.3671875 C147.46583984 62.66175781 147.46583984 62.66175781 146.7734375 60.921875 C142.49860657 48.61596826 142.55423092 30.52681594 147.58203125 18.4921875 C153.25864644 7.27411463 160.99748847 0.25997552 172.58203125 -4.5078125 C182.9576051 -7.48389719 196.10555731 -6.64489096 205.58203125 -1.5078125 C215.43560607 4.41835884 222.2442844 13.03165244 225.6640625 23.9453125 C227.03141689 29.65505697 226.95030053 35.39992681 226.95703125 41.2421875 C226.98152344 42.345625 227.00601562 43.4490625 227.03125 44.5859375 C227.06447736 54.02250734 224.9551286 62.12946845 220.58203125 70.4921875 C222.15791016 71.23662109 222.15791016 71.23662109 223.765625 71.99609375 C231.68188913 75.79952285 239.02687342 79.54252618 245.58203125 85.4921875 C246.26523437 86.09546875 246.9484375 86.69875 247.65234375 87.3203125 C262.13345118 100.86537877 269.04903601 120.16489802 269.7421875 139.62109375 C269.77573138 141.14054987 269.80564148 142.66009029 269.83203125 144.1796875 C269.85354248 144.90494629 269.87505371 145.63020508 269.8972168 146.37744141 C269.92602709 151.11211391 269.43757932 154.52808316 266.58203125 158.4921875 C261.18248793 161.38501173 256.85795028 161.9156319 250.80102539 161.83276367 C249.95144257 161.83320175 249.10185974 161.83363983 248.22653198 161.83409119 C245.43984376 161.83201398 242.65376963 161.80873373 239.8671875 161.78515625 C237.926634 161.77955649 235.98607624 161.77528819 234.04551697 161.77229309 C228.95405231 161.76087424 223.86284702 161.73143258 218.77148438 161.69818115 C213.56969714 161.66741637 208.36786774 161.65377408 203.16601562 161.63867188 C192.97124062 161.60656 182.77665756 161.55539954 172.58203125 161.4921875 C172.62070312 162.57757813 172.659375 163.66296875 172.69921875 164.78125 C172.55862732 169.23331181 171.34847302 171.07481826 168.58203125 174.4921875 C166.29588053 175.63526286 164.95402414 175.64197875 162.41113281 175.68505859 C161.54973694 175.70112152 160.68834106 175.71718445 159.80084229 175.73373413 C155.85454095 175.77823296 151.90840779 175.81926083 147.96191406 175.84228516 C145.88237303 175.85883065 143.80288853 175.886102 141.72363281 175.92431641 C138.72300762 175.9791768 135.72371592 176.00097451 132.72265625 176.015625 C131.79745178 176.03829437 130.87224731 176.06096375 129.91900635 176.08432007 C125.61052032 176.07027055 122.47467124 175.90321145 118.94824219 173.27197266 C116.58203125 170.4921875 116.58203125 170.4921875 116.58203125 165.4921875 C108.33203125 165.4921875 100.08203125 165.4921875 91.58203125 165.4921875 C91.58203125 167.1421875 91.58203125 168.7921875 91.58203125 170.4921875 C88.50122126 173.95809874 86.26993356 175.80165561 81.58203125 176.1171875 C76.89412894 175.80165561 74.66284124 173.95809874 71.58203125 170.4921875 C71.58203125 168.8421875 71.58203125 167.1921875 71.58203125 165.4921875 C63.33203125 165.4921875 55.08203125 165.4921875 46.58203125 165.4921875 C46.58203125 167.1421875 46.58203125 168.7921875 46.58203125 170.4921875 C43.99597456 173.51222489 42.27905075 175.13763118 38.37203979 175.95391846 C35.75036792 176.15369937 33.17599527 176.18530648 30.546875 176.15625 C29.59059708 176.16103363 28.63431915 176.16581726 27.64906311 176.17074585 C25.63443347 176.17413767 23.61974825 176.16498564 21.60522461 176.14404297 C18.52528123 176.11723754 15.44897216 176.14383024 12.36914062 176.17578125 C10.40754406 176.1724776 8.44594975 176.1660723 6.484375 176.15625 C5.56655746 176.16637115 4.64873993 176.17649231 3.70310974 176.18692017 C-0.85275903 176.10354033 -2.7956946 175.98418123 -6.47436523 173.07568359 C-9.56397342 168.96888372 -9.51284058 166.61526654 -9.41796875 161.4921875 C-11.02956627 161.50218025 -11.02956627 161.50218025 -12.67372131 161.51237488 C-22.81093205 161.57325414 -32.94810557 161.61819289 -43.0854578 161.64762402 C-48.296877 161.66326363 -53.50814832 161.6844709 -58.71948242 161.71850586 C-63.75100084 161.7511599 -68.78237723 161.76905333 -73.81399345 161.77681923 C-75.73128939 161.78235187 -77.64857777 161.7931558 -79.56581306 161.80937767 C-82.25636572 161.83123226 -84.9463354 161.83415107 -87.63696289 161.83276367 C-88.42531021 161.8435495 -89.21365753 161.85433533 -90.02589417 161.865448 C-95.21008878 161.83662111 -98.82601857 160.95436168 -103.41796875 158.4921875 C-106.59596929 154.03910324 -106.86451199 149.80782073 -106.73046875 144.4921875 C-106.71246216 143.37505371 -106.71246216 143.37505371 -106.6940918 142.23535156 C-106.39164826 130.1633499 -104.42255 119.53581651 -99.41796875 108.4921875 C-98.99773437 107.55632812 -98.5775 106.62046875 -98.14453125 105.65625 C-89.50149639 88.22030106 -74.41873292 78.52322333 -57.41796875 70.4921875 C-57.76730469 69.67234375 -58.11664063 68.8525 -58.4765625 68.0078125 C-58.93160156 66.93015625 -59.38664062 65.8525 -59.85546875 64.7421875 C-60.30792969 63.67484375 -60.76039062 62.6075 -61.2265625 61.5078125 C-66.10507622 49.1595745 -65.50237257 30.38604514 -60.7421875 18.04296875 C-55.26586058 7.49417382 -46.66285013 -0.57633142 -35.41796875 -4.5078125 C-23.76996546 -7.78857869 -10.21539485 -6.37018161 0 0 Z " fill="#010100" transform="translate(174.41796875,5.5078125)"/>
<path d="M0 0 C0.99 0.99 0.99 0.99 2 2 C1.55720703 2.32685791 1.11441406 2.65371582 0.65820312 2.99047852 C-18.11120195 15.80145983 -18.11120195 15.80145983 -29 35 C-29.9498046 44.84041739 -29.52273325 54.64511135 -23.62109375 62.9375 C-22.45128084 64.32394493 -21.23041802 65.66704715 -20 67 C-20 67.66 -20 68.32 -20 69 C-19.46375 69.26683594 -18.9275 69.53367187 -18.375 69.80859375 C-16.62091628 70.68852062 -14.87161286 71.57799178 -13.125 72.47265625 C-12.09375 72.99730469 -11.0625 73.52195312 -10 74.0625 C-8.96875 74.58972656 -7.9375 75.11695313 -6.875 75.66015625 C3.06512078 80.29257667 12.2354144 77.99995444 22.09204102 74.4152832 C25.07006044 73.29842379 28.03576568 72.15297533 31 71 C31.64729065 70.74875366 32.2945813 70.49750732 32.96148682 70.23864746 C49.96726285 63.83963729 49.96726285 63.83963729 66.68774414 56.76293945 C69.35193384 55.88387781 70.43837943 55.90784133 73 57 C74.62817383 58.27172852 74.62817383 58.27172852 76.20703125 59.87890625 C76.78976807 60.46615479 77.37250488 61.05340332 77.97290039 61.65844727 C78.57996826 62.28678467 79.18703613 62.91512207 79.8125 63.5625 C80.75887329 64.52530884 80.75887329 64.52530884 81.72436523 65.50756836 C85.32017425 69.18906949 88.77553473 72.94815178 92.09765625 76.87890625 C95.32501185 80.47737461 98.80624973 83.8252353 102.24243164 87.22290039 C105.68388165 90.64055815 108.92608651 94.14278209 112.0625 97.84375 C114.76031925 100.84616175 117.63061333 103.66241043 120.5 106.5 C125.21594624 111.16860675 129.72964693 115.9157154 134 121 C134.56589844 121.6496875 135.13179687 122.299375 135.71484375 122.96875 C140.99043587 129.02637106 140.99043587 129.02637106 141.01953125 131.98828125 C140.56269382 137.11692791 139.96192537 140.36823508 136 144 C132.30911793 146.03969799 129.18007873 146.51184637 125 146 C120.59123521 143.38353376 116.99225249 140.26481786 113.42529297 136.62060547 C112.64357727 135.83450897 112.64357727 135.83450897 111.84606934 135.03253174 C110.72423034 133.90312798 109.60470601 132.77142116 108.48730087 131.63763046 C106.71784388 129.84249054 104.94207743 128.05381007 103.1645813 126.26663208 C99.39573072 122.47501048 95.63481263 118.6755811 91.875 114.875 C87.50954655 110.4623074 83.14088171 106.05289655 78.76370621 101.65182877 C77.01580715 99.89098211 75.27404742 98.12421397 73.53244019 96.35714722 C72.46056302 95.27800497 71.38840405 94.19914255 70.31591797 93.12060547 C69.59421921 92.38340775 69.59421921 92.38340775 68.85794067 91.63131714 C66.42583882 89.19845528 64.26939258 87.16486357 61 86 C57.24751088 86.13401747 54.77255924 86.52457893 51.5625 88.5 C49.61563114 91.61499017 49.09719423 93.75463181 49.33837891 97.41455078 C50.172038 100.67228135 51.52881571 102.13504469 53.828125 104.578125 C54.64692139 105.45162598 55.46571777 106.32512695 56.30932617 107.22509766 C60.49950424 111.54644454 64.72203608 115.83204716 68.99560547 120.07077026 C70.60371606 121.66588292 72.20847541 123.26430452 73.8125 124.86352539 C77.20548417 128.2452189 80.60245862 131.62288593 84 135 C87.96871622 138.9450689 91.9357557 142.89179576 95.89865112 146.8427124 C97.47931061 148.41689538 99.06294851 149.98803954 100.64672852 151.55908203 C101.60838195 152.5171058 102.56989687 153.47526863 103.53125 154.43359375 C104.37236328 155.26947021 105.21347656 156.10534668 106.08007812 156.96655273 C108.60124305 159.63679468 108.9641513 160.53396693 109.25 164.25 C108.9269033 169.09645054 107.61533491 172.19828029 104.375 175.8125 C100.76236185 177.61881907 97.03079098 178.4630844 93 178 C88.56346315 175.34855483 84.97280561 172.21988198 81.4128418 168.51293945 C80.88997589 167.97751526 80.36710999 167.44209106 79.82839966 166.89044189 C78.70180184 165.73630532 77.57737499 164.58004627 76.45493126 163.42186928 C74.67371702 161.5870115 72.88356003 159.76134755 71.09028625 157.9382782 C65.99489703 152.75773918 60.9050525 147.57215432 55.84790039 142.35424805 C52.74607137 139.15515541 49.6248628 135.97612008 46.49027443 132.80913353 C45.30402326 131.60314749 44.12510556 130.38990025 42.9539547 129.16924477 C36.08541228 121.47803131 36.08541228 121.47803131 26.89770508 117.62963867 C22.95017206 117.7082567 22.95017206 117.7082567 19.9375 119.9375 C17.96981885 123.04770568 17.13513901 125.21289912 17.40156555 128.92326355 C19.64928559 136.72348654 29.28541578 143.3796038 34.93877602 148.95281029 C36.58553811 150.57725456 38.22805301 152.20588578 39.86943054 153.83576965 C44.53048806 158.46349093 49.19589777 163.08675827 53.87133789 167.69995117 C56.74524717 170.53618845 59.61177097 173.3797132 62.47371483 176.22802162 C63.56058578 177.30685868 64.65022327 178.38291622 65.74270058 179.45607567 C67.26683912 180.95369286 68.78140703 182.46040705 70.29418945 183.96948242 C71.58822441 185.24900032 71.58822441 185.24900032 72.90840149 186.55436707 C75.52061646 189.60873861 76.88375839 192.25935641 77.15234375 196.28125 C76.73725529 200.56798176 76.36098549 202.55571016 73.5625 206 C69.78676818 208.94691264 67.26498567 209.55407898 62.53297424 209.44700623 C59.53791022 208.91845278 58.43847024 208.0595741 56.23022461 206.00415039 C55.5403244 205.36615509 54.85042419 204.72815979 54.13961792 204.0708313 C50.52424704 200.57169105 46.96426779 197.02584742 43.44140625 193.43359375 C41.82255896 191.7972358 40.2034091 190.16117712 38.58398438 188.52539062 C36.06848121 185.97895009 33.55539369 183.43026262 31.04760742 180.8762207 C28.60242148 178.38844321 26.14766333 175.91043465 23.69140625 173.43359375 C22.95362442 172.67719101 22.21584259 171.92078827 21.45570374 171.14146423 C12.99688323 162.64173578 4.1417951 156.51772439 -8 155 C-8.07476562 154.31035156 -8.14953125 153.62070312 -8.2265625 152.91015625 C-9.66267851 142.64615066 -14.0195218 135.97616998 -21.99609375 129.4375 C-27.41142683 125.55281662 -32.57024101 124.66514748 -39 124 C-40.64480949 122.35519051 -40.43931382 120.19618855 -40.75 117.9375 C-41.58342293 113.04511653 -43.00958869 109.67499745 -45.87890625 105.65625 C-47 104 -47 104 -48 101 C-49.71519747 99.97348627 -49.71519747 99.97348627 -52 99 C-55.4375 97 -55.4375 97 -57.12109375 96 C-65.16848719 91.71697979 -74.57988518 91.48262503 -83.29296875 93.921875 C-91.80063229 97.74301846 -97.81311271 104.22075117 -104 111 C-109.81261371 109.26017005 -114.83169994 107.1889511 -120 104 C-118.78630419 94.59053998 -116.77821977 85.57189488 -114.40216064 76.40228271 C-113.38256039 72.46456353 -112.38340487 68.52169769 -111.38671875 64.578125 C-111.18481934 63.77966156 -110.98291992 62.98119812 -110.77490234 62.15853882 C-108.43382267 52.83823335 -106.3438116 43.46322427 -104.29614258 34.07470703 C-103.55578 30.71017298 -102.7807255 27.35534763 -102 24 C-101.79729492 23.00645508 -101.59458984 22.01291016 -101.38574219 20.98925781 C-101.17336914 20.08788086 -100.96099609 19.18650391 -100.7421875 18.2578125 C-100.57315918 17.47809082 -100.40413086 16.69836914 -100.22998047 15.89501953 C-98.27153217 12.87765636 -95.3220468 12.74053065 -92 12 C-90.03903196 11.47204956 -88.0800717 10.93661588 -86.12255859 10.39599609 C-80.56606434 8.89737326 -75.0029186 7.42475935 -69.43520164 5.96846581 C-66.0886357 5.09246002 -62.74514531 4.2072771 -59.40722656 3.29882812 C-18.86449344 -7.715684 -18.86449344 -7.715684 0 0 Z " fill="#FDCFC6" transform="translate(229,245)"/>
<path d="M0 0 C4.30352159 1.4345072 7.74217226 2.77013034 11.68359375 4.8359375 C12.76366699 5.39917725 13.84374023 5.96241699 14.95654297 6.54272461 C16.10525879 7.14737549 17.25397461 7.75202637 18.4375 8.375 C19.65228587 9.0102691 20.86729578 9.64510996 22.08251953 10.27954102 C24.55122098 11.56923693 27.01863956 12.86133411 29.48486328 14.15576172 C33.53415848 16.28024956 37.58751936 18.39685295 41.6418457 20.51171875 C43.47015648 21.46547801 45.2981166 22.41990974 47.12573242 23.375 C52.57420302 26.22071605 58.02994565 29.05193166 63.4921875 31.87109375 C64.13574188 32.20336472 64.77929626 32.53563568 65.44235229 32.87797546 C68.59138059 34.50362603 71.74112256 36.12786685 74.89208984 37.74975586 C81.98085387 41.40692491 89.01756664 45.14352652 96 49 C93.85298276 59.82843478 91.40745257 70.55066763 88.6875 81.25 C86.1336083 91.30084387 83.74876658 101.37667564 81.5 111.5 C78.74867519 123.87410411 75.75562411 136.17287559 72.64453125 148.4609375 C70.32916286 157.61661215 68.1590934 166.80644099 66 176 C60.96114848 175.41309061 56.5201789 174.32392534 51.6953125 172.671875 C51.01814178 172.44244202 50.34097107 172.21300903 49.64328003 171.97662354 C48.20713463 171.48969074 46.77185558 171.00019615 45.33740234 170.50830078 C41.62791275 169.23687343 37.91178646 167.98521312 34.1953125 166.734375 C33.11313446 166.3697113 33.11313446 166.3697113 32.00909424 165.99768066 C25.5324668 163.82430573 19.01469261 161.8462295 12.4375 160 C8.25588401 158.78352989 4.13148165 157.37716055 0 156 C0 104.52 0 53.04 0 0 Z " fill="#32D6F5" transform="translate(20,183)"/>
<path d="M0 0 C0 51.48 0 102.96 0 156 C-63 176 -63 176 -66 176 C-70.0248806 160.20790093 -73.9707434 144.41140717 -77.5 128.5 C-79.85781626 117.87022342 -82.38460901 107.30263726 -85.0625 96.75 C-89.07889034 80.91964678 -92.82975654 65.02423796 -96 49 C-94.71258911 48.33750244 -94.71258911 48.33750244 -93.39916992 47.66162109 C-74.24952304 37.80628344 -55.10959123 27.93285244 -36 18 C-34.93942383 17.44908691 -33.87884766 16.89817383 -32.78613281 16.33056641 C-29.69003656 14.72175466 -26.59484679 13.11121379 -23.5 11.5 C-22.59878418 11.03166748 -21.69756836 10.56333496 -20.76904297 10.08081055 C-15.20587159 7.18070467 -9.70241693 4.19186447 -4.23242188 1.11914062 C-2 0 -2 0 0 0 Z " fill="#FE7C98" transform="translate(492,183)"/>
<path d="M0 0 C1.81950744 0.44489285 3.63925598 0.8888007 5.45922852 1.33178711 C10.36557724 2.53026571 15.26744736 3.74613723 20.16821289 4.96722412 C23.41680833 5.77596774 26.66629757 6.58103376 29.91601562 7.38525391 C40.61341076 10.03363319 51.30780285 12.69400313 61.99609375 15.37890625 C62.89728943 15.60451736 63.79848511 15.83012848 64.72698975 16.06257629 C65.55370178 16.27081528 66.38041382 16.47905426 67.23217773 16.69360352 C67.95155014 16.87439957 68.67092255 17.05519562 69.41209412 17.24147034 C71.06311974 17.68326833 72.69109198 18.20953066 74.3125 18.75 C75.27636719 21.30908203 75.27636719 21.30908203 76.109375 24.7578125 C76.42479248 26.03938232 76.74020996 27.32095215 77.06518555 28.64135742 C77.398046 30.05247207 77.73047288 31.46368904 78.0625 32.875 C78.4129526 34.3235333 78.76428271 35.77185456 79.11645508 37.2199707 C82.12001213 49.64474229 84.93094898 62.11478304 87.69921875 74.59375 C88.71440245 79.14898339 89.77255591 83.68864266 90.89453125 88.21875 C91.13534424 89.19432861 91.37615723 90.16990723 91.62426758 91.17504883 C92.06786137 92.95556097 92.51895852 94.73422879 92.97924805 96.51049805 C94.71110137 103.47343283 94.71110137 103.47343283 93.3125 106.75 C91.45483398 108.03027344 91.45483398 108.03027344 89.05859375 109.109375 C88.20458984 109.50253906 87.35058594 109.89570313 86.47070312 110.30078125 C85.57287109 110.69652344 84.67503906 111.09226562 83.75 111.5 C82.84830078 111.91121094 81.94660156 112.32242188 81.01757812 112.74609375 C78.78810884 113.76056126 76.55339134 114.76108285 74.3125 115.75 C63.68878074 105.29918033 63.68878074 105.29918033 59.8125 100.75 C56.97127199 97.41702099 53.92828377 94.32391199 50.8125 91.25 C47.71758498 88.19662049 44.69315723 85.12676315 41.875 81.8125 C38.85897151 78.27320874 35.61801776 75.01505855 32.3125 71.75 C29.04867068 68.52602207 25.84419836 65.31482126 22.875 61.8125 C19.17534801 57.45513211 15.1018389 53.48567908 11.01782227 49.49243164 C8.40427616 46.91986379 5.94551082 44.3505948 3.6640625 41.4765625 C1.43945528 38.89720064 0.37807083 37.95574318 -2.6875 36.75 C-10.742623 36.89447751 -17.5418689 39.68507161 -24.96484375 42.625 C-26.22478687 43.11533777 -27.48509351 43.60474236 -28.7457428 44.09326172 C-32.03828757 45.3721575 -35.32557115 46.66406818 -38.61193848 47.95874023 C-41.96782125 49.27781319 -45.32895324 50.58337127 -48.68945312 51.890625 C-53.58580059 53.7982058 -58.48037202 55.71022076 -63.37084961 57.6328125 C-64.84236732 58.21119873 -64.84236732 58.21119873 -66.34361267 58.80126953 C-68.65600818 59.70135599 -68.65600818 59.70135599 -70.6875 60.75 C-75.93939007 61.15399154 -79.25631474 60.63990343 -83.6875 57.75 C-87.7320376 53.759971 -89.81234358 50.15608246 -90 44.4375 C-90.03738281 43.69886719 -90.07476562 42.96023438 -90.11328125 42.19921875 C-89.07254087 36.21257452 -84.7166454 32.64503696 -80.0625 29.1875 C-79.2269458 28.56186157 -79.2269458 28.56186157 -78.37451172 27.92358398 C-76.48828859 26.51904246 -74.58985766 25.13260305 -72.6875 23.75 C-71.98689453 23.23985352 -71.28628906 22.72970703 -70.56445312 22.20410156 C-66.78504772 19.45742119 -62.99467131 16.72681161 -59.1953125 14.0078125 C-56.28300707 11.91727774 -53.40488957 9.79158262 -50.5546875 7.6171875 C-32.99208269 -5.74594898 -20.84166123 -5.20578596 0 0 Z " fill="#FDC8A4" transform="translate(308.6875,243.25)"/>
<path d="M0 0 C0.01417969 1.16917969 0.02835938 2.33835937 0.04296875 3.54296875 C0.08988438 5.09118457 0.13813169 6.63936044 0.1875 8.1875 C0.19330078 8.95642578 0.19910156 9.72535156 0.20507812 10.51757812 C0.36879324 14.75598053 0.65912491 16.55731993 3.328125 20.0234375 C6.80323438 22.59420555 8.76467054 22.53904193 13 22 C16.38031589 20.81232145 16.93216817 20.10174775 19 17 C19.3626117 15.07255631 19.3626117 15.07255631 19.4140625 12.98828125 C19.45273437 12.23095703 19.49140625 11.47363281 19.53125 10.69335938 C19.5621875 9.90767578 19.593125 9.12199219 19.625 8.3125 C19.66367187 7.51521484 19.70234375 6.71792969 19.7421875 5.89648438 C19.83632494 3.93136525 19.91924632 1.9657146 20 0 C29.09261347 -0.58979114 36.50247907 0.75568733 45 4 C45.86496094 4.32742187 46.72992188 4.65484375 47.62109375 4.9921875 C61.14125816 10.91942758 71.44809586 23.23554214 76.875 36.6875 C79.12249968 42.9952368 80.02802978 48.53582074 80.01171875 55.20703125 C80.01002686 56.10526611 80.00833496 57.00350098 80.0065918 57.92895508 C80.0044165 58.6123999 80.00224121 59.29584473 80 60 C78.72153198 60.00616333 78.72153198 60.00616333 77.41723633 60.01245117 C74.23904652 60.0395042 71.06216708 60.0886643 67.88452148 60.15258789 C66.51224569 60.17570978 65.13979391 60.19015003 63.76733398 60.19555664 C61.78865529 60.20488665 59.81023376 60.24857019 57.83203125 60.29296875 C56.64327393 60.3086792 55.4545166 60.32438965 54.22973633 60.34057617 C50.07995635 61.18784775 48.59546999 62.71137603 46 66 C45.505 67.98 45.505 67.98 45 70 C36.75 70 28.5 70 20 70 C20 71.65 20 73.3 20 75 C16.91919001 78.46591124 14.68790231 80.30946811 10 80.625 C5.31209769 80.30946811 3.08080999 78.46591124 0 75 C0 73.35 0 71.7 0 70 C-8.25 70 -16.5 70 -25 70 C-25.99 67.69 -26.98 65.38 -28 63 C-31.16191365 60.49284357 -34.58198546 60.69321858 -38.515625 60.5859375 C-39.76601562 60.54726562 -41.01640625 60.50859375 -42.3046875 60.46875 C-43.60664063 60.4378125 -44.90859375 60.406875 -46.25 60.375 C-47.56742188 60.33632812 -48.88484375 60.29765625 -50.2421875 60.2578125 C-53.49465161 60.16353818 -56.74710996 60.0779325 -60 60 C-60.16720117 43.0652049 -56.06517233 29.48496007 -44.2644043 17.06469727 C-37.47608417 10.26017866 -29.97317883 5.38193672 -21 2 C-19.948125 1.5875 -18.89625 1.175 -17.8125 0.75 C-11.90066458 -0.41298402 -6.00493405 -0.14991514 0 0 Z " fill="#FDCD5B" transform="translate(246,101)"/>
<path d="M0 0 C0.05607422 1.21236328 0.05607422 1.21236328 0.11328125 2.44921875 C0.17902344 3.51785156 0.24476563 4.58648437 0.3125 5.6875 C0.37050781 6.74324219 0.42851562 7.79898438 0.48828125 8.88671875 C1.04356897 12.26507231 1.9926525 14.24919046 4 17 C7.19233485 18.59616743 10.53461497 18.51466114 14 18 C16.43119623 16.12984906 17.64069173 14.71861655 19 12 C19.22858114 9.9625237 19.41024278 7.91959697 19.5625 5.875 C19.68818359 4.23144531 19.68818359 4.23144531 19.81640625 2.5546875 C19.87699219 1.71164063 19.93757813 0.86859375 20 0 C26.05005659 -0.53070672 30.99923733 0.35745966 36.75 2.25 C37.38752197 2.45455811 38.02504395 2.65911621 38.68188477 2.86987305 C42.77816223 4.28820711 45.77494736 6.11960948 49 9 C48.5153125 9.42667969 48.030625 9.85335937 47.53125 10.29296875 C35.11781058 21.87088821 29.04570893 36.81716428 25 53 C-0.74 53 -26.48 53 -53 53 C-51.66357564 35.62648333 -47.81360069 23.96331546 -35 12 C-24.32963924 4.01221589 -13.39705266 -0.48716555 0 0 Z " fill="#32D5F4" transform="translate(142,93)"/>
<path d="M0 0 C0.03738281 0.80824219 0.07476562 1.61648437 0.11328125 2.44921875 C0.17902344 3.51785156 0.24476563 4.58648437 0.3125 5.6875 C0.37050781 6.74324219 0.42851562 7.79898438 0.48828125 8.88671875 C1.04356897 12.26507231 1.9926525 14.24919046 4 17 C7.18503287 18.59251643 10.5332405 18.39129761 14 18 C17.23613354 16.25746655 17.82395315 15.52814056 19 12 C19.22325814 9.94106379 19.40705759 7.87766347 19.5625 5.8125 C19.64628906 4.72582031 19.73007812 3.63914062 19.81640625 2.51953125 C19.90728516 1.27236328 19.90728516 1.27236328 20 0 C34.46631867 -0.48282963 46.39784367 5.10709861 57.25 14.25 C65.94508734 22.39994079 70.14832522 32.59330088 73 44 C73 46.97 73 49.94 73 53 C47.26 53 21.52 53 -5 53 C-6.32 48.38 -7.64 43.76 -9 39 C-10.20451034 36.10669166 -11.36796651 33.43577848 -12.8125 30.6875 C-13.15579346 30.01799316 -13.49908691 29.34848633 -13.8527832 28.65869141 C-16.68134523 23.290475 -20.00244455 18.57002092 -24 14 C-24.98069177 12.81375919 -25.96002612 11.62639379 -26.9375 10.4375 C-27.618125 9.633125 -28.29875 8.82875 -29 8 C-19.08542796 2.74527682 -11.3213377 -0.4717224 0 0 Z " fill="#FD7C97" transform="translate(350,93)"/>
<path d="M0 0 C5.82465024 3.25958169 10.09169286 7.76154498 12.6875 13.9375 C13.16933267 18.29971739 13.10395806 22.67642488 13.125 27.0625 C13.15787109 28.2484375 13.19074219 29.434375 13.22460938 30.65625 C13.27223172 38.50094927 12.27196871 44.44424721 7.6875 50.9375 C5.3359375 53.19140625 5.3359375 53.19140625 3.0625 54.5 C2.30710937 54.95503906 1.55171875 55.41007812 0.7734375 55.87890625 C-5.47900756 59.05196357 -13.29607034 59.15370101 -19.95703125 57.13671875 C-25.91173128 54.18472947 -29.26397245 49.75147754 -32.3125 43.9375 C-34.05214621 38.71856136 -33.62433987 33.21335096 -33.6875 27.75 C-33.72488281 26.54279297 -33.76226562 25.33558594 -33.80078125 24.09179688 C-33.88808295 15.22097461 -32.38291727 10.40461048 -26.46875 3.9140625 C-25.9221875 3.46804687 -25.375625 3.02203125 -24.8125 2.5625 C-24.2659375 2.10101562 -23.719375 1.63953125 -23.15625 1.1640625 C-16.03474899 -3.57354622 -7.63724638 -3.50713429 0 0 Z " fill="#FDB686" transform="translate(266.3125,22.0625)"/>
<path d="M0 0 C5.69931825 3.25345698 9.85345949 8.14443375 11.75 14.4375 C12.77862176 23.90929662 13.32831523 35.29837923 7.75 43.4375 C3.79000183 47.89484391 -0.48021807 51.01863534 -6.5 51.6875 C-12.57133076 51.98366248 -17.36683903 51.20182109 -22.25 47.4375 C-29.12451903 40.12864317 -29.50997 33.96517601 -29.6875 24.25 C-29.73326172 23.24646484 -29.77902344 22.24292969 -29.82617188 21.20898438 C-29.93795425 13.73900556 -28.25665051 9.03312351 -23.25 3.4375 C-16.72003281 -2.22344889 -7.92913938 -3.5749877 0 0 Z " fill="#FBC6A3" transform="translate(369.25,21.5625)"/>
<path d="M0 0 C4.75439024 2.36033558 7.72308371 5.87935308 10.25 10.5 C11.67940366 15.20459701 11.47315537 19.93684338 11.5 24.8125 C11.520625 25.73740234 11.54125 26.66230469 11.5625 27.61523438 C11.60276363 34.69659974 10.35299444 39.15078663 6.5625 45.1875 C1.9438084 49.8061916 -2.71785547 51.73634577 -9.25 52.0625 C-16.1418462 51.79485549 -20.29976898 48.95023102 -25.0625 44.1875 C-29.20652882 37.5877504 -30.2548974 31.63428732 -30.1875 24 C-30.20748047 23.19691406 -30.22746094 22.39382812 -30.24804688 21.56640625 C-30.24256082 14.79661239 -28.47271079 9.59290393 -23.96875 4.4765625 C-23.4015625 4.03054687 -22.834375 3.58453125 -22.25 3.125 C-21.6828125 2.66351562 -21.115625 2.20203125 -20.53125 1.7265625 C-14.10566803 -2.6980707 -7.24721854 -2.77135599 0 0 Z " fill="#FBCEC5" transform="translate(160.75,21.5)"/>
<path d="M0 0 C3.78580423 2.03850997 7.05061257 4.10122513 9 8 C9.71454167 14.22672029 8.61818929 17.8209966 5 23 C2.83787372 25.55592383 0.51388793 27.90675961 -1.875 30.25 C-2.47441406 30.86101562 -3.07382813 31.47203125 -3.69140625 32.1015625 C-8.02996354 36.41188622 -12.5589413 40.39264902 -19 40.5 C-23.72535126 40.31895206 -25.79163664 38.36114257 -29 35 C-31.56212574 31.50619217 -31.5641647 28.23123526 -31 24 C-28.12472629 18.24945257 -22.90289971 13.72264213 -18.4375 9.1875 C-17.60665894 8.34227783 -17.60665894 8.34227783 -16.7590332 7.47998047 C-11.59571074 2.35898663 -7.65393162 -0.93995652 0 0 Z " fill="#F9C5A2" transform="translate(224,420)"/>
<path d="M0 0 C3.00869887 1.78524456 5.40952957 3.81905914 7 7 C7.41363538 12.37725993 6.78361916 15.40756994 4 20 C1.35515982 23.06901266 -1.48948614 25.90835375 -4.375 28.75 C-5.13039062 29.51699219 -5.88578125 30.28398437 -6.6640625 31.07421875 C-7.40140625 31.80769531 -8.13875 32.54117188 -8.8984375 33.296875 C-9.89883057 34.29219238 -9.89883057 34.29219238 -10.91943359 35.30761719 C-14.05250423 37.85613228 -16.958568 38.86705123 -20.9375 39.375 C-25.65258352 38.79764283 -28.47293452 36.42526112 -31.875 33.25 C-33.54633804 29.90732392 -33.81325957 26.59883368 -33 23 C-29.89901426 17.43250131 -25.50458711 13.20562421 -21 8.75 C-20.2884375 8.03070313 -19.576875 7.31140625 -18.84375 6.5703125 C-18.1528125 5.88195312 -17.461875 5.19359375 -16.75 4.484375 C-16.12609375 3.86272461 -15.5021875 3.24107422 -14.859375 2.60058594 C-10.09675771 -1.49916708 -5.9178531 -1.61768303 0 0 Z " fill="#FCC7A4" transform="translate(258,453)"/>
<path d="M0 0 C3.22206103 1.64712285 5.2815617 3.98765512 7.375 6.9375 C8.25688519 9.84772112 8.36405994 11.96616714 8 15 C4.74394027 20.80092747 0.08714386 25.17546581 -4.625 29.8125 C-5.78902344 30.97555664 -5.78902344 30.97555664 -6.9765625 32.16210938 C-14.01869091 39.14922116 -14.01869091 39.14922116 -19.75 39.375 C-23.45461572 39.34819381 -25.65934334 39.03969262 -28.5625 36.6875 C-31.95832758 32.94338242 -32.65760125 29.45594654 -32.59375 24.5234375 C-31.33479019 19.17285832 -26.82873139 15.69923019 -23 12 C-22.1028125 11.08089844 -21.205625 10.16179687 -20.28125 9.21484375 C-13.69611061 2.48444393 -9.7757999 -1.50513871 0 0 Z " fill="#FBC7A3" transform="translate(162,357)"/>
<path d="M0 0 C3.12578143 1.6720747 5.39281175 3.7856235 7 7 C7.68063617 11.16116205 7.99944391 15.20947682 5.89453125 18.98046875 C4.04088459 21.12703735 2.05730398 23.04606137 0 25 C-1.08851832 26.11340458 -2.17282982 27.23093069 -3.25390625 28.3515625 C-4.41807155 29.54804306 -5.58344387 30.74335036 -6.75 31.9375 C-7.600177 32.80822144 -7.600177 32.80822144 -8.4675293 33.6965332 C-12.31829866 37.5507382 -14.89597924 39.13177109 -20.3125 39.375 C-23.84353961 39.35195896 -25.76313948 38.87810551 -28.5 36.625 C-32.25450644 32.68276824 -32.54798839 29.96268161 -32.44921875 24.63671875 C-31.62058396 19.7729928 -28.47004375 17.29036511 -25 14 C-23.90002062 12.88638169 -22.8039707 11.76887438 -21.7109375 10.6484375 C-9.90086254 -1.39491478 -9.90086254 -1.39491478 0 0 Z " fill="#FCC8A4" transform="translate(194,389)"/>
<path d="M0 0 C3.95403662 0.26360244 5.65370756 0.86143155 8.75 3.25 C11.42696661 7.26544992 11.67517507 10.53325925 10.75 15.25 C8.17150999 18.40865026 6.68642904 19.78510335 2.78125 20.72265625 C-0.9224483 21.00043362 -3.6613439 20.40317052 -6.75 18.3125 C-9.67627335 14.72781515 -10.07462285 12.91509765 -9.7890625 8.40625 C-8.9389495 5.00579802 -6.94466664 3.35315445 -4.25 1.25 C-3.25 0.25 -3.25 0.25 0 0 Z " fill="#030301" transform="translate(255.25,160.75)"/>
</svg>
