<?xml version="1.0" encoding="UTF-8"?>
<svg version="1.1" xmlns="http://www.w3.org/2000/svg" width="512" height="512">
<path d="M0 0 C7.5360232 5.29228813 14.13205646 12.74518882 16 22 C16.67804688 21.94199219 17.35609375 21.88398437 18.0546875 21.82421875 C26.3396572 21.42259279 32.51366894 23.10048861 38.8515625 28.609375 C44.36671362 34.5320496 46.2560959 41.92567011 47.44213867 49.77026367 C47.61836006 50.86723068 47.61836006 50.86723068 47.79814148 51.98635864 C48.18004065 54.37895632 48.54949535 56.77326956 48.91796875 59.16796875 C49.18226493 60.85182281 49.44702846 62.53560358 49.7122345 64.21931458 C50.26489419 67.74114132 50.81126001 71.26387284 51.35327148 74.78735352 C52.04338054 79.26966605 52.75002001 83.74918481 53.46161938 88.22812939 C54.01181382 91.70434374 54.55254892 95.1819817 55.09063148 98.66008949 C55.34718168 100.31051384 55.60667395 101.96048399 55.86934471 103.6099453 C60.08761211 130.19657225 60.08761211 130.19657225 55.2890625 138.34375 C53.17077863 141.06542382 50.78585771 142.97392167 48 145 C48.31049726 146.43793392 48.6234776 147.8753318 48.9375 149.3125 C49.11152344 150.11300781 49.28554688 150.91351563 49.46484375 151.73828125 C49.99886159 154.145401 49.99886159 154.145401 51 157 C58.78330111 156.01021604 66.44592879 154.36976035 74.1328125 152.81640625 C92.31734497 149.2346044 112.03723627 146.59136364 128.375 157.1875 C140.5511034 166.45794236 144.2764192 178.30354938 146.5625 192.875 C146.79930158 194.33341327 147.03714209 195.79165813 147.27587891 197.24975586 C147.68636683 199.76174668 148.09502566 202.27397943 148.4989624 204.78703308 C149.64845555 211.92347614 150.8564896 219.04923826 152.07853699 226.17352295 C152.97080568 231.37721978 153.85120122 236.58290805 154.72900486 241.7890625 C155.3596983 245.52728694 155.99487898 249.26461652 156.6411438 253.00018311 C163.83437968 294.65831435 163.83437968 294.65831435 157.94210815 306.50127125 C156.86698631 309.35278873 156.77583244 311.45915032 156.82910156 314.49943542 C156.84751099 315.55957037 156.86592041 316.61970531 156.8848877 317.71196556 C157.07096963 323.02715588 157.37527797 328.32792494 157.734375 333.6340332 C157.85141785 335.43395973 157.85141785 335.43395973 157.9708252 337.27024841 C158.18296 340.52215841 158.3984801 343.77382236 158.61543274 347.02541375 C158.8427345 350.4465252 159.06519593 353.86795121 159.28808594 357.28935242 C159.75804485 364.49234931 160.23273508 371.69502839 160.70849609 378.89764404 C161.42559214 389.75461188 162.13879534 400.61183476 162.84773636 411.46933812 C163.06974292 414.86712303 163.29284876 418.26482889 163.51843262 421.66237831 C163.76944642 425.44577322 164.01778099 429.22933577 164.265625 433.01293945 C164.34043091 434.12841156 164.41523682 435.24388367 164.49230957 436.39315796 C164.5596228 437.42879379 164.62693604 438.46442963 164.69628906 439.53144836 C164.75528381 440.42382863 164.81427856 441.3162089 164.87506104 442.23563099 C165.02202716 445.48736763 165 448.7449439 165 452 C8.91 452 -147.18 452 -308 452 C-308 425.93 -308 399.86 -308 373 C-310.97 372.67 -313.94 372.34 -317 372 C-320.32638888 369.26696698 -320.90756938 367.64457277 -321.51757812 363.390625 C-321.54377474 362.01065777 -321.54716355 360.63012411 -321.53125 359.25 C-321.5350769 358.51426758 -321.53890381 357.77853516 -321.54284668 357.02050781 C-321.54555903 355.47068914 -321.53824519 353.92082416 -321.52148438 352.37109375 C-321.50006133 350.00676857 -321.52130511 347.64548134 -321.546875 345.28125 C-321.5442316 343.77082667 -321.53910636 342.26040521 -321.53125 340.75 C-321.53934692 340.0477832 -321.54744385 339.34556641 -321.55578613 338.62207031 C-321.46340222 333.75553371 -320.48725867 331.3676842 -317 328 C-313.8994751 327.39872742 -313.8994751 327.39872742 -310.21191406 327.43237305 C-309.53833359 327.43164291 -308.86475311 327.43091278 -308.17076111 327.43016052 C-305.95155375 327.43363507 -303.73446405 327.47248314 -301.515625 327.51171875 C-299.97435655 327.52104752 -298.43307325 327.52816333 -296.89178467 327.53315735 C-292.84062564 327.55222263 -288.79036696 327.60131795 -284.73956299 327.65667725 C-280.60384297 327.70788072 -276.46797706 327.73067365 -272.33203125 327.75585938 C-264.22094158 327.80943841 -256.11058288 327.89474401 -248 328 C-248 325.03 -248 322.06 -248 319 C-232.60375072 315.98387365 -217.16737931 313.29888165 -201.6875 310.75 C-199.47066476 310.38304419 -197.25386768 310.01585781 -195.03710938 309.6484375 C-189.69184021 308.76297928 -184.34607201 307.88059737 -179 307 C-179 303.04 -179 299.08 -179 295 C-180.19625 294.505 -181.3925 294.01 -182.625 293.5 C-188.12373747 290.7311322 -191.43558867 286.65509928 -193.84765625 281.01953125 C-195.75761152 274.68252735 -195.38191443 268.11915671 -192.25 262.25 C-190.06254747 259.09034635 -187.89993598 256.51836546 -185 254 C-184.34 254 -183.68 254 -183 254 C-187.23386995 249.51158877 -191.92300503 245.81340076 -196.8125 242.0625 C-197.58142578 241.46759766 -198.35035156 240.87269531 -199.14257812 240.25976562 C-203.54211934 236.86265152 -207.97553313 233.5229038 -212.4753418 230.25952148 C-214.81693221 228.32513158 -214.98953068 227.09841161 -215.3125 224.0625 C-215 221 -215 221 -213.4375 219.0625 C-209.83428906 217.49186959 -207.81604638 218.05368205 -204 219 C-200.96194014 220.83367685 -198.28871359 223.04834138 -195.5625 225.3125 C-193.95674669 226.60413059 -192.34995715 227.89447388 -190.7421875 229.18359375 C-189.94264648 229.83054199 -189.14310547 230.47749023 -188.31933594 231.14404297 C-184.99990096 233.80028978 -181.6021494 236.34308775 -178.1875 238.875 C-172.8867811 242.82488193 -167.61631046 246.8117207 -162.36523438 250.82739258 C-154.51132326 256.833114 -146.63393628 262.80457252 -138.6875 268.6875 C-137.92977295 269.25130371 -137.1720459 269.81510742 -136.39135742 270.39599609 C-124.00116146 279.65603711 -124.00116146 279.65603711 -109 281 C-105.2591636 279.85411193 -102.04930611 278.47794936 -99 276 C-98.16996757 272.52322185 -98.16996757 272.52322185 -98 269 C-96.4840625 267.8553125 -96.4840625 267.8553125 -94.9375 266.6875 C-91.87565659 264.38866056 -91.87565659 264.38866056 -91.46484375 261.78515625 C-91.14518972 252.76535328 -94.37999404 246.47775712 -100.42514038 239.97680664 C-102.78725148 237.5246251 -105.18956111 235.11723487 -107.61767578 232.73046875 C-109.51312656 230.86206072 -111.38009512 228.96808738 -113.24609375 227.0703125 C-114.4437105 225.87599558 -115.6428751 224.68322833 -116.84375 223.4921875 C-117.67984802 222.64090775 -117.67984802 222.64090775 -118.53283691 221.77243042 C-120.27161438 220.02823446 -120.27161438 220.02823446 -123 218 C-124.9743778 218.32004196 -124.9743778 218.32004196 -127 219 C-129.84387945 219.09516919 -132.65712841 219.13947982 -135.5 219.125 C-136.25925781 219.12886719 -137.01851562 219.13273438 -137.80078125 219.13671875 C-141.37014456 219.13046768 -144.56731602 218.96340936 -148 218 C-148.60328125 218.85464844 -149.2065625 219.70929688 -149.828125 220.58984375 C-150.63485612 221.70613448 -151.44217889 222.8219978 -152.25 223.9375 C-152.64574219 224.50146484 -153.04148438 225.06542969 -153.44921875 225.64648438 C-155.08058789 227.87958803 -156.52674103 229.72520447 -158.9375 231.125 C-162.27367004 230.92280788 -164.15251019 229.07246236 -166.75 227.0625 C-167.73484375 226.31097656 -168.7196875 225.55945313 -169.734375 224.78515625 C-170.48203125 224.19605469 -171.2296875 223.60695312 -172 223 C-170.55797524 218.84848662 -168.4989562 215.70021555 -165.875 212.1875 C-165.15054688 211.21167969 -164.42609375 210.23585937 -163.6796875 209.23046875 C-162.84824219 208.12638672 -162.84824219 208.12638672 -162 207 C-162.99 206.01 -163.98 205.02 -165 204 C-163.53938926 199.67373449 -161.33620545 196.62121981 -158.5 193.0625 C-154.95264416 188.55160126 -151.50363573 183.996212 -148.1875 179.3125 C-147.784104 178.74362061 -147.38070801 178.17474121 -146.96508789 177.58862305 C-146.10869956 176.38066652 -145.25250485 175.17257271 -144.39648438 173.96435547 C-140.14507762 167.98414241 -135.83779394 162.04424581 -131.5234375 156.109375 C-130.10501297 154.14540257 -128.70627075 152.1690054 -127.3125 150.1875 C-126.52121166 149.08306218 -125.7295722 147.9788758 -124.9375 146.875 C-124.26589844 145.92367187 -123.59429687 144.97234375 -122.90234375 143.9921875 C-122.27457031 143.33476562 -121.64679688 142.67734375 -121 142 C-117 142 -117 142 -115 143 C-113.29005064 140.80621611 -111.60831573 138.5982809 -109.9375 136.375 C-109.45216797 135.75753906 -108.96683594 135.14007813 -108.46679688 134.50390625 C-105.48124908 130.60529244 -105.48124908 130.60529244 -105.375 125.8125 C-105.58125 124.884375 -105.7875 123.95625 -106 123 C-104.78515625 120.6640625 -104.78515625 120.6640625 -103.0625 118.625 C-102.49660156 117.93664062 -101.93070313 117.24828125 -101.34765625 116.5390625 C-100.90292969 116.03117187 -100.45820313 115.52328125 -100 115 C-97.0884719 116.37583975 -94.51234472 117.95333027 -91.890625 119.8203125 C-91.13652344 120.35527344 -90.38242188 120.89023438 -89.60546875 121.44140625 C-88.82816406 121.99699219 -88.05085937 122.55257812 -87.25 123.125 C-86.45722656 123.68832031 -85.66445312 124.25164062 -84.84765625 124.83203125 C-82.89665924 126.21888455 -80.94752412 127.60827614 -79 129 C-80.71435014 132.55225704 -82.77742023 135.74021634 -85 139 C-86.65 138.67 -88.3 138.34 -90 138 C-93.63 142.95 -97.26 147.9 -101 153 C-100.01 153.99 -99.02 154.98 -98 156 C-99.65088372 161.29129397 -102.98912969 165.35840284 -106.25 169.75 C-110.66240194 175.73463711 -114.9289338 181.77692605 -119 188 C-118.525625 188.598125 -118.05125 189.19625 -117.5625 189.8125 C-115.69085636 192.4328011 -114.94457612 194.18563842 -115.16479492 197.42138672 C-115.3965026 202.6337062 -114.78062732 206.41697397 -111.39306641 210.44238281 C-107.88130261 214.19392985 -104.10591524 217.66248477 -100.3125 221.125 C-80.09345519 239.94552927 -80.09345519 239.94552927 -78 252 C-78.00361284 254.25079681 -78.12527719 256.46871823 -78.28564453 258.71362305 C-78.79040541 265.87137815 -78.79040541 265.87137815 -76.63671875 272.5390625 C-70.93324894 277.21258533 -63.87083235 276.2490054 -56.94580078 275.66479492 C-54.96163863 275.46412824 -52.98038953 275.23499768 -51 275 C-51.01571045 274.29617188 -51.0314209 273.59234375 -51.04760742 272.8671875 C-51.65115665 241.655798 -46.21069477 215.92315541 -24.58984375 192.375 C-19.50196103 187.09052212 -14.30901201 182.74883322 -8 179 C-8.67581523 172.91766294 -9.73638028 166.98685848 -11 161 C-11.66 161.33 -12.32 161.66 -13 162 C-30.40747889 163.12843381 -43.91262446 160.10109094 -57.66015625 148.81640625 C-69.48680764 137.95301153 -73.90137787 122.40989295 -78.9375 107.625 C-79.53102154 105.90594609 -80.12541771 104.1871939 -80.72070312 102.46875 C-82.15720676 98.31589701 -83.58193646 94.1591839 -85 90 C-85.86157715 90.08378906 -86.7231543 90.16757813 -87.61083984 90.25390625 C-101.00905063 91.44368695 -111.28414665 89.57268268 -122 81 C-128.49698293 74.95066766 -133.36370523 67.52984473 -134.23828125 58.5546875 C-134.47672844 49.94548879 -132.81096458 42.7656824 -127 36.1875 C-119.06607939 29.17850302 -107.07096113 26.50281728 -97.25 23.05078125 C-95.94406554 22.58894256 -94.6382414 22.12679181 -93.33251953 21.66435242 C-89.91179277 20.45371387 -86.48970501 19.24697198 -83.06726074 18.04119873 C-79.01058771 16.61124245 -74.95533392 15.17726568 -70.90031433 13.7426281 C-67.55865385 12.56060228 -64.2160827 11.38131078 -60.87133789 10.20803833 C-54.92384779 8.11860503 -48.98677365 6.01094044 -43.08569336 3.79323673 C-41.171778 3.07420113 -39.25545862 2.3619633 -37.33837891 1.65141296 C-34.98486041 0.77569956 -32.63638491 -0.11374937 -30.29443359 -1.01994324 C-19.67731161 -4.94426375 -10.08982452 -5.77960822 0 0 Z M-150 277 C-150.29132813 277.66386719 -150.58265625 278.32773437 -150.8828125 279.01171875 C-154.24929397 286.26341626 -157.374966 289.58331067 -164 294 C-164.36530232 297.12557959 -164.36530232 297.12557959 -164.1875 300.625 C-164.16042969 301.81351562 -164.13335937 303.00203125 -164.10546875 304.2265625 C-164.07066406 305.14179688 -164.03585938 306.05703125 -164 307 C-158.16287645 309.72399099 -152.23440168 311.41039668 -146 313 C-145.98582031 312.29875 -145.97164062 311.5975 -145.95703125 310.875 C-145.61917899 304.15447931 -144.6819207 299.03750962 -140 294 C-137.71740796 292.33177021 -135.57715424 291.21277846 -133 290 C-133.70640625 289.43796875 -134.4128125 288.8759375 -135.140625 288.296875 C-139.0185243 285.18184114 -142.84234599 282.00233354 -146.671875 278.828125 C-148.63773316 276.8970686 -148.63773316 276.8970686 -150 277 Z " fill="#ECF4FB" transform="translate(334,32)"/>
<path d="M0 0 C3.03805986 1.83367685 5.71128641 4.04834138 8.4375 6.3125 C10.04325331 7.60413059 11.65004285 8.89447388 13.2578125 10.18359375 C14.05735352 10.83054199 14.85689453 11.47749023 15.68066406 12.14404297 C19.00009904 14.80028978 22.3978506 17.34308775 25.8125 19.875 C31.1132189 23.82488193 36.38368954 27.8117207 41.63476562 31.82739258 C49.48867674 37.833114 57.36606372 43.80457252 65.3125 49.6875 C66.07022705 50.25130371 66.8279541 50.81510742 67.60864258 51.39599609 C79.99442982 60.68306483 79.99442982 60.68306483 95 62 C98.52948725 60.64023926 101.74199263 58.91094663 105 57 C105.66 56.67 106.32 56.34 107 56 C110 59 113 62 116 65 C115.17137451 65.1139209 114.34274902 65.2278418 113.48901367 65.34521484 C107.04774951 66.24612229 100.64407645 67.22383278 94.23828125 68.3515625 C92.26098941 68.67405927 90.28270136 68.98897243 88.3034668 69.29931641 C86.96796918 69.51777794 85.63511995 69.75304386 84.30541992 70.00439453 C73.22774229 72.07597291 73.22774229 72.07597291 67.77099609 69.44042969 C64.99367629 67.43569876 62.50756959 65.32958957 60 63 C58.34150888 61.65651098 56.67712655 60.3201523 55 59 C54.58041016 59.87011719 54.58041016 59.87011719 54.15234375 60.7578125 C50.97922468 66.94080337 47.33487549 71.83256226 41 75 C41 79.29 41 83.58 41 88 C42.25296875 88.3403125 43.5059375 88.680625 44.796875 89.03125 C46.44839996 89.51920056 48.09941616 90.00887536 49.75 90.5 C50.575 90.71914063 51.4 90.93828125 52.25 91.1640625 C58.28953106 93.01488653 58.28953106 93.01488653 60.38500977 95.92041016 C61.42578125 98.0703125 61.42578125 98.0703125 62.2121582 100.14111328 C63.76331946 103.80102707 66.8356753 105.44884389 70.29207516 107.08499908 C73.31634616 108.10689256 75.70061757 108.2558686 78.88929749 108.26501465 C80.65790886 108.27742439 80.65790886 108.27742439 82.46224976 108.29008484 C84.38951401 108.28861198 84.38951401 108.28861198 86.35571289 108.28710938 C87.72925725 108.29313683 89.10279792 108.3000619 90.47633362 108.30781555 C93.42883954 108.3226811 96.38127811 108.33144779 99.33381844 108.33552551 C104.00227217 108.34224761 108.67058181 108.36401089 113.338974 108.38806152 C124.08965345 108.4411546 134.84037726 108.47457201 145.59113312 108.50782013 C155.44826421 108.53850323 165.30533336 108.5733287 175.16238397 108.62413073 C179.80353035 108.64748125 184.44457616 108.6612206 189.08577549 108.66762543 C191.97150286 108.67356101 194.85714853 108.68765435 197.74283409 108.70396996 C199.71963092 108.7126532 201.69646348 108.71142351 203.67327881 108.70991516 C204.84953323 108.71818832 206.02578766 108.72646149 207.23768616 108.73498535 C208.25991303 108.73791847 209.28213991 108.74085159 210.33534336 108.7438736 C213.07035607 109.00676261 214.69341929 109.53845129 217 111 C219.56056515 114.47085316 219.2583187 118.05827318 219.265625 122.25 C219.26753845 122.94512695 219.2694519 123.64025391 219.27142334 124.35644531 C219.27278089 125.82226932 219.26911451 127.28810552 219.26074219 128.75390625 C219.25003605 130.99246326 219.26065151 133.23021783 219.2734375 135.46875 C219.27211583 136.8958351 219.26955328 138.3229197 219.265625 139.75 C219.26336914 141.04421875 219.26111328 142.3384375 219.25878906 143.671875 C219.01631425 146.7901926 218.77220643 148.46954345 217 151 C214 153 214 153 205 153 C205 179.4 205 205.8 205 233 C103.03 233 1.06 233 -104 233 C-104 206.93 -104 180.86 -104 154 C-106.97 153.67 -109.94 153.34 -113 153 C-116.32638888 150.26696698 -116.90756938 148.64457277 -117.51757812 144.390625 C-117.54377474 143.01065777 -117.54716355 141.63012411 -117.53125 140.25 C-117.5350769 139.51426758 -117.53890381 138.77853516 -117.54284668 138.02050781 C-117.54555903 136.47068914 -117.53824519 134.92082416 -117.52148438 133.37109375 C-117.50006133 131.00676857 -117.52130511 128.64548134 -117.546875 126.28125 C-117.5442316 124.77082667 -117.53910636 123.26040521 -117.53125 121.75 C-117.53934692 121.0477832 -117.54744385 120.34556641 -117.55578613 119.62207031 C-117.46340222 114.75553371 -116.48725867 112.3676842 -113 109 C-109.8994751 108.39872742 -109.8994751 108.39872742 -106.21191406 108.43237305 C-105.20154335 108.43127785 -105.20154335 108.43127785 -104.17076111 108.43016052 C-101.95155375 108.43363507 -99.73446405 108.47248314 -97.515625 108.51171875 C-95.97435655 108.52104752 -94.43307325 108.52816333 -92.89178467 108.53315735 C-88.84062564 108.55222263 -84.79036696 108.60131795 -80.73956299 108.65667725 C-76.60384297 108.70788072 -72.46797706 108.73067365 -68.33203125 108.75585938 C-60.22094158 108.80943841 -52.11058288 108.89474401 -44 109 C-44 106.03 -44 103.06 -44 100 C-28.60375072 96.98387365 -13.16737931 94.29888165 2.3125 91.75 C4.52933524 91.38304419 6.74613232 91.01585781 8.96289062 90.6484375 C14.30815979 89.76297928 19.65392799 88.88059737 25 88 C25 84.04 25 80.08 25 76 C23.80375 75.505 22.6075 75.01 21.375 74.5 C15.87626253 71.7311322 12.56441133 67.65509928 10.15234375 62.01953125 C8.24238848 55.68252735 8.61808557 49.11915671 11.75 43.25 C13.93745253 40.09034635 16.10006402 37.51836546 19 35 C19.66 35 20.32 35 21 35 C16.76613005 30.51158877 12.07699497 26.81340076 7.1875 23.0625 C6.41857422 22.46759766 5.64964844 21.87269531 4.85742188 21.25976562 C0.45788066 17.86265152 -3.97553313 14.5229038 -8.4753418 11.25952148 C-10.81693221 9.32513158 -10.98953068 8.09841161 -11.3125 5.0625 C-11 2 -11 2 -9.4375 0.0625 C-5.83428906 -1.50813041 -3.81604638 -0.94631795 0 0 Z " fill="#387094" transform="translate(130,251)"/>
<path d="M0 0 C7.5360232 5.29228813 14.13205646 12.74518882 16 22 C16.67804688 21.94199219 17.35609375 21.88398437 18.0546875 21.82421875 C26.3396572 21.42259279 32.51366894 23.10048861 38.8515625 28.609375 C44.36671362 34.5320496 46.2560959 41.92567011 47.44213867 49.77026367 C47.61836006 50.86723068 47.61836006 50.86723068 47.79814148 51.98635864 C48.18004065 54.37895632 48.54949535 56.77326956 48.91796875 59.16796875 C49.18226493 60.85182281 49.44702846 62.53560358 49.7122345 64.21931458 C50.26489419 67.74114132 50.81126001 71.26387284 51.35327148 74.78735352 C52.04338054 79.26966605 52.75002001 83.74918481 53.46161938 88.22812939 C54.01181382 91.70434374 54.55254892 95.1819817 55.09063148 98.66008949 C55.34718168 100.31051384 55.60667395 101.96048399 55.86934471 103.6099453 C60.08761211 130.19657225 60.08761211 130.19657225 55.2890625 138.34375 C53.17077863 141.06542382 50.78585771 142.97392167 48 145 C48.13277344 145.59167969 48.26554688 146.18335938 48.40234375 146.79296875 C48.66724609 147.97826172 48.66724609 147.97826172 48.9375 149.1875 C49.11152344 149.96480469 49.28554688 150.74210938 49.46484375 151.54296875 C50.00511333 154.02347652 50.50894372 156.50932716 51 159 C42.07492934 165.65502899 33.04143759 172.1543921 23.9375 178.5625 C22.95064209 179.26503906 21.96378418 179.96757812 20.94702148 180.69140625 C19.53271851 181.68140625 19.53271851 181.68140625 18.08984375 182.69140625 C17.25316162 183.28123291 16.41647949 183.87105957 15.55444336 184.47875977 C12.77868853 186.13179698 10.06956735 187.02204898 7 188 C7.63301526 195.92849108 8.26754062 203.8568593 8.90394497 211.785079 C9.19946957 215.46725712 9.49449194 219.14947399 9.78833008 222.83178711 C10.07240931 226.39156303 10.3578554 229.95122703 10.64421272 233.51082039 C10.80519784 235.51628924 10.96480102 237.52186888 11.12437439 239.52745056 C11.64898085 246.03391757 12.25856594 252.5149682 13 259 C13.10330915 262.01249471 13.04787308 264.98399586 13 268 C1.0107309 269.44301062 -10.9880187 270.76056395 -23 272 C-23.55373397 241.97531385 -16.95924621 216.55521882 -2.83496094 189.79248047 C-1.8109146 188.00405189 -1.8109146 188.00405189 -2.25 185.875 C-2.93708233 183.8003048 -2.93708233 183.8003048 -5 182 C-5 180.68 -5 179.36 -5 178 C-5.66 178 -6.32 178 -7 178 C-7.67155349 175.73050898 -8.3373963 173.4596039 -9 171.1875 C-9.37125 169.92292969 -9.7425 168.65835938 -10.125 167.35546875 C-11 164 -11 164 -11 161 C-11.66 161.33 -12.32 161.66 -13 162 C-30.40747889 163.12843381 -43.91262446 160.10109094 -57.66015625 148.81640625 C-69.48680764 137.95301153 -73.90137787 122.40989295 -78.9375 107.625 C-79.53102154 105.90594609 -80.12541771 104.1871939 -80.72070312 102.46875 C-82.15720676 98.31589701 -83.58193646 94.1591839 -85 90 C-85.86157715 90.08378906 -86.7231543 90.16757813 -87.61083984 90.25390625 C-101.00905063 91.44368695 -111.28414665 89.57268268 -122 81 C-128.49698293 74.95066766 -133.36370523 67.52984473 -134.23828125 58.5546875 C-134.47672844 49.94548879 -132.81096458 42.7656824 -127 36.1875 C-119.06607939 29.17850302 -107.07096113 26.50281728 -97.25 23.05078125 C-95.94406554 22.58894256 -94.6382414 22.12679181 -93.33251953 21.66435242 C-89.91179277 20.45371387 -86.48970501 19.24697198 -83.06726074 18.04119873 C-79.01058771 16.61124245 -74.95533392 15.17726568 -70.90031433 13.7426281 C-67.55865385 12.56060228 -64.2160827 11.38131078 -60.87133789 10.20803833 C-54.92384779 8.11860503 -48.98677365 6.01094044 -43.08569336 3.79323673 C-41.171778 3.07420113 -39.25545862 2.3619633 -37.33837891 1.65141296 C-34.98486041 0.77569956 -32.63638491 -0.11374937 -30.29443359 -1.01994324 C-19.67731161 -4.94426375 -10.08982452 -5.77960822 0 0 Z " fill="#F7C3BF" transform="translate(334,32)"/>
<path d="M0 0 C3.03805986 1.83367685 5.71128641 4.04834138 8.4375 6.3125 C10.04325331 7.60413059 11.65004285 8.89447388 13.2578125 10.18359375 C14.05735352 10.83054199 14.85689453 11.47749023 15.68066406 12.14404297 C19.00009904 14.80028978 22.3978506 17.34308775 25.8125 19.875 C31.1132189 23.82488193 36.38368954 27.8117207 41.63476562 31.82739258 C49.48867674 37.833114 57.36606372 43.80457252 65.3125 49.6875 C66.07022705 50.25130371 66.8279541 50.81510742 67.60864258 51.39599609 C79.99442982 60.68306483 79.99442982 60.68306483 95 62 C98.52948725 60.64023926 101.74199263 58.91094663 105 57 C105.66 56.67 106.32 56.34 107 56 C110 59 113 62 116 65 C115.17137451 65.1139209 114.34274902 65.2278418 113.48901367 65.34521484 C107.04774951 66.24612229 100.64407645 67.22383278 94.23828125 68.3515625 C92.26098941 68.67405927 90.28270136 68.98897243 88.3034668 69.29931641 C86.96796918 69.51777794 85.63511995 69.75304386 84.30541992 70.00439453 C73.22774229 72.07597291 73.22774229 72.07597291 67.77099609 69.44042969 C64.99367629 67.43569876 62.50756959 65.32958957 60 63 C58.34150888 61.65651098 56.67712655 60.3201523 55 59 C54.58041016 59.87011719 54.58041016 59.87011719 54.15234375 60.7578125 C50.97922468 66.94080337 47.33487549 71.83256226 41 75 C41 79.29 41 83.58 41 88 C42.25296875 88.3403125 43.5059375 88.680625 44.796875 89.03125 C46.44839996 89.51920056 48.09941616 90.00887536 49.75 90.5 C50.575 90.71914063 51.4 90.93828125 52.25 91.1640625 C58.28953106 93.01488653 58.28953106 93.01488653 60.38500977 95.92041016 C61.42578125 98.0703125 61.42578125 98.0703125 62.2121582 100.14111328 C63.76331946 103.80102707 66.8356753 105.44884389 70.29207516 107.08499908 C73.31634616 108.10689256 75.70061757 108.2558686 78.88929749 108.26501465 C80.65790886 108.27742439 80.65790886 108.27742439 82.46224976 108.29008484 C84.38951401 108.28861198 84.38951401 108.28861198 86.35571289 108.28710938 C87.72925725 108.29313683 89.10279792 108.3000619 90.47633362 108.30781555 C93.42883954 108.3226811 96.38127811 108.33144779 99.33381844 108.33552551 C104.00227217 108.34224761 108.67058181 108.36401089 113.338974 108.38806152 C124.08965345 108.4411546 134.84037726 108.47457201 145.59113312 108.50782013 C155.44826421 108.53850323 165.30533336 108.5733287 175.16238397 108.62413073 C179.80353035 108.64748125 184.44457616 108.6612206 189.08577549 108.66762543 C191.97150286 108.67356101 194.85714853 108.68765435 197.74283409 108.70396996 C199.71963092 108.7126532 201.69646348 108.71142351 203.67327881 108.70991516 C204.84953323 108.71818832 206.02578766 108.72646149 207.23768616 108.73498535 C208.25991303 108.73791847 209.28213991 108.74085159 210.33534336 108.7438736 C213.07035607 109.00676261 214.69341929 109.53845129 217 111 C219.56056515 114.47085316 219.2583187 118.05827318 219.265625 122.25 C219.26753845 122.94512695 219.2694519 123.64025391 219.27142334 124.35644531 C219.27278089 125.82226932 219.26911451 127.28810552 219.26074219 128.75390625 C219.25003605 130.99246326 219.26065151 133.23021783 219.2734375 135.46875 C219.27211583 136.8958351 219.26955328 138.3229197 219.265625 139.75 C219.26336914 141.04421875 219.26111328 142.3384375 219.25878906 143.671875 C219.01631425 146.7901926 218.77220643 148.46954345 217 151 C213.79619983 153.13586678 212.98060033 153.23132175 209.3125 153.125 C208.50425781 153.10695313 207.69601562 153.08890625 206.86328125 153.0703125 C206.24839844 153.04710937 205.63351562 153.02390625 205 153 C205 155.64 205 158.28 205 161 C103.03 161 1.06 161 -104 161 C-104 158.69 -104 156.38 -104 154 C-104.60328125 153.98582031 -105.2065625 153.97164062 -105.828125 153.95703125 C-106.62734375 153.90933594 -107.4265625 153.86164063 -108.25 153.8125 C-109.03890625 153.77769531 -109.8278125 153.74289062 -110.640625 153.70703125 C-114.09511204 152.67182901 -115.06800323 151.01230412 -117 148 C-117.39064429 145.27580887 -117.56257515 142.96671617 -117.53125 140.25 C-117.5350769 139.51426758 -117.53890381 138.77853516 -117.54284668 138.02050781 C-117.54555903 136.47068914 -117.53824519 134.92082416 -117.52148438 133.37109375 C-117.50006133 131.00676857 -117.52130511 128.64548134 -117.546875 126.28125 C-117.5442316 124.77082667 -117.53910636 123.26040521 -117.53125 121.75 C-117.53934692 121.0477832 -117.54744385 120.34556641 -117.55578613 119.62207031 C-117.46340222 114.75553371 -116.48725867 112.3676842 -113 109 C-109.8994751 108.39872742 -109.8994751 108.39872742 -106.21191406 108.43237305 C-105.20154335 108.43127785 -105.20154335 108.43127785 -104.17076111 108.43016052 C-101.95155375 108.43363507 -99.73446405 108.47248314 -97.515625 108.51171875 C-95.97435655 108.52104752 -94.43307325 108.52816333 -92.89178467 108.53315735 C-88.84062564 108.55222263 -84.79036696 108.60131795 -80.73956299 108.65667725 C-76.60384297 108.70788072 -72.46797706 108.73067365 -68.33203125 108.75585938 C-60.22094158 108.80943841 -52.11058288 108.89474401 -44 109 C-44 106.03 -44 103.06 -44 100 C-28.60375072 96.98387365 -13.16737931 94.29888165 2.3125 91.75 C4.52933524 91.38304419 6.74613232 91.01585781 8.96289062 90.6484375 C14.30815979 89.76297928 19.65392799 88.88059737 25 88 C25 84.04 25 80.08 25 76 C23.80375 75.505 22.6075 75.01 21.375 74.5 C15.87626253 71.7311322 12.56441133 67.65509928 10.15234375 62.01953125 C8.24238848 55.68252735 8.61808557 49.11915671 11.75 43.25 C13.93745253 40.09034635 16.10006402 37.51836546 19 35 C19.66 35 20.32 35 21 35 C16.76613005 30.51158877 12.07699497 26.81340076 7.1875 23.0625 C6.41857422 22.46759766 5.64964844 21.87269531 4.85742188 21.25976562 C0.45788066 17.86265152 -3.97553313 14.5229038 -8.4753418 11.25952148 C-10.81693221 9.32513158 -10.98953068 8.09841161 -11.3125 5.0625 C-11 2 -11 2 -9.4375 0.0625 C-5.83428906 -1.50813041 -3.81604638 -0.94631795 0 0 Z " fill="#386F93" transform="translate(130,251)"/>
<path d="M0 0 C7.5360232 5.29228813 14.13205646 12.74518882 16 22 C16.67804688 21.94199219 17.35609375 21.88398437 18.0546875 21.82421875 C26.3396572 21.42259279 32.51366894 23.10048861 38.8515625 28.609375 C44.36671362 34.5320496 46.2560959 41.92567011 47.44213867 49.77026367 C47.61836006 50.86723068 47.61836006 50.86723068 47.79814148 51.98635864 C48.18004065 54.37895632 48.54949535 56.77326956 48.91796875 59.16796875 C49.18226493 60.85182281 49.44702846 62.53560358 49.7122345 64.21931458 C50.26489419 67.74114132 50.81126001 71.26387284 51.35327148 74.78735352 C52.04338054 79.26966605 52.75002001 83.74918481 53.46161938 88.22812939 C54.01181382 91.70434374 54.55254892 95.1819817 55.09063148 98.66008949 C55.34718168 100.31051384 55.60667395 101.96048399 55.86934471 103.6099453 C60.09191287 130.22367883 60.09191287 130.22367883 55.35546875 138.27734375 C52.96171475 141.31954985 50.09831056 143.70237644 47 146 C44.69033627 143.69033627 44.15625078 142.04365724 43.08886719 138.97119141 C42.72218933 137.92315338 42.35551147 136.87511536 41.97772217 135.7953186 C41.5880426 134.65887909 41.19836304 133.52243958 40.796875 132.3515625 C40.19471161 130.60545181 40.19471161 130.60545181 39.5803833 128.82406616 C38.7332716 126.35876343 37.88951158 123.89230689 37.04882812 121.42480469 C36.18543478 118.89173341 35.31221066 116.36240674 34.4296875 113.8359375 C33.16213463 110.2002619 31.91459899 106.55828874 30.671875 102.9140625 C30.07521027 101.21547592 30.07521027 101.21547592 29.4664917 99.48257446 C29.11242249 98.42823212 28.75835327 97.37388977 28.39355469 96.28759766 C28.07537781 95.36097321 27.75720093 94.43434875 27.42938232 93.47964478 C26.91531771 90.51096728 27.33747533 89.46416314 29 87 C30.31328657 85.64691687 31.64499081 84.31129922 33 83 C34.98363675 79.0327265 34.54751158 74.3131746 34 70 C32.39746577 66.73724031 30.04975626 64.76982126 27.125 62.625 C24.08385427 61.73054537 21.15265154 61.96342632 18 62 C18.433125 63.24136719 18.86625 64.48273438 19.3125 65.76171875 C19.87539949 67.40350892 20.4378774 69.04544367 21 70.6875 C21.28617188 71.50412109 21.57234375 72.32074219 21.8671875 73.16210938 C24.42266949 80.67644333 24.42266949 80.67644333 24 85 C20.00595072 85.39157346 17.78899954 85.58435278 14.5 83.1484375 C10.90115266 79.27777183 9.70750637 74.26174812 8.1875 69.3125 C7.87619141 68.35021484 7.56488281 67.38792969 7.24414062 66.39648438 C5 59.36813187 5 59.36813187 5 57 C3.78046631 57.44166504 2.56093262 57.88333008 1.30444336 58.33837891 C-3.41830673 60.04858522 -8.14128456 61.75816182 -12.86434937 63.46749878 C-14.99233738 64.23767786 -17.12028756 65.00796147 -19.24819946 65.77835083 C-30.7137089 69.92891695 -42.18171095 74.07200513 -53.6640625 78.17578125 C-54.56537399 78.49814758 -55.46668549 78.82051392 -56.39530945 79.15264893 C-60.64986524 80.67412342 -64.90533037 82.19296246 -69.16235352 83.70751953 C-70.68509415 84.25152808 -72.20780123 84.79563059 -73.73046875 85.33984375 C-74.41376251 85.58180984 -75.09705627 85.82377594 -75.80105591 86.07307434 C-78.98126216 87.21241077 -81.98670671 88.48179997 -85 90 C-96.32963411 92.11932677 -106.93691937 90.74547983 -116.875 84.8125 C-125.24473817 79.0133801 -131.95555331 71.20312649 -134 61 C-134.83953513 52.38444276 -133.61365437 45.16380136 -128.59765625 37.99609375 C-121.03502001 29.43496764 -107.67646663 26.7156505 -97.25 23.05078125 C-95.94406554 22.58894256 -94.6382414 22.12679181 -93.33251953 21.66435242 C-89.91179277 20.45371387 -86.48970501 19.24697198 -83.06726074 18.04119873 C-79.01058771 16.61124245 -74.95533392 15.17726568 -70.90031433 13.7426281 C-67.55865385 12.56060228 -64.2160827 11.38131078 -60.87133789 10.20803833 C-54.92384779 8.11860503 -48.98677365 6.01094044 -43.08569336 3.79323673 C-41.171778 3.07420113 -39.25545862 2.3619633 -37.33837891 1.65141296 C-34.98486041 0.77569956 -32.63638491 -0.11374937 -30.29443359 -1.01994324 C-19.67731161 -4.94426375 -10.08982452 -5.77960822 0 0 Z " fill="#333077" transform="translate(334,32)"/>
<path d="M0 0 C74.17977246 -1.00717558 74.17977246 -1.00717558 95.1875 18.5 C108.9380029 33.05935601 113.72731671 52.04139735 115.0703125 71.515625 C115.15626678 72.68961853 115.24222107 73.86361206 115.33078003 75.07318115 C115.51024249 77.54042579 115.6865509 80.00790166 115.85986328 82.47558594 C116.12517303 86.25246326 116.39961304 90.02859005 116.67578125 93.8046875 C116.84948611 96.20829525 117.02268094 98.61193993 117.1953125 101.015625 C117.27653351 102.14276917 117.35775452 103.26991333 117.44143677 104.43121338 C117.5518782 106.00875397 117.5518782 106.00875397 117.66455078 107.61816406 C117.76209152 108.99974701 117.76209152 108.99974701 117.86160278 110.40924072 C117.99707322 112.9452115 118.02460312 115.46097219 118 118 C104.45735822 118.0231206 90.9147211 118.04091364 77.37206364 118.05181217 C71.08437976 118.05704162 64.79670934 118.06414039 58.5090332 118.07543945 C52.44662277 118.08626614 46.38422531 118.09227637 40.32180595 118.09487724 C38.00323723 118.09673189 35.68466926 118.10035325 33.36610603 118.10573006 C30.13085492 118.11293758 26.89565817 118.11399106 23.66040039 118.11352539 C22.69151886 118.11712067 21.72263733 118.12071594 20.72439575 118.12442017 C19.84794907 118.1230455 18.97150238 118.12167084 18.0684967 118.12025452 C16.91948175 118.12163721 16.91948175 118.12163721 15.74725437 118.12304783 C14 118 14 118 13 117 C12.48835019 114.29929538 12.03564072 111.61068797 11.62109375 108.89453125 C11.49004745 108.04808548 11.35900116 107.20163971 11.22398376 106.32954407 C9.6259921 95.809258 8.33700933 85.25095402 7.0625 74.6875 C6.93437927 73.6323822 6.80625854 72.5772644 6.67425537 71.49017334 C5.00000284 57.68505616 3.37324122 43.8746023 1.88571167 30.04800415 C1.71436187 28.45551204 1.54133652 26.86319915 1.3664856 25.27108765 C0.44471835 16.83219045 -0.26666515 8.50365533 0 0 Z " fill="#ECF4FB" transform="translate(355,365)"/>
<path d="M0 0 C0.33 0 0.66 0 1 0 C3.31916703 32.15700067 5.50927174 64.32112288 7.58041763 96.49498749 C7.74993027 99.12391858 7.92031042 101.75279219 8.09091187 104.38165283 C8.36171376 108.55727591 8.6300855 112.73304834 8.8965435 116.90895081 C8.99556567 118.4561274 9.0953058 120.00325823 9.19581795 121.55033875 C9.33418031 123.68333123 9.46969745 125.81648652 9.60449219 127.94970703 C9.71963165 129.74699753 9.71963165 129.74699753 9.83709717 131.58059692 C10.00239254 135.05022058 10 138.52644118 10 142 C-44.12 142 -98.24 142 -154 142 C-154 115.6 -154 89.2 -154 62 C-149.545 61.505 -149.545 61.505 -145 61 C-143.515 60.505 -143.515 60.505 -142 60 C-140.50705565 56.462441 -140.87047814 52.52576901 -140.8671875 48.75 C-140.86623077 48.05487305 -140.86527405 47.35974609 -140.86428833 46.64355469 C-140.86360956 45.17773345 -140.8654427 43.71190917 -140.86962891 42.24609375 C-140.87498148 40.00774355 -140.86967371 37.76959399 -140.86328125 35.53125 C-140.86394209 34.10416623 -140.86522336 32.67708258 -140.8671875 31.25 C-140.86831543 29.95578125 -140.86944336 28.6615625 -140.87060547 27.328125 C-140.94214175 23.54365172 -140.94214175 23.54365172 -142 20 C-143.31183027 19.29195793 -144.64486923 18.62116246 -146 18 C-145.38653811 17.99853344 -144.77307623 17.99706688 -144.14102459 17.99555588 C-129.17406894 17.95841041 -114.20737232 17.89929389 -99.24061108 17.81609726 C-92.00260767 17.77638589 -84.76471174 17.7439535 -77.52661133 17.72900391 C-71.21360424 17.71594615 -64.90083443 17.68887734 -58.58796102 17.64538693 C-55.24907609 17.62286343 -51.91073918 17.60917459 -48.57173729 17.60811615 C-44.83286703 17.60573972 -41.0949127 17.57860276 -37.35620117 17.54589844 C-35.71836418 17.55344398 -35.71836418 17.55344398 -34.04743958 17.56114197 C-23.2785734 17.41613589 -13.97484368 14.40023704 -6 7 C-4.30058252 5.1558723 -2.68854965 3.2836783 -1.12890625 1.3203125 C-0.75636719 0.88460938 -0.38382813 0.44890625 0 0 Z M-134 23 C-134.29161684 32.29933717 -133.38807662 41.40039381 -132.375 50.625 C-132.19863768 52.26407755 -132.02228709 53.90315636 -131.84594727 55.54223633 C-130.3180952 69.60323809 -128.64240558 83.64702226 -126.9375 97.6875 C-126.81389099 98.71200256 -126.69028198 99.73650513 -126.56292725 100.79205322 C-125.30521127 111.18056613 -123.98002479 121.55268975 -122.37890625 131.89453125 C-122.25555405 132.70274826 -122.13220184 133.51096527 -122.00511169 134.34367371 C-121.70123933 137.97712087 -121.70123933 137.97712087 -120 141 C-118.6465941 141.09531163 -117.28826016 141.1218872 -115.9315033 141.12025452 C-114.61683327 141.12231651 -114.61683327 141.12231651 -113.27560425 141.12442017 C-112.30672272 141.12082489 -111.33784119 141.11722961 -110.33959961 141.11352539 C-109.32508224 141.11367142 -108.31056488 141.11381744 -107.26530457 141.1139679 C-103.89429627 141.11326829 -100.52334246 141.10547368 -97.15234375 141.09765625 C-94.82206757 141.09579224 -92.491791 141.09436826 -90.16151428 141.09336853 C-84.01462735 141.08954202 -77.86776387 141.0797106 -71.72088623 141.06866455 C-65.45390134 141.05845329 -59.18691268 141.05387152 -52.91992188 141.04882812 C-40.61327092 141.03808845 -28.30663741 141.02101044 -16 141 C-16.08400558 139.70871437 -16.08400558 139.70871437 -16.16970825 138.39134216 C-16.38232593 135.1195566 -16.59451097 131.84774353 -16.806427 128.57591248 C-16.89728426 127.17443276 -16.98830155 125.7729634 -17.07949829 124.37150574 C-17.64200237 115.72528626 -18.17936132 107.07854716 -18.6703186 98.42791748 C-20.09157836 75.05924536 -24.93597456 54.43202286 -42.9609375 38.23828125 C-67.47764079 18.37474818 -104.6451397 22.6014345 -134 23 Z " fill="#C7DAF8" transform="translate(489,342)"/>
<path d="M0 0 C3.03805986 1.83367685 5.71128641 4.04834138 8.4375 6.3125 C10.04325331 7.60413059 11.65004285 8.89447388 13.2578125 10.18359375 C14.05735352 10.83054199 14.85689453 11.47749023 15.68066406 12.14404297 C19.00009904 14.80028978 22.3978506 17.34308775 25.8125 19.875 C31.1132189 23.82488193 36.38368954 27.8117207 41.63476562 31.82739258 C49.48867674 37.833114 57.36606372 43.80457252 65.3125 49.6875 C66.07022705 50.25130371 66.8279541 50.81510742 67.60864258 51.39599609 C79.99442982 60.68306483 79.99442982 60.68306483 95 62 C98.52948725 60.64023926 101.74199263 58.91094663 105 57 C105.66 56.67 106.32 56.34 107 56 C110 59 113 62 116 65 C115.17137451 65.1139209 114.34274902 65.2278418 113.48901367 65.34521484 C107.04774951 66.24612229 100.64407645 67.22383278 94.23828125 68.3515625 C92.26098941 68.67405927 90.28270136 68.98897243 88.3034668 69.29931641 C86.96796918 69.51777794 85.63511995 69.75304386 84.30541992 70.00439453 C73.22774229 72.07597291 73.22774229 72.07597291 67.77099609 69.44042969 C64.99367629 67.43569876 62.50756959 65.32958957 60 63 C58.34150888 61.65651098 56.67712655 60.3201523 55 59 C54.58041016 59.87011719 54.58041016 59.87011719 54.15234375 60.7578125 C50.97922468 66.94080337 47.33487549 71.83256226 41 75 C41 79.29 41 83.58 41 88 C42.25296875 88.3403125 43.5059375 88.680625 44.796875 89.03125 C46.44839996 89.51920056 48.09941616 90.00887536 49.75 90.5 C50.575 90.71914063 51.4 90.93828125 52.25 91.1640625 C58.29201674 93.01564828 58.29201674 93.01564828 60.3828125 95.92260742 C61.421875 98.07421875 61.421875 98.07421875 62.20605469 100.1472168 C63.42641569 102.99510107 65.48276783 104.30086829 68 106 C69.32 106.99 70.64 107.98 72 109 C33.72 109 -4.56 109 -44 109 C-44 106.03 -44 103.06 -44 100 C-28.60375072 96.98387365 -13.16737931 94.29888165 2.3125 91.75 C4.52933524 91.38304419 6.74613232 91.01585781 8.96289062 90.6484375 C14.30815979 89.76297928 19.65392799 88.88059737 25 88 C25 84.04 25 80.08 25 76 C23.80375 75.505 22.6075 75.01 21.375 74.5 C15.87626253 71.7311322 12.56441133 67.65509928 10.15234375 62.01953125 C8.24238848 55.68252735 8.61808557 49.11915671 11.75 43.25 C13.93745253 40.09034635 16.10006402 37.51836546 19 35 C19.66 35 20.32 35 21 35 C16.76613005 30.51158877 12.07699497 26.81340076 7.1875 23.0625 C6.41857422 22.46759766 5.64964844 21.87269531 4.85742188 21.25976562 C0.45788066 17.86265152 -3.97553313 14.5229038 -8.4753418 11.25952148 C-10.81693221 9.32513158 -10.98953068 8.09841161 -11.3125 5.0625 C-11 2 -11 2 -9.4375 0.0625 C-5.83428906 -1.50813041 -3.81604638 -0.94631795 0 0 Z " fill="#424356" transform="translate(130,251)"/>
<path d="M0 0 C2.9115281 1.37583975 5.48765528 2.95333027 8.109375 4.8203125 C9.24052734 5.62275391 9.24052734 5.62275391 10.39453125 6.44140625 C11.17183594 6.99699219 11.94914062 7.55257812 12.75 8.125 C13.54277344 8.68832031 14.33554688 9.25164062 15.15234375 9.83203125 C17.10334076 11.21888455 19.05247588 12.60827614 21 14 C19.28564986 17.55225704 17.22257977 20.74021634 15 24 C13.35 23.67 11.7 23.34 10 23 C6.37 27.95 2.74 32.9 -1 38 C-0.01 38.99 0.98 39.98 2 41 C0.34911628 46.29129397 -2.98912969 50.35840284 -6.25 54.75 C-10.66240194 60.73463711 -14.9289338 66.77692605 -19 73 C-18.525625 73.598125 -18.05125 74.19625 -17.5625 74.8125 C-15.69085636 77.4328011 -14.94457612 79.18563842 -15.16479492 82.42138672 C-15.3965026 87.6337062 -14.78062732 91.41697397 -11.39306641 95.44238281 C-7.88130261 99.19392985 -4.10591524 102.66248477 -0.3125 106.125 C2.24775926 108.50817066 4.79183302 110.90755346 7.32421875 113.3203125 C7.92800354 113.89386978 8.53178833 114.46742706 9.15386963 115.05836487 C16.29899376 122.00003601 21.67556838 129.94142015 22.14453125 140.14453125 C22.20748791 145.24402088 22.15814219 150.01535602 21 155 C20.34 154.731875 19.68 154.46375 19 154.1875 C15.35060933 152.74294953 11.67754567 151.37128822 8 150 C8.04640625 149.31035156 8.0928125 148.62070312 8.140625 147.91015625 C8.17671875 146.97042969 8.2128125 146.03070313 8.25 145.0625 C8.29640625 144.14597656 8.3428125 143.22945312 8.390625 142.28515625 C7.10423534 131.46661921 -0.19848012 125.02332233 -7.61767578 117.73046875 C-9.51312656 115.86206072 -11.38009512 113.96808738 -13.24609375 112.0703125 C-14.4437105 110.87599558 -15.6428751 109.68322833 -16.84375 108.4921875 C-17.40114868 107.92466766 -17.95854736 107.35714783 -18.53283691 106.77243042 C-20.27161438 105.02823446 -20.27161438 105.02823446 -23 103 C-24.9743778 103.32004196 -24.9743778 103.32004196 -27 104 C-29.84387945 104.09516919 -32.65712841 104.13947982 -35.5 104.125 C-36.63888672 104.13080078 -36.63888672 104.13080078 -37.80078125 104.13671875 C-41.37014456 104.13046768 -44.56731602 103.96340936 -48 103 C-48.60328125 103.85464844 -49.2065625 104.70929688 -49.828125 105.58984375 C-50.63485612 106.70613448 -51.44217889 107.8219978 -52.25 108.9375 C-52.64574219 109.50146484 -53.04148438 110.06542969 -53.44921875 110.64648438 C-55.08058789 112.87958803 -56.52674103 114.72520447 -58.9375 116.125 C-62.27367004 115.92280788 -64.15251019 114.07246236 -66.75 112.0625 C-67.73484375 111.31097656 -68.7196875 110.55945313 -69.734375 109.78515625 C-70.48203125 109.19605469 -71.2296875 108.60695313 -72 108 C-70.55797524 103.84848662 -68.4989562 100.70021555 -65.875 97.1875 C-65.15054688 96.21167969 -64.42609375 95.23585938 -63.6796875 94.23046875 C-63.12539062 93.49441406 -62.57109375 92.75835937 -62 92 C-62.99 91.01 -63.98 90.02 -65 89 C-63.53938926 84.67373449 -61.33620545 81.62121981 -58.5 78.0625 C-54.95264416 73.55160126 -51.50363573 68.996212 -48.1875 64.3125 C-47.784104 63.74362061 -47.38070801 63.17474121 -46.96508789 62.58862305 C-46.10869956 61.38066652 -45.25250485 60.17257271 -44.39648438 58.96435547 C-40.14507762 52.98414241 -35.83779394 47.04424581 -31.5234375 41.109375 C-30.10501297 39.14540257 -28.70627075 37.1690054 -27.3125 35.1875 C-26.52121166 34.08306218 -25.7295722 32.9788758 -24.9375 31.875 C-23.93009766 30.44800781 -23.93009766 30.44800781 -22.90234375 28.9921875 C-22.27457031 28.33476562 -21.64679688 27.67734375 -21 27 C-17 27 -17 27 -15 28 C-13.29005064 25.80621611 -11.60831573 23.5982809 -9.9375 21.375 C-9.45216797 20.75753906 -8.96683594 20.14007813 -8.46679688 19.50390625 C-5.48124908 15.60529244 -5.48124908 15.60529244 -5.375 10.8125 C-5.684375 9.4203125 -5.684375 9.4203125 -6 8 C-4.78515625 5.6640625 -4.78515625 5.6640625 -3.0625 3.625 C-2.49660156 2.93664062 -1.93070312 2.24828125 -1.34765625 1.5390625 C-0.90292969 1.03117188 -0.45820313 0.52328125 0 0 Z " fill="#E4EAEA" transform="translate(234,147)"/>
<path d="M0 0 C3.21875 1.390625 3.21875 1.390625 6.5 3.25 C7.5828125 3.85328125 8.665625 4.4565625 9.78125 5.078125 C12.93309953 6.96005457 15.96656662 8.93507246 19 11 C18.73736062 14.60480795 18.46304964 18.20865783 18.1875 21.8125 C18.08211914 23.26172852 18.08211914 23.26172852 17.97460938 24.74023438 C16.98498143 37.52622741 15.45046912 50.25980323 14 63 C6.70640378 63.09303702 -0.58706267 63.16393443 -7.88113403 63.20724869 C-11.26878958 63.22804671 -14.65603656 63.25621887 -18.04345703 63.30175781 C-21.94574646 63.35044693 -25.84746152 63.37300929 -29.75 63.390625 C-30.95551514 63.41127014 -32.16103027 63.43191528 -33.40307617 63.45318604 C-40.89865044 63.45517151 -46.78483805 62.93157983 -52.51416016 57.58770752 C-57.38995255 52.12299743 -58.52290524 46.91221267 -58.37890625 39.7890625 C-57.59195133 33.99642525 -54.58892243 30.40416401 -50.3125 26.625 C-41.20214787 22.15577065 -30.04334123 22.08067528 -20.0625 20.9375 C-17.80641691 20.67804442 -15.55051182 20.41734819 -13.29502869 20.15272522 C-11.26745402 19.91492781 -9.23933097 19.68181994 -7.21118164 19.44897461 C-3.99070198 19.09791072 -3.99070198 19.09791072 -1 18 C-1.56589844 17.59007812 -2.13179687 17.18015625 -2.71484375 16.7578125 C-3.44832031 16.21898437 -4.18179688 15.68015625 -4.9375 15.125 C-5.66839844 14.59132813 -6.39929688 14.05765625 -7.15234375 13.5078125 C-9.69160471 11.43560377 -9.95654177 10.39981567 -10.3125 7.125 C-10 4 -10 4 -8.375 1.625 C-5.27363773 -0.49698471 -3.72197551 -0.34809843 0 0 Z " fill="#F8C3BF" transform="translate(246,297)"/>
<path d="M0 0 C0.28875 0.78375 0.5775 1.5675 0.875 2.375 C1.84912254 5.09671632 1.84912254 5.09671632 4 7 C3.61833264 10.57954303 2.43533356 13.59064376 0.9609375 16.8515625 C0.3421875 18.23867432 0.3421875 18.23867432 -0.2890625 19.65380859 C-0.72992188 20.63430176 -1.17078125 21.61479492 -1.625 22.625 C-4.9453718 30.13996505 -8.14749664 37.66903002 -11 45.375 C-11.2779541 46.11572754 -11.5559082 46.85645508 -11.84228516 47.61962891 C-15.60859974 57.98345526 -16.5136108 68.13111069 -17.125 79.0625 C-17.21157688 80.51501361 -17.2988113 81.96748818 -17.38671875 83.41992188 C-17.59872625 86.94619693 -17.80183851 90.47291656 -18 94 C-17.43619629 93.86867676 -16.87239258 93.73735352 -16.29150391 93.60205078 C-9.01598794 92.01649207 -1.79498768 91.37959225 5.625 90.875 C6.81996094 90.78863281 8.01492188 90.70226562 9.24609375 90.61328125 C12.16370994 90.40321288 15.08160542 90.19890877 18 90 C18.495 88.515 18.495 88.515 19 87 C19 87.66 19 88.32 19 89 C19.70362671 88.93735962 20.40725342 88.87471924 21.13220215 88.81018066 C27.83717718 88.21453706 34.54272506 87.62575397 41.24893951 87.04424286 C44.69477603 86.74521443 48.1403588 86.44374477 51.58544922 86.13623047 C80.87734979 83.52492417 80.87734979 83.52492417 94 84 C93.87471924 83.35901367 93.74943848 82.71802734 93.62036133 82.05761719 C92.0574972 74.04271125 90.52116839 66.02292016 89 58 C88.75459473 56.70803711 88.50918945 55.41607422 88.25634766 54.08496094 C87.53595685 50.26674644 86.8285508 46.44634955 86.125 42.625 C85.8978833 41.42584961 85.6707666 40.22669922 85.43676758 38.99121094 C85.2333374 37.87262695 85.02990723 36.75404297 84.8203125 35.6015625 C84.54598389 34.12163818 84.54598389 34.12163818 84.26611328 32.61181641 C84.00332224 30.03260674 84.30882448 28.45730881 85 26 C86.65448782 32.47368445 88.30848523 38.94749407 89.9621582 45.42138672 C90.52357144 47.61900602 91.0850927 49.81659773 91.64672852 52.01416016 C92.45878766 55.19165736 93.27044488 58.36925701 94.08203125 61.546875 C94.32903275 62.5130072 94.57603424 63.4791394 94.83052063 64.47454834 C95.31044409 66.35421079 95.78897452 68.23422954 96.26602173 70.11462402 C96.78885852 72.16997197 97.31708968 74.2239509 97.84896851 76.27697754 C98.123992 77.34992065 98.3990155 78.42286377 98.68237305 79.52832031 C98.93448044 80.50391907 99.18658783 81.47951782 99.44633484 82.48468018 C100 85 100 85 100 88 C31.35445704 94.02379151 31.35445704 94.02379151 1.3125 95.875 C0.35175568 95.93611969 -0.60898865 95.99723938 -1.59884644 96.06021118 C-12.22720987 96.72884914 -22.79592542 97.13272101 -33.44743347 96.96969604 C-37.76211668 96.91845298 -41.74769777 97.12591802 -46 98 C-46.69308935 65.61317888 -42.155667 38.97895925 -19.625 14.41015625 C-5.75657895 0 -5.75657895 0 0 0 Z " fill="#EAF4FA" transform="translate(329,210)"/>
<path d="M0 0 C1.98 0 3.96 0 6 0 C8.26814059 14.13947276 9.99076735 28.29739424 11.50579834 42.53579712 C13.52238766 61.4573657 15.69166401 80.33252869 18.52685547 99.15039062 C18.62699951 99.82905685 18.72714355 100.50772308 18.83032227 101.20695496 C19.09317475 102.98234174 19.36428867 104.75650029 19.63623047 106.53051758 C20.06984059 110.66611052 20 114.84173754 20 119 C9.11 119 -1.78 119 -13 119 C-13 92.6 -13 66.2 -13 39 C-8.545 38.505 -8.545 38.505 -4 38 C-2.515 37.505 -2.515 37.505 -1 37 C0.55492975 33.37870175 0.12618839 29.26687572 0.09765625 25.390625 C0.0962413 24.66381531 0.09482635 23.93700562 0.09336853 23.18817139 C0.08778792 20.87540506 0.07523904 18.56273688 0.0625 16.25 C0.05748249 14.67838682 0.05292002 13.10677211 0.04882812 11.53515625 C0.03782485 7.69006657 0.02057361 3.8450499 0 0 Z " fill="#78D6A6" transform="translate(348,365)"/>
<path d="M0 0 C101.64 0 203.28 0 308 0 C308 2.31 308 4.62 308 7 C206.36 7 104.72 7 0 7 C0 4.69 0 2.38 0 0 Z " fill="#315A79" transform="translate(27,404)"/>
<path d="M0 0 C2.64 0.66 5.28 1.32 8 2 C8.06041977 2.75675522 8.12083954 3.51351044 8.18309021 4.29319763 C8.75532275 11.45726966 9.32889744 18.62123242 9.90394497 25.785079 C10.19946957 29.46725712 10.49449194 33.14947399 10.78833008 36.83178711 C11.07240931 40.39156303 11.3578554 43.95122703 11.64421272 47.51082039 C11.80519784 49.51628924 11.96480102 51.52186888 12.12437439 53.52745056 C12.64898085 60.03391757 13.25856594 66.5149682 14 73 C14.10330915 76.01249471 14.04787308 78.98399586 14 82 C2.0107309 83.44301062 -9.9880187 84.76056395 -22 86 C-22.58375114 54.34771608 -14.71926436 28.15859268 0 0 Z " fill="#79D7A7" transform="translate(333,218)"/>
<path d="M0 0 C4.71380141 1.93232426 7.92845411 4.59359601 11 8.625 C12 12 12 12 11.83520508 14.45800781 C11.60289195 19.66005177 12.22759803 23.42485686 15.60693359 27.44091797 C19.1183144 31.19343491 22.89376625 34.66219404 26.6875 38.125 C29.24775926 40.50817066 31.79183302 42.90755346 34.32421875 45.3203125 C34.92800354 45.89386978 35.53178833 46.46742706 36.15386963 47.05836487 C43.29899376 54.00003601 48.67556838 61.94142015 49.14453125 72.14453125 C49.20748791 77.24402088 49.15814219 82.01535602 48 87 C47.34 86.731875 46.68 86.46375 46 86.1875 C42.35060933 84.74294953 38.67754567 83.37128822 35 82 C35.04640625 81.31035156 35.0928125 80.62070312 35.140625 79.91015625 C35.17671875 78.97042969 35.2128125 78.03070313 35.25 77.0625 C35.29640625 76.14597656 35.3428125 75.22945313 35.390625 74.28515625 C34.10423534 63.46661921 26.80151988 57.02332233 19.38232422 49.73046875 C17.48687344 47.86206072 15.61990488 45.96808738 13.75390625 44.0703125 C12.5562895 42.87599558 11.3571249 41.68322833 10.15625 40.4921875 C9.59885132 39.92466766 9.04145264 39.35714783 8.46716309 38.77243042 C6.72838562 37.02823446 6.72838562 37.02823446 4 35 C1.97883063 35.30986525 1.97883063 35.30986525 0 36 C-2.01916119 36.09214964 -4.04124337 36.13000931 -6.0625 36.125 C-7.10535156 36.12757813 -8.14820313 36.13015625 -9.22265625 36.1328125 C-12 36 -12 36 -15 35 C-15 34.34 -15 33.68 -15 33 C-15.5775 32.773125 -16.155 32.54625 -16.75 32.3125 C-20.56083774 30.08951132 -22.61929664 27.14211008 -24 23 C-24.48988853 17.43454509 -24.76814541 12.59319048 -22.3125 7.5 C-15.4426016 0.07308281 -9.98472689 -1.20091217 0 0 Z " fill="#424357" transform="translate(207,215)"/>
<path d="M0 0 C1.79812751 2.69719126 2.44118138 4.15144546 3.18920898 7.18920898 C3.39960312 8.03116318 3.60999725 8.87311737 3.82676697 9.74058533 C4.04764481 10.64990311 4.26852264 11.55922089 4.49609375 12.49609375 C4.73030533 13.4400148 4.96451691 14.38393585 5.20582581 15.35646057 C5.95525028 18.38213778 6.69650586 21.40974836 7.4375 24.4375 C7.9323996 26.44219145 8.42783648 28.44675034 8.92382812 30.45117188 C9.87108241 34.28140496 10.81389977 38.11268678 11.75341797 41.94482422 C12.49406582 44.96051392 13.24362905 47.97326588 14.01611328 50.98095703 C14.42772705 52.58559814 14.42772705 52.58559814 14.84765625 54.22265625 C15.19002319 55.53568726 15.19002319 55.53568726 15.53930664 56.87524414 C16 59 16 59 16 62 C-52.70513664 68.02902098 -52.70513664 68.02902098 -82.8125 69.875 C-84.26642654 69.96667953 -84.26642654 69.96667953 -85.74972534 70.06021118 C-97.84810808 70.81466417 -109.87850723 71.15016302 -122 71 C-122 70.67 -122 70.34 -122 70 C-119.20849551 69.66525856 -116.41681356 69.33214502 -113.625 69 C-112.8309375 68.90460938 -112.036875 68.80921875 -111.21875 68.7109375 C-105.2265625 68 -105.2265625 68 -103 68 C-103 63.71 -103 59.42 -103 55 C-102.67 55 -102.34 55 -102 55 C-102 59.29 -102 63.58 -102 68 C-100.63101562 67.69320312 -99.26203125 67.38640625 -97.8515625 67.0703125 C-91.39724299 65.7794486 -84.933321 65.32099507 -78.375 64.875 C-77.18003906 64.78863281 -75.98507812 64.70226562 -74.75390625 64.61328125 C-71.83629006 64.40321288 -68.91839458 64.19890877 -66 64 C-65.67 63.01 -65.34 62.02 -65 61 C-65 61.66 -65 62.32 -65 63 C-64.29637329 62.93735962 -63.59274658 62.87471924 -62.86779785 62.81018066 C-56.16282282 62.21453706 -49.45727494 61.62575397 -42.75106049 61.04424286 C-39.30522397 60.74521443 -35.8596412 60.44374477 -32.41455078 60.13623047 C-3.12265021 57.52492417 -3.12265021 57.52492417 10 58 C9.81207886 57.03852051 9.81207886 57.03852051 9.62036133 56.05761719 C7.06023968 42.92843096 4.56284322 29.78897106 2.1875 16.625 C1.96876221 15.42584961 1.75002441 14.22669922 1.5246582 12.99121094 C1.22434692 11.31333496 1.22434692 11.31333496 0.91796875 9.6015625 C0.74031982 8.61494629 0.5626709 7.62833008 0.37963867 6.61181641 C0 4 0 4 0 0 Z " fill="#C7DBF8" transform="translate(413,236)"/>
<path d="M0 0 C2.9115281 1.37583975 5.48765528 2.95333027 8.109375 4.8203125 C8.86347656 5.35527344 9.61757812 5.89023438 10.39453125 6.44140625 C11.56048828 7.27478516 11.56048828 7.27478516 12.75 8.125 C13.93916016 8.96998047 13.93916016 8.96998047 15.15234375 9.83203125 C17.10334076 11.21888455 19.05247588 12.60827614 21 14 C19.28564986 17.55225704 17.22257977 20.74021634 15 24 C13.35 23.67 11.7 23.34 10 23 C9.52373169 23.6815918 9.52373169 23.6815918 9.0378418 24.37695312 C7.59791801 26.42535829 6.14301427 28.46264711 4.6875 30.5 C4.18798828 31.21542969 3.68847656 31.93085938 3.17382812 32.66796875 C2.68720703 33.34472656 2.20058594 34.02148438 1.69921875 34.71875 C1.25408936 35.34716797 0.80895996 35.97558594 0.3503418 36.62304688 C-0.095271 37.07744141 -0.54088379 37.53183594 -1 38 C-5.03381023 38 -6.49433637 36.40426438 -9.6875 34 C-10.68136719 33.2575 -11.67523438 32.515 -12.69921875 31.75 C-13.45847656 31.1725 -14.21773437 30.595 -15 30 C-13.20891633 24.75942186 -10.03842713 21.07182885 -6.58203125 16.81640625 C-4.60640523 13.29930412 -5.26904358 11.85553773 -6 8 C-4.78515625 5.6640625 -4.78515625 5.6640625 -3.0625 3.625 C-2.49660156 2.93664062 -1.93070313 2.24828125 -1.34765625 1.5390625 C-0.90292969 1.03117188 -0.45820313 0.52328125 0 0 Z " fill="#434458" transform="translate(234,147)"/>
<path d="M0 0 C0.49400303 5.92803635 -0.55755003 10.08678193 -4 15 C-7.23790269 17.87813572 -9.14261061 18.89087771 -13.4375 19.4375 C-18.95489112 18.75992565 -23.16380341 17.27492142 -26.875 13.0625 C-28.73597793 10.38050239 -29.37992907 9.05417914 -30 6 C-25.56365291 4.9948379 -21.12574342 3.99675269 -16.6875 3 C-15.42486328 2.71382812 -14.16222656 2.42765625 -12.86132812 2.1328125 C-11.65283203 1.86210937 -10.44433594 1.59140625 -9.19921875 1.3125 C-8.08377686 1.06113281 -6.96833496 0.80976563 -5.8190918 0.55078125 C-3 0 -3 0 0 0 Z " fill="#FEFDFD" transform="translate(306,158)"/>
<path d="M0 0 C0.33 0 0.66 0 1 0 C1.27997373 5.40349302 0.4324331 9.7495552 -1.5 14.75 C-1.76844727 15.44738281 -2.03689453 16.14476562 -2.31347656 16.86328125 C-8.24177302 31.51204111 -18.54848754 40.19359705 -32.53125 46.96875 C-35 48 -35 48 -37 48 C-38.19287411 44.12315913 -39 41.08378077 -39 37 C-38.24976563 36.78085938 -37.49953125 36.56171875 -36.7265625 36.3359375 C-21.32376653 31.56378661 -11.28511198 24.00886299 -3.41015625 9.85546875 C-1.78616328 6.56699544 -0.73298131 3.5834642 0 0 Z " fill="#FC9B99" transform="translate(362,155)"/>
<path d="M0 0 C3.83663072 1.34929464 6.65172569 3.07751025 9.8125 5.625 C10.99779297 6.57246094 10.99779297 6.57246094 12.20703125 7.5390625 C12.79871094 8.02117187 13.39039063 8.50328125 14 9 C12.38894908 12.49614658 10.34648416 15.54808183 8.125 18.6875 C7.44695312 19.66074219 6.76890625 20.63398438 6.0703125 21.63671875 C4 24 4 24 2.1015625 25.078125 C-1.27601689 24.95256443 -3.12593373 23.09302747 -5.75 21.0625 C-6.73484375 20.31097656 -7.7196875 19.55945313 -8.734375 18.78515625 C-9.48203125 18.19605469 -10.2296875 17.60695312 -11 17 C-9.52869627 12.6426774 -7.16919385 9.28065866 -4.375 5.6875 C-3.95476562 5.13771484 -3.53453125 4.58792969 -3.1015625 4.02148438 C-2.07279961 2.67707832 -1.0370991 1.33798587 0 0 Z " fill="#DCE0E3" transform="translate(173,238)"/>
<path d="M0 0 C2.9115281 1.37583975 5.48765528 2.95333027 8.109375 4.8203125 C8.86347656 5.35527344 9.61757812 5.89023438 10.39453125 6.44140625 C11.56048828 7.27478516 11.56048828 7.27478516 12.75 8.125 C13.93916016 8.96998047 13.93916016 8.96998047 15.15234375 9.83203125 C17.10334076 11.21888455 19.05247588 12.60827614 21 14 C19.28564986 17.55225704 17.22257977 20.74021634 15 24 C13.35 23.34 11.7 22.68 10 22 C10 21.34 10 20.68 10 20 C9.29875 19.773125 8.5975 19.54625 7.875 19.3125 C4.37636099 17.71529523 1.91760239 15.49211871 -1 13 C-2.64418383 11.96344932 -4.30330285 10.94815429 -6 10 C-4.6302836 6.00499382 -2.74277578 3.19990508 0 0 Z " fill="#E5EBEB" transform="translate(234,147)"/>
<path d="M0 0 C3.97843943 1.3924538 3.97843943 1.3924538 5.5 3.875 C6.05981009 7.54827443 6.20586484 10.71032301 4.25 13.9375 C2.5 14.875 2.5 14.875 0.5 14.75 C-2.49667938 13.43895277 -4.04734188 11.78031624 -5.5 8.875 C-5.94837758 3.60656342 -5.94837758 3.60656342 -4.3125 0.9375 C-2.5 -0.125 -2.5 -0.125 0 0 Z " fill="#4B495C" transform="translate(296.5,117.125)"/>
<path d="M0 0 C3 0.1875 3 0.1875 6 1 C8.30163882 4.45245824 8.34490322 5.94738713 8 10 C6 12 6 12 3.5625 12.375 C1 12 1 12 -0.8125 10.375 C-2.31423956 7.37152087 -2.36064764 5.31795832 -2 2 C-1.34 1.34 -0.68 0.68 0 0 Z " fill="#48475A" transform="translate(262,128)"/>
<path d="M0 0 C1.85955942 2.78933912 2.50927881 4.42579925 3.2890625 7.59765625 C3.61777344 8.92313477 3.61777344 8.92313477 3.953125 10.27539062 C4.17484375 11.19513672 4.3965625 12.11488281 4.625 13.0625 C4.85445313 13.98611328 5.08390625 14.90972656 5.3203125 15.86132812 C7 22.70505487 7 22.70505487 7 25 C6.34 25 5.68 25 5 25 C4.67 25.99 4.34 26.98 4 28 C3.3280098 24.08422732 2.66333258 20.1672478 2 16.25 C1.80921875 15.13882813 1.6184375 14.02765625 1.421875 12.8828125 C1.15117187 11.27792969 1.15117187 11.27792969 0.875 9.640625 C0.70742188 8.65610352 0.53984375 7.67158203 0.3671875 6.65722656 C0 4 0 4 0 0 Z " fill="#D1E1FA" transform="translate(413,236)"/>
</svg>
